%TF.GenerationSoftware,KiCad,Pcbnew,6.0.2+dfsg-1*%
%TF.CreationDate,2024-06-04T13:24:55+01:00*%
%TF.ProjectId,backRow_Pad,6261636b-526f-4775-9f50-61642e6b6963,0*%
%TF.SameCoordinates,Original*%
%TF.FileFunction,Legend,Top*%
%TF.FilePolarity,Positive*%
%FSLAX46Y46*%
G04 Gerber Fmt 4.6, Leading zero omitted, Abs format (unit mm)*
G04 Created by KiCad (PCBNEW 6.0.2+dfsg-1) date 2024-06-04 13:24:55*
%MOMM*%
%LPD*%
G01*
G04 APERTURE LIST*
%ADD10C,0.150000*%
%ADD11C,0.300000*%
%ADD12C,0.381000*%
%ADD13R,1.752600X1.752600*%
%ADD14C,1.752600*%
G04 APERTURE END LIST*
D10*
X247528005Y-67238571D02*
X247474434Y-67286190D01*
X247373244Y-67333809D01*
X247194672Y-67238571D01*
X247093482Y-67286190D01*
X247039910Y-67333809D01*
X245974434Y-67857619D02*
X245403005Y-67857619D01*
X245813720Y-66857619D02*
X245688720Y-67857619D01*
X245194672Y-66857619D02*
X245069672Y-67857619D01*
X244766101Y-66857619D02*
X244700625Y-67381428D01*
X244736339Y-67476666D01*
X244825625Y-67524285D01*
X244968482Y-67524285D01*
X245069672Y-67476666D01*
X245123244Y-67429047D01*
X243903005Y-66905238D02*
X244004196Y-66857619D01*
X244194672Y-66857619D01*
X244283958Y-66905238D01*
X244319672Y-67000476D01*
X244272053Y-67381428D01*
X244212529Y-67476666D01*
X244111339Y-67524285D01*
X243920863Y-67524285D01*
X243831577Y-67476666D01*
X243795863Y-67381428D01*
X243807767Y-67286190D01*
X244295863Y-67190952D01*
X242670863Y-66857619D02*
X242545863Y-67857619D01*
X242307767Y-67857619D01*
X242170863Y-67810000D01*
X242087529Y-67714761D01*
X242051815Y-67619523D01*
X242028005Y-67429047D01*
X242045863Y-67286190D01*
X242117291Y-67095714D01*
X242176815Y-67000476D01*
X242283958Y-66905238D01*
X242432767Y-66857619D01*
X242670863Y-66857619D01*
X241283958Y-66905238D02*
X241385148Y-66857619D01*
X241575625Y-66857619D01*
X241664910Y-66905238D01*
X241700625Y-67000476D01*
X241653005Y-67381428D01*
X241593482Y-67476666D01*
X241492291Y-67524285D01*
X241301815Y-67524285D01*
X241212529Y-67476666D01*
X241176815Y-67381428D01*
X241188720Y-67286190D01*
X241676815Y-67190952D01*
X240825625Y-67524285D02*
X240670863Y-66857619D01*
X240349434Y-67524285D01*
X240051815Y-66857619D02*
X239968482Y-67524285D01*
X239926815Y-67857619D02*
X239980386Y-67810000D01*
X239938720Y-67762380D01*
X239885148Y-67810000D01*
X239926815Y-67857619D01*
X239938720Y-67762380D01*
X239432767Y-66857619D02*
X239522053Y-66905238D01*
X239557767Y-67000476D01*
X239450625Y-67857619D01*
X238879196Y-67857619D02*
X238998244Y-67667142D01*
X238617291Y-66905238D02*
X238528005Y-66857619D01*
X238337529Y-66857619D01*
X238236339Y-66905238D01*
X238176815Y-67000476D01*
X238170863Y-67048095D01*
X238206577Y-67143333D01*
X238295863Y-67190952D01*
X238438720Y-67190952D01*
X238528005Y-67238571D01*
X238563720Y-67333809D01*
X238557767Y-67381428D01*
X238498244Y-67476666D01*
X238397053Y-67524285D01*
X238254196Y-67524285D01*
X238164910Y-67476666D01*
X236974434Y-67857619D02*
X236861339Y-66857619D01*
X236581577Y-67571904D01*
X236480386Y-66857619D01*
X236117291Y-67857619D01*
X235718482Y-66857619D02*
X235807767Y-66905238D01*
X235849434Y-66952857D01*
X235885148Y-67048095D01*
X235849434Y-67333809D01*
X235789910Y-67429047D01*
X235736339Y-67476666D01*
X235635148Y-67524285D01*
X235492291Y-67524285D01*
X235403005Y-67476666D01*
X235361339Y-67429047D01*
X235325625Y-67333809D01*
X235361339Y-67048095D01*
X235420863Y-66952857D01*
X235474434Y-66905238D01*
X235575625Y-66857619D01*
X235718482Y-66857619D01*
X234956577Y-66857619D02*
X234873244Y-67524285D01*
X234897053Y-67333809D02*
X234837529Y-67429047D01*
X234783958Y-67476666D01*
X234682767Y-67524285D01*
X234587529Y-67524285D01*
X234337529Y-66857619D02*
X234212529Y-67857619D01*
X234194672Y-67238571D02*
X233956577Y-66857619D01*
X233873244Y-67524285D02*
X234301815Y-67143333D01*
X233569672Y-66905238D02*
X233480386Y-66857619D01*
X233289910Y-66857619D01*
X233188720Y-66905238D01*
X233129196Y-67000476D01*
X233123244Y-67048095D01*
X233158958Y-67143333D01*
X233248244Y-67190952D01*
X233391101Y-67190952D01*
X233480386Y-67238571D01*
X233516101Y-67333809D01*
X233510148Y-67381428D01*
X233450625Y-67476666D01*
X233349434Y-67524285D01*
X233206577Y-67524285D01*
X233117291Y-67476666D01*
X232718482Y-66857619D02*
X232593482Y-67857619D01*
X232289910Y-66857619D02*
X232224434Y-67381428D01*
X232260148Y-67476666D01*
X232349434Y-67524285D01*
X232492291Y-67524285D01*
X232593482Y-67476666D01*
X232647053Y-67429047D01*
X231670863Y-66857619D02*
X231760148Y-66905238D01*
X231801815Y-66952857D01*
X231837529Y-67048095D01*
X231801815Y-67333809D01*
X231742291Y-67429047D01*
X231688720Y-67476666D01*
X231587529Y-67524285D01*
X231444672Y-67524285D01*
X231355386Y-67476666D01*
X231313720Y-67429047D01*
X231278005Y-67333809D01*
X231313720Y-67048095D01*
X231373244Y-66952857D01*
X231426815Y-66905238D01*
X231528005Y-66857619D01*
X231670863Y-66857619D01*
X230825625Y-67524285D02*
X230950625Y-66524285D01*
X230831577Y-67476666D02*
X230730386Y-67524285D01*
X230539910Y-67524285D01*
X230450625Y-67476666D01*
X230408958Y-67429047D01*
X230373244Y-67333809D01*
X230408958Y-67048095D01*
X230468482Y-66952857D01*
X230522053Y-66905238D01*
X230623244Y-66857619D01*
X230813720Y-66857619D01*
X230903005Y-66905238D01*
X229950625Y-66905238D02*
X229956577Y-66857619D01*
X230016101Y-66762380D01*
X230069672Y-66714761D01*
X228700625Y-67762380D02*
X228647053Y-67810000D01*
X228545863Y-67857619D01*
X228307767Y-67857619D01*
X228218482Y-67810000D01*
X228176815Y-67762380D01*
X228141101Y-67667142D01*
X228153005Y-67571904D01*
X228218482Y-67429047D01*
X228861339Y-66857619D01*
X228242291Y-66857619D01*
X227498244Y-67857619D02*
X227403005Y-67857619D01*
X227313720Y-67810000D01*
X227272053Y-67762380D01*
X227236339Y-67667142D01*
X227212529Y-67476666D01*
X227242291Y-67238571D01*
X227313720Y-67048095D01*
X227373244Y-66952857D01*
X227426815Y-66905238D01*
X227528005Y-66857619D01*
X227623244Y-66857619D01*
X227712529Y-66905238D01*
X227754196Y-66952857D01*
X227789910Y-67048095D01*
X227813720Y-67238571D01*
X227783958Y-67476666D01*
X227712529Y-67667142D01*
X227653005Y-67762380D01*
X227599434Y-67810000D01*
X227498244Y-67857619D01*
X226795863Y-67762380D02*
X226742291Y-67810000D01*
X226641101Y-67857619D01*
X226403005Y-67857619D01*
X226313720Y-67810000D01*
X226272053Y-67762380D01*
X226236339Y-67667142D01*
X226248244Y-67571904D01*
X226313720Y-67429047D01*
X226956577Y-66857619D01*
X226337529Y-66857619D01*
X225879196Y-67857619D02*
X225260148Y-67857619D01*
X225641101Y-67476666D01*
X225498244Y-67476666D01*
X225408958Y-67429047D01*
X225367291Y-67381428D01*
X225331577Y-67286190D01*
X225361339Y-67048095D01*
X225420863Y-66952857D01*
X225474434Y-66905238D01*
X225575625Y-66857619D01*
X225861339Y-66857619D01*
X225950625Y-66905238D01*
X225992291Y-66952857D01*
X224289910Y-67238571D02*
X224236339Y-67286190D01*
X224135148Y-67333809D01*
X223956577Y-67238571D01*
X223855386Y-67286190D01*
X223801815Y-67333809D01*
X47830952Y-67762380D02*
X47354761Y-67762380D01*
X47354761Y-66762380D01*
X48164285Y-67238571D02*
X48497619Y-67238571D01*
X48640476Y-67762380D02*
X48164285Y-67762380D01*
X48164285Y-66762380D01*
X48640476Y-66762380D01*
X49069047Y-67762380D02*
X49069047Y-66762380D01*
X49307142Y-66762380D01*
X49450000Y-66810000D01*
X49545238Y-66905238D01*
X49592857Y-67000476D01*
X49640476Y-67190952D01*
X49640476Y-67333809D01*
X49592857Y-67524285D01*
X49545238Y-67619523D01*
X49450000Y-67714761D01*
X49307142Y-67762380D01*
X49069047Y-67762380D01*
X50830952Y-67762380D02*
X50830952Y-66762380D01*
X50830952Y-67238571D02*
X51402380Y-67238571D01*
X51402380Y-67762380D02*
X51402380Y-66762380D01*
X52259523Y-67714761D02*
X52164285Y-67762380D01*
X51973809Y-67762380D01*
X51878571Y-67714761D01*
X51830952Y-67619523D01*
X51830952Y-67238571D01*
X51878571Y-67143333D01*
X51973809Y-67095714D01*
X52164285Y-67095714D01*
X52259523Y-67143333D01*
X52307142Y-67238571D01*
X52307142Y-67333809D01*
X51830952Y-67429047D01*
X53164285Y-67762380D02*
X53164285Y-67238571D01*
X53116666Y-67143333D01*
X53021428Y-67095714D01*
X52830952Y-67095714D01*
X52735714Y-67143333D01*
X53164285Y-67714761D02*
X53069047Y-67762380D01*
X52830952Y-67762380D01*
X52735714Y-67714761D01*
X52688095Y-67619523D01*
X52688095Y-67524285D01*
X52735714Y-67429047D01*
X52830952Y-67381428D01*
X53069047Y-67381428D01*
X53164285Y-67333809D01*
X54069047Y-67762380D02*
X54069047Y-66762380D01*
X54069047Y-67714761D02*
X53973809Y-67762380D01*
X53783333Y-67762380D01*
X53688095Y-67714761D01*
X53640476Y-67667142D01*
X53592857Y-67571904D01*
X53592857Y-67286190D01*
X53640476Y-67190952D01*
X53688095Y-67143333D01*
X53783333Y-67095714D01*
X53973809Y-67095714D01*
X54069047Y-67143333D01*
X54926190Y-67714761D02*
X54830952Y-67762380D01*
X54640476Y-67762380D01*
X54545238Y-67714761D01*
X54497619Y-67619523D01*
X54497619Y-67238571D01*
X54545238Y-67143333D01*
X54640476Y-67095714D01*
X54830952Y-67095714D01*
X54926190Y-67143333D01*
X54973809Y-67238571D01*
X54973809Y-67333809D01*
X54497619Y-67429047D01*
X55402380Y-67762380D02*
X55402380Y-67095714D01*
X55402380Y-67286190D02*
X55450000Y-67190952D01*
X55497619Y-67143333D01*
X55592857Y-67095714D01*
X55688095Y-67095714D01*
D11*
X276920952Y-67452857D02*
X276635238Y-67357619D01*
X276540000Y-67262380D01*
X276444761Y-67071904D01*
X276444761Y-66786190D01*
X276540000Y-66595714D01*
X276635238Y-66500476D01*
X276825714Y-66405238D01*
X277587619Y-66405238D01*
X277587619Y-68405238D01*
X276920952Y-68405238D01*
X276730476Y-68310000D01*
X276635238Y-68214761D01*
X276540000Y-68024285D01*
X276540000Y-67833809D01*
X276635238Y-67643333D01*
X276730476Y-67548095D01*
X276920952Y-67452857D01*
X277587619Y-67452857D01*
X274730476Y-66405238D02*
X274730476Y-67452857D01*
X274825714Y-67643333D01*
X275016190Y-67738571D01*
X275397142Y-67738571D01*
X275587619Y-67643333D01*
X274730476Y-66500476D02*
X274920952Y-66405238D01*
X275397142Y-66405238D01*
X275587619Y-66500476D01*
X275682857Y-66690952D01*
X275682857Y-66881428D01*
X275587619Y-67071904D01*
X275397142Y-67167142D01*
X274920952Y-67167142D01*
X274730476Y-67262380D01*
X272920952Y-66500476D02*
X273111428Y-66405238D01*
X273492380Y-66405238D01*
X273682857Y-66500476D01*
X273778095Y-66595714D01*
X273873333Y-66786190D01*
X273873333Y-67357619D01*
X273778095Y-67548095D01*
X273682857Y-67643333D01*
X273492380Y-67738571D01*
X273111428Y-67738571D01*
X272920952Y-67643333D01*
X272063809Y-66405238D02*
X272063809Y-68405238D01*
X271873333Y-67167142D02*
X271301904Y-66405238D01*
X271301904Y-67738571D02*
X272063809Y-66976666D01*
X269301904Y-66405238D02*
X269968571Y-67357619D01*
X270444761Y-66405238D02*
X270444761Y-68405238D01*
X269682857Y-68405238D01*
X269492380Y-68310000D01*
X269397142Y-68214761D01*
X269301904Y-68024285D01*
X269301904Y-67738571D01*
X269397142Y-67548095D01*
X269492380Y-67452857D01*
X269682857Y-67357619D01*
X270444761Y-67357619D01*
X268159047Y-66405238D02*
X268349523Y-66500476D01*
X268444761Y-66595714D01*
X268540000Y-66786190D01*
X268540000Y-67357619D01*
X268444761Y-67548095D01*
X268349523Y-67643333D01*
X268159047Y-67738571D01*
X267873333Y-67738571D01*
X267682857Y-67643333D01*
X267587619Y-67548095D01*
X267492380Y-67357619D01*
X267492380Y-66786190D01*
X267587619Y-66595714D01*
X267682857Y-66500476D01*
X267873333Y-66405238D01*
X268159047Y-66405238D01*
X266825714Y-67738571D02*
X266444761Y-66405238D01*
X266063809Y-67357619D01*
X265682857Y-66405238D01*
X265301904Y-67738571D01*
X264540000Y-66405238D02*
X264540000Y-68405238D01*
X263778095Y-68405238D01*
X263587619Y-68310000D01*
X263492380Y-68214761D01*
X263397142Y-68024285D01*
X263397142Y-67738571D01*
X263492380Y-67548095D01*
X263587619Y-67452857D01*
X263778095Y-67357619D01*
X264540000Y-67357619D01*
X261682857Y-66405238D02*
X261682857Y-67452857D01*
X261778095Y-67643333D01*
X261968571Y-67738571D01*
X262349523Y-67738571D01*
X262540000Y-67643333D01*
X261682857Y-66500476D02*
X261873333Y-66405238D01*
X262349523Y-66405238D01*
X262540000Y-66500476D01*
X262635238Y-66690952D01*
X262635238Y-66881428D01*
X262540000Y-67071904D01*
X262349523Y-67167142D01*
X261873333Y-67167142D01*
X261682857Y-67262380D01*
X259873333Y-66405238D02*
X259873333Y-68405238D01*
X259873333Y-66500476D02*
X260063809Y-66405238D01*
X260444761Y-66405238D01*
X260635238Y-66500476D01*
X260730476Y-66595714D01*
X260825714Y-66786190D01*
X260825714Y-67357619D01*
X260730476Y-67548095D01*
X260635238Y-67643333D01*
X260444761Y-67738571D01*
X260063809Y-67738571D01*
X259873333Y-67643333D01*
X257397142Y-66405238D02*
X257397142Y-67738571D01*
X257397142Y-67357619D02*
X257301904Y-67548095D01*
X257206666Y-67643333D01*
X257016190Y-67738571D01*
X256825714Y-67738571D01*
X255397142Y-66500476D02*
X255587619Y-66405238D01*
X255968571Y-66405238D01*
X256159047Y-66500476D01*
X256254285Y-66690952D01*
X256254285Y-67452857D01*
X256159047Y-67643333D01*
X255968571Y-67738571D01*
X255587619Y-67738571D01*
X255397142Y-67643333D01*
X255301904Y-67452857D01*
X255301904Y-67262380D01*
X256254285Y-67071904D01*
X254635238Y-67738571D02*
X254159047Y-66405238D01*
X253682857Y-67738571D01*
X252920952Y-66595714D02*
X252825714Y-66500476D01*
X252920952Y-66405238D01*
X253016190Y-66500476D01*
X252920952Y-66595714D01*
X252920952Y-66405238D01*
X250063809Y-68405238D02*
X249873333Y-68405238D01*
X249682857Y-68310000D01*
X249587619Y-68214761D01*
X249492380Y-68024285D01*
X249397142Y-67643333D01*
X249397142Y-67167142D01*
X249492380Y-66786190D01*
X249587619Y-66595714D01*
X249682857Y-66500476D01*
X249873333Y-66405238D01*
X250063809Y-66405238D01*
X250254285Y-66500476D01*
X250349523Y-66595714D01*
X250444761Y-66786190D01*
X250540000Y-67167142D01*
X250540000Y-67643333D01*
X250444761Y-68024285D01*
X250349523Y-68214761D01*
X250254285Y-68310000D01*
X250063809Y-68405238D01*
D10*
X29968095Y-67671904D02*
X29701428Y-67290952D01*
X29510952Y-67671904D02*
X29510952Y-66871904D01*
X29815714Y-66871904D01*
X29891904Y-66910000D01*
X29930000Y-66948095D01*
X29968095Y-67024285D01*
X29968095Y-67138571D01*
X29930000Y-67214761D01*
X29891904Y-67252857D01*
X29815714Y-67290952D01*
X29510952Y-67290952D01*
X30310952Y-67252857D02*
X30577619Y-67252857D01*
X30691904Y-67671904D02*
X30310952Y-67671904D01*
X30310952Y-66871904D01*
X30691904Y-66871904D01*
X30996666Y-67633809D02*
X31110952Y-67671904D01*
X31301428Y-67671904D01*
X31377619Y-67633809D01*
X31415714Y-67595714D01*
X31453809Y-67519523D01*
X31453809Y-67443333D01*
X31415714Y-67367142D01*
X31377619Y-67329047D01*
X31301428Y-67290952D01*
X31149047Y-67252857D01*
X31072857Y-67214761D01*
X31034761Y-67176666D01*
X30996666Y-67100476D01*
X30996666Y-67024285D01*
X31034761Y-66948095D01*
X31072857Y-66910000D01*
X31149047Y-66871904D01*
X31339523Y-66871904D01*
X31453809Y-66910000D01*
X31796666Y-67252857D02*
X32063333Y-67252857D01*
X32177619Y-67671904D02*
X31796666Y-67671904D01*
X31796666Y-66871904D01*
X32177619Y-66871904D01*
X32406190Y-66871904D02*
X32863333Y-66871904D01*
X32634761Y-67671904D02*
X32634761Y-66871904D01*
X283137619Y-75390952D02*
X282423333Y-75390952D01*
X282280476Y-75343333D01*
X282185238Y-75248095D01*
X282137619Y-75105238D01*
X282137619Y-75010000D01*
X282137619Y-76343333D02*
X282137619Y-75867142D01*
X283137619Y-75867142D01*
X282232857Y-77248095D02*
X282185238Y-77200476D01*
X282137619Y-77057619D01*
X282137619Y-76962380D01*
X282185238Y-76819523D01*
X282280476Y-76724285D01*
X282375714Y-76676666D01*
X282566190Y-76629047D01*
X282709047Y-76629047D01*
X282899523Y-76676666D01*
X282994761Y-76724285D01*
X283090000Y-76819523D01*
X283137619Y-76962380D01*
X283137619Y-77057619D01*
X283090000Y-77200476D01*
X283042380Y-77248095D01*
X283137619Y-77962380D02*
X282423333Y-77962380D01*
X282280476Y-77914761D01*
X282185238Y-77819523D01*
X282137619Y-77676666D01*
X282137619Y-77581428D01*
X282137619Y-78914761D02*
X282137619Y-78438571D01*
X283137619Y-78438571D01*
X282232857Y-79819523D02*
X282185238Y-79771904D01*
X282137619Y-79629047D01*
X282137619Y-79533809D01*
X282185238Y-79390952D01*
X282280476Y-79295714D01*
X282375714Y-79248095D01*
X282566190Y-79200476D01*
X282709047Y-79200476D01*
X282899523Y-79248095D01*
X282994761Y-79295714D01*
X283090000Y-79390952D01*
X283137619Y-79533809D01*
X283137619Y-79629047D01*
X283090000Y-79771904D01*
X283042380Y-79819523D01*
X283137619Y-80533809D02*
X282423333Y-80533809D01*
X282280476Y-80486190D01*
X282185238Y-80390952D01*
X282137619Y-80248095D01*
X282137619Y-80152857D01*
X282137619Y-81486190D02*
X282137619Y-81010000D01*
X283137619Y-81010000D01*
X282232857Y-82390952D02*
X282185238Y-82343333D01*
X282137619Y-82200476D01*
X282137619Y-82105238D01*
X282185238Y-81962380D01*
X282280476Y-81867142D01*
X282375714Y-81819523D01*
X282566190Y-81771904D01*
X282709047Y-81771904D01*
X282899523Y-81819523D01*
X282994761Y-81867142D01*
X283090000Y-81962380D01*
X283137619Y-82105238D01*
X283137619Y-82200476D01*
X283090000Y-82343333D01*
X283042380Y-82390952D01*
X283137619Y-83105238D02*
X282423333Y-83105238D01*
X282280476Y-83057619D01*
X282185238Y-82962380D01*
X282137619Y-82819523D01*
X282137619Y-82724285D01*
X282137619Y-84057619D02*
X282137619Y-83581428D01*
X283137619Y-83581428D01*
X282232857Y-84962380D02*
X282185238Y-84914761D01*
X282137619Y-84771904D01*
X282137619Y-84676666D01*
X282185238Y-84533809D01*
X282280476Y-84438571D01*
X282375714Y-84390952D01*
X282566190Y-84343333D01*
X282709047Y-84343333D01*
X282899523Y-84390952D01*
X282994761Y-84438571D01*
X283090000Y-84533809D01*
X283137619Y-84676666D01*
X283137619Y-84771904D01*
X283090000Y-84914761D01*
X283042380Y-84962380D01*
D11*
X26639047Y-92567142D02*
X26924761Y-92662380D01*
X27020000Y-92757619D01*
X27115238Y-92948095D01*
X27115238Y-93233809D01*
X27020000Y-93424285D01*
X26924761Y-93519523D01*
X26734285Y-93614761D01*
X25972380Y-93614761D01*
X25972380Y-91614761D01*
X26639047Y-91614761D01*
X26829523Y-91710000D01*
X26924761Y-91805238D01*
X27020000Y-91995714D01*
X27020000Y-92186190D01*
X26924761Y-92376666D01*
X26829523Y-92471904D01*
X26639047Y-92567142D01*
X25972380Y-92567142D01*
X28829523Y-93614761D02*
X28829523Y-92567142D01*
X28734285Y-92376666D01*
X28543809Y-92281428D01*
X28162857Y-92281428D01*
X27972380Y-92376666D01*
X28829523Y-93519523D02*
X28639047Y-93614761D01*
X28162857Y-93614761D01*
X27972380Y-93519523D01*
X27877142Y-93329047D01*
X27877142Y-93138571D01*
X27972380Y-92948095D01*
X28162857Y-92852857D01*
X28639047Y-92852857D01*
X28829523Y-92757619D01*
X30639047Y-93519523D02*
X30448571Y-93614761D01*
X30067619Y-93614761D01*
X29877142Y-93519523D01*
X29781904Y-93424285D01*
X29686666Y-93233809D01*
X29686666Y-92662380D01*
X29781904Y-92471904D01*
X29877142Y-92376666D01*
X30067619Y-92281428D01*
X30448571Y-92281428D01*
X30639047Y-92376666D01*
X31496190Y-93614761D02*
X31496190Y-91614761D01*
X31686666Y-92852857D02*
X32258095Y-93614761D01*
X32258095Y-92281428D02*
X31496190Y-93043333D01*
X34258095Y-93614761D02*
X33591428Y-92662380D01*
X33115238Y-93614761D02*
X33115238Y-91614761D01*
X33877142Y-91614761D01*
X34067619Y-91710000D01*
X34162857Y-91805238D01*
X34258095Y-91995714D01*
X34258095Y-92281428D01*
X34162857Y-92471904D01*
X34067619Y-92567142D01*
X33877142Y-92662380D01*
X33115238Y-92662380D01*
X35400952Y-93614761D02*
X35210476Y-93519523D01*
X35115238Y-93424285D01*
X35020000Y-93233809D01*
X35020000Y-92662380D01*
X35115238Y-92471904D01*
X35210476Y-92376666D01*
X35400952Y-92281428D01*
X35686666Y-92281428D01*
X35877142Y-92376666D01*
X35972380Y-92471904D01*
X36067619Y-92662380D01*
X36067619Y-93233809D01*
X35972380Y-93424285D01*
X35877142Y-93519523D01*
X35686666Y-93614761D01*
X35400952Y-93614761D01*
X36734285Y-92281428D02*
X37115238Y-93614761D01*
X37496190Y-92662380D01*
X37877142Y-93614761D01*
X38258095Y-92281428D01*
X39020000Y-93614761D02*
X39020000Y-91614761D01*
X39781904Y-91614761D01*
X39972380Y-91710000D01*
X40067619Y-91805238D01*
X40162857Y-91995714D01*
X40162857Y-92281428D01*
X40067619Y-92471904D01*
X39972380Y-92567142D01*
X39781904Y-92662380D01*
X39020000Y-92662380D01*
X41877142Y-93614761D02*
X41877142Y-92567142D01*
X41781904Y-92376666D01*
X41591428Y-92281428D01*
X41210476Y-92281428D01*
X41020000Y-92376666D01*
X41877142Y-93519523D02*
X41686666Y-93614761D01*
X41210476Y-93614761D01*
X41020000Y-93519523D01*
X40924761Y-93329047D01*
X40924761Y-93138571D01*
X41020000Y-92948095D01*
X41210476Y-92852857D01*
X41686666Y-92852857D01*
X41877142Y-92757619D01*
X43686666Y-93614761D02*
X43686666Y-91614761D01*
X43686666Y-93519523D02*
X43496190Y-93614761D01*
X43115238Y-93614761D01*
X42924761Y-93519523D01*
X42829523Y-93424285D01*
X42734285Y-93233809D01*
X42734285Y-92662380D01*
X42829523Y-92471904D01*
X42924761Y-92376666D01*
X43115238Y-92281428D01*
X43496190Y-92281428D01*
X43686666Y-92376666D01*
X46162857Y-93614761D02*
X46162857Y-92281428D01*
X46162857Y-92662380D02*
X46258095Y-92471904D01*
X46353333Y-92376666D01*
X46543809Y-92281428D01*
X46734285Y-92281428D01*
X48162857Y-93519523D02*
X47972380Y-93614761D01*
X47591428Y-93614761D01*
X47400952Y-93519523D01*
X47305714Y-93329047D01*
X47305714Y-92567142D01*
X47400952Y-92376666D01*
X47591428Y-92281428D01*
X47972380Y-92281428D01*
X48162857Y-92376666D01*
X48258095Y-92567142D01*
X48258095Y-92757619D01*
X47305714Y-92948095D01*
X48924761Y-92281428D02*
X49400952Y-93614761D01*
X49877142Y-92281428D01*
X50639047Y-93424285D02*
X50734285Y-93519523D01*
X50639047Y-93614761D01*
X50543809Y-93519523D01*
X50639047Y-93424285D01*
X50639047Y-93614761D01*
X53496190Y-91614761D02*
X53686666Y-91614761D01*
X53877142Y-91710000D01*
X53972380Y-91805238D01*
X54067619Y-91995714D01*
X54162857Y-92376666D01*
X54162857Y-92852857D01*
X54067619Y-93233809D01*
X53972380Y-93424285D01*
X53877142Y-93519523D01*
X53686666Y-93614761D01*
X53496190Y-93614761D01*
X53305714Y-93519523D01*
X53210476Y-93424285D01*
X53115238Y-93233809D01*
X53019999Y-92852857D01*
X53019999Y-92376666D01*
X53115238Y-91995714D01*
X53210476Y-91805238D01*
X53305714Y-91710000D01*
X53496190Y-91614761D01*
D10*
X56031994Y-92781428D02*
X56085565Y-92733809D01*
X56186755Y-92686190D01*
X56365327Y-92781428D01*
X56466517Y-92733809D01*
X56520089Y-92686190D01*
X57585565Y-92162380D02*
X58156994Y-92162380D01*
X57746279Y-93162380D02*
X57871279Y-92162380D01*
X58365327Y-93162380D02*
X58490327Y-92162380D01*
X58793898Y-93162380D02*
X58859375Y-92638571D01*
X58823660Y-92543333D01*
X58734375Y-92495714D01*
X58591517Y-92495714D01*
X58490327Y-92543333D01*
X58436755Y-92590952D01*
X59656994Y-93114761D02*
X59555803Y-93162380D01*
X59365327Y-93162380D01*
X59276041Y-93114761D01*
X59240327Y-93019523D01*
X59287946Y-92638571D01*
X59347470Y-92543333D01*
X59448660Y-92495714D01*
X59639136Y-92495714D01*
X59728422Y-92543333D01*
X59764136Y-92638571D01*
X59752232Y-92733809D01*
X59264136Y-92829047D01*
X60889136Y-93162380D02*
X61014136Y-92162380D01*
X61252232Y-92162380D01*
X61389136Y-92210000D01*
X61472470Y-92305238D01*
X61508184Y-92400476D01*
X61531994Y-92590952D01*
X61514136Y-92733809D01*
X61442708Y-92924285D01*
X61383184Y-93019523D01*
X61276041Y-93114761D01*
X61127232Y-93162380D01*
X60889136Y-93162380D01*
X62276041Y-93114761D02*
X62174851Y-93162380D01*
X61984375Y-93162380D01*
X61895089Y-93114761D01*
X61859375Y-93019523D01*
X61906994Y-92638571D01*
X61966517Y-92543333D01*
X62067708Y-92495714D01*
X62258184Y-92495714D01*
X62347470Y-92543333D01*
X62383184Y-92638571D01*
X62371279Y-92733809D01*
X61883184Y-92829047D01*
X62734375Y-92495714D02*
X62889136Y-93162380D01*
X63210565Y-92495714D01*
X63508184Y-93162380D02*
X63591517Y-92495714D01*
X63633184Y-92162380D02*
X63579613Y-92210000D01*
X63621279Y-92257619D01*
X63674851Y-92210000D01*
X63633184Y-92162380D01*
X63621279Y-92257619D01*
X64127232Y-93162380D02*
X64037946Y-93114761D01*
X64002232Y-93019523D01*
X64109375Y-92162380D01*
X64680803Y-92162380D02*
X64561755Y-92352857D01*
X64942708Y-93114761D02*
X65031994Y-93162380D01*
X65222470Y-93162380D01*
X65323660Y-93114761D01*
X65383184Y-93019523D01*
X65389136Y-92971904D01*
X65353422Y-92876666D01*
X65264136Y-92829047D01*
X65121279Y-92829047D01*
X65031994Y-92781428D01*
X64996279Y-92686190D01*
X65002232Y-92638571D01*
X65061755Y-92543333D01*
X65162946Y-92495714D01*
X65305803Y-92495714D01*
X65395089Y-92543333D01*
X66585565Y-92162380D02*
X66698660Y-93162380D01*
X66978422Y-92448095D01*
X67079613Y-93162380D01*
X67442708Y-92162380D01*
X67841517Y-93162380D02*
X67752232Y-93114761D01*
X67710565Y-93067142D01*
X67674851Y-92971904D01*
X67710565Y-92686190D01*
X67770089Y-92590952D01*
X67823660Y-92543333D01*
X67924851Y-92495714D01*
X68067708Y-92495714D01*
X68156994Y-92543333D01*
X68198660Y-92590952D01*
X68234375Y-92686190D01*
X68198660Y-92971904D01*
X68139136Y-93067142D01*
X68085565Y-93114761D01*
X67984375Y-93162380D01*
X67841517Y-93162380D01*
X68603422Y-93162380D02*
X68686755Y-92495714D01*
X68662946Y-92686190D02*
X68722470Y-92590952D01*
X68776041Y-92543333D01*
X68877232Y-92495714D01*
X68972470Y-92495714D01*
X69222470Y-93162380D02*
X69347470Y-92162380D01*
X69365327Y-92781428D02*
X69603422Y-93162380D01*
X69686755Y-92495714D02*
X69258184Y-92876666D01*
X69990327Y-93114761D02*
X70079613Y-93162380D01*
X70270089Y-93162380D01*
X70371279Y-93114761D01*
X70430803Y-93019523D01*
X70436755Y-92971904D01*
X70401041Y-92876666D01*
X70311755Y-92829047D01*
X70168898Y-92829047D01*
X70079613Y-92781428D01*
X70043898Y-92686190D01*
X70049851Y-92638571D01*
X70109375Y-92543333D01*
X70210565Y-92495714D01*
X70353422Y-92495714D01*
X70442708Y-92543333D01*
X70841517Y-93162380D02*
X70966517Y-92162380D01*
X71270089Y-93162380D02*
X71335565Y-92638571D01*
X71299851Y-92543333D01*
X71210565Y-92495714D01*
X71067708Y-92495714D01*
X70966517Y-92543333D01*
X70912946Y-92590952D01*
X71889136Y-93162380D02*
X71799851Y-93114761D01*
X71758184Y-93067142D01*
X71722470Y-92971904D01*
X71758184Y-92686190D01*
X71817708Y-92590952D01*
X71871279Y-92543333D01*
X71972470Y-92495714D01*
X72115327Y-92495714D01*
X72204613Y-92543333D01*
X72246279Y-92590952D01*
X72281994Y-92686190D01*
X72246279Y-92971904D01*
X72186755Y-93067142D01*
X72133184Y-93114761D01*
X72031994Y-93162380D01*
X71889136Y-93162380D01*
X72734375Y-92495714D02*
X72609375Y-93495714D01*
X72728422Y-92543333D02*
X72829613Y-92495714D01*
X73020089Y-92495714D01*
X73109375Y-92543333D01*
X73151041Y-92590952D01*
X73186755Y-92686190D01*
X73151041Y-92971904D01*
X73091517Y-93067142D01*
X73037946Y-93114761D01*
X72936755Y-93162380D01*
X72746279Y-93162380D01*
X72656994Y-93114761D01*
X73609375Y-93114761D02*
X73603422Y-93162380D01*
X73543898Y-93257619D01*
X73490327Y-93305238D01*
X74859375Y-92257619D02*
X74912946Y-92210000D01*
X75014136Y-92162380D01*
X75252232Y-92162380D01*
X75341517Y-92210000D01*
X75383184Y-92257619D01*
X75418898Y-92352857D01*
X75406994Y-92448095D01*
X75341517Y-92590952D01*
X74698660Y-93162380D01*
X75317708Y-93162380D01*
X76061755Y-92162380D02*
X76156994Y-92162380D01*
X76246279Y-92210000D01*
X76287946Y-92257619D01*
X76323660Y-92352857D01*
X76347470Y-92543333D01*
X76317708Y-92781428D01*
X76246279Y-92971904D01*
X76186755Y-93067142D01*
X76133184Y-93114761D01*
X76031994Y-93162380D01*
X75936755Y-93162380D01*
X75847470Y-93114761D01*
X75805803Y-93067142D01*
X75770089Y-92971904D01*
X75746279Y-92781428D01*
X75776041Y-92543333D01*
X75847470Y-92352857D01*
X75906994Y-92257619D01*
X75960565Y-92210000D01*
X76061755Y-92162380D01*
X76764136Y-92257619D02*
X76817708Y-92210000D01*
X76918898Y-92162380D01*
X77156994Y-92162380D01*
X77246279Y-92210000D01*
X77287946Y-92257619D01*
X77323660Y-92352857D01*
X77311755Y-92448095D01*
X77246279Y-92590952D01*
X76603422Y-93162380D01*
X77222470Y-93162380D01*
X77680803Y-92162380D02*
X78299851Y-92162380D01*
X77918898Y-92543333D01*
X78061755Y-92543333D01*
X78151041Y-92590952D01*
X78192708Y-92638571D01*
X78228422Y-92733809D01*
X78198660Y-92971904D01*
X78139136Y-93067142D01*
X78085565Y-93114761D01*
X77984375Y-93162380D01*
X77698660Y-93162380D01*
X77609375Y-93114761D01*
X77567708Y-93067142D01*
X79270089Y-92781428D02*
X79323660Y-92733809D01*
X79424851Y-92686190D01*
X79603422Y-92781428D01*
X79704613Y-92733809D01*
X79758184Y-92686190D01*
%TO.C,SW6*%
X157666666Y-72159761D02*
X157809523Y-72207380D01*
X158047619Y-72207380D01*
X158142857Y-72159761D01*
X158190476Y-72112142D01*
X158238095Y-72016904D01*
X158238095Y-71921666D01*
X158190476Y-71826428D01*
X158142857Y-71778809D01*
X158047619Y-71731190D01*
X157857142Y-71683571D01*
X157761904Y-71635952D01*
X157714285Y-71588333D01*
X157666666Y-71493095D01*
X157666666Y-71397857D01*
X157714285Y-71302619D01*
X157761904Y-71255000D01*
X157857142Y-71207380D01*
X158095238Y-71207380D01*
X158238095Y-71255000D01*
X158571428Y-71207380D02*
X158809523Y-72207380D01*
X159000000Y-71493095D01*
X159190476Y-72207380D01*
X159428571Y-71207380D01*
X160238095Y-71207380D02*
X160047619Y-71207380D01*
X159952380Y-71255000D01*
X159904761Y-71302619D01*
X159809523Y-71445476D01*
X159761904Y-71635952D01*
X159761904Y-72016904D01*
X159809523Y-72112142D01*
X159857142Y-72159761D01*
X159952380Y-72207380D01*
X160142857Y-72207380D01*
X160238095Y-72159761D01*
X160285714Y-72112142D01*
X160333333Y-72016904D01*
X160333333Y-71778809D01*
X160285714Y-71683571D01*
X160238095Y-71635952D01*
X160142857Y-71588333D01*
X159952380Y-71588333D01*
X159857142Y-71635952D01*
X159809523Y-71683571D01*
X159761904Y-71778809D01*
%TO.C,SW8*%
X195666666Y-72159761D02*
X195809523Y-72207380D01*
X196047619Y-72207380D01*
X196142857Y-72159761D01*
X196190476Y-72112142D01*
X196238095Y-72016904D01*
X196238095Y-71921666D01*
X196190476Y-71826428D01*
X196142857Y-71778809D01*
X196047619Y-71731190D01*
X195857142Y-71683571D01*
X195761904Y-71635952D01*
X195714285Y-71588333D01*
X195666666Y-71493095D01*
X195666666Y-71397857D01*
X195714285Y-71302619D01*
X195761904Y-71255000D01*
X195857142Y-71207380D01*
X196095238Y-71207380D01*
X196238095Y-71255000D01*
X196571428Y-71207380D02*
X196809523Y-72207380D01*
X197000000Y-71493095D01*
X197190476Y-72207380D01*
X197428571Y-71207380D01*
X197952380Y-71635952D02*
X197857142Y-71588333D01*
X197809523Y-71540714D01*
X197761904Y-71445476D01*
X197761904Y-71397857D01*
X197809523Y-71302619D01*
X197857142Y-71255000D01*
X197952380Y-71207380D01*
X198142857Y-71207380D01*
X198238095Y-71255000D01*
X198285714Y-71302619D01*
X198333333Y-71397857D01*
X198333333Y-71445476D01*
X198285714Y-71540714D01*
X198238095Y-71588333D01*
X198142857Y-71635952D01*
X197952380Y-71635952D01*
X197857142Y-71683571D01*
X197809523Y-71731190D01*
X197761904Y-71826428D01*
X197761904Y-72016904D01*
X197809523Y-72112142D01*
X197857142Y-72159761D01*
X197952380Y-72207380D01*
X198142857Y-72207380D01*
X198238095Y-72159761D01*
X198285714Y-72112142D01*
X198333333Y-72016904D01*
X198333333Y-71826428D01*
X198285714Y-71731190D01*
X198238095Y-71683571D01*
X198142857Y-71635952D01*
%TO.C,SW11*%
X252190476Y-72159761D02*
X252333333Y-72207380D01*
X252571428Y-72207380D01*
X252666666Y-72159761D01*
X252714285Y-72112142D01*
X252761904Y-72016904D01*
X252761904Y-71921666D01*
X252714285Y-71826428D01*
X252666666Y-71778809D01*
X252571428Y-71731190D01*
X252380952Y-71683571D01*
X252285714Y-71635952D01*
X252238095Y-71588333D01*
X252190476Y-71493095D01*
X252190476Y-71397857D01*
X252238095Y-71302619D01*
X252285714Y-71255000D01*
X252380952Y-71207380D01*
X252619047Y-71207380D01*
X252761904Y-71255000D01*
X253095238Y-71207380D02*
X253333333Y-72207380D01*
X253523809Y-71493095D01*
X253714285Y-72207380D01*
X253952380Y-71207380D01*
X254857142Y-72207380D02*
X254285714Y-72207380D01*
X254571428Y-72207380D02*
X254571428Y-71207380D01*
X254476190Y-71350238D01*
X254380952Y-71445476D01*
X254285714Y-71493095D01*
X255809523Y-72207380D02*
X255238095Y-72207380D01*
X255523809Y-72207380D02*
X255523809Y-71207380D01*
X255428571Y-71350238D01*
X255333333Y-71445476D01*
X255238095Y-71493095D01*
%TO.C,SW2*%
X81666666Y-72159761D02*
X81809523Y-72207380D01*
X82047619Y-72207380D01*
X82142857Y-72159761D01*
X82190476Y-72112142D01*
X82238095Y-72016904D01*
X82238095Y-71921666D01*
X82190476Y-71826428D01*
X82142857Y-71778809D01*
X82047619Y-71731190D01*
X81857142Y-71683571D01*
X81761904Y-71635952D01*
X81714285Y-71588333D01*
X81666666Y-71493095D01*
X81666666Y-71397857D01*
X81714285Y-71302619D01*
X81761904Y-71255000D01*
X81857142Y-71207380D01*
X82095238Y-71207380D01*
X82238095Y-71255000D01*
X82571428Y-71207380D02*
X82809523Y-72207380D01*
X83000000Y-71493095D01*
X83190476Y-72207380D01*
X83428571Y-71207380D01*
X83761904Y-71302619D02*
X83809523Y-71255000D01*
X83904761Y-71207380D01*
X84142857Y-71207380D01*
X84238095Y-71255000D01*
X84285714Y-71302619D01*
X84333333Y-71397857D01*
X84333333Y-71493095D01*
X84285714Y-71635952D01*
X83714285Y-72207380D01*
X84333333Y-72207380D01*
%TO.C,SW1*%
X62666666Y-72159761D02*
X62809523Y-72207380D01*
X63047619Y-72207380D01*
X63142857Y-72159761D01*
X63190476Y-72112142D01*
X63238095Y-72016904D01*
X63238095Y-71921666D01*
X63190476Y-71826428D01*
X63142857Y-71778809D01*
X63047619Y-71731190D01*
X62857142Y-71683571D01*
X62761904Y-71635952D01*
X62714285Y-71588333D01*
X62666666Y-71493095D01*
X62666666Y-71397857D01*
X62714285Y-71302619D01*
X62761904Y-71255000D01*
X62857142Y-71207380D01*
X63095238Y-71207380D01*
X63238095Y-71255000D01*
X63571428Y-71207380D02*
X63809523Y-72207380D01*
X64000000Y-71493095D01*
X64190476Y-72207380D01*
X64428571Y-71207380D01*
X65333333Y-72207380D02*
X64761904Y-72207380D01*
X65047619Y-72207380D02*
X65047619Y-71207380D01*
X64952380Y-71350238D01*
X64857142Y-71445476D01*
X64761904Y-71493095D01*
%TO.C,SW5*%
X138666666Y-72159761D02*
X138809523Y-72207380D01*
X139047619Y-72207380D01*
X139142857Y-72159761D01*
X139190476Y-72112142D01*
X139238095Y-72016904D01*
X139238095Y-71921666D01*
X139190476Y-71826428D01*
X139142857Y-71778809D01*
X139047619Y-71731190D01*
X138857142Y-71683571D01*
X138761904Y-71635952D01*
X138714285Y-71588333D01*
X138666666Y-71493095D01*
X138666666Y-71397857D01*
X138714285Y-71302619D01*
X138761904Y-71255000D01*
X138857142Y-71207380D01*
X139095238Y-71207380D01*
X139238095Y-71255000D01*
X139571428Y-71207380D02*
X139809523Y-72207380D01*
X140000000Y-71493095D01*
X140190476Y-72207380D01*
X140428571Y-71207380D01*
X141285714Y-71207380D02*
X140809523Y-71207380D01*
X140761904Y-71683571D01*
X140809523Y-71635952D01*
X140904761Y-71588333D01*
X141142857Y-71588333D01*
X141238095Y-71635952D01*
X141285714Y-71683571D01*
X141333333Y-71778809D01*
X141333333Y-72016904D01*
X141285714Y-72112142D01*
X141238095Y-72159761D01*
X141142857Y-72207380D01*
X140904761Y-72207380D01*
X140809523Y-72159761D01*
X140761904Y-72112142D01*
%TO.C,SW4*%
X119666666Y-72159761D02*
X119809523Y-72207380D01*
X120047619Y-72207380D01*
X120142857Y-72159761D01*
X120190476Y-72112142D01*
X120238095Y-72016904D01*
X120238095Y-71921666D01*
X120190476Y-71826428D01*
X120142857Y-71778809D01*
X120047619Y-71731190D01*
X119857142Y-71683571D01*
X119761904Y-71635952D01*
X119714285Y-71588333D01*
X119666666Y-71493095D01*
X119666666Y-71397857D01*
X119714285Y-71302619D01*
X119761904Y-71255000D01*
X119857142Y-71207380D01*
X120095238Y-71207380D01*
X120238095Y-71255000D01*
X120571428Y-71207380D02*
X120809523Y-72207380D01*
X121000000Y-71493095D01*
X121190476Y-72207380D01*
X121428571Y-71207380D01*
X122238095Y-71540714D02*
X122238095Y-72207380D01*
X122000000Y-71159761D02*
X121761904Y-71874047D01*
X122380952Y-71874047D01*
%TO.C,SW9*%
X214666666Y-72159761D02*
X214809523Y-72207380D01*
X215047619Y-72207380D01*
X215142857Y-72159761D01*
X215190476Y-72112142D01*
X215238095Y-72016904D01*
X215238095Y-71921666D01*
X215190476Y-71826428D01*
X215142857Y-71778809D01*
X215047619Y-71731190D01*
X214857142Y-71683571D01*
X214761904Y-71635952D01*
X214714285Y-71588333D01*
X214666666Y-71493095D01*
X214666666Y-71397857D01*
X214714285Y-71302619D01*
X214761904Y-71255000D01*
X214857142Y-71207380D01*
X215095238Y-71207380D01*
X215238095Y-71255000D01*
X215571428Y-71207380D02*
X215809523Y-72207380D01*
X216000000Y-71493095D01*
X216190476Y-72207380D01*
X216428571Y-71207380D01*
X216857142Y-72207380D02*
X217047619Y-72207380D01*
X217142857Y-72159761D01*
X217190476Y-72112142D01*
X217285714Y-71969285D01*
X217333333Y-71778809D01*
X217333333Y-71397857D01*
X217285714Y-71302619D01*
X217238095Y-71255000D01*
X217142857Y-71207380D01*
X216952380Y-71207380D01*
X216857142Y-71255000D01*
X216809523Y-71302619D01*
X216761904Y-71397857D01*
X216761904Y-71635952D01*
X216809523Y-71731190D01*
X216857142Y-71778809D01*
X216952380Y-71826428D01*
X217142857Y-71826428D01*
X217238095Y-71778809D01*
X217285714Y-71731190D01*
X217333333Y-71635952D01*
%TO.C,SW10*%
X233190476Y-72159761D02*
X233333333Y-72207380D01*
X233571428Y-72207380D01*
X233666666Y-72159761D01*
X233714285Y-72112142D01*
X233761904Y-72016904D01*
X233761904Y-71921666D01*
X233714285Y-71826428D01*
X233666666Y-71778809D01*
X233571428Y-71731190D01*
X233380952Y-71683571D01*
X233285714Y-71635952D01*
X233238095Y-71588333D01*
X233190476Y-71493095D01*
X233190476Y-71397857D01*
X233238095Y-71302619D01*
X233285714Y-71255000D01*
X233380952Y-71207380D01*
X233619047Y-71207380D01*
X233761904Y-71255000D01*
X234095238Y-71207380D02*
X234333333Y-72207380D01*
X234523809Y-71493095D01*
X234714285Y-72207380D01*
X234952380Y-71207380D01*
X235857142Y-72207380D02*
X235285714Y-72207380D01*
X235571428Y-72207380D02*
X235571428Y-71207380D01*
X235476190Y-71350238D01*
X235380952Y-71445476D01*
X235285714Y-71493095D01*
X236476190Y-71207380D02*
X236571428Y-71207380D01*
X236666666Y-71255000D01*
X236714285Y-71302619D01*
X236761904Y-71397857D01*
X236809523Y-71588333D01*
X236809523Y-71826428D01*
X236761904Y-72016904D01*
X236714285Y-72112142D01*
X236666666Y-72159761D01*
X236571428Y-72207380D01*
X236476190Y-72207380D01*
X236380952Y-72159761D01*
X236333333Y-72112142D01*
X236285714Y-72016904D01*
X236238095Y-71826428D01*
X236238095Y-71588333D01*
X236285714Y-71397857D01*
X236333333Y-71302619D01*
X236380952Y-71255000D01*
X236476190Y-71207380D01*
%TO.C,SW7*%
X176666666Y-72159761D02*
X176809523Y-72207380D01*
X177047619Y-72207380D01*
X177142857Y-72159761D01*
X177190476Y-72112142D01*
X177238095Y-72016904D01*
X177238095Y-71921666D01*
X177190476Y-71826428D01*
X177142857Y-71778809D01*
X177047619Y-71731190D01*
X176857142Y-71683571D01*
X176761904Y-71635952D01*
X176714285Y-71588333D01*
X176666666Y-71493095D01*
X176666666Y-71397857D01*
X176714285Y-71302619D01*
X176761904Y-71255000D01*
X176857142Y-71207380D01*
X177095238Y-71207380D01*
X177238095Y-71255000D01*
X177571428Y-71207380D02*
X177809523Y-72207380D01*
X178000000Y-71493095D01*
X178190476Y-72207380D01*
X178428571Y-71207380D01*
X178714285Y-71207380D02*
X179380952Y-71207380D01*
X178952380Y-72207380D01*
%TO.C,U1*%
X51505790Y-83187934D02*
X51543885Y-83073648D01*
X51543885Y-82883172D01*
X51505790Y-82806982D01*
X51467695Y-82768886D01*
X51391504Y-82730791D01*
X51315314Y-82730791D01*
X51239123Y-82768886D01*
X51201028Y-82806982D01*
X51162933Y-82883172D01*
X51124838Y-83035553D01*
X51086742Y-83111743D01*
X51048647Y-83149839D01*
X50972457Y-83187934D01*
X50896266Y-83187934D01*
X50820076Y-83149839D01*
X50781981Y-83111743D01*
X50743885Y-83035553D01*
X50743885Y-82845077D01*
X50781981Y-82730791D01*
X50743885Y-82502220D02*
X50743885Y-82045077D01*
X51543885Y-82273648D02*
X50743885Y-82273648D01*
X51124838Y-81778410D02*
X51124838Y-81511743D01*
X51543885Y-81397458D02*
X51543885Y-81778410D01*
X50743885Y-81778410D01*
X50743885Y-81397458D01*
X51543885Y-81054601D02*
X50743885Y-81054601D01*
X51315314Y-80787934D01*
X50743885Y-80521267D01*
X51543885Y-80521267D01*
X51543885Y-80140315D02*
X50743885Y-80140315D01*
X51315314Y-79873648D01*
X50743885Y-79606982D01*
X51543885Y-79606982D01*
X51315314Y-79264124D02*
X51315314Y-78883172D01*
X51543885Y-79340315D02*
X50743885Y-79073648D01*
X51543885Y-78806982D01*
X51620076Y-77397458D02*
X51581981Y-77473648D01*
X51505790Y-77549839D01*
X51391504Y-77664124D01*
X51353409Y-77740315D01*
X51353409Y-77816505D01*
X51543885Y-77778410D02*
X51505790Y-77854601D01*
X51429600Y-77930791D01*
X51277219Y-77968886D01*
X51010552Y-77968886D01*
X50858171Y-77930791D01*
X50781981Y-77854601D01*
X50743885Y-77778410D01*
X50743885Y-77626029D01*
X50781981Y-77549839D01*
X50858171Y-77473648D01*
X51010552Y-77435553D01*
X51277219Y-77435553D01*
X51429600Y-77473648D01*
X51505790Y-77549839D01*
X51543885Y-77626029D01*
X51543885Y-77778410D01*
X50743885Y-77206982D02*
X50743885Y-76749839D01*
X51543885Y-76978410D02*
X50743885Y-76978410D01*
X37576904Y-85680476D02*
X36776904Y-85680476D01*
X36776904Y-85490000D01*
X36815000Y-85375714D01*
X36891190Y-85299523D01*
X36967380Y-85261428D01*
X37119761Y-85223333D01*
X37234047Y-85223333D01*
X37386428Y-85261428D01*
X37462619Y-85299523D01*
X37538809Y-85375714D01*
X37576904Y-85490000D01*
X37576904Y-85680476D01*
X36776904Y-84956666D02*
X36776904Y-84461428D01*
X37081666Y-84728095D01*
X37081666Y-84613809D01*
X37119761Y-84537619D01*
X37157857Y-84499523D01*
X37234047Y-84461428D01*
X37424523Y-84461428D01*
X37500714Y-84499523D01*
X37538809Y-84537619D01*
X37576904Y-84613809D01*
X37576904Y-84842380D01*
X37538809Y-84918571D01*
X37500714Y-84956666D01*
X45158809Y-75958571D02*
X45196904Y-75844285D01*
X45196904Y-75653809D01*
X45158809Y-75577619D01*
X45120714Y-75539523D01*
X45044523Y-75501428D01*
X44968333Y-75501428D01*
X44892142Y-75539523D01*
X44854047Y-75577619D01*
X44815952Y-75653809D01*
X44777857Y-75806190D01*
X44739761Y-75882380D01*
X44701666Y-75920476D01*
X44625476Y-75958571D01*
X44549285Y-75958571D01*
X44473095Y-75920476D01*
X44435000Y-75882380D01*
X44396904Y-75806190D01*
X44396904Y-75615714D01*
X44435000Y-75501428D01*
X45120714Y-74701428D02*
X45158809Y-74739523D01*
X45196904Y-74853809D01*
X45196904Y-74930000D01*
X45158809Y-75044285D01*
X45082619Y-75120476D01*
X45006428Y-75158571D01*
X44854047Y-75196666D01*
X44739761Y-75196666D01*
X44587380Y-75158571D01*
X44511190Y-75120476D01*
X44435000Y-75044285D01*
X44396904Y-74930000D01*
X44396904Y-74853809D01*
X44435000Y-74739523D01*
X44473095Y-74701428D01*
X45196904Y-74358571D02*
X44396904Y-74358571D01*
X45196904Y-73901428D02*
X44739761Y-74244285D01*
X44396904Y-73901428D02*
X44854047Y-74358571D01*
X50276904Y-85680476D02*
X49476904Y-85680476D01*
X49476904Y-85490000D01*
X49515000Y-85375714D01*
X49591190Y-85299523D01*
X49667380Y-85261428D01*
X49819761Y-85223333D01*
X49934047Y-85223333D01*
X50086428Y-85261428D01*
X50162619Y-85299523D01*
X50238809Y-85375714D01*
X50276904Y-85490000D01*
X50276904Y-85680476D01*
X49819761Y-84766190D02*
X49781666Y-84842380D01*
X49743571Y-84880476D01*
X49667380Y-84918571D01*
X49629285Y-84918571D01*
X49553095Y-84880476D01*
X49515000Y-84842380D01*
X49476904Y-84766190D01*
X49476904Y-84613809D01*
X49515000Y-84537619D01*
X49553095Y-84499523D01*
X49629285Y-84461428D01*
X49667380Y-84461428D01*
X49743571Y-84499523D01*
X49781666Y-84537619D01*
X49819761Y-84613809D01*
X49819761Y-84766190D01*
X49857857Y-84842380D01*
X49895952Y-84880476D01*
X49972142Y-84918571D01*
X50124523Y-84918571D01*
X50200714Y-84880476D01*
X50238809Y-84842380D01*
X50276904Y-84766190D01*
X50276904Y-84613809D01*
X50238809Y-84537619D01*
X50200714Y-84499523D01*
X50124523Y-84461428D01*
X49972142Y-84461428D01*
X49895952Y-84499523D01*
X49857857Y-84537619D01*
X49819761Y-84613809D01*
X37348333Y-75501428D02*
X37348333Y-75120476D01*
X37576904Y-75577619D02*
X36776904Y-75310952D01*
X37576904Y-75044285D01*
X36853095Y-74815714D02*
X36815000Y-74777619D01*
X36776904Y-74701428D01*
X36776904Y-74510952D01*
X36815000Y-74434761D01*
X36853095Y-74396666D01*
X36929285Y-74358571D01*
X37005476Y-74358571D01*
X37119761Y-74396666D01*
X37576904Y-74853809D01*
X37576904Y-74358571D01*
X31696904Y-76110952D02*
X31696904Y-75615714D01*
X32001666Y-75882380D01*
X32001666Y-75768095D01*
X32039761Y-75691904D01*
X32077857Y-75653809D01*
X32154047Y-75615714D01*
X32344523Y-75615714D01*
X32420714Y-75653809D01*
X32458809Y-75691904D01*
X32496904Y-75768095D01*
X32496904Y-75996666D01*
X32458809Y-76072857D01*
X32420714Y-76110952D01*
X32420714Y-75272857D02*
X32458809Y-75234761D01*
X32496904Y-75272857D01*
X32458809Y-75310952D01*
X32420714Y-75272857D01*
X32496904Y-75272857D01*
X31696904Y-74968095D02*
X31696904Y-74472857D01*
X32001666Y-74739523D01*
X32001666Y-74625238D01*
X32039761Y-74549047D01*
X32077857Y-74510952D01*
X32154047Y-74472857D01*
X32344523Y-74472857D01*
X32420714Y-74510952D01*
X32458809Y-74549047D01*
X32496904Y-74625238D01*
X32496904Y-74853809D01*
X32458809Y-74930000D01*
X32420714Y-74968095D01*
X31696904Y-74244285D02*
X32496904Y-73977619D01*
X31696904Y-73710952D01*
X26655000Y-75539523D02*
X26616904Y-75615714D01*
X26616904Y-75730000D01*
X26655000Y-75844285D01*
X26731190Y-75920476D01*
X26807380Y-75958571D01*
X26959761Y-75996666D01*
X27074047Y-75996666D01*
X27226428Y-75958571D01*
X27302619Y-75920476D01*
X27378809Y-75844285D01*
X27416904Y-75730000D01*
X27416904Y-75653809D01*
X27378809Y-75539523D01*
X27340714Y-75501428D01*
X27074047Y-75501428D01*
X27074047Y-75653809D01*
X27416904Y-75158571D02*
X26616904Y-75158571D01*
X27416904Y-74701428D01*
X26616904Y-74701428D01*
X27416904Y-74320476D02*
X26616904Y-74320476D01*
X26616904Y-74130000D01*
X26655000Y-74015714D01*
X26731190Y-73939523D01*
X26807380Y-73901428D01*
X26959761Y-73863333D01*
X27074047Y-73863333D01*
X27226428Y-73901428D01*
X27302619Y-73939523D01*
X27378809Y-74015714D01*
X27416904Y-74130000D01*
X27416904Y-74320476D01*
X47736904Y-76187142D02*
X46936904Y-76187142D01*
X47508333Y-75920476D01*
X46936904Y-75653809D01*
X47736904Y-75653809D01*
X47736904Y-75272857D02*
X46936904Y-75272857D01*
X47698809Y-74930000D02*
X47736904Y-74815714D01*
X47736904Y-74625238D01*
X47698809Y-74549047D01*
X47660714Y-74510952D01*
X47584523Y-74472857D01*
X47508333Y-74472857D01*
X47432142Y-74510952D01*
X47394047Y-74549047D01*
X47355952Y-74625238D01*
X47317857Y-74777619D01*
X47279761Y-74853809D01*
X47241666Y-74891904D01*
X47165476Y-74930000D01*
X47089285Y-74930000D01*
X47013095Y-74891904D01*
X46975000Y-74853809D01*
X46936904Y-74777619D01*
X46936904Y-74587142D01*
X46975000Y-74472857D01*
X46936904Y-73977619D02*
X46936904Y-73825238D01*
X46975000Y-73749047D01*
X47051190Y-73672857D01*
X47203571Y-73634761D01*
X47470238Y-73634761D01*
X47622619Y-73672857D01*
X47698809Y-73749047D01*
X47736904Y-73825238D01*
X47736904Y-73977619D01*
X47698809Y-74053809D01*
X47622619Y-74130000D01*
X47470238Y-74168095D01*
X47203571Y-74168095D01*
X47051190Y-74130000D01*
X46975000Y-74053809D01*
X46936904Y-73977619D01*
X34808333Y-75501428D02*
X34808333Y-75120476D01*
X35036904Y-75577619D02*
X34236904Y-75310952D01*
X35036904Y-75044285D01*
X34236904Y-74853809D02*
X34236904Y-74358571D01*
X34541666Y-74625238D01*
X34541666Y-74510952D01*
X34579761Y-74434761D01*
X34617857Y-74396666D01*
X34694047Y-74358571D01*
X34884523Y-74358571D01*
X34960714Y-74396666D01*
X34998809Y-74434761D01*
X35036904Y-74510952D01*
X35036904Y-74739523D01*
X34998809Y-74815714D01*
X34960714Y-74853809D01*
X53121666Y-81095714D02*
X53083571Y-81133809D01*
X52969285Y-81210000D01*
X52893095Y-81248095D01*
X52778809Y-81286190D01*
X52588333Y-81324285D01*
X52435952Y-81324285D01*
X52245476Y-81286190D01*
X52131190Y-81248095D01*
X52055000Y-81210000D01*
X51940714Y-81133809D01*
X51902619Y-81095714D01*
X52816904Y-80790952D02*
X52016904Y-80790952D01*
X52093095Y-80448095D02*
X52055000Y-80410000D01*
X52016904Y-80333809D01*
X52016904Y-80143333D01*
X52055000Y-80067142D01*
X52093095Y-80029047D01*
X52169285Y-79990952D01*
X52245476Y-79990952D01*
X52359761Y-80029047D01*
X52816904Y-80486190D01*
X52816904Y-79990952D01*
X52740714Y-79190952D02*
X52778809Y-79229047D01*
X52816904Y-79343333D01*
X52816904Y-79419523D01*
X52778809Y-79533809D01*
X52702619Y-79610000D01*
X52626428Y-79648095D01*
X52474047Y-79686190D01*
X52359761Y-79686190D01*
X52207380Y-79648095D01*
X52131190Y-79610000D01*
X52055000Y-79533809D01*
X52016904Y-79419523D01*
X52016904Y-79343333D01*
X52055000Y-79229047D01*
X52093095Y-79190952D01*
X53121666Y-78924285D02*
X53083571Y-78886190D01*
X52969285Y-78810000D01*
X52893095Y-78771904D01*
X52778809Y-78733809D01*
X52588333Y-78695714D01*
X52435952Y-78695714D01*
X52245476Y-78733809D01*
X52131190Y-78771904D01*
X52055000Y-78810000D01*
X51940714Y-78886190D01*
X51902619Y-78924285D01*
X35036904Y-85680476D02*
X34236904Y-85680476D01*
X34236904Y-85490000D01*
X34275000Y-85375714D01*
X34351190Y-85299523D01*
X34427380Y-85261428D01*
X34579761Y-85223333D01*
X34694047Y-85223333D01*
X34846428Y-85261428D01*
X34922619Y-85299523D01*
X34998809Y-85375714D01*
X35036904Y-85490000D01*
X35036904Y-85680476D01*
X34313095Y-84918571D02*
X34275000Y-84880476D01*
X34236904Y-84804285D01*
X34236904Y-84613809D01*
X34275000Y-84537619D01*
X34313095Y-84499523D01*
X34389285Y-84461428D01*
X34465476Y-84461428D01*
X34579761Y-84499523D01*
X35036904Y-84956666D01*
X35036904Y-84461428D01*
X42428333Y-75501428D02*
X42428333Y-75120476D01*
X42656904Y-75577619D02*
X41856904Y-75310952D01*
X42656904Y-75044285D01*
X41856904Y-74625238D02*
X41856904Y-74549047D01*
X41895000Y-74472857D01*
X41933095Y-74434761D01*
X42009285Y-74396666D01*
X42161666Y-74358571D01*
X42352142Y-74358571D01*
X42504523Y-74396666D01*
X42580714Y-74434761D01*
X42618809Y-74472857D01*
X42656904Y-74549047D01*
X42656904Y-74625238D01*
X42618809Y-74701428D01*
X42580714Y-74739523D01*
X42504523Y-74777619D01*
X42352142Y-74815714D01*
X42161666Y-74815714D01*
X42009285Y-74777619D01*
X41933095Y-74739523D01*
X41895000Y-74701428D01*
X41856904Y-74625238D01*
X33857380Y-82676666D02*
X32857380Y-82676666D01*
X33857380Y-82105238D02*
X33285952Y-82533809D01*
X32857380Y-82105238D02*
X33428809Y-82676666D01*
X33333571Y-81343333D02*
X33381190Y-81200476D01*
X33428809Y-81152857D01*
X33524047Y-81105238D01*
X33666904Y-81105238D01*
X33762142Y-81152857D01*
X33809761Y-81200476D01*
X33857380Y-81295714D01*
X33857380Y-81676666D01*
X32857380Y-81676666D01*
X32857380Y-81343333D01*
X32905000Y-81248095D01*
X32952619Y-81200476D01*
X33047857Y-81152857D01*
X33143095Y-81152857D01*
X33238333Y-81200476D01*
X33285952Y-81248095D01*
X33333571Y-81343333D01*
X33333571Y-81676666D01*
X32952619Y-80724285D02*
X32905000Y-80676666D01*
X32857380Y-80581428D01*
X32857380Y-80343333D01*
X32905000Y-80248095D01*
X32952619Y-80200476D01*
X33047857Y-80152857D01*
X33143095Y-80152857D01*
X33285952Y-80200476D01*
X33857380Y-80771904D01*
X33857380Y-80152857D01*
X32857380Y-79533809D02*
X32857380Y-79438571D01*
X32905000Y-79343333D01*
X32952619Y-79295714D01*
X33047857Y-79248095D01*
X33238333Y-79200476D01*
X33476428Y-79200476D01*
X33666904Y-79248095D01*
X33762142Y-79295714D01*
X33809761Y-79343333D01*
X33857380Y-79438571D01*
X33857380Y-79533809D01*
X33809761Y-79629047D01*
X33762142Y-79676666D01*
X33666904Y-79724285D01*
X33476428Y-79771904D01*
X33238333Y-79771904D01*
X33047857Y-79724285D01*
X32952619Y-79676666D01*
X32905000Y-79629047D01*
X32857380Y-79533809D01*
X33190714Y-78343333D02*
X33857380Y-78343333D01*
X32809761Y-78581428D02*
X33524047Y-78819523D01*
X33524047Y-78200476D01*
X32857380Y-77629047D02*
X32857380Y-77533809D01*
X32905000Y-77438571D01*
X32952619Y-77390952D01*
X33047857Y-77343333D01*
X33238333Y-77295714D01*
X33476428Y-77295714D01*
X33666904Y-77343333D01*
X33762142Y-77390952D01*
X33809761Y-77438571D01*
X33857380Y-77533809D01*
X33857380Y-77629047D01*
X33809761Y-77724285D01*
X33762142Y-77771904D01*
X33666904Y-77819523D01*
X33476428Y-77867142D01*
X33238333Y-77867142D01*
X33047857Y-77819523D01*
X32952619Y-77771904D01*
X32905000Y-77724285D01*
X32857380Y-77629047D01*
X47736904Y-85680476D02*
X46936904Y-85680476D01*
X46936904Y-85490000D01*
X46975000Y-85375714D01*
X47051190Y-85299523D01*
X47127380Y-85261428D01*
X47279761Y-85223333D01*
X47394047Y-85223333D01*
X47546428Y-85261428D01*
X47622619Y-85299523D01*
X47698809Y-85375714D01*
X47736904Y-85490000D01*
X47736904Y-85680476D01*
X46936904Y-84956666D02*
X46936904Y-84423333D01*
X47736904Y-84766190D01*
X24876904Y-85515238D02*
X24076904Y-85515238D01*
X24076904Y-85324761D01*
X24115000Y-85210476D01*
X24191190Y-85134285D01*
X24267380Y-85096190D01*
X24419761Y-85058095D01*
X24534047Y-85058095D01*
X24686428Y-85096190D01*
X24762619Y-85134285D01*
X24838809Y-85210476D01*
X24876904Y-85324761D01*
X24876904Y-85515238D01*
X24076904Y-84562857D02*
X24076904Y-84486666D01*
X24115000Y-84410476D01*
X24153095Y-84372380D01*
X24229285Y-84334285D01*
X24381666Y-84296190D01*
X24572142Y-84296190D01*
X24724523Y-84334285D01*
X24800714Y-84372380D01*
X24838809Y-84410476D01*
X24876904Y-84486666D01*
X24876904Y-84562857D01*
X24838809Y-84639047D01*
X24800714Y-84677142D01*
X24724523Y-84715238D01*
X24572142Y-84753333D01*
X24381666Y-84753333D01*
X24229285Y-84715238D01*
X24153095Y-84677142D01*
X24115000Y-84639047D01*
X24076904Y-84562857D01*
X24038809Y-83381904D02*
X25067380Y-84067619D01*
X24076904Y-83229523D02*
X24076904Y-82772380D01*
X24876904Y-83000952D02*
X24076904Y-83000952D01*
X24076904Y-82581904D02*
X24876904Y-82048571D01*
X24076904Y-82048571D02*
X24876904Y-82581904D01*
X31735000Y-85699523D02*
X31696904Y-85775714D01*
X31696904Y-85890000D01*
X31735000Y-86004285D01*
X31811190Y-86080476D01*
X31887380Y-86118571D01*
X32039761Y-86156666D01*
X32154047Y-86156666D01*
X32306428Y-86118571D01*
X32382619Y-86080476D01*
X32458809Y-86004285D01*
X32496904Y-85890000D01*
X32496904Y-85813809D01*
X32458809Y-85699523D01*
X32420714Y-85661428D01*
X32154047Y-85661428D01*
X32154047Y-85813809D01*
X32496904Y-85318571D02*
X31696904Y-85318571D01*
X32496904Y-84861428D01*
X31696904Y-84861428D01*
X32496904Y-84480476D02*
X31696904Y-84480476D01*
X31696904Y-84290000D01*
X31735000Y-84175714D01*
X31811190Y-84099523D01*
X31887380Y-84061428D01*
X32039761Y-84023333D01*
X32154047Y-84023333D01*
X32306428Y-84061428D01*
X32382619Y-84099523D01*
X32458809Y-84175714D01*
X32496904Y-84290000D01*
X32496904Y-84480476D01*
X40116904Y-85680476D02*
X39316904Y-85680476D01*
X39316904Y-85490000D01*
X39355000Y-85375714D01*
X39431190Y-85299523D01*
X39507380Y-85261428D01*
X39659761Y-85223333D01*
X39774047Y-85223333D01*
X39926428Y-85261428D01*
X40002619Y-85299523D01*
X40078809Y-85375714D01*
X40116904Y-85490000D01*
X40116904Y-85680476D01*
X39583571Y-84537619D02*
X40116904Y-84537619D01*
X39278809Y-84728095D02*
X39850238Y-84918571D01*
X39850238Y-84423333D01*
X27416904Y-85610476D02*
X26616904Y-85610476D01*
X26616904Y-85420000D01*
X26655000Y-85305714D01*
X26731190Y-85229523D01*
X26807380Y-85191428D01*
X26959761Y-85153333D01*
X27074047Y-85153333D01*
X27226428Y-85191428D01*
X27302619Y-85229523D01*
X27378809Y-85305714D01*
X27416904Y-85420000D01*
X27416904Y-85610476D01*
X27416904Y-84391428D02*
X27416904Y-84848571D01*
X27416904Y-84620000D02*
X26616904Y-84620000D01*
X26731190Y-84696190D01*
X26807380Y-84772380D01*
X26845476Y-84848571D01*
X26578809Y-83477142D02*
X27607380Y-84162857D01*
X27416904Y-82753333D02*
X27035952Y-83020000D01*
X27416904Y-83210476D02*
X26616904Y-83210476D01*
X26616904Y-82905714D01*
X26655000Y-82829523D01*
X26693095Y-82791428D01*
X26769285Y-82753333D01*
X26883571Y-82753333D01*
X26959761Y-82791428D01*
X26997857Y-82829523D01*
X27035952Y-82905714D01*
X27035952Y-83210476D01*
X26616904Y-82486666D02*
X27416904Y-81953333D01*
X26616904Y-81953333D02*
X27416904Y-82486666D01*
X29926904Y-75368095D02*
X29545952Y-75634761D01*
X29926904Y-75825238D02*
X29126904Y-75825238D01*
X29126904Y-75520476D01*
X29165000Y-75444285D01*
X29203095Y-75406190D01*
X29279285Y-75368095D01*
X29393571Y-75368095D01*
X29469761Y-75406190D01*
X29507857Y-75444285D01*
X29545952Y-75520476D01*
X29545952Y-75825238D01*
X29888809Y-75063333D02*
X29926904Y-74949047D01*
X29926904Y-74758571D01*
X29888809Y-74682380D01*
X29850714Y-74644285D01*
X29774523Y-74606190D01*
X29698333Y-74606190D01*
X29622142Y-74644285D01*
X29584047Y-74682380D01*
X29545952Y-74758571D01*
X29507857Y-74910952D01*
X29469761Y-74987142D01*
X29431666Y-75025238D01*
X29355476Y-75063333D01*
X29279285Y-75063333D01*
X29203095Y-75025238D01*
X29165000Y-74987142D01*
X29126904Y-74910952D01*
X29126904Y-74720476D01*
X29165000Y-74606190D01*
X29126904Y-74377619D02*
X29126904Y-73920476D01*
X29926904Y-74149047D02*
X29126904Y-74149047D01*
X42656904Y-85680476D02*
X41856904Y-85680476D01*
X41856904Y-85490000D01*
X41895000Y-85375714D01*
X41971190Y-85299523D01*
X42047380Y-85261428D01*
X42199761Y-85223333D01*
X42314047Y-85223333D01*
X42466428Y-85261428D01*
X42542619Y-85299523D01*
X42618809Y-85375714D01*
X42656904Y-85490000D01*
X42656904Y-85680476D01*
X41856904Y-84499523D02*
X41856904Y-84880476D01*
X42237857Y-84918571D01*
X42199761Y-84880476D01*
X42161666Y-84804285D01*
X42161666Y-84613809D01*
X42199761Y-84537619D01*
X42237857Y-84499523D01*
X42314047Y-84461428D01*
X42504523Y-84461428D01*
X42580714Y-84499523D01*
X42618809Y-84537619D01*
X42656904Y-84613809D01*
X42656904Y-84804285D01*
X42618809Y-84880476D01*
X42580714Y-84918571D01*
X29195000Y-85699523D02*
X29156904Y-85775714D01*
X29156904Y-85890000D01*
X29195000Y-86004285D01*
X29271190Y-86080476D01*
X29347380Y-86118571D01*
X29499761Y-86156666D01*
X29614047Y-86156666D01*
X29766428Y-86118571D01*
X29842619Y-86080476D01*
X29918809Y-86004285D01*
X29956904Y-85890000D01*
X29956904Y-85813809D01*
X29918809Y-85699523D01*
X29880714Y-85661428D01*
X29614047Y-85661428D01*
X29614047Y-85813809D01*
X29956904Y-85318571D02*
X29156904Y-85318571D01*
X29956904Y-84861428D01*
X29156904Y-84861428D01*
X29956904Y-84480476D02*
X29156904Y-84480476D01*
X29156904Y-84290000D01*
X29195000Y-84175714D01*
X29271190Y-84099523D01*
X29347380Y-84061428D01*
X29499761Y-84023333D01*
X29614047Y-84023333D01*
X29766428Y-84061428D01*
X29842619Y-84099523D01*
X29918809Y-84175714D01*
X29956904Y-84290000D01*
X29956904Y-84480476D01*
X52816904Y-75901428D02*
X52016904Y-75901428D01*
X52016904Y-75710952D01*
X52055000Y-75596666D01*
X52131190Y-75520476D01*
X52207380Y-75482380D01*
X52359761Y-75444285D01*
X52474047Y-75444285D01*
X52626428Y-75482380D01*
X52702619Y-75520476D01*
X52778809Y-75596666D01*
X52816904Y-75710952D01*
X52816904Y-75901428D01*
X52816904Y-74682380D02*
X52816904Y-75139523D01*
X52816904Y-74910952D02*
X52016904Y-74910952D01*
X52131190Y-74987142D01*
X52207380Y-75063333D01*
X52245476Y-75139523D01*
X52016904Y-74187142D02*
X52016904Y-74110952D01*
X52055000Y-74034761D01*
X52093095Y-73996666D01*
X52169285Y-73958571D01*
X52321666Y-73920476D01*
X52512142Y-73920476D01*
X52664523Y-73958571D01*
X52740714Y-73996666D01*
X52778809Y-74034761D01*
X52816904Y-74110952D01*
X52816904Y-74187142D01*
X52778809Y-74263333D01*
X52740714Y-74301428D01*
X52664523Y-74339523D01*
X52512142Y-74377619D01*
X52321666Y-74377619D01*
X52169285Y-74339523D01*
X52093095Y-74301428D01*
X52055000Y-74263333D01*
X52016904Y-74187142D01*
X45196904Y-85680476D02*
X44396904Y-85680476D01*
X44396904Y-85490000D01*
X44435000Y-85375714D01*
X44511190Y-85299523D01*
X44587380Y-85261428D01*
X44739761Y-85223333D01*
X44854047Y-85223333D01*
X45006428Y-85261428D01*
X45082619Y-85299523D01*
X45158809Y-85375714D01*
X45196904Y-85490000D01*
X45196904Y-85680476D01*
X44396904Y-84537619D02*
X44396904Y-84690000D01*
X44435000Y-84766190D01*
X44473095Y-84804285D01*
X44587380Y-84880476D01*
X44739761Y-84918571D01*
X45044523Y-84918571D01*
X45120714Y-84880476D01*
X45158809Y-84842380D01*
X45196904Y-84766190D01*
X45196904Y-84613809D01*
X45158809Y-84537619D01*
X45120714Y-84499523D01*
X45044523Y-84461428D01*
X44854047Y-84461428D01*
X44777857Y-84499523D01*
X44739761Y-84537619D01*
X44701666Y-84613809D01*
X44701666Y-84766190D01*
X44739761Y-84842380D01*
X44777857Y-84880476D01*
X44854047Y-84918571D01*
X52816904Y-85680476D02*
X52016904Y-85680476D01*
X52016904Y-85490000D01*
X52055000Y-85375714D01*
X52131190Y-85299523D01*
X52207380Y-85261428D01*
X52359761Y-85223333D01*
X52474047Y-85223333D01*
X52626428Y-85261428D01*
X52702619Y-85299523D01*
X52778809Y-85375714D01*
X52816904Y-85490000D01*
X52816904Y-85680476D01*
X52816904Y-84842380D02*
X52816904Y-84690000D01*
X52778809Y-84613809D01*
X52740714Y-84575714D01*
X52626428Y-84499523D01*
X52474047Y-84461428D01*
X52169285Y-84461428D01*
X52093095Y-84499523D01*
X52055000Y-84537619D01*
X52016904Y-84613809D01*
X52016904Y-84766190D01*
X52055000Y-84842380D01*
X52093095Y-84880476D01*
X52169285Y-84918571D01*
X52359761Y-84918571D01*
X52435952Y-84880476D01*
X52474047Y-84842380D01*
X52512142Y-84766190D01*
X52512142Y-84613809D01*
X52474047Y-84537619D01*
X52435952Y-84499523D01*
X52359761Y-84461428D01*
X39888333Y-75501428D02*
X39888333Y-75120476D01*
X40116904Y-75577619D02*
X39316904Y-75310952D01*
X40116904Y-75044285D01*
X40116904Y-74358571D02*
X40116904Y-74815714D01*
X40116904Y-74587142D02*
X39316904Y-74587142D01*
X39431190Y-74663333D01*
X39507380Y-74739523D01*
X39545476Y-74815714D01*
X50276904Y-76187142D02*
X49476904Y-76187142D01*
X50048333Y-75920476D01*
X49476904Y-75653809D01*
X50276904Y-75653809D01*
X49476904Y-75120476D02*
X49476904Y-74968095D01*
X49515000Y-74891904D01*
X49591190Y-74815714D01*
X49743571Y-74777619D01*
X50010238Y-74777619D01*
X50162619Y-74815714D01*
X50238809Y-74891904D01*
X50276904Y-74968095D01*
X50276904Y-75120476D01*
X50238809Y-75196666D01*
X50162619Y-75272857D01*
X50010238Y-75310952D01*
X49743571Y-75310952D01*
X49591190Y-75272857D01*
X49515000Y-75196666D01*
X49476904Y-75120476D01*
X50238809Y-74472857D02*
X50276904Y-74358571D01*
X50276904Y-74168095D01*
X50238809Y-74091904D01*
X50200714Y-74053809D01*
X50124523Y-74015714D01*
X50048333Y-74015714D01*
X49972142Y-74053809D01*
X49934047Y-74091904D01*
X49895952Y-74168095D01*
X49857857Y-74320476D01*
X49819761Y-74396666D01*
X49781666Y-74434761D01*
X49705476Y-74472857D01*
X49629285Y-74472857D01*
X49553095Y-74434761D01*
X49515000Y-74396666D01*
X49476904Y-74320476D01*
X49476904Y-74130000D01*
X49515000Y-74015714D01*
X50276904Y-73672857D02*
X49476904Y-73672857D01*
X24876904Y-75482380D02*
X24495952Y-75749047D01*
X24876904Y-75939523D02*
X24076904Y-75939523D01*
X24076904Y-75634761D01*
X24115000Y-75558571D01*
X24153095Y-75520476D01*
X24229285Y-75482380D01*
X24343571Y-75482380D01*
X24419761Y-75520476D01*
X24457857Y-75558571D01*
X24495952Y-75634761D01*
X24495952Y-75939523D01*
X24648333Y-75177619D02*
X24648333Y-74796666D01*
X24876904Y-75253809D02*
X24076904Y-74987142D01*
X24876904Y-74720476D01*
X24076904Y-74530000D02*
X24876904Y-74339523D01*
X24305476Y-74187142D01*
X24876904Y-74034761D01*
X24076904Y-73844285D01*
%TO.C,SW12*%
X271190476Y-72159761D02*
X271333333Y-72207380D01*
X271571428Y-72207380D01*
X271666666Y-72159761D01*
X271714285Y-72112142D01*
X271761904Y-72016904D01*
X271761904Y-71921666D01*
X271714285Y-71826428D01*
X271666666Y-71778809D01*
X271571428Y-71731190D01*
X271380952Y-71683571D01*
X271285714Y-71635952D01*
X271238095Y-71588333D01*
X271190476Y-71493095D01*
X271190476Y-71397857D01*
X271238095Y-71302619D01*
X271285714Y-71255000D01*
X271380952Y-71207380D01*
X271619047Y-71207380D01*
X271761904Y-71255000D01*
X272095238Y-71207380D02*
X272333333Y-72207380D01*
X272523809Y-71493095D01*
X272714285Y-72207380D01*
X272952380Y-71207380D01*
X273857142Y-72207380D02*
X273285714Y-72207380D01*
X273571428Y-72207380D02*
X273571428Y-71207380D01*
X273476190Y-71350238D01*
X273380952Y-71445476D01*
X273285714Y-71493095D01*
X274238095Y-71302619D02*
X274285714Y-71255000D01*
X274380952Y-71207380D01*
X274619047Y-71207380D01*
X274714285Y-71255000D01*
X274761904Y-71302619D01*
X274809523Y-71397857D01*
X274809523Y-71493095D01*
X274761904Y-71635952D01*
X274190476Y-72207380D01*
X274809523Y-72207380D01*
%TO.C,SW3*%
X100666666Y-72159761D02*
X100809523Y-72207380D01*
X101047619Y-72207380D01*
X101142857Y-72159761D01*
X101190476Y-72112142D01*
X101238095Y-72016904D01*
X101238095Y-71921666D01*
X101190476Y-71826428D01*
X101142857Y-71778809D01*
X101047619Y-71731190D01*
X100857142Y-71683571D01*
X100761904Y-71635952D01*
X100714285Y-71588333D01*
X100666666Y-71493095D01*
X100666666Y-71397857D01*
X100714285Y-71302619D01*
X100761904Y-71255000D01*
X100857142Y-71207380D01*
X101095238Y-71207380D01*
X101238095Y-71255000D01*
X101571428Y-71207380D02*
X101809523Y-72207380D01*
X102000000Y-71493095D01*
X102190476Y-72207380D01*
X102428571Y-71207380D01*
X102714285Y-71207380D02*
X103333333Y-71207380D01*
X103000000Y-71588333D01*
X103142857Y-71588333D01*
X103238095Y-71635952D01*
X103285714Y-71683571D01*
X103333333Y-71778809D01*
X103333333Y-72016904D01*
X103285714Y-72112142D01*
X103238095Y-72159761D01*
X103142857Y-72207380D01*
X102857142Y-72207380D01*
X102761904Y-72159761D01*
X102714285Y-72112142D01*
%TO.C,SW6*%
X153000000Y-73010000D02*
X152000000Y-73010000D01*
X152000000Y-87010000D02*
X153000000Y-87010000D01*
X166000000Y-73010000D02*
X166000000Y-74010000D01*
X165000000Y-87010000D02*
X166000000Y-87010000D01*
X166000000Y-86010000D02*
X166000000Y-87010000D01*
X152000000Y-87010000D02*
X152000000Y-86010000D01*
X152000000Y-74010000D02*
X152000000Y-73010000D01*
X166000000Y-73010000D02*
X165000000Y-73010000D01*
%TO.C,SW8*%
X190000000Y-74010000D02*
X190000000Y-73010000D01*
X204000000Y-73010000D02*
X203000000Y-73010000D01*
X191000000Y-73010000D02*
X190000000Y-73010000D01*
X204000000Y-86010000D02*
X204000000Y-87010000D01*
X203000000Y-87010000D02*
X204000000Y-87010000D01*
X190000000Y-87010000D02*
X191000000Y-87010000D01*
X204000000Y-73010000D02*
X204000000Y-74010000D01*
X190000000Y-87010000D02*
X190000000Y-86010000D01*
%TO.C,SW11*%
X261000000Y-73010000D02*
X260000000Y-73010000D01*
X247000000Y-87010000D02*
X248000000Y-87010000D01*
X261000000Y-73010000D02*
X261000000Y-74010000D01*
X247000000Y-74010000D02*
X247000000Y-73010000D01*
X261000000Y-86010000D02*
X261000000Y-87010000D01*
X247000000Y-87010000D02*
X247000000Y-86010000D01*
X260000000Y-87010000D02*
X261000000Y-87010000D01*
X248000000Y-73010000D02*
X247000000Y-73010000D01*
%TO.C,SW2*%
X77000000Y-73010000D02*
X76000000Y-73010000D01*
X89000000Y-87010000D02*
X90000000Y-87010000D01*
X90000000Y-73010000D02*
X89000000Y-73010000D01*
X76000000Y-87010000D02*
X76000000Y-86010000D01*
X90000000Y-86010000D02*
X90000000Y-87010000D01*
X76000000Y-87010000D02*
X77000000Y-87010000D01*
X76000000Y-74010000D02*
X76000000Y-73010000D01*
X90000000Y-73010000D02*
X90000000Y-74010000D01*
%TO.C,SW1*%
X57000000Y-87010000D02*
X57000000Y-86010000D01*
X57000000Y-74010000D02*
X57000000Y-73010000D01*
X71000000Y-86010000D02*
X71000000Y-87010000D01*
X71000000Y-73010000D02*
X71000000Y-74010000D01*
X57000000Y-87010000D02*
X58000000Y-87010000D01*
X70000000Y-87010000D02*
X71000000Y-87010000D01*
X71000000Y-73010000D02*
X70000000Y-73010000D01*
X58000000Y-73010000D02*
X57000000Y-73010000D01*
%TO.C,SW5*%
X133000000Y-87010000D02*
X134000000Y-87010000D01*
X134000000Y-73010000D02*
X133000000Y-73010000D01*
X147000000Y-73010000D02*
X147000000Y-74010000D01*
X133000000Y-74010000D02*
X133000000Y-73010000D01*
X147000000Y-73010000D02*
X146000000Y-73010000D01*
X133000000Y-87010000D02*
X133000000Y-86010000D01*
X147000000Y-86010000D02*
X147000000Y-87010000D01*
X146000000Y-87010000D02*
X147000000Y-87010000D01*
%TO.C,SW4*%
X128000000Y-73010000D02*
X128000000Y-74010000D01*
X114000000Y-87010000D02*
X115000000Y-87010000D01*
X127000000Y-87010000D02*
X128000000Y-87010000D01*
X114000000Y-74010000D02*
X114000000Y-73010000D01*
X128000000Y-73010000D02*
X127000000Y-73010000D01*
X115000000Y-73010000D02*
X114000000Y-73010000D01*
X128000000Y-86010000D02*
X128000000Y-87010000D01*
X114000000Y-87010000D02*
X114000000Y-86010000D01*
%TO.C,SW9*%
X210000000Y-73010000D02*
X209000000Y-73010000D01*
X223000000Y-73010000D02*
X222000000Y-73010000D01*
X222000000Y-87010000D02*
X223000000Y-87010000D01*
X209000000Y-87010000D02*
X210000000Y-87010000D01*
X209000000Y-87010000D02*
X209000000Y-86010000D01*
X223000000Y-73010000D02*
X223000000Y-74010000D01*
X223000000Y-86010000D02*
X223000000Y-87010000D01*
X209000000Y-74010000D02*
X209000000Y-73010000D01*
%TO.C,SW10*%
X228000000Y-87010000D02*
X228000000Y-86010000D01*
X242000000Y-86010000D02*
X242000000Y-87010000D01*
X241000000Y-87010000D02*
X242000000Y-87010000D01*
X242000000Y-73010000D02*
X242000000Y-74010000D01*
X228000000Y-87010000D02*
X229000000Y-87010000D01*
X242000000Y-73010000D02*
X241000000Y-73010000D01*
X229000000Y-73010000D02*
X228000000Y-73010000D01*
X228000000Y-74010000D02*
X228000000Y-73010000D01*
%TO.C,SW7*%
X185000000Y-86010000D02*
X185000000Y-87010000D01*
X171000000Y-87010000D02*
X172000000Y-87010000D01*
X185000000Y-73010000D02*
X184000000Y-73010000D01*
X172000000Y-73010000D02*
X171000000Y-73010000D01*
X171000000Y-87010000D02*
X171000000Y-86010000D01*
X185000000Y-73010000D02*
X185000000Y-74010000D01*
X184000000Y-87010000D02*
X185000000Y-87010000D01*
X171000000Y-74010000D02*
X171000000Y-73010000D01*
D12*
%TO.C,U1*%
X53725000Y-88900000D02*
X53725000Y-71120000D01*
X20705000Y-71120000D02*
X20705000Y-88900000D01*
X20705000Y-88900000D02*
X23245000Y-88900000D01*
X23245000Y-88900000D02*
X53725000Y-88900000D01*
X23245000Y-71120000D02*
X20705000Y-71120000D01*
X23245000Y-86360000D02*
X25785000Y-86360000D01*
X23245000Y-86360000D02*
X23245000Y-88900000D01*
X53725000Y-71120000D02*
X23245000Y-71120000D01*
X25785000Y-86360000D02*
X25785000Y-88900000D01*
D10*
%TO.C,SW12*%
X279000000Y-87010000D02*
X280000000Y-87010000D01*
X280000000Y-73010000D02*
X280000000Y-74010000D01*
X280000000Y-86010000D02*
X280000000Y-87010000D01*
X266000000Y-87010000D02*
X266000000Y-86010000D01*
X266000000Y-87010000D02*
X267000000Y-87010000D01*
X267000000Y-73010000D02*
X266000000Y-73010000D01*
X266000000Y-74010000D02*
X266000000Y-73010000D01*
X280000000Y-73010000D02*
X279000000Y-73010000D01*
%TO.C,SW3*%
X109000000Y-86010000D02*
X109000000Y-87010000D01*
X109000000Y-73010000D02*
X109000000Y-74010000D01*
X96000000Y-73010000D02*
X95000000Y-73010000D01*
X95000000Y-87010000D02*
X95000000Y-86010000D01*
X109000000Y-73010000D02*
X108000000Y-73010000D01*
X95000000Y-87010000D02*
X96000000Y-87010000D01*
X95000000Y-74010000D02*
X95000000Y-73010000D01*
X108000000Y-87010000D02*
X109000000Y-87010000D01*
%TD*%
D13*
%TO.C,U1*%
X24515000Y-87630000D03*
D14*
X27055000Y-87630000D03*
X29595000Y-87630000D03*
X32135000Y-87630000D03*
X34675000Y-87630000D03*
X37215000Y-87630000D03*
X39755000Y-87630000D03*
X42295000Y-87630000D03*
X44835000Y-87630000D03*
X47375000Y-87630000D03*
X49915000Y-87630000D03*
X52455000Y-87630000D03*
X52455000Y-72390000D03*
X49915000Y-72390000D03*
X47375000Y-72390000D03*
X44835000Y-72390000D03*
X42295000Y-72390000D03*
X39755000Y-72390000D03*
X37215000Y-72390000D03*
X34675000Y-72390000D03*
X32135000Y-72390000D03*
X29595000Y-72390000D03*
X27055000Y-72390000D03*
X24515000Y-72390000D03*
%TD*%
M02*
