M48
; DRILL file {KiCad 6.0.2+dfsg-1} date Tue 04 Jun 2024 13:24:58 BST
; FORMAT={-:-/ absolute / inch / decimal}
; #@! TF.CreationDate,2024-06-04T13:24:58+01:00
; #@! TF.GenerationSoftware,Kicad,Pcbnew,6.0.2+dfsg-1
; #@! TF.FileFunction,NonPlated,1,2,NPTH
FMAT,2
INCH
; #@! TA.AperFunction,NonPlated,NPTH,ComponentDrill
T1C0.0670
; #@! TA.AperFunction,NonPlated,NPTH,ComponentDrill
T2C0.1181
; #@! TA.AperFunction,NonPlated,NPTH,ComponentDrill
T3C0.1570
%
G90
G05
T1
X2.3197Y-3.15
X2.7197Y-3.15
X3.0677Y-3.15
X3.4677Y-3.15
X3.8157Y-3.15
X4.2157Y-3.15
X4.5638Y-3.15
X4.9638Y-3.15
X5.3118Y-3.15
X5.7118Y-3.15
X6.0598Y-3.15
X6.4598Y-3.15
X6.8079Y-3.15
X7.2079Y-3.15
X7.5559Y-3.15
X7.9559Y-3.15
X8.3039Y-3.15
X8.7039Y-3.15
X9.052Y-3.15
X9.452Y-3.15
X9.8Y-3.15
X10.2Y-3.15
X10.548Y-3.15
X10.948Y-3.15
T2
X2.4197Y-3.35
X2.6697Y-3.25
X3.1677Y-3.35
X3.4177Y-3.25
X3.9157Y-3.35
X4.1657Y-3.25
X4.6638Y-3.35
X4.9138Y-3.25
X5.4118Y-3.35
X5.6618Y-3.25
X6.1598Y-3.35
X6.4098Y-3.25
X6.9079Y-3.35
X7.1579Y-3.25
X7.6559Y-3.35
X7.9059Y-3.25
X8.4039Y-3.35
X8.6539Y-3.25
X9.152Y-3.35
X9.402Y-3.25
X9.9Y-3.35
X10.15Y-3.25
X10.648Y-3.35
X10.898Y-3.25
T3
X2.5197Y-3.15
X3.2677Y-3.15
X4.0157Y-3.15
X4.7638Y-3.15
X5.5118Y-3.15
X6.2598Y-3.15
X7.0079Y-3.15
X7.7559Y-3.15
X8.5039Y-3.15
X9.252Y-3.15
X10.0Y-3.15
X10.748Y-3.15
T0
M30
