%TF.GenerationSoftware,KiCad,Pcbnew,6.0.2+dfsg-1*%
%TF.CreationDate,2024-06-04T13:24:55+01:00*%
%TF.ProjectId,backRow_Pad,6261636b-526f-4775-9f50-61642e6b6963,0*%
%TF.SameCoordinates,Original*%
%TF.FileFunction,Soldermask,Top*%
%TF.FilePolarity,Negative*%
%FSLAX46Y46*%
G04 Gerber Fmt 4.6, Leading zero omitted, Abs format (unit mm)*
G04 Created by KiCad (PCBNEW 6.0.2+dfsg-1) date 2024-06-04 13:24:55*
%MOMM*%
%LPD*%
G01*
G04 APERTURE LIST*
%ADD10C,3.000000*%
%ADD11C,1.701800*%
%ADD12C,3.987800*%
%ADD13C,2.286000*%
%ADD14C,4.400000*%
%ADD15C,2.600000*%
%ADD16R,1.752600X1.752600*%
%ADD17C,1.752600*%
%ADD18R,1.600000X1.600000*%
%ADD19O,1.600000X1.600000*%
%ADD20C,2.000000*%
%ADD21R,1.700000X1.700000*%
%ADD22O,1.700000X1.700000*%
G04 APERTURE END LIST*
D10*
%TO.C,SW6*%
X162810000Y-82550000D03*
D11*
X153920000Y-80010000D03*
D10*
X156460000Y-85090000D03*
D12*
X159000000Y-80010000D03*
D11*
X164080000Y-80010000D03*
D13*
X161540000Y-74930000D03*
X155190000Y-77470000D03*
%TD*%
D14*
%TO.C,H1*%
X22240000Y-67310000D03*
D15*
X22240000Y-67310000D03*
%TD*%
D10*
%TO.C,SW8*%
X200810000Y-82550000D03*
D11*
X191920000Y-80010000D03*
D10*
X194460000Y-85090000D03*
D11*
X202080000Y-80010000D03*
D12*
X197000000Y-80010000D03*
D13*
X199540000Y-74930000D03*
X193190000Y-77470000D03*
%TD*%
D12*
%TO.C,SW11*%
X254000000Y-80010000D03*
D10*
X251460000Y-85090000D03*
D11*
X248920000Y-80010000D03*
X259080000Y-80010000D03*
D10*
X257810000Y-82550000D03*
D13*
X256540000Y-74930000D03*
X250190000Y-77470000D03*
%TD*%
D14*
%TO.C,H3*%
X281320000Y-92710000D03*
D15*
X281320000Y-92710000D03*
%TD*%
%TO.C,H4*%
X281320000Y-67310000D03*
D14*
X281320000Y-67310000D03*
%TD*%
D11*
%TO.C,SW2*%
X77920000Y-80010000D03*
D12*
X83000000Y-80010000D03*
D11*
X88080000Y-80010000D03*
D10*
X86810000Y-82550000D03*
X80460000Y-85090000D03*
D13*
X85540000Y-74930000D03*
X79190000Y-77470000D03*
%TD*%
D15*
%TO.C,H2*%
X22240000Y-92710000D03*
D14*
X22240000Y-92710000D03*
%TD*%
D10*
%TO.C,SW1*%
X67810000Y-82550000D03*
D12*
X64000000Y-80010000D03*
D10*
X61460000Y-85090000D03*
D11*
X58920000Y-80010000D03*
X69080000Y-80010000D03*
D13*
X66540000Y-74930000D03*
X60190000Y-77470000D03*
%TD*%
D11*
%TO.C,SW5*%
X145080000Y-80010000D03*
D10*
X143810000Y-82550000D03*
D12*
X140000000Y-80010000D03*
D10*
X137460000Y-85090000D03*
D11*
X134920000Y-80010000D03*
D13*
X142540000Y-74930000D03*
X136190000Y-77470000D03*
%TD*%
D10*
%TO.C,SW4*%
X118460000Y-85090000D03*
D11*
X115920000Y-80010000D03*
X126080000Y-80010000D03*
D10*
X124810000Y-82550000D03*
D12*
X121000000Y-80010000D03*
D13*
X123540000Y-74930000D03*
X117190000Y-77470000D03*
%TD*%
D12*
%TO.C,SW9*%
X216000000Y-80010000D03*
D11*
X210920000Y-80010000D03*
D10*
X213460000Y-85090000D03*
D11*
X221080000Y-80010000D03*
D10*
X219810000Y-82550000D03*
D13*
X218540000Y-74930000D03*
X212190000Y-77470000D03*
%TD*%
D12*
%TO.C,SW10*%
X235000000Y-80010000D03*
D10*
X238810000Y-82550000D03*
X232460000Y-85090000D03*
D11*
X229920000Y-80010000D03*
X240080000Y-80010000D03*
D13*
X237540000Y-74930000D03*
X231190000Y-77470000D03*
%TD*%
D10*
%TO.C,SW7*%
X181810000Y-82550000D03*
X175460000Y-85090000D03*
D11*
X172920000Y-80010000D03*
X183080000Y-80010000D03*
D12*
X178000000Y-80010000D03*
D13*
X180540000Y-74930000D03*
X174190000Y-77470000D03*
%TD*%
D16*
%TO.C,U1*%
X24515000Y-87630000D03*
D17*
X27055000Y-87630000D03*
X29595000Y-87630000D03*
X32135000Y-87630000D03*
X34675000Y-87630000D03*
X37215000Y-87630000D03*
X39755000Y-87630000D03*
X42295000Y-87630000D03*
X44835000Y-87630000D03*
X47375000Y-87630000D03*
X49915000Y-87630000D03*
X52455000Y-87630000D03*
X52455000Y-72390000D03*
X49915000Y-72390000D03*
X47375000Y-72390000D03*
X44835000Y-72390000D03*
X42295000Y-72390000D03*
X39755000Y-72390000D03*
X37215000Y-72390000D03*
X34675000Y-72390000D03*
X32135000Y-72390000D03*
X29595000Y-72390000D03*
X27055000Y-72390000D03*
X24515000Y-72390000D03*
%TD*%
D10*
%TO.C,SW12*%
X276810000Y-82550000D03*
D11*
X267920000Y-80010000D03*
D10*
X270460000Y-85090000D03*
D12*
X273000000Y-80010000D03*
D11*
X278080000Y-80010000D03*
D13*
X275540000Y-74930000D03*
X269190000Y-77470000D03*
%TD*%
D11*
%TO.C,SW3*%
X96920000Y-80010000D03*
D10*
X105810000Y-82550000D03*
D12*
X102000000Y-80010000D03*
D10*
X99460000Y-85090000D03*
D11*
X107080000Y-80010000D03*
D13*
X104540000Y-74930000D03*
X98190000Y-77470000D03*
%TD*%
D18*
%TO.C,D2*%
X78250000Y-71120000D03*
D19*
X85870000Y-71120000D03*
%TD*%
D18*
%TO.C,D12*%
X268250000Y-71120000D03*
D19*
X275870000Y-71120000D03*
%TD*%
D18*
%TO.C,D9*%
X211250000Y-71120000D03*
D19*
X218870000Y-71120000D03*
%TD*%
D18*
%TO.C,D7*%
X173250000Y-71120000D03*
D19*
X180870000Y-71120000D03*
%TD*%
D18*
%TO.C,D11*%
X249250000Y-71120000D03*
D19*
X256870000Y-71120000D03*
%TD*%
D20*
%TO.C,SW13*%
X27930000Y-67310000D03*
X34330000Y-67310000D03*
%TD*%
D21*
%TO.C,J1*%
X40020000Y-67310000D03*
D22*
X42560000Y-67310000D03*
X45100000Y-67310000D03*
%TD*%
D18*
%TO.C,D5*%
X135250000Y-71120000D03*
D19*
X142870000Y-71120000D03*
%TD*%
D18*
%TO.C,D1*%
X59250000Y-71120000D03*
D19*
X66870000Y-71120000D03*
%TD*%
D18*
%TO.C,D10*%
X230250000Y-71120000D03*
D19*
X237870000Y-71120000D03*
%TD*%
D18*
%TO.C,D8*%
X192250000Y-71120000D03*
D19*
X199870000Y-71120000D03*
%TD*%
D18*
%TO.C,D4*%
X116250000Y-71120000D03*
D19*
X123870000Y-71120000D03*
%TD*%
D18*
%TO.C,D6*%
X154250000Y-71120000D03*
D19*
X161870000Y-71120000D03*
%TD*%
D18*
%TO.C,D3*%
X97030000Y-71120000D03*
D19*
X104650000Y-71120000D03*
%TD*%
M02*
