%TF.GenerationSoftware,KiCad,Pcbnew,6.0.2+dfsg-1*%
%TF.CreationDate,2024-06-04T13:24:55+01:00*%
%TF.ProjectId,backRow_Pad,6261636b-526f-4775-9f50-61642e6b6963,0*%
%TF.SameCoordinates,Original*%
%TF.FileFunction,Legend,Bot*%
%TF.FilePolarity,Positive*%
%FSLAX46Y46*%
G04 Gerber Fmt 4.6, Leading zero omitted, Abs format (unit mm)*
G04 Created by KiCad (PCBNEW 6.0.2+dfsg-1) date 2024-06-04 13:24:55*
%MOMM*%
%LPD*%
G01*
G04 APERTURE LIST*
%ADD10C,0.150000*%
%ADD11C,0.381000*%
%ADD12C,0.120000*%
%ADD13R,1.752600X1.752600*%
%ADD14C,1.752600*%
G04 APERTURE END LIST*
D10*
X40146904Y-69350000D02*
X40242142Y-69302380D01*
X40385000Y-69302380D01*
X40527857Y-69350000D01*
X40623095Y-69445238D01*
X40670714Y-69540476D01*
X40718333Y-69730952D01*
X40718333Y-69873809D01*
X40670714Y-70064285D01*
X40623095Y-70159523D01*
X40527857Y-70254761D01*
X40385000Y-70302380D01*
X40289761Y-70302380D01*
X40146904Y-70254761D01*
X40099285Y-70207142D01*
X40099285Y-69873809D01*
X40289761Y-69873809D01*
X39670714Y-70302380D02*
X39670714Y-69302380D01*
X39099285Y-70302380D01*
X39099285Y-69302380D01*
X38623095Y-70302380D02*
X38623095Y-69302380D01*
X38385000Y-69302380D01*
X38242142Y-69350000D01*
X38146904Y-69445238D01*
X38099285Y-69540476D01*
X38051666Y-69730952D01*
X38051666Y-69873809D01*
X38099285Y-70064285D01*
X38146904Y-70159523D01*
X38242142Y-70254761D01*
X38385000Y-70302380D01*
X38623095Y-70302380D01*
X53997857Y-67127380D02*
X54474047Y-67127380D01*
X54474047Y-66127380D01*
X53664523Y-66603571D02*
X53331190Y-66603571D01*
X53188333Y-67127380D02*
X53664523Y-67127380D01*
X53664523Y-66127380D01*
X53188333Y-66127380D01*
X52759761Y-67127380D02*
X52759761Y-66127380D01*
X52521666Y-66127380D01*
X52378809Y-66175000D01*
X52283571Y-66270238D01*
X52235952Y-66365476D01*
X52188333Y-66555952D01*
X52188333Y-66698809D01*
X52235952Y-66889285D01*
X52283571Y-66984523D01*
X52378809Y-67079761D01*
X52521666Y-67127380D01*
X52759761Y-67127380D01*
X32291904Y-70465904D02*
X32558571Y-70084952D01*
X32749047Y-70465904D02*
X32749047Y-69665904D01*
X32444285Y-69665904D01*
X32368095Y-69704000D01*
X32330000Y-69742095D01*
X32291904Y-69818285D01*
X32291904Y-69932571D01*
X32330000Y-70008761D01*
X32368095Y-70046857D01*
X32444285Y-70084952D01*
X32749047Y-70084952D01*
X31949047Y-70046857D02*
X31682380Y-70046857D01*
X31568095Y-70465904D02*
X31949047Y-70465904D01*
X31949047Y-69665904D01*
X31568095Y-69665904D01*
X31263333Y-70427809D02*
X31149047Y-70465904D01*
X30958571Y-70465904D01*
X30882380Y-70427809D01*
X30844285Y-70389714D01*
X30806190Y-70313523D01*
X30806190Y-70237333D01*
X30844285Y-70161142D01*
X30882380Y-70123047D01*
X30958571Y-70084952D01*
X31110952Y-70046857D01*
X31187142Y-70008761D01*
X31225238Y-69970666D01*
X31263333Y-69894476D01*
X31263333Y-69818285D01*
X31225238Y-69742095D01*
X31187142Y-69704000D01*
X31110952Y-69665904D01*
X30920476Y-69665904D01*
X30806190Y-69704000D01*
X30463333Y-70046857D02*
X30196666Y-70046857D01*
X30082380Y-70465904D02*
X30463333Y-70465904D01*
X30463333Y-69665904D01*
X30082380Y-69665904D01*
X29853809Y-69665904D02*
X29396666Y-69665904D01*
X29625238Y-70465904D02*
X29625238Y-69665904D01*
X57291904Y-69350000D02*
X57387142Y-69302380D01*
X57530000Y-69302380D01*
X57672857Y-69350000D01*
X57768095Y-69445238D01*
X57815714Y-69540476D01*
X57863333Y-69730952D01*
X57863333Y-69873809D01*
X57815714Y-70064285D01*
X57768095Y-70159523D01*
X57672857Y-70254761D01*
X57530000Y-70302380D01*
X57434761Y-70302380D01*
X57291904Y-70254761D01*
X57244285Y-70207142D01*
X57244285Y-69873809D01*
X57434761Y-69873809D01*
X56815714Y-70302380D02*
X56815714Y-69302380D01*
X56244285Y-70302380D01*
X56244285Y-69302380D01*
X55768095Y-70302380D02*
X55768095Y-69302380D01*
X55530000Y-69302380D01*
X55387142Y-69350000D01*
X55291904Y-69445238D01*
X55244285Y-69540476D01*
X55196666Y-69730952D01*
X55196666Y-69873809D01*
X55244285Y-70064285D01*
X55291904Y-70159523D01*
X55387142Y-70254761D01*
X55530000Y-70302380D01*
X55768095Y-70302380D01*
X45925476Y-69302380D02*
X46401666Y-69302380D01*
X46449285Y-69778571D01*
X46401666Y-69730952D01*
X46306428Y-69683333D01*
X46068333Y-69683333D01*
X45973095Y-69730952D01*
X45925476Y-69778571D01*
X45877857Y-69873809D01*
X45877857Y-70111904D01*
X45925476Y-70207142D01*
X45973095Y-70254761D01*
X46068333Y-70302380D01*
X46306428Y-70302380D01*
X46401666Y-70254761D01*
X46449285Y-70207142D01*
X45592142Y-69302380D02*
X45258809Y-70302380D01*
X44925476Y-69302380D01*
X50370476Y-69302380D02*
X50846666Y-69302380D01*
X50894285Y-69778571D01*
X50846666Y-69730952D01*
X50751428Y-69683333D01*
X50513333Y-69683333D01*
X50418095Y-69730952D01*
X50370476Y-69778571D01*
X50322857Y-69873809D01*
X50322857Y-70111904D01*
X50370476Y-70207142D01*
X50418095Y-70254761D01*
X50513333Y-70302380D01*
X50751428Y-70302380D01*
X50846666Y-70254761D01*
X50894285Y-70207142D01*
X50037142Y-69302380D02*
X49703809Y-70302380D01*
X49370476Y-69302380D01*
X43202857Y-70302380D02*
X43679047Y-70302380D01*
X43679047Y-69302380D01*
X42869523Y-69778571D02*
X42536190Y-69778571D01*
X42393333Y-70302380D02*
X42869523Y-70302380D01*
X42869523Y-69302380D01*
X42393333Y-69302380D01*
X41964761Y-70302380D02*
X41964761Y-69302380D01*
X41726666Y-69302380D01*
X41583809Y-69350000D01*
X41488571Y-69445238D01*
X41440952Y-69540476D01*
X41393333Y-69730952D01*
X41393333Y-69873809D01*
X41440952Y-70064285D01*
X41488571Y-70159523D01*
X41583809Y-70254761D01*
X41726666Y-70302380D01*
X41964761Y-70302380D01*
%TO.C,SW6*%
X164143333Y-88669761D02*
X164000476Y-88717380D01*
X163762380Y-88717380D01*
X163667142Y-88669761D01*
X163619523Y-88622142D01*
X163571904Y-88526904D01*
X163571904Y-88431666D01*
X163619523Y-88336428D01*
X163667142Y-88288809D01*
X163762380Y-88241190D01*
X163952857Y-88193571D01*
X164048095Y-88145952D01*
X164095714Y-88098333D01*
X164143333Y-88003095D01*
X164143333Y-87907857D01*
X164095714Y-87812619D01*
X164048095Y-87765000D01*
X163952857Y-87717380D01*
X163714761Y-87717380D01*
X163571904Y-87765000D01*
X163238571Y-87717380D02*
X163000476Y-88717380D01*
X162810000Y-88003095D01*
X162619523Y-88717380D01*
X162381428Y-87717380D01*
X161571904Y-87717380D02*
X161762380Y-87717380D01*
X161857619Y-87765000D01*
X161905238Y-87812619D01*
X162000476Y-87955476D01*
X162048095Y-88145952D01*
X162048095Y-88526904D01*
X162000476Y-88622142D01*
X161952857Y-88669761D01*
X161857619Y-88717380D01*
X161667142Y-88717380D01*
X161571904Y-88669761D01*
X161524285Y-88622142D01*
X161476666Y-88526904D01*
X161476666Y-88288809D01*
X161524285Y-88193571D01*
X161571904Y-88145952D01*
X161667142Y-88098333D01*
X161857619Y-88098333D01*
X161952857Y-88145952D01*
X162000476Y-88193571D01*
X162048095Y-88288809D01*
%TO.C,SW8*%
X202143333Y-88669761D02*
X202000476Y-88717380D01*
X201762380Y-88717380D01*
X201667142Y-88669761D01*
X201619523Y-88622142D01*
X201571904Y-88526904D01*
X201571904Y-88431666D01*
X201619523Y-88336428D01*
X201667142Y-88288809D01*
X201762380Y-88241190D01*
X201952857Y-88193571D01*
X202048095Y-88145952D01*
X202095714Y-88098333D01*
X202143333Y-88003095D01*
X202143333Y-87907857D01*
X202095714Y-87812619D01*
X202048095Y-87765000D01*
X201952857Y-87717380D01*
X201714761Y-87717380D01*
X201571904Y-87765000D01*
X201238571Y-87717380D02*
X201000476Y-88717380D01*
X200810000Y-88003095D01*
X200619523Y-88717380D01*
X200381428Y-87717380D01*
X199857619Y-88145952D02*
X199952857Y-88098333D01*
X200000476Y-88050714D01*
X200048095Y-87955476D01*
X200048095Y-87907857D01*
X200000476Y-87812619D01*
X199952857Y-87765000D01*
X199857619Y-87717380D01*
X199667142Y-87717380D01*
X199571904Y-87765000D01*
X199524285Y-87812619D01*
X199476666Y-87907857D01*
X199476666Y-87955476D01*
X199524285Y-88050714D01*
X199571904Y-88098333D01*
X199667142Y-88145952D01*
X199857619Y-88145952D01*
X199952857Y-88193571D01*
X200000476Y-88241190D01*
X200048095Y-88336428D01*
X200048095Y-88526904D01*
X200000476Y-88622142D01*
X199952857Y-88669761D01*
X199857619Y-88717380D01*
X199667142Y-88717380D01*
X199571904Y-88669761D01*
X199524285Y-88622142D01*
X199476666Y-88526904D01*
X199476666Y-88336428D01*
X199524285Y-88241190D01*
X199571904Y-88193571D01*
X199667142Y-88145952D01*
%TO.C,SW11*%
X259619523Y-88669761D02*
X259476666Y-88717380D01*
X259238571Y-88717380D01*
X259143333Y-88669761D01*
X259095714Y-88622142D01*
X259048095Y-88526904D01*
X259048095Y-88431666D01*
X259095714Y-88336428D01*
X259143333Y-88288809D01*
X259238571Y-88241190D01*
X259429047Y-88193571D01*
X259524285Y-88145952D01*
X259571904Y-88098333D01*
X259619523Y-88003095D01*
X259619523Y-87907857D01*
X259571904Y-87812619D01*
X259524285Y-87765000D01*
X259429047Y-87717380D01*
X259190952Y-87717380D01*
X259048095Y-87765000D01*
X258714761Y-87717380D02*
X258476666Y-88717380D01*
X258286190Y-88003095D01*
X258095714Y-88717380D01*
X257857619Y-87717380D01*
X256952857Y-88717380D02*
X257524285Y-88717380D01*
X257238571Y-88717380D02*
X257238571Y-87717380D01*
X257333809Y-87860238D01*
X257429047Y-87955476D01*
X257524285Y-88003095D01*
X256000476Y-88717380D02*
X256571904Y-88717380D01*
X256286190Y-88717380D02*
X256286190Y-87717380D01*
X256381428Y-87860238D01*
X256476666Y-87955476D01*
X256571904Y-88003095D01*
%TO.C,SW2*%
X88143333Y-88669761D02*
X88000476Y-88717380D01*
X87762380Y-88717380D01*
X87667142Y-88669761D01*
X87619523Y-88622142D01*
X87571904Y-88526904D01*
X87571904Y-88431666D01*
X87619523Y-88336428D01*
X87667142Y-88288809D01*
X87762380Y-88241190D01*
X87952857Y-88193571D01*
X88048095Y-88145952D01*
X88095714Y-88098333D01*
X88143333Y-88003095D01*
X88143333Y-87907857D01*
X88095714Y-87812619D01*
X88048095Y-87765000D01*
X87952857Y-87717380D01*
X87714761Y-87717380D01*
X87571904Y-87765000D01*
X87238571Y-87717380D02*
X87000476Y-88717380D01*
X86810000Y-88003095D01*
X86619523Y-88717380D01*
X86381428Y-87717380D01*
X86048095Y-87812619D02*
X86000476Y-87765000D01*
X85905238Y-87717380D01*
X85667142Y-87717380D01*
X85571904Y-87765000D01*
X85524285Y-87812619D01*
X85476666Y-87907857D01*
X85476666Y-88003095D01*
X85524285Y-88145952D01*
X86095714Y-88717380D01*
X85476666Y-88717380D01*
%TO.C,SW1*%
X69143333Y-88669761D02*
X69000476Y-88717380D01*
X68762380Y-88717380D01*
X68667142Y-88669761D01*
X68619523Y-88622142D01*
X68571904Y-88526904D01*
X68571904Y-88431666D01*
X68619523Y-88336428D01*
X68667142Y-88288809D01*
X68762380Y-88241190D01*
X68952857Y-88193571D01*
X69048095Y-88145952D01*
X69095714Y-88098333D01*
X69143333Y-88003095D01*
X69143333Y-87907857D01*
X69095714Y-87812619D01*
X69048095Y-87765000D01*
X68952857Y-87717380D01*
X68714761Y-87717380D01*
X68571904Y-87765000D01*
X68238571Y-87717380D02*
X68000476Y-88717380D01*
X67810000Y-88003095D01*
X67619523Y-88717380D01*
X67381428Y-87717380D01*
X66476666Y-88717380D02*
X67048095Y-88717380D01*
X66762380Y-88717380D02*
X66762380Y-87717380D01*
X66857619Y-87860238D01*
X66952857Y-87955476D01*
X67048095Y-88003095D01*
%TO.C,SW5*%
X145143333Y-88669761D02*
X145000476Y-88717380D01*
X144762380Y-88717380D01*
X144667142Y-88669761D01*
X144619523Y-88622142D01*
X144571904Y-88526904D01*
X144571904Y-88431666D01*
X144619523Y-88336428D01*
X144667142Y-88288809D01*
X144762380Y-88241190D01*
X144952857Y-88193571D01*
X145048095Y-88145952D01*
X145095714Y-88098333D01*
X145143333Y-88003095D01*
X145143333Y-87907857D01*
X145095714Y-87812619D01*
X145048095Y-87765000D01*
X144952857Y-87717380D01*
X144714761Y-87717380D01*
X144571904Y-87765000D01*
X144238571Y-87717380D02*
X144000476Y-88717380D01*
X143810000Y-88003095D01*
X143619523Y-88717380D01*
X143381428Y-87717380D01*
X142524285Y-87717380D02*
X143000476Y-87717380D01*
X143048095Y-88193571D01*
X143000476Y-88145952D01*
X142905238Y-88098333D01*
X142667142Y-88098333D01*
X142571904Y-88145952D01*
X142524285Y-88193571D01*
X142476666Y-88288809D01*
X142476666Y-88526904D01*
X142524285Y-88622142D01*
X142571904Y-88669761D01*
X142667142Y-88717380D01*
X142905238Y-88717380D01*
X143000476Y-88669761D01*
X143048095Y-88622142D01*
%TO.C,SW4*%
X126143333Y-88669761D02*
X126000476Y-88717380D01*
X125762380Y-88717380D01*
X125667142Y-88669761D01*
X125619523Y-88622142D01*
X125571904Y-88526904D01*
X125571904Y-88431666D01*
X125619523Y-88336428D01*
X125667142Y-88288809D01*
X125762380Y-88241190D01*
X125952857Y-88193571D01*
X126048095Y-88145952D01*
X126095714Y-88098333D01*
X126143333Y-88003095D01*
X126143333Y-87907857D01*
X126095714Y-87812619D01*
X126048095Y-87765000D01*
X125952857Y-87717380D01*
X125714761Y-87717380D01*
X125571904Y-87765000D01*
X125238571Y-87717380D02*
X125000476Y-88717380D01*
X124810000Y-88003095D01*
X124619523Y-88717380D01*
X124381428Y-87717380D01*
X123571904Y-88050714D02*
X123571904Y-88717380D01*
X123810000Y-87669761D02*
X124048095Y-88384047D01*
X123429047Y-88384047D01*
%TO.C,SW9*%
X221143333Y-88669761D02*
X221000476Y-88717380D01*
X220762380Y-88717380D01*
X220667142Y-88669761D01*
X220619523Y-88622142D01*
X220571904Y-88526904D01*
X220571904Y-88431666D01*
X220619523Y-88336428D01*
X220667142Y-88288809D01*
X220762380Y-88241190D01*
X220952857Y-88193571D01*
X221048095Y-88145952D01*
X221095714Y-88098333D01*
X221143333Y-88003095D01*
X221143333Y-87907857D01*
X221095714Y-87812619D01*
X221048095Y-87765000D01*
X220952857Y-87717380D01*
X220714761Y-87717380D01*
X220571904Y-87765000D01*
X220238571Y-87717380D02*
X220000476Y-88717380D01*
X219810000Y-88003095D01*
X219619523Y-88717380D01*
X219381428Y-87717380D01*
X218952857Y-88717380D02*
X218762380Y-88717380D01*
X218667142Y-88669761D01*
X218619523Y-88622142D01*
X218524285Y-88479285D01*
X218476666Y-88288809D01*
X218476666Y-87907857D01*
X218524285Y-87812619D01*
X218571904Y-87765000D01*
X218667142Y-87717380D01*
X218857619Y-87717380D01*
X218952857Y-87765000D01*
X219000476Y-87812619D01*
X219048095Y-87907857D01*
X219048095Y-88145952D01*
X219000476Y-88241190D01*
X218952857Y-88288809D01*
X218857619Y-88336428D01*
X218667142Y-88336428D01*
X218571904Y-88288809D01*
X218524285Y-88241190D01*
X218476666Y-88145952D01*
%TO.C,SW10*%
X240619523Y-88669761D02*
X240476666Y-88717380D01*
X240238571Y-88717380D01*
X240143333Y-88669761D01*
X240095714Y-88622142D01*
X240048095Y-88526904D01*
X240048095Y-88431666D01*
X240095714Y-88336428D01*
X240143333Y-88288809D01*
X240238571Y-88241190D01*
X240429047Y-88193571D01*
X240524285Y-88145952D01*
X240571904Y-88098333D01*
X240619523Y-88003095D01*
X240619523Y-87907857D01*
X240571904Y-87812619D01*
X240524285Y-87765000D01*
X240429047Y-87717380D01*
X240190952Y-87717380D01*
X240048095Y-87765000D01*
X239714761Y-87717380D02*
X239476666Y-88717380D01*
X239286190Y-88003095D01*
X239095714Y-88717380D01*
X238857619Y-87717380D01*
X237952857Y-88717380D02*
X238524285Y-88717380D01*
X238238571Y-88717380D02*
X238238571Y-87717380D01*
X238333809Y-87860238D01*
X238429047Y-87955476D01*
X238524285Y-88003095D01*
X237333809Y-87717380D02*
X237238571Y-87717380D01*
X237143333Y-87765000D01*
X237095714Y-87812619D01*
X237048095Y-87907857D01*
X237000476Y-88098333D01*
X237000476Y-88336428D01*
X237048095Y-88526904D01*
X237095714Y-88622142D01*
X237143333Y-88669761D01*
X237238571Y-88717380D01*
X237333809Y-88717380D01*
X237429047Y-88669761D01*
X237476666Y-88622142D01*
X237524285Y-88526904D01*
X237571904Y-88336428D01*
X237571904Y-88098333D01*
X237524285Y-87907857D01*
X237476666Y-87812619D01*
X237429047Y-87765000D01*
X237333809Y-87717380D01*
%TO.C,SW7*%
X183143333Y-88669761D02*
X183000476Y-88717380D01*
X182762380Y-88717380D01*
X182667142Y-88669761D01*
X182619523Y-88622142D01*
X182571904Y-88526904D01*
X182571904Y-88431666D01*
X182619523Y-88336428D01*
X182667142Y-88288809D01*
X182762380Y-88241190D01*
X182952857Y-88193571D01*
X183048095Y-88145952D01*
X183095714Y-88098333D01*
X183143333Y-88003095D01*
X183143333Y-87907857D01*
X183095714Y-87812619D01*
X183048095Y-87765000D01*
X182952857Y-87717380D01*
X182714761Y-87717380D01*
X182571904Y-87765000D01*
X182238571Y-87717380D02*
X182000476Y-88717380D01*
X181810000Y-88003095D01*
X181619523Y-88717380D01*
X181381428Y-87717380D01*
X181095714Y-87717380D02*
X180429047Y-87717380D01*
X180857619Y-88717380D01*
%TO.C,U1*%
X35036904Y-84499523D02*
X34236904Y-84499523D01*
X34236904Y-84690000D01*
X34275000Y-84804285D01*
X34351190Y-84880476D01*
X34427380Y-84918571D01*
X34579761Y-84956666D01*
X34694047Y-84956666D01*
X34846428Y-84918571D01*
X34922619Y-84880476D01*
X34998809Y-84804285D01*
X35036904Y-84690000D01*
X35036904Y-84499523D01*
X34313095Y-85261428D02*
X34275000Y-85299523D01*
X34236904Y-85375714D01*
X34236904Y-85566190D01*
X34275000Y-85642380D01*
X34313095Y-85680476D01*
X34389285Y-85718571D01*
X34465476Y-85718571D01*
X34579761Y-85680476D01*
X35036904Y-85223333D01*
X35036904Y-85718571D01*
X24876904Y-82124761D02*
X24076904Y-82124761D01*
X24076904Y-82315238D01*
X24115000Y-82429523D01*
X24191190Y-82505714D01*
X24267380Y-82543809D01*
X24419761Y-82581904D01*
X24534047Y-82581904D01*
X24686428Y-82543809D01*
X24762619Y-82505714D01*
X24838809Y-82429523D01*
X24876904Y-82315238D01*
X24876904Y-82124761D01*
X24076904Y-83077142D02*
X24076904Y-83153333D01*
X24115000Y-83229523D01*
X24153095Y-83267619D01*
X24229285Y-83305714D01*
X24381666Y-83343809D01*
X24572142Y-83343809D01*
X24724523Y-83305714D01*
X24800714Y-83267619D01*
X24838809Y-83229523D01*
X24876904Y-83153333D01*
X24876904Y-83077142D01*
X24838809Y-83000952D01*
X24800714Y-82962857D01*
X24724523Y-82924761D01*
X24572142Y-82886666D01*
X24381666Y-82886666D01*
X24229285Y-82924761D01*
X24153095Y-82962857D01*
X24115000Y-83000952D01*
X24076904Y-83077142D01*
X24038809Y-84258095D02*
X25067380Y-83572380D01*
X24076904Y-84410476D02*
X24076904Y-84867619D01*
X24876904Y-84639047D02*
X24076904Y-84639047D01*
X24076904Y-85058095D02*
X24876904Y-85591428D01*
X24076904Y-85591428D02*
X24876904Y-85058095D01*
X24876904Y-74377619D02*
X24495952Y-74110952D01*
X24876904Y-73920476D02*
X24076904Y-73920476D01*
X24076904Y-74225238D01*
X24115000Y-74301428D01*
X24153095Y-74339523D01*
X24229285Y-74377619D01*
X24343571Y-74377619D01*
X24419761Y-74339523D01*
X24457857Y-74301428D01*
X24495952Y-74225238D01*
X24495952Y-73920476D01*
X24648333Y-74682380D02*
X24648333Y-75063333D01*
X24876904Y-74606190D02*
X24076904Y-74872857D01*
X24876904Y-75139523D01*
X24076904Y-75330000D02*
X24876904Y-75520476D01*
X24305476Y-75672857D01*
X24876904Y-75825238D01*
X24076904Y-76015714D01*
X26655000Y-74320476D02*
X26616904Y-74244285D01*
X26616904Y-74130000D01*
X26655000Y-74015714D01*
X26731190Y-73939523D01*
X26807380Y-73901428D01*
X26959761Y-73863333D01*
X27074047Y-73863333D01*
X27226428Y-73901428D01*
X27302619Y-73939523D01*
X27378809Y-74015714D01*
X27416904Y-74130000D01*
X27416904Y-74206190D01*
X27378809Y-74320476D01*
X27340714Y-74358571D01*
X27074047Y-74358571D01*
X27074047Y-74206190D01*
X27416904Y-74701428D02*
X26616904Y-74701428D01*
X27416904Y-75158571D01*
X26616904Y-75158571D01*
X27416904Y-75539523D02*
X26616904Y-75539523D01*
X26616904Y-75730000D01*
X26655000Y-75844285D01*
X26731190Y-75920476D01*
X26807380Y-75958571D01*
X26959761Y-75996666D01*
X27074047Y-75996666D01*
X27226428Y-75958571D01*
X27302619Y-75920476D01*
X27378809Y-75844285D01*
X27416904Y-75730000D01*
X27416904Y-75539523D01*
X47736904Y-73672857D02*
X46936904Y-73672857D01*
X47508333Y-73939523D01*
X46936904Y-74206190D01*
X47736904Y-74206190D01*
X47736904Y-74587142D02*
X46936904Y-74587142D01*
X47698809Y-74930000D02*
X47736904Y-75044285D01*
X47736904Y-75234761D01*
X47698809Y-75310952D01*
X47660714Y-75349047D01*
X47584523Y-75387142D01*
X47508333Y-75387142D01*
X47432142Y-75349047D01*
X47394047Y-75310952D01*
X47355952Y-75234761D01*
X47317857Y-75082380D01*
X47279761Y-75006190D01*
X47241666Y-74968095D01*
X47165476Y-74930000D01*
X47089285Y-74930000D01*
X47013095Y-74968095D01*
X46975000Y-75006190D01*
X46936904Y-75082380D01*
X46936904Y-75272857D01*
X46975000Y-75387142D01*
X46936904Y-75882380D02*
X46936904Y-76034761D01*
X46975000Y-76110952D01*
X47051190Y-76187142D01*
X47203571Y-76225238D01*
X47470238Y-76225238D01*
X47622619Y-76187142D01*
X47698809Y-76110952D01*
X47736904Y-76034761D01*
X47736904Y-75882380D01*
X47698809Y-75806190D01*
X47622619Y-75730000D01*
X47470238Y-75691904D01*
X47203571Y-75691904D01*
X47051190Y-75730000D01*
X46975000Y-75806190D01*
X46936904Y-75882380D01*
X29195000Y-84480476D02*
X29156904Y-84404285D01*
X29156904Y-84290000D01*
X29195000Y-84175714D01*
X29271190Y-84099523D01*
X29347380Y-84061428D01*
X29499761Y-84023333D01*
X29614047Y-84023333D01*
X29766428Y-84061428D01*
X29842619Y-84099523D01*
X29918809Y-84175714D01*
X29956904Y-84290000D01*
X29956904Y-84366190D01*
X29918809Y-84480476D01*
X29880714Y-84518571D01*
X29614047Y-84518571D01*
X29614047Y-84366190D01*
X29956904Y-84861428D02*
X29156904Y-84861428D01*
X29956904Y-85318571D01*
X29156904Y-85318571D01*
X29956904Y-85699523D02*
X29156904Y-85699523D01*
X29156904Y-85890000D01*
X29195000Y-86004285D01*
X29271190Y-86080476D01*
X29347380Y-86118571D01*
X29499761Y-86156666D01*
X29614047Y-86156666D01*
X29766428Y-86118571D01*
X29842619Y-86080476D01*
X29918809Y-86004285D01*
X29956904Y-85890000D01*
X29956904Y-85699523D01*
X37576904Y-84499523D02*
X36776904Y-84499523D01*
X36776904Y-84690000D01*
X36815000Y-84804285D01*
X36891190Y-84880476D01*
X36967380Y-84918571D01*
X37119761Y-84956666D01*
X37234047Y-84956666D01*
X37386428Y-84918571D01*
X37462619Y-84880476D01*
X37538809Y-84804285D01*
X37576904Y-84690000D01*
X37576904Y-84499523D01*
X36776904Y-85223333D02*
X36776904Y-85718571D01*
X37081666Y-85451904D01*
X37081666Y-85566190D01*
X37119761Y-85642380D01*
X37157857Y-85680476D01*
X37234047Y-85718571D01*
X37424523Y-85718571D01*
X37500714Y-85680476D01*
X37538809Y-85642380D01*
X37576904Y-85566190D01*
X37576904Y-85337619D01*
X37538809Y-85261428D01*
X37500714Y-85223333D01*
X39888333Y-74358571D02*
X39888333Y-74739523D01*
X40116904Y-74282380D02*
X39316904Y-74549047D01*
X40116904Y-74815714D01*
X40116904Y-75501428D02*
X40116904Y-75044285D01*
X40116904Y-75272857D02*
X39316904Y-75272857D01*
X39431190Y-75196666D01*
X39507380Y-75120476D01*
X39545476Y-75044285D01*
X27416904Y-82029523D02*
X26616904Y-82029523D01*
X26616904Y-82220000D01*
X26655000Y-82334285D01*
X26731190Y-82410476D01*
X26807380Y-82448571D01*
X26959761Y-82486666D01*
X27074047Y-82486666D01*
X27226428Y-82448571D01*
X27302619Y-82410476D01*
X27378809Y-82334285D01*
X27416904Y-82220000D01*
X27416904Y-82029523D01*
X27416904Y-83248571D02*
X27416904Y-82791428D01*
X27416904Y-83020000D02*
X26616904Y-83020000D01*
X26731190Y-82943809D01*
X26807380Y-82867619D01*
X26845476Y-82791428D01*
X26578809Y-84162857D02*
X27607380Y-83477142D01*
X27416904Y-84886666D02*
X27035952Y-84620000D01*
X27416904Y-84429523D02*
X26616904Y-84429523D01*
X26616904Y-84734285D01*
X26655000Y-84810476D01*
X26693095Y-84848571D01*
X26769285Y-84886666D01*
X26883571Y-84886666D01*
X26959761Y-84848571D01*
X26997857Y-84810476D01*
X27035952Y-84734285D01*
X27035952Y-84429523D01*
X26616904Y-85153333D02*
X27416904Y-85686666D01*
X26616904Y-85686666D02*
X27416904Y-85153333D01*
X34808333Y-74358571D02*
X34808333Y-74739523D01*
X35036904Y-74282380D02*
X34236904Y-74549047D01*
X35036904Y-74815714D01*
X34236904Y-75006190D02*
X34236904Y-75501428D01*
X34541666Y-75234761D01*
X34541666Y-75349047D01*
X34579761Y-75425238D01*
X34617857Y-75463333D01*
X34694047Y-75501428D01*
X34884523Y-75501428D01*
X34960714Y-75463333D01*
X34998809Y-75425238D01*
X35036904Y-75349047D01*
X35036904Y-75120476D01*
X34998809Y-75044285D01*
X34960714Y-75006190D01*
X53121666Y-78924285D02*
X53083571Y-78886190D01*
X52969285Y-78810000D01*
X52893095Y-78771904D01*
X52778809Y-78733809D01*
X52588333Y-78695714D01*
X52435952Y-78695714D01*
X52245476Y-78733809D01*
X52131190Y-78771904D01*
X52055000Y-78810000D01*
X51940714Y-78886190D01*
X51902619Y-78924285D01*
X52816904Y-79229047D02*
X52016904Y-79229047D01*
X52093095Y-79571904D02*
X52055000Y-79610000D01*
X52016904Y-79686190D01*
X52016904Y-79876666D01*
X52055000Y-79952857D01*
X52093095Y-79990952D01*
X52169285Y-80029047D01*
X52245476Y-80029047D01*
X52359761Y-79990952D01*
X52816904Y-79533809D01*
X52816904Y-80029047D01*
X52740714Y-80829047D02*
X52778809Y-80790952D01*
X52816904Y-80676666D01*
X52816904Y-80600476D01*
X52778809Y-80486190D01*
X52702619Y-80410000D01*
X52626428Y-80371904D01*
X52474047Y-80333809D01*
X52359761Y-80333809D01*
X52207380Y-80371904D01*
X52131190Y-80410000D01*
X52055000Y-80486190D01*
X52016904Y-80600476D01*
X52016904Y-80676666D01*
X52055000Y-80790952D01*
X52093095Y-80829047D01*
X53121666Y-81095714D02*
X53083571Y-81133809D01*
X52969285Y-81210000D01*
X52893095Y-81248095D01*
X52778809Y-81286190D01*
X52588333Y-81324285D01*
X52435952Y-81324285D01*
X52245476Y-81286190D01*
X52131190Y-81248095D01*
X52055000Y-81210000D01*
X51940714Y-81133809D01*
X51902619Y-81095714D01*
X45196904Y-84499523D02*
X44396904Y-84499523D01*
X44396904Y-84690000D01*
X44435000Y-84804285D01*
X44511190Y-84880476D01*
X44587380Y-84918571D01*
X44739761Y-84956666D01*
X44854047Y-84956666D01*
X45006428Y-84918571D01*
X45082619Y-84880476D01*
X45158809Y-84804285D01*
X45196904Y-84690000D01*
X45196904Y-84499523D01*
X44396904Y-85642380D02*
X44396904Y-85490000D01*
X44435000Y-85413809D01*
X44473095Y-85375714D01*
X44587380Y-85299523D01*
X44739761Y-85261428D01*
X45044523Y-85261428D01*
X45120714Y-85299523D01*
X45158809Y-85337619D01*
X45196904Y-85413809D01*
X45196904Y-85566190D01*
X45158809Y-85642380D01*
X45120714Y-85680476D01*
X45044523Y-85718571D01*
X44854047Y-85718571D01*
X44777857Y-85680476D01*
X44739761Y-85642380D01*
X44701666Y-85566190D01*
X44701666Y-85413809D01*
X44739761Y-85337619D01*
X44777857Y-85299523D01*
X44854047Y-85261428D01*
X50276904Y-84499523D02*
X49476904Y-84499523D01*
X49476904Y-84690000D01*
X49515000Y-84804285D01*
X49591190Y-84880476D01*
X49667380Y-84918571D01*
X49819761Y-84956666D01*
X49934047Y-84956666D01*
X50086428Y-84918571D01*
X50162619Y-84880476D01*
X50238809Y-84804285D01*
X50276904Y-84690000D01*
X50276904Y-84499523D01*
X49819761Y-85413809D02*
X49781666Y-85337619D01*
X49743571Y-85299523D01*
X49667380Y-85261428D01*
X49629285Y-85261428D01*
X49553095Y-85299523D01*
X49515000Y-85337619D01*
X49476904Y-85413809D01*
X49476904Y-85566190D01*
X49515000Y-85642380D01*
X49553095Y-85680476D01*
X49629285Y-85718571D01*
X49667380Y-85718571D01*
X49743571Y-85680476D01*
X49781666Y-85642380D01*
X49819761Y-85566190D01*
X49819761Y-85413809D01*
X49857857Y-85337619D01*
X49895952Y-85299523D01*
X49972142Y-85261428D01*
X50124523Y-85261428D01*
X50200714Y-85299523D01*
X50238809Y-85337619D01*
X50276904Y-85413809D01*
X50276904Y-85566190D01*
X50238809Y-85642380D01*
X50200714Y-85680476D01*
X50124523Y-85718571D01*
X49972142Y-85718571D01*
X49895952Y-85680476D01*
X49857857Y-85642380D01*
X49819761Y-85566190D01*
X42428333Y-74358571D02*
X42428333Y-74739523D01*
X42656904Y-74282380D02*
X41856904Y-74549047D01*
X42656904Y-74815714D01*
X41856904Y-75234761D02*
X41856904Y-75310952D01*
X41895000Y-75387142D01*
X41933095Y-75425238D01*
X42009285Y-75463333D01*
X42161666Y-75501428D01*
X42352142Y-75501428D01*
X42504523Y-75463333D01*
X42580714Y-75425238D01*
X42618809Y-75387142D01*
X42656904Y-75310952D01*
X42656904Y-75234761D01*
X42618809Y-75158571D01*
X42580714Y-75120476D01*
X42504523Y-75082380D01*
X42352142Y-75044285D01*
X42161666Y-75044285D01*
X42009285Y-75082380D01*
X41933095Y-75120476D01*
X41895000Y-75158571D01*
X41856904Y-75234761D01*
X37348333Y-74358571D02*
X37348333Y-74739523D01*
X37576904Y-74282380D02*
X36776904Y-74549047D01*
X37576904Y-74815714D01*
X36853095Y-75044285D02*
X36815000Y-75082380D01*
X36776904Y-75158571D01*
X36776904Y-75349047D01*
X36815000Y-75425238D01*
X36853095Y-75463333D01*
X36929285Y-75501428D01*
X37005476Y-75501428D01*
X37119761Y-75463333D01*
X37576904Y-75006190D01*
X37576904Y-75501428D01*
X52816904Y-84499523D02*
X52016904Y-84499523D01*
X52016904Y-84690000D01*
X52055000Y-84804285D01*
X52131190Y-84880476D01*
X52207380Y-84918571D01*
X52359761Y-84956666D01*
X52474047Y-84956666D01*
X52626428Y-84918571D01*
X52702619Y-84880476D01*
X52778809Y-84804285D01*
X52816904Y-84690000D01*
X52816904Y-84499523D01*
X52816904Y-85337619D02*
X52816904Y-85490000D01*
X52778809Y-85566190D01*
X52740714Y-85604285D01*
X52626428Y-85680476D01*
X52474047Y-85718571D01*
X52169285Y-85718571D01*
X52093095Y-85680476D01*
X52055000Y-85642380D01*
X52016904Y-85566190D01*
X52016904Y-85413809D01*
X52055000Y-85337619D01*
X52093095Y-85299523D01*
X52169285Y-85261428D01*
X52359761Y-85261428D01*
X52435952Y-85299523D01*
X52474047Y-85337619D01*
X52512142Y-85413809D01*
X52512142Y-85566190D01*
X52474047Y-85642380D01*
X52435952Y-85680476D01*
X52359761Y-85718571D01*
X29956904Y-74491904D02*
X29575952Y-74225238D01*
X29956904Y-74034761D02*
X29156904Y-74034761D01*
X29156904Y-74339523D01*
X29195000Y-74415714D01*
X29233095Y-74453809D01*
X29309285Y-74491904D01*
X29423571Y-74491904D01*
X29499761Y-74453809D01*
X29537857Y-74415714D01*
X29575952Y-74339523D01*
X29575952Y-74034761D01*
X29918809Y-74796666D02*
X29956904Y-74910952D01*
X29956904Y-75101428D01*
X29918809Y-75177619D01*
X29880714Y-75215714D01*
X29804523Y-75253809D01*
X29728333Y-75253809D01*
X29652142Y-75215714D01*
X29614047Y-75177619D01*
X29575952Y-75101428D01*
X29537857Y-74949047D01*
X29499761Y-74872857D01*
X29461666Y-74834761D01*
X29385476Y-74796666D01*
X29309285Y-74796666D01*
X29233095Y-74834761D01*
X29195000Y-74872857D01*
X29156904Y-74949047D01*
X29156904Y-75139523D01*
X29195000Y-75253809D01*
X29156904Y-75482380D02*
X29156904Y-75939523D01*
X29956904Y-75710952D02*
X29156904Y-75710952D01*
X51508809Y-76829047D02*
X51546904Y-76943333D01*
X51546904Y-77133809D01*
X51508809Y-77210000D01*
X51470714Y-77248095D01*
X51394523Y-77286190D01*
X51318333Y-77286190D01*
X51242142Y-77248095D01*
X51204047Y-77210000D01*
X51165952Y-77133809D01*
X51127857Y-76981428D01*
X51089761Y-76905238D01*
X51051666Y-76867142D01*
X50975476Y-76829047D01*
X50899285Y-76829047D01*
X50823095Y-76867142D01*
X50785000Y-76905238D01*
X50746904Y-76981428D01*
X50746904Y-77171904D01*
X50785000Y-77286190D01*
X50746904Y-77514761D02*
X50746904Y-77971904D01*
X51546904Y-77743333D02*
X50746904Y-77743333D01*
X51127857Y-78238571D02*
X51127857Y-78505238D01*
X51546904Y-78619523D02*
X51546904Y-78238571D01*
X50746904Y-78238571D01*
X50746904Y-78619523D01*
X51546904Y-78962380D02*
X50746904Y-78962380D01*
X51318333Y-79229047D01*
X50746904Y-79495714D01*
X51546904Y-79495714D01*
X51546904Y-79876666D02*
X50746904Y-79876666D01*
X51318333Y-80143333D01*
X50746904Y-80410000D01*
X51546904Y-80410000D01*
X51318333Y-80752857D02*
X51318333Y-81133809D01*
X51546904Y-80676666D02*
X50746904Y-80943333D01*
X51546904Y-81210000D01*
X51623095Y-82619523D02*
X51585000Y-82543333D01*
X51508809Y-82467142D01*
X51394523Y-82352857D01*
X51356428Y-82276666D01*
X51356428Y-82200476D01*
X51546904Y-82238571D02*
X51508809Y-82162380D01*
X51432619Y-82086190D01*
X51280238Y-82048095D01*
X51013571Y-82048095D01*
X50861190Y-82086190D01*
X50785000Y-82162380D01*
X50746904Y-82238571D01*
X50746904Y-82390952D01*
X50785000Y-82467142D01*
X50861190Y-82543333D01*
X51013571Y-82581428D01*
X51280238Y-82581428D01*
X51432619Y-82543333D01*
X51508809Y-82467142D01*
X51546904Y-82390952D01*
X51546904Y-82238571D01*
X50746904Y-82810000D02*
X50746904Y-83267142D01*
X51546904Y-83038571D02*
X50746904Y-83038571D01*
X50276904Y-73672857D02*
X49476904Y-73672857D01*
X50048333Y-73939523D01*
X49476904Y-74206190D01*
X50276904Y-74206190D01*
X49476904Y-74739523D02*
X49476904Y-74891904D01*
X49515000Y-74968095D01*
X49591190Y-75044285D01*
X49743571Y-75082380D01*
X50010238Y-75082380D01*
X50162619Y-75044285D01*
X50238809Y-74968095D01*
X50276904Y-74891904D01*
X50276904Y-74739523D01*
X50238809Y-74663333D01*
X50162619Y-74587142D01*
X50010238Y-74549047D01*
X49743571Y-74549047D01*
X49591190Y-74587142D01*
X49515000Y-74663333D01*
X49476904Y-74739523D01*
X50238809Y-75387142D02*
X50276904Y-75501428D01*
X50276904Y-75691904D01*
X50238809Y-75768095D01*
X50200714Y-75806190D01*
X50124523Y-75844285D01*
X50048333Y-75844285D01*
X49972142Y-75806190D01*
X49934047Y-75768095D01*
X49895952Y-75691904D01*
X49857857Y-75539523D01*
X49819761Y-75463333D01*
X49781666Y-75425238D01*
X49705476Y-75387142D01*
X49629285Y-75387142D01*
X49553095Y-75425238D01*
X49515000Y-75463333D01*
X49476904Y-75539523D01*
X49476904Y-75730000D01*
X49515000Y-75844285D01*
X50276904Y-76187142D02*
X49476904Y-76187142D01*
X40116904Y-84499523D02*
X39316904Y-84499523D01*
X39316904Y-84690000D01*
X39355000Y-84804285D01*
X39431190Y-84880476D01*
X39507380Y-84918571D01*
X39659761Y-84956666D01*
X39774047Y-84956666D01*
X39926428Y-84918571D01*
X40002619Y-84880476D01*
X40078809Y-84804285D01*
X40116904Y-84690000D01*
X40116904Y-84499523D01*
X39583571Y-85642380D02*
X40116904Y-85642380D01*
X39278809Y-85451904D02*
X39850238Y-85261428D01*
X39850238Y-85756666D01*
X33857380Y-77343333D02*
X32857380Y-77343333D01*
X33857380Y-77914761D02*
X33285952Y-77486190D01*
X32857380Y-77914761D02*
X33428809Y-77343333D01*
X33333571Y-78676666D02*
X33381190Y-78819523D01*
X33428809Y-78867142D01*
X33524047Y-78914761D01*
X33666904Y-78914761D01*
X33762142Y-78867142D01*
X33809761Y-78819523D01*
X33857380Y-78724285D01*
X33857380Y-78343333D01*
X32857380Y-78343333D01*
X32857380Y-78676666D01*
X32905000Y-78771904D01*
X32952619Y-78819523D01*
X33047857Y-78867142D01*
X33143095Y-78867142D01*
X33238333Y-78819523D01*
X33285952Y-78771904D01*
X33333571Y-78676666D01*
X33333571Y-78343333D01*
X32952619Y-79295714D02*
X32905000Y-79343333D01*
X32857380Y-79438571D01*
X32857380Y-79676666D01*
X32905000Y-79771904D01*
X32952619Y-79819523D01*
X33047857Y-79867142D01*
X33143095Y-79867142D01*
X33285952Y-79819523D01*
X33857380Y-79248095D01*
X33857380Y-79867142D01*
X32857380Y-80486190D02*
X32857380Y-80581428D01*
X32905000Y-80676666D01*
X32952619Y-80724285D01*
X33047857Y-80771904D01*
X33238333Y-80819523D01*
X33476428Y-80819523D01*
X33666904Y-80771904D01*
X33762142Y-80724285D01*
X33809761Y-80676666D01*
X33857380Y-80581428D01*
X33857380Y-80486190D01*
X33809761Y-80390952D01*
X33762142Y-80343333D01*
X33666904Y-80295714D01*
X33476428Y-80248095D01*
X33238333Y-80248095D01*
X33047857Y-80295714D01*
X32952619Y-80343333D01*
X32905000Y-80390952D01*
X32857380Y-80486190D01*
X33190714Y-81676666D02*
X33857380Y-81676666D01*
X32809761Y-81438571D02*
X33524047Y-81200476D01*
X33524047Y-81819523D01*
X32857380Y-82390952D02*
X32857380Y-82486190D01*
X32905000Y-82581428D01*
X32952619Y-82629047D01*
X33047857Y-82676666D01*
X33238333Y-82724285D01*
X33476428Y-82724285D01*
X33666904Y-82676666D01*
X33762142Y-82629047D01*
X33809761Y-82581428D01*
X33857380Y-82486190D01*
X33857380Y-82390952D01*
X33809761Y-82295714D01*
X33762142Y-82248095D01*
X33666904Y-82200476D01*
X33476428Y-82152857D01*
X33238333Y-82152857D01*
X33047857Y-82200476D01*
X32952619Y-82248095D01*
X32905000Y-82295714D01*
X32857380Y-82390952D01*
X45158809Y-73901428D02*
X45196904Y-74015714D01*
X45196904Y-74206190D01*
X45158809Y-74282380D01*
X45120714Y-74320476D01*
X45044523Y-74358571D01*
X44968333Y-74358571D01*
X44892142Y-74320476D01*
X44854047Y-74282380D01*
X44815952Y-74206190D01*
X44777857Y-74053809D01*
X44739761Y-73977619D01*
X44701666Y-73939523D01*
X44625476Y-73901428D01*
X44549285Y-73901428D01*
X44473095Y-73939523D01*
X44435000Y-73977619D01*
X44396904Y-74053809D01*
X44396904Y-74244285D01*
X44435000Y-74358571D01*
X45120714Y-75158571D02*
X45158809Y-75120476D01*
X45196904Y-75006190D01*
X45196904Y-74930000D01*
X45158809Y-74815714D01*
X45082619Y-74739523D01*
X45006428Y-74701428D01*
X44854047Y-74663333D01*
X44739761Y-74663333D01*
X44587380Y-74701428D01*
X44511190Y-74739523D01*
X44435000Y-74815714D01*
X44396904Y-74930000D01*
X44396904Y-75006190D01*
X44435000Y-75120476D01*
X44473095Y-75158571D01*
X45196904Y-75501428D02*
X44396904Y-75501428D01*
X45196904Y-75958571D02*
X44739761Y-75615714D01*
X44396904Y-75958571D02*
X44854047Y-75501428D01*
X52816904Y-73958571D02*
X52016904Y-73958571D01*
X52016904Y-74149047D01*
X52055000Y-74263333D01*
X52131190Y-74339523D01*
X52207380Y-74377619D01*
X52359761Y-74415714D01*
X52474047Y-74415714D01*
X52626428Y-74377619D01*
X52702619Y-74339523D01*
X52778809Y-74263333D01*
X52816904Y-74149047D01*
X52816904Y-73958571D01*
X52816904Y-75177619D02*
X52816904Y-74720476D01*
X52816904Y-74949047D02*
X52016904Y-74949047D01*
X52131190Y-74872857D01*
X52207380Y-74796666D01*
X52245476Y-74720476D01*
X52016904Y-75672857D02*
X52016904Y-75749047D01*
X52055000Y-75825238D01*
X52093095Y-75863333D01*
X52169285Y-75901428D01*
X52321666Y-75939523D01*
X52512142Y-75939523D01*
X52664523Y-75901428D01*
X52740714Y-75863333D01*
X52778809Y-75825238D01*
X52816904Y-75749047D01*
X52816904Y-75672857D01*
X52778809Y-75596666D01*
X52740714Y-75558571D01*
X52664523Y-75520476D01*
X52512142Y-75482380D01*
X52321666Y-75482380D01*
X52169285Y-75520476D01*
X52093095Y-75558571D01*
X52055000Y-75596666D01*
X52016904Y-75672857D01*
X31696904Y-73749047D02*
X31696904Y-74244285D01*
X32001666Y-73977619D01*
X32001666Y-74091904D01*
X32039761Y-74168095D01*
X32077857Y-74206190D01*
X32154047Y-74244285D01*
X32344523Y-74244285D01*
X32420714Y-74206190D01*
X32458809Y-74168095D01*
X32496904Y-74091904D01*
X32496904Y-73863333D01*
X32458809Y-73787142D01*
X32420714Y-73749047D01*
X32420714Y-74587142D02*
X32458809Y-74625238D01*
X32496904Y-74587142D01*
X32458809Y-74549047D01*
X32420714Y-74587142D01*
X32496904Y-74587142D01*
X31696904Y-74891904D02*
X31696904Y-75387142D01*
X32001666Y-75120476D01*
X32001666Y-75234761D01*
X32039761Y-75310952D01*
X32077857Y-75349047D01*
X32154047Y-75387142D01*
X32344523Y-75387142D01*
X32420714Y-75349047D01*
X32458809Y-75310952D01*
X32496904Y-75234761D01*
X32496904Y-75006190D01*
X32458809Y-74930000D01*
X32420714Y-74891904D01*
X31696904Y-75615714D02*
X32496904Y-75882380D01*
X31696904Y-76149047D01*
X31735000Y-84480476D02*
X31696904Y-84404285D01*
X31696904Y-84290000D01*
X31735000Y-84175714D01*
X31811190Y-84099523D01*
X31887380Y-84061428D01*
X32039761Y-84023333D01*
X32154047Y-84023333D01*
X32306428Y-84061428D01*
X32382619Y-84099523D01*
X32458809Y-84175714D01*
X32496904Y-84290000D01*
X32496904Y-84366190D01*
X32458809Y-84480476D01*
X32420714Y-84518571D01*
X32154047Y-84518571D01*
X32154047Y-84366190D01*
X32496904Y-84861428D02*
X31696904Y-84861428D01*
X32496904Y-85318571D01*
X31696904Y-85318571D01*
X32496904Y-85699523D02*
X31696904Y-85699523D01*
X31696904Y-85890000D01*
X31735000Y-86004285D01*
X31811190Y-86080476D01*
X31887380Y-86118571D01*
X32039761Y-86156666D01*
X32154047Y-86156666D01*
X32306428Y-86118571D01*
X32382619Y-86080476D01*
X32458809Y-86004285D01*
X32496904Y-85890000D01*
X32496904Y-85699523D01*
X42656904Y-84499523D02*
X41856904Y-84499523D01*
X41856904Y-84690000D01*
X41895000Y-84804285D01*
X41971190Y-84880476D01*
X42047380Y-84918571D01*
X42199761Y-84956666D01*
X42314047Y-84956666D01*
X42466428Y-84918571D01*
X42542619Y-84880476D01*
X42618809Y-84804285D01*
X42656904Y-84690000D01*
X42656904Y-84499523D01*
X41856904Y-85680476D02*
X41856904Y-85299523D01*
X42237857Y-85261428D01*
X42199761Y-85299523D01*
X42161666Y-85375714D01*
X42161666Y-85566190D01*
X42199761Y-85642380D01*
X42237857Y-85680476D01*
X42314047Y-85718571D01*
X42504523Y-85718571D01*
X42580714Y-85680476D01*
X42618809Y-85642380D01*
X42656904Y-85566190D01*
X42656904Y-85375714D01*
X42618809Y-85299523D01*
X42580714Y-85261428D01*
X47736904Y-84499523D02*
X46936904Y-84499523D01*
X46936904Y-84690000D01*
X46975000Y-84804285D01*
X47051190Y-84880476D01*
X47127380Y-84918571D01*
X47279761Y-84956666D01*
X47394047Y-84956666D01*
X47546428Y-84918571D01*
X47622619Y-84880476D01*
X47698809Y-84804285D01*
X47736904Y-84690000D01*
X47736904Y-84499523D01*
X46936904Y-85223333D02*
X46936904Y-85756666D01*
X47736904Y-85413809D01*
%TO.C,SW12*%
X278619523Y-88669761D02*
X278476666Y-88717380D01*
X278238571Y-88717380D01*
X278143333Y-88669761D01*
X278095714Y-88622142D01*
X278048095Y-88526904D01*
X278048095Y-88431666D01*
X278095714Y-88336428D01*
X278143333Y-88288809D01*
X278238571Y-88241190D01*
X278429047Y-88193571D01*
X278524285Y-88145952D01*
X278571904Y-88098333D01*
X278619523Y-88003095D01*
X278619523Y-87907857D01*
X278571904Y-87812619D01*
X278524285Y-87765000D01*
X278429047Y-87717380D01*
X278190952Y-87717380D01*
X278048095Y-87765000D01*
X277714761Y-87717380D02*
X277476666Y-88717380D01*
X277286190Y-88003095D01*
X277095714Y-88717380D01*
X276857619Y-87717380D01*
X275952857Y-88717380D02*
X276524285Y-88717380D01*
X276238571Y-88717380D02*
X276238571Y-87717380D01*
X276333809Y-87860238D01*
X276429047Y-87955476D01*
X276524285Y-88003095D01*
X275571904Y-87812619D02*
X275524285Y-87765000D01*
X275429047Y-87717380D01*
X275190952Y-87717380D01*
X275095714Y-87765000D01*
X275048095Y-87812619D01*
X275000476Y-87907857D01*
X275000476Y-88003095D01*
X275048095Y-88145952D01*
X275619523Y-88717380D01*
X275000476Y-88717380D01*
%TO.C,SW3*%
X107143333Y-88669761D02*
X107000476Y-88717380D01*
X106762380Y-88717380D01*
X106667142Y-88669761D01*
X106619523Y-88622142D01*
X106571904Y-88526904D01*
X106571904Y-88431666D01*
X106619523Y-88336428D01*
X106667142Y-88288809D01*
X106762380Y-88241190D01*
X106952857Y-88193571D01*
X107048095Y-88145952D01*
X107095714Y-88098333D01*
X107143333Y-88003095D01*
X107143333Y-87907857D01*
X107095714Y-87812619D01*
X107048095Y-87765000D01*
X106952857Y-87717380D01*
X106714761Y-87717380D01*
X106571904Y-87765000D01*
X106238571Y-87717380D02*
X106000476Y-88717380D01*
X105810000Y-88003095D01*
X105619523Y-88717380D01*
X105381428Y-87717380D01*
X105095714Y-87717380D02*
X104476666Y-87717380D01*
X104810000Y-88098333D01*
X104667142Y-88098333D01*
X104571904Y-88145952D01*
X104524285Y-88193571D01*
X104476666Y-88288809D01*
X104476666Y-88526904D01*
X104524285Y-88622142D01*
X104571904Y-88669761D01*
X104667142Y-88717380D01*
X104952857Y-88717380D01*
X105048095Y-88669761D01*
X105095714Y-88622142D01*
%TO.C,D2*%
X82798095Y-69032380D02*
X82798095Y-68032380D01*
X82560000Y-68032380D01*
X82417142Y-68080000D01*
X82321904Y-68175238D01*
X82274285Y-68270476D01*
X82226666Y-68460952D01*
X82226666Y-68603809D01*
X82274285Y-68794285D01*
X82321904Y-68889523D01*
X82417142Y-68984761D01*
X82560000Y-69032380D01*
X82798095Y-69032380D01*
X81845714Y-68127619D02*
X81798095Y-68080000D01*
X81702857Y-68032380D01*
X81464761Y-68032380D01*
X81369523Y-68080000D01*
X81321904Y-68127619D01*
X81274285Y-68222857D01*
X81274285Y-68318095D01*
X81321904Y-68460952D01*
X81893333Y-69032380D01*
X81274285Y-69032380D01*
X78511904Y-69032380D02*
X78511904Y-68032380D01*
X77940476Y-69032380D02*
X78369047Y-68460952D01*
X77940476Y-68032380D02*
X78511904Y-68603809D01*
%TO.C,D12*%
X273274285Y-69032380D02*
X273274285Y-68032380D01*
X273036190Y-68032380D01*
X272893333Y-68080000D01*
X272798095Y-68175238D01*
X272750476Y-68270476D01*
X272702857Y-68460952D01*
X272702857Y-68603809D01*
X272750476Y-68794285D01*
X272798095Y-68889523D01*
X272893333Y-68984761D01*
X273036190Y-69032380D01*
X273274285Y-69032380D01*
X271750476Y-69032380D02*
X272321904Y-69032380D01*
X272036190Y-69032380D02*
X272036190Y-68032380D01*
X272131428Y-68175238D01*
X272226666Y-68270476D01*
X272321904Y-68318095D01*
X271369523Y-68127619D02*
X271321904Y-68080000D01*
X271226666Y-68032380D01*
X270988571Y-68032380D01*
X270893333Y-68080000D01*
X270845714Y-68127619D01*
X270798095Y-68222857D01*
X270798095Y-68318095D01*
X270845714Y-68460952D01*
X271417142Y-69032380D01*
X270798095Y-69032380D01*
X268511904Y-69032380D02*
X268511904Y-68032380D01*
X267940476Y-69032380D02*
X268369047Y-68460952D01*
X267940476Y-68032380D02*
X268511904Y-68603809D01*
%TO.C,D9*%
X215798095Y-69032380D02*
X215798095Y-68032380D01*
X215560000Y-68032380D01*
X215417142Y-68080000D01*
X215321904Y-68175238D01*
X215274285Y-68270476D01*
X215226666Y-68460952D01*
X215226666Y-68603809D01*
X215274285Y-68794285D01*
X215321904Y-68889523D01*
X215417142Y-68984761D01*
X215560000Y-69032380D01*
X215798095Y-69032380D01*
X214750476Y-69032380D02*
X214560000Y-69032380D01*
X214464761Y-68984761D01*
X214417142Y-68937142D01*
X214321904Y-68794285D01*
X214274285Y-68603809D01*
X214274285Y-68222857D01*
X214321904Y-68127619D01*
X214369523Y-68080000D01*
X214464761Y-68032380D01*
X214655238Y-68032380D01*
X214750476Y-68080000D01*
X214798095Y-68127619D01*
X214845714Y-68222857D01*
X214845714Y-68460952D01*
X214798095Y-68556190D01*
X214750476Y-68603809D01*
X214655238Y-68651428D01*
X214464761Y-68651428D01*
X214369523Y-68603809D01*
X214321904Y-68556190D01*
X214274285Y-68460952D01*
X211511904Y-69032380D02*
X211511904Y-68032380D01*
X210940476Y-69032380D02*
X211369047Y-68460952D01*
X210940476Y-68032380D02*
X211511904Y-68603809D01*
%TO.C,D7*%
X177798095Y-69032380D02*
X177798095Y-68032380D01*
X177560000Y-68032380D01*
X177417142Y-68080000D01*
X177321904Y-68175238D01*
X177274285Y-68270476D01*
X177226666Y-68460952D01*
X177226666Y-68603809D01*
X177274285Y-68794285D01*
X177321904Y-68889523D01*
X177417142Y-68984761D01*
X177560000Y-69032380D01*
X177798095Y-69032380D01*
X176893333Y-68032380D02*
X176226666Y-68032380D01*
X176655238Y-69032380D01*
X173511904Y-69032380D02*
X173511904Y-68032380D01*
X172940476Y-69032380D02*
X173369047Y-68460952D01*
X172940476Y-68032380D02*
X173511904Y-68603809D01*
%TO.C,D11*%
X254274285Y-69032380D02*
X254274285Y-68032380D01*
X254036190Y-68032380D01*
X253893333Y-68080000D01*
X253798095Y-68175238D01*
X253750476Y-68270476D01*
X253702857Y-68460952D01*
X253702857Y-68603809D01*
X253750476Y-68794285D01*
X253798095Y-68889523D01*
X253893333Y-68984761D01*
X254036190Y-69032380D01*
X254274285Y-69032380D01*
X252750476Y-69032380D02*
X253321904Y-69032380D01*
X253036190Y-69032380D02*
X253036190Y-68032380D01*
X253131428Y-68175238D01*
X253226666Y-68270476D01*
X253321904Y-68318095D01*
X251798095Y-69032380D02*
X252369523Y-69032380D01*
X252083809Y-69032380D02*
X252083809Y-68032380D01*
X252179047Y-68175238D01*
X252274285Y-68270476D01*
X252369523Y-68318095D01*
X249511904Y-69032380D02*
X249511904Y-68032380D01*
X248940476Y-69032380D02*
X249369047Y-68460952D01*
X248940476Y-68032380D02*
X249511904Y-68603809D01*
%TO.C,J2*%
X50413333Y-68196666D02*
X50413333Y-68696666D01*
X50446666Y-68796666D01*
X50513333Y-68863333D01*
X50613333Y-68896666D01*
X50680000Y-68896666D01*
X50113333Y-68263333D02*
X50080000Y-68230000D01*
X50013333Y-68196666D01*
X49846666Y-68196666D01*
X49780000Y-68230000D01*
X49746666Y-68263333D01*
X49713333Y-68330000D01*
X49713333Y-68396666D01*
X49746666Y-68496666D01*
X50146666Y-68896666D01*
X49713333Y-68896666D01*
%TO.C,SW13*%
X32939523Y-67714761D02*
X32796666Y-67762380D01*
X32558571Y-67762380D01*
X32463333Y-67714761D01*
X32415714Y-67667142D01*
X32368095Y-67571904D01*
X32368095Y-67476666D01*
X32415714Y-67381428D01*
X32463333Y-67333809D01*
X32558571Y-67286190D01*
X32749047Y-67238571D01*
X32844285Y-67190952D01*
X32891904Y-67143333D01*
X32939523Y-67048095D01*
X32939523Y-66952857D01*
X32891904Y-66857619D01*
X32844285Y-66810000D01*
X32749047Y-66762380D01*
X32510952Y-66762380D01*
X32368095Y-66810000D01*
X32034761Y-66762380D02*
X31796666Y-67762380D01*
X31606190Y-67048095D01*
X31415714Y-67762380D01*
X31177619Y-66762380D01*
X30272857Y-67762380D02*
X30844285Y-67762380D01*
X30558571Y-67762380D02*
X30558571Y-66762380D01*
X30653809Y-66905238D01*
X30749047Y-67000476D01*
X30844285Y-67048095D01*
X29939523Y-66762380D02*
X29320476Y-66762380D01*
X29653809Y-67143333D01*
X29510952Y-67143333D01*
X29415714Y-67190952D01*
X29368095Y-67238571D01*
X29320476Y-67333809D01*
X29320476Y-67571904D01*
X29368095Y-67667142D01*
X29415714Y-67714761D01*
X29510952Y-67762380D01*
X29796666Y-67762380D01*
X29891904Y-67714761D01*
X29939523Y-67667142D01*
%TO.C,J1*%
X37281333Y-65746380D02*
X37281333Y-66460666D01*
X37328952Y-66603523D01*
X37424190Y-66698761D01*
X37567047Y-66746380D01*
X37662285Y-66746380D01*
X36281333Y-66746380D02*
X36852761Y-66746380D01*
X36567047Y-66746380D02*
X36567047Y-65746380D01*
X36662285Y-65889238D01*
X36757523Y-65984476D01*
X36852761Y-66032095D01*
%TO.C,D5*%
X139798095Y-69032380D02*
X139798095Y-68032380D01*
X139560000Y-68032380D01*
X139417142Y-68080000D01*
X139321904Y-68175238D01*
X139274285Y-68270476D01*
X139226666Y-68460952D01*
X139226666Y-68603809D01*
X139274285Y-68794285D01*
X139321904Y-68889523D01*
X139417142Y-68984761D01*
X139560000Y-69032380D01*
X139798095Y-69032380D01*
X138321904Y-68032380D02*
X138798095Y-68032380D01*
X138845714Y-68508571D01*
X138798095Y-68460952D01*
X138702857Y-68413333D01*
X138464761Y-68413333D01*
X138369523Y-68460952D01*
X138321904Y-68508571D01*
X138274285Y-68603809D01*
X138274285Y-68841904D01*
X138321904Y-68937142D01*
X138369523Y-68984761D01*
X138464761Y-69032380D01*
X138702857Y-69032380D01*
X138798095Y-68984761D01*
X138845714Y-68937142D01*
X135511904Y-69032380D02*
X135511904Y-68032380D01*
X134940476Y-69032380D02*
X135369047Y-68460952D01*
X134940476Y-68032380D02*
X135511904Y-68603809D01*
%TO.C,J4*%
X56763333Y-68196666D02*
X56763333Y-68696666D01*
X56796666Y-68796666D01*
X56863333Y-68863333D01*
X56963333Y-68896666D01*
X57030000Y-68896666D01*
X56130000Y-68430000D02*
X56130000Y-68896666D01*
X56296666Y-68163333D02*
X56463333Y-68663333D01*
X56030000Y-68663333D01*
%TO.C,D1*%
X63798095Y-69032380D02*
X63798095Y-68032380D01*
X63560000Y-68032380D01*
X63417142Y-68080000D01*
X63321904Y-68175238D01*
X63274285Y-68270476D01*
X63226666Y-68460952D01*
X63226666Y-68603809D01*
X63274285Y-68794285D01*
X63321904Y-68889523D01*
X63417142Y-68984761D01*
X63560000Y-69032380D01*
X63798095Y-69032380D01*
X62274285Y-69032380D02*
X62845714Y-69032380D01*
X62560000Y-69032380D02*
X62560000Y-68032380D01*
X62655238Y-68175238D01*
X62750476Y-68270476D01*
X62845714Y-68318095D01*
X59511904Y-69032380D02*
X59511904Y-68032380D01*
X58940476Y-69032380D02*
X59369047Y-68460952D01*
X58940476Y-68032380D02*
X59511904Y-68603809D01*
%TO.C,D10*%
X235274285Y-69032380D02*
X235274285Y-68032380D01*
X235036190Y-68032380D01*
X234893333Y-68080000D01*
X234798095Y-68175238D01*
X234750476Y-68270476D01*
X234702857Y-68460952D01*
X234702857Y-68603809D01*
X234750476Y-68794285D01*
X234798095Y-68889523D01*
X234893333Y-68984761D01*
X235036190Y-69032380D01*
X235274285Y-69032380D01*
X233750476Y-69032380D02*
X234321904Y-69032380D01*
X234036190Y-69032380D02*
X234036190Y-68032380D01*
X234131428Y-68175238D01*
X234226666Y-68270476D01*
X234321904Y-68318095D01*
X233131428Y-68032380D02*
X233036190Y-68032380D01*
X232940952Y-68080000D01*
X232893333Y-68127619D01*
X232845714Y-68222857D01*
X232798095Y-68413333D01*
X232798095Y-68651428D01*
X232845714Y-68841904D01*
X232893333Y-68937142D01*
X232940952Y-68984761D01*
X233036190Y-69032380D01*
X233131428Y-69032380D01*
X233226666Y-68984761D01*
X233274285Y-68937142D01*
X233321904Y-68841904D01*
X233369523Y-68651428D01*
X233369523Y-68413333D01*
X233321904Y-68222857D01*
X233274285Y-68127619D01*
X233226666Y-68080000D01*
X233131428Y-68032380D01*
X230511904Y-69032380D02*
X230511904Y-68032380D01*
X229940476Y-69032380D02*
X230369047Y-68460952D01*
X229940476Y-68032380D02*
X230511904Y-68603809D01*
%TO.C,J3*%
X53588333Y-65021666D02*
X53588333Y-65521666D01*
X53621666Y-65621666D01*
X53688333Y-65688333D01*
X53788333Y-65721666D01*
X53855000Y-65721666D01*
X53321666Y-65021666D02*
X52888333Y-65021666D01*
X53121666Y-65288333D01*
X53021666Y-65288333D01*
X52955000Y-65321666D01*
X52921666Y-65355000D01*
X52888333Y-65421666D01*
X52888333Y-65588333D01*
X52921666Y-65655000D01*
X52955000Y-65688333D01*
X53021666Y-65721666D01*
X53221666Y-65721666D01*
X53288333Y-65688333D01*
X53321666Y-65655000D01*
%TO.C,D8*%
X196798095Y-69032380D02*
X196798095Y-68032380D01*
X196560000Y-68032380D01*
X196417142Y-68080000D01*
X196321904Y-68175238D01*
X196274285Y-68270476D01*
X196226666Y-68460952D01*
X196226666Y-68603809D01*
X196274285Y-68794285D01*
X196321904Y-68889523D01*
X196417142Y-68984761D01*
X196560000Y-69032380D01*
X196798095Y-69032380D01*
X195655238Y-68460952D02*
X195750476Y-68413333D01*
X195798095Y-68365714D01*
X195845714Y-68270476D01*
X195845714Y-68222857D01*
X195798095Y-68127619D01*
X195750476Y-68080000D01*
X195655238Y-68032380D01*
X195464761Y-68032380D01*
X195369523Y-68080000D01*
X195321904Y-68127619D01*
X195274285Y-68222857D01*
X195274285Y-68270476D01*
X195321904Y-68365714D01*
X195369523Y-68413333D01*
X195464761Y-68460952D01*
X195655238Y-68460952D01*
X195750476Y-68508571D01*
X195798095Y-68556190D01*
X195845714Y-68651428D01*
X195845714Y-68841904D01*
X195798095Y-68937142D01*
X195750476Y-68984761D01*
X195655238Y-69032380D01*
X195464761Y-69032380D01*
X195369523Y-68984761D01*
X195321904Y-68937142D01*
X195274285Y-68841904D01*
X195274285Y-68651428D01*
X195321904Y-68556190D01*
X195369523Y-68508571D01*
X195464761Y-68460952D01*
X192511904Y-69032380D02*
X192511904Y-68032380D01*
X191940476Y-69032380D02*
X192369047Y-68460952D01*
X191940476Y-68032380D02*
X192511904Y-68603809D01*
%TO.C,D4*%
X120798095Y-69032380D02*
X120798095Y-68032380D01*
X120560000Y-68032380D01*
X120417142Y-68080000D01*
X120321904Y-68175238D01*
X120274285Y-68270476D01*
X120226666Y-68460952D01*
X120226666Y-68603809D01*
X120274285Y-68794285D01*
X120321904Y-68889523D01*
X120417142Y-68984761D01*
X120560000Y-69032380D01*
X120798095Y-69032380D01*
X119369523Y-68365714D02*
X119369523Y-69032380D01*
X119607619Y-67984761D02*
X119845714Y-68699047D01*
X119226666Y-68699047D01*
X116511904Y-69032380D02*
X116511904Y-68032380D01*
X115940476Y-69032380D02*
X116369047Y-68460952D01*
X115940476Y-68032380D02*
X116511904Y-68603809D01*
%TO.C,D6*%
X158798095Y-69032380D02*
X158798095Y-68032380D01*
X158560000Y-68032380D01*
X158417142Y-68080000D01*
X158321904Y-68175238D01*
X158274285Y-68270476D01*
X158226666Y-68460952D01*
X158226666Y-68603809D01*
X158274285Y-68794285D01*
X158321904Y-68889523D01*
X158417142Y-68984761D01*
X158560000Y-69032380D01*
X158798095Y-69032380D01*
X157369523Y-68032380D02*
X157560000Y-68032380D01*
X157655238Y-68080000D01*
X157702857Y-68127619D01*
X157798095Y-68270476D01*
X157845714Y-68460952D01*
X157845714Y-68841904D01*
X157798095Y-68937142D01*
X157750476Y-68984761D01*
X157655238Y-69032380D01*
X157464761Y-69032380D01*
X157369523Y-68984761D01*
X157321904Y-68937142D01*
X157274285Y-68841904D01*
X157274285Y-68603809D01*
X157321904Y-68508571D01*
X157369523Y-68460952D01*
X157464761Y-68413333D01*
X157655238Y-68413333D01*
X157750476Y-68460952D01*
X157798095Y-68508571D01*
X157845714Y-68603809D01*
X154511904Y-69032380D02*
X154511904Y-68032380D01*
X153940476Y-69032380D02*
X154369047Y-68460952D01*
X153940476Y-68032380D02*
X154511904Y-68603809D01*
%TO.C,D3*%
X101578095Y-69032380D02*
X101578095Y-68032380D01*
X101340000Y-68032380D01*
X101197142Y-68080000D01*
X101101904Y-68175238D01*
X101054285Y-68270476D01*
X101006666Y-68460952D01*
X101006666Y-68603809D01*
X101054285Y-68794285D01*
X101101904Y-68889523D01*
X101197142Y-68984761D01*
X101340000Y-69032380D01*
X101578095Y-69032380D01*
X100673333Y-68032380D02*
X100054285Y-68032380D01*
X100387619Y-68413333D01*
X100244761Y-68413333D01*
X100149523Y-68460952D01*
X100101904Y-68508571D01*
X100054285Y-68603809D01*
X100054285Y-68841904D01*
X100101904Y-68937142D01*
X100149523Y-68984761D01*
X100244761Y-69032380D01*
X100530476Y-69032380D01*
X100625714Y-68984761D01*
X100673333Y-68937142D01*
X97291904Y-69032380D02*
X97291904Y-68032380D01*
X96720476Y-69032380D02*
X97149047Y-68460952D01*
X96720476Y-68032380D02*
X97291904Y-68603809D01*
%TO.C,SW6*%
X153920000Y-86614000D02*
X153920000Y-86995000D01*
X163191000Y-80645000D02*
X161540000Y-80645000D01*
X165350000Y-84455000D02*
X165350000Y-84074000D01*
X165350000Y-80645000D02*
X164969000Y-80645000D01*
X153920000Y-82550000D02*
X153920000Y-83566000D01*
X153920000Y-86995000D02*
X162810000Y-86995000D01*
X159000000Y-82550000D02*
X153920000Y-82550000D01*
X165350000Y-81026000D02*
X165350000Y-80645000D01*
X159000000Y-82550001D02*
G75*
G03*
X161464162Y-80626040I0J2540000D01*
G01*
X162810000Y-86995000D02*
G75*
G03*
X165350000Y-84455000I-1J2540001D01*
G01*
%TO.C,SW8*%
X203350000Y-84455000D02*
X203350000Y-84074000D01*
X203350000Y-80645000D02*
X202969000Y-80645000D01*
X203350000Y-81026000D02*
X203350000Y-80645000D01*
X201191000Y-80645000D02*
X199540000Y-80645000D01*
X191920000Y-82550000D02*
X191920000Y-83566000D01*
X191920000Y-86995000D02*
X200810000Y-86995000D01*
X191920000Y-86614000D02*
X191920000Y-86995000D01*
X197000000Y-82550000D02*
X191920000Y-82550000D01*
X197000000Y-82550001D02*
G75*
G03*
X199464162Y-80626040I0J2540000D01*
G01*
X200810000Y-86995000D02*
G75*
G03*
X203350000Y-84455000I-1J2540001D01*
G01*
%TO.C,SW11*%
X260350000Y-81026000D02*
X260350000Y-80645000D01*
X248920000Y-86614000D02*
X248920000Y-86995000D01*
X260350000Y-80645000D02*
X259969000Y-80645000D01*
X248920000Y-86995000D02*
X257810000Y-86995000D01*
X254000000Y-82550000D02*
X248920000Y-82550000D01*
X248920000Y-82550000D02*
X248920000Y-83566000D01*
X260350000Y-84455000D02*
X260350000Y-84074000D01*
X258191000Y-80645000D02*
X256540000Y-80645000D01*
X257810000Y-86995000D02*
G75*
G03*
X260350000Y-84455000I-1J2540001D01*
G01*
X254000000Y-82550001D02*
G75*
G03*
X256464162Y-80626040I0J2540000D01*
G01*
%TO.C,SW2*%
X89350000Y-80645000D02*
X88969000Y-80645000D01*
X89350000Y-81026000D02*
X89350000Y-80645000D01*
X83000000Y-82550000D02*
X77920000Y-82550000D01*
X77920000Y-82550000D02*
X77920000Y-83566000D01*
X77920000Y-86995000D02*
X86810000Y-86995000D01*
X87191000Y-80645000D02*
X85540000Y-80645000D01*
X89350000Y-84455000D02*
X89350000Y-84074000D01*
X77920000Y-86614000D02*
X77920000Y-86995000D01*
X86810000Y-86995000D02*
G75*
G03*
X89350000Y-84455000I-1J2540001D01*
G01*
X83000000Y-82550001D02*
G75*
G03*
X85464162Y-80626040I0J2540000D01*
G01*
%TO.C,SW1*%
X64000000Y-82550000D02*
X58920000Y-82550000D01*
X68191000Y-80645000D02*
X66540000Y-80645000D01*
X58920000Y-86614000D02*
X58920000Y-86995000D01*
X70350000Y-81026000D02*
X70350000Y-80645000D01*
X70350000Y-80645000D02*
X69969000Y-80645000D01*
X70350000Y-84455000D02*
X70350000Y-84074000D01*
X58920000Y-82550000D02*
X58920000Y-83566000D01*
X58920000Y-86995000D02*
X67810000Y-86995000D01*
X64000000Y-82550001D02*
G75*
G03*
X66464162Y-80626040I0J2540000D01*
G01*
X67810000Y-86995000D02*
G75*
G03*
X70350000Y-84455000I-1J2540001D01*
G01*
%TO.C,SW5*%
X144191000Y-80645000D02*
X142540000Y-80645000D01*
X146350000Y-81026000D02*
X146350000Y-80645000D01*
X134920000Y-82550000D02*
X134920000Y-83566000D01*
X146350000Y-80645000D02*
X145969000Y-80645000D01*
X140000000Y-82550000D02*
X134920000Y-82550000D01*
X134920000Y-86995000D02*
X143810000Y-86995000D01*
X146350000Y-84455000D02*
X146350000Y-84074000D01*
X134920000Y-86614000D02*
X134920000Y-86995000D01*
X143810000Y-86995000D02*
G75*
G03*
X146350000Y-84455000I-1J2540001D01*
G01*
X140000000Y-82550001D02*
G75*
G03*
X142464162Y-80626040I0J2540000D01*
G01*
%TO.C,SW4*%
X127350000Y-84455000D02*
X127350000Y-84074000D01*
X121000000Y-82550000D02*
X115920000Y-82550000D01*
X115920000Y-86614000D02*
X115920000Y-86995000D01*
X115920000Y-82550000D02*
X115920000Y-83566000D01*
X125191000Y-80645000D02*
X123540000Y-80645000D01*
X115920000Y-86995000D02*
X124810000Y-86995000D01*
X127350000Y-81026000D02*
X127350000Y-80645000D01*
X127350000Y-80645000D02*
X126969000Y-80645000D01*
X121000000Y-82550001D02*
G75*
G03*
X123464162Y-80626040I0J2540000D01*
G01*
X124810000Y-86995000D02*
G75*
G03*
X127350000Y-84455000I-1J2540001D01*
G01*
%TO.C,SW9*%
X210920000Y-86614000D02*
X210920000Y-86995000D01*
X222350000Y-84455000D02*
X222350000Y-84074000D01*
X222350000Y-80645000D02*
X221969000Y-80645000D01*
X210920000Y-82550000D02*
X210920000Y-83566000D01*
X216000000Y-82550000D02*
X210920000Y-82550000D01*
X210920000Y-86995000D02*
X219810000Y-86995000D01*
X222350000Y-81026000D02*
X222350000Y-80645000D01*
X220191000Y-80645000D02*
X218540000Y-80645000D01*
X219810000Y-86995000D02*
G75*
G03*
X222350000Y-84455000I-1J2540001D01*
G01*
X216000000Y-82550001D02*
G75*
G03*
X218464162Y-80626040I0J2540000D01*
G01*
%TO.C,SW10*%
X241350000Y-80645000D02*
X240969000Y-80645000D01*
X229920000Y-86995000D02*
X238810000Y-86995000D01*
X239191000Y-80645000D02*
X237540000Y-80645000D01*
X241350000Y-81026000D02*
X241350000Y-80645000D01*
X241350000Y-84455000D02*
X241350000Y-84074000D01*
X229920000Y-82550000D02*
X229920000Y-83566000D01*
X229920000Y-86614000D02*
X229920000Y-86995000D01*
X235000000Y-82550000D02*
X229920000Y-82550000D01*
X235000000Y-82550001D02*
G75*
G03*
X237464162Y-80626040I0J2540000D01*
G01*
X238810000Y-86995000D02*
G75*
G03*
X241350000Y-84455000I-1J2540001D01*
G01*
%TO.C,SW7*%
X172920000Y-82550000D02*
X172920000Y-83566000D01*
X172920000Y-86995000D02*
X181810000Y-86995000D01*
X178000000Y-82550000D02*
X172920000Y-82550000D01*
X172920000Y-86614000D02*
X172920000Y-86995000D01*
X182191000Y-80645000D02*
X180540000Y-80645000D01*
X184350000Y-81026000D02*
X184350000Y-80645000D01*
X184350000Y-84455000D02*
X184350000Y-84074000D01*
X184350000Y-80645000D02*
X183969000Y-80645000D01*
X181810000Y-86995000D02*
G75*
G03*
X184350000Y-84455000I-1J2540001D01*
G01*
X178000000Y-82550001D02*
G75*
G03*
X180464162Y-80626040I0J2540000D01*
G01*
D11*
%TO.C,U1*%
X23245000Y-86360000D02*
X23245000Y-88900000D01*
X20705000Y-88900000D02*
X53725000Y-88900000D01*
X53725000Y-71120000D02*
X20705000Y-71120000D01*
X53725000Y-88900000D02*
X53725000Y-71120000D01*
X23245000Y-86360000D02*
X25785000Y-86360000D01*
X20705000Y-71120000D02*
X20705000Y-88900000D01*
X25785000Y-86360000D02*
X25785000Y-88900000D01*
D10*
%TO.C,SW12*%
X267920000Y-86614000D02*
X267920000Y-86995000D01*
X279350000Y-80645000D02*
X278969000Y-80645000D01*
X277191000Y-80645000D02*
X275540000Y-80645000D01*
X279350000Y-81026000D02*
X279350000Y-80645000D01*
X273000000Y-82550000D02*
X267920000Y-82550000D01*
X279350000Y-84455000D02*
X279350000Y-84074000D01*
X267920000Y-82550000D02*
X267920000Y-83566000D01*
X267920000Y-86995000D02*
X276810000Y-86995000D01*
X276810000Y-86995000D02*
G75*
G03*
X279350000Y-84455000I-1J2540001D01*
G01*
X273000000Y-82550001D02*
G75*
G03*
X275464162Y-80626040I0J2540000D01*
G01*
%TO.C,SW3*%
X108350000Y-81026000D02*
X108350000Y-80645000D01*
X96920000Y-86614000D02*
X96920000Y-86995000D01*
X96920000Y-86995000D02*
X105810000Y-86995000D01*
X108350000Y-84455000D02*
X108350000Y-84074000D01*
X108350000Y-80645000D02*
X107969000Y-80645000D01*
X96920000Y-82550000D02*
X96920000Y-83566000D01*
X102000000Y-82550000D02*
X96920000Y-82550000D01*
X106191000Y-80645000D02*
X104540000Y-80645000D01*
X105810000Y-86995000D02*
G75*
G03*
X108350000Y-84455000I-1J2540001D01*
G01*
X102000000Y-82550001D02*
G75*
G03*
X104464162Y-80626040I0J2540000D01*
G01*
D12*
%TO.C,D2*%
X84180000Y-72240000D02*
X79940000Y-72240000D01*
X84180000Y-70000000D02*
X84180000Y-72240000D01*
X79940000Y-70000000D02*
X84180000Y-70000000D01*
X79940000Y-72240000D02*
X79940000Y-70000000D01*
X80660000Y-72240000D02*
X80660000Y-70000000D01*
X79290000Y-71120000D02*
X79940000Y-71120000D01*
X84830000Y-71120000D02*
X84180000Y-71120000D01*
X80540000Y-72240000D02*
X80540000Y-70000000D01*
X80780000Y-72240000D02*
X80780000Y-70000000D01*
%TO.C,D12*%
X269940000Y-70000000D02*
X274180000Y-70000000D01*
X270660000Y-72240000D02*
X270660000Y-70000000D01*
X270540000Y-72240000D02*
X270540000Y-70000000D01*
X274180000Y-70000000D02*
X274180000Y-72240000D01*
X269290000Y-71120000D02*
X269940000Y-71120000D01*
X274180000Y-72240000D02*
X269940000Y-72240000D01*
X270780000Y-72240000D02*
X270780000Y-70000000D01*
X274830000Y-71120000D02*
X274180000Y-71120000D01*
X269940000Y-72240000D02*
X269940000Y-70000000D01*
%TO.C,D9*%
X212940000Y-72240000D02*
X212940000Y-70000000D01*
X213660000Y-72240000D02*
X213660000Y-70000000D01*
X217830000Y-71120000D02*
X217180000Y-71120000D01*
X213780000Y-72240000D02*
X213780000Y-70000000D01*
X217180000Y-70000000D02*
X217180000Y-72240000D01*
X217180000Y-72240000D02*
X212940000Y-72240000D01*
X213540000Y-72240000D02*
X213540000Y-70000000D01*
X212290000Y-71120000D02*
X212940000Y-71120000D01*
X212940000Y-70000000D02*
X217180000Y-70000000D01*
%TO.C,D7*%
X175660000Y-72240000D02*
X175660000Y-70000000D01*
X175540000Y-72240000D02*
X175540000Y-70000000D01*
X174940000Y-70000000D02*
X179180000Y-70000000D01*
X179180000Y-72240000D02*
X174940000Y-72240000D01*
X179830000Y-71120000D02*
X179180000Y-71120000D01*
X174940000Y-72240000D02*
X174940000Y-70000000D01*
X175780000Y-72240000D02*
X175780000Y-70000000D01*
X179180000Y-70000000D02*
X179180000Y-72240000D01*
X174290000Y-71120000D02*
X174940000Y-71120000D01*
%TO.C,D11*%
X255830000Y-71120000D02*
X255180000Y-71120000D01*
X251660000Y-72240000D02*
X251660000Y-70000000D01*
X251540000Y-72240000D02*
X251540000Y-70000000D01*
X250940000Y-72240000D02*
X250940000Y-70000000D01*
X255180000Y-70000000D02*
X255180000Y-72240000D01*
X250940000Y-70000000D02*
X255180000Y-70000000D01*
X255180000Y-72240000D02*
X250940000Y-72240000D01*
X251780000Y-72240000D02*
X251780000Y-70000000D01*
X250290000Y-71120000D02*
X250940000Y-71120000D01*
%TO.C,SW13*%
X34730000Y-69310000D02*
X34730000Y-68310000D01*
X34730000Y-69310000D02*
X27730000Y-69310000D01*
X27730000Y-68410000D02*
X27730000Y-69310000D01*
X34730000Y-65310000D02*
X34730000Y-66210000D01*
X27730000Y-65310000D02*
X27730000Y-66210000D01*
X27730000Y-65310000D02*
X34730000Y-65310000D01*
%TO.C,J1*%
X38690000Y-65980000D02*
X38690000Y-67310000D01*
X41290000Y-65980000D02*
X41290000Y-68640000D01*
X41290000Y-65980000D02*
X46430000Y-65980000D01*
X40020000Y-65980000D02*
X38690000Y-65980000D01*
X46430000Y-65980000D02*
X46430000Y-68640000D01*
X41290000Y-68640000D02*
X46430000Y-68640000D01*
%TO.C,D5*%
X141180000Y-72240000D02*
X136940000Y-72240000D01*
X141830000Y-71120000D02*
X141180000Y-71120000D01*
X136940000Y-70000000D02*
X141180000Y-70000000D01*
X136940000Y-72240000D02*
X136940000Y-70000000D01*
X141180000Y-70000000D02*
X141180000Y-72240000D01*
X137660000Y-72240000D02*
X137660000Y-70000000D01*
X136290000Y-71120000D02*
X136940000Y-71120000D01*
X137540000Y-72240000D02*
X137540000Y-70000000D01*
X137780000Y-72240000D02*
X137780000Y-70000000D01*
%TO.C,D1*%
X60290000Y-71120000D02*
X60940000Y-71120000D01*
X65180000Y-72240000D02*
X60940000Y-72240000D01*
X61660000Y-72240000D02*
X61660000Y-70000000D01*
X65180000Y-70000000D02*
X65180000Y-72240000D01*
X60940000Y-72240000D02*
X60940000Y-70000000D01*
X60940000Y-70000000D02*
X65180000Y-70000000D01*
X61780000Y-72240000D02*
X61780000Y-70000000D01*
X61540000Y-72240000D02*
X61540000Y-70000000D01*
X65830000Y-71120000D02*
X65180000Y-71120000D01*
%TO.C,D10*%
X231940000Y-70000000D02*
X236180000Y-70000000D01*
X236180000Y-70000000D02*
X236180000Y-72240000D01*
X232540000Y-72240000D02*
X232540000Y-70000000D01*
X236180000Y-72240000D02*
X231940000Y-72240000D01*
X232660000Y-72240000D02*
X232660000Y-70000000D01*
X232780000Y-72240000D02*
X232780000Y-70000000D01*
X236830000Y-71120000D02*
X236180000Y-71120000D01*
X231290000Y-71120000D02*
X231940000Y-71120000D01*
X231940000Y-72240000D02*
X231940000Y-70000000D01*
%TO.C,D8*%
X193290000Y-71120000D02*
X193940000Y-71120000D01*
X193940000Y-72240000D02*
X193940000Y-70000000D01*
X193940000Y-70000000D02*
X198180000Y-70000000D01*
X198830000Y-71120000D02*
X198180000Y-71120000D01*
X194660000Y-72240000D02*
X194660000Y-70000000D01*
X198180000Y-72240000D02*
X193940000Y-72240000D01*
X198180000Y-70000000D02*
X198180000Y-72240000D01*
X194540000Y-72240000D02*
X194540000Y-70000000D01*
X194780000Y-72240000D02*
X194780000Y-70000000D01*
%TO.C,D4*%
X117940000Y-70000000D02*
X122180000Y-70000000D01*
X117290000Y-71120000D02*
X117940000Y-71120000D01*
X118660000Y-72240000D02*
X118660000Y-70000000D01*
X118540000Y-72240000D02*
X118540000Y-70000000D01*
X122180000Y-70000000D02*
X122180000Y-72240000D01*
X122180000Y-72240000D02*
X117940000Y-72240000D01*
X122830000Y-71120000D02*
X122180000Y-71120000D01*
X118780000Y-72240000D02*
X118780000Y-70000000D01*
X117940000Y-72240000D02*
X117940000Y-70000000D01*
%TO.C,D6*%
X156660000Y-72240000D02*
X156660000Y-70000000D01*
X155940000Y-70000000D02*
X160180000Y-70000000D01*
X155940000Y-72240000D02*
X155940000Y-70000000D01*
X156780000Y-72240000D02*
X156780000Y-70000000D01*
X155290000Y-71120000D02*
X155940000Y-71120000D01*
X160180000Y-70000000D02*
X160180000Y-72240000D01*
X160180000Y-72240000D02*
X155940000Y-72240000D01*
X160830000Y-71120000D02*
X160180000Y-71120000D01*
X156540000Y-72240000D02*
X156540000Y-70000000D01*
%TO.C,D3*%
X103610000Y-71120000D02*
X102960000Y-71120000D01*
X98720000Y-70000000D02*
X102960000Y-70000000D01*
X102960000Y-70000000D02*
X102960000Y-72240000D01*
X102960000Y-72240000D02*
X98720000Y-72240000D01*
X98070000Y-71120000D02*
X98720000Y-71120000D01*
X99560000Y-72240000D02*
X99560000Y-70000000D01*
X99320000Y-72240000D02*
X99320000Y-70000000D01*
X99440000Y-72240000D02*
X99440000Y-70000000D01*
X98720000Y-72240000D02*
X98720000Y-70000000D01*
%TD*%
D13*
%TO.C,U1*%
X24515000Y-87630000D03*
D14*
X27055000Y-87630000D03*
X29595000Y-87630000D03*
X32135000Y-87630000D03*
X34675000Y-87630000D03*
X37215000Y-87630000D03*
X39755000Y-87630000D03*
X42295000Y-87630000D03*
X44835000Y-87630000D03*
X47375000Y-87630000D03*
X49915000Y-87630000D03*
X52455000Y-87630000D03*
X52455000Y-72390000D03*
X49915000Y-72390000D03*
X47375000Y-72390000D03*
X44835000Y-72390000D03*
X42295000Y-72390000D03*
X39755000Y-72390000D03*
X37215000Y-72390000D03*
X34675000Y-72390000D03*
X32135000Y-72390000D03*
X29595000Y-72390000D03*
X27055000Y-72390000D03*
X24515000Y-72390000D03*
%TD*%
M02*
