M48
; DRILL file {KiCad 6.0.2+dfsg-1} date Tue 04 Jun 2024 13:24:58 BST
; FORMAT={-:-/ absolute / inch / decimal}
; #@! TF.CreationDate,2024-06-04T13:24:58+01:00
; #@! TF.GenerationSoftware,Kicad,Pcbnew,6.0.2+dfsg-1
; #@! TF.FileFunction,Plated,1,2,PTH
FMAT,2
INCH
; #@! TA.AperFunction,Plated,PTH,ViaDrill
T1C0.0157
; #@! TA.AperFunction,Plated,PTH,ComponentDrill
T2C0.0315
; #@! TA.AperFunction,Plated,PTH,ComponentDrill
T3C0.0394
; #@! TA.AperFunction,Plated,PTH,ComponentDrill
T4C0.0430
; #@! TA.AperFunction,Plated,PTH,ComponentDrill
T5C0.0472
; #@! TA.AperFunction,Plated,PTH,ComponentDrill
T6C0.0590
; #@! TA.AperFunction,Plated,PTH,ComponentDrill
T7C0.0866
%
G90
G05
T1
X2.3256Y-3.55
X3.0756Y-3.6
X3.8256Y-3.65
X4.5756Y-3.7
X5.3256Y-3.55
X6.0756Y-3.6
X6.8256Y-3.65
X7.5756Y-3.7
X8.3256Y-3.55
X9.0756Y-3.6
X9.8256Y-3.65
X10.5756Y-3.7
T2
X2.3327Y-2.8
X2.6327Y-2.8
X3.0807Y-2.8
X3.3807Y-2.8
X3.8201Y-2.8
X4.1201Y-2.8
X4.5768Y-2.8
X4.8768Y-2.8
X5.3248Y-2.8
X5.6248Y-2.8
X6.0728Y-2.8
X6.3728Y-2.8
X6.8209Y-2.8
X7.1209Y-2.8
X7.5689Y-2.8
X7.8689Y-2.8
X8.3169Y-2.8
X8.6169Y-2.8
X9.065Y-2.8
X9.365Y-2.8
X9.813Y-2.8
X10.113Y-2.8
X10.561Y-2.8
X10.861Y-2.8
T3
X1.5756Y-2.65
X1.6756Y-2.65
X1.7756Y-2.65
T4
X0.9652Y-2.85
X0.9652Y-3.45
X1.0652Y-2.85
X1.0652Y-3.45
X1.1652Y-2.85
X1.1652Y-3.45
X1.2652Y-2.85
X1.2652Y-3.45
X1.3652Y-2.85
X1.3652Y-3.45
X1.4652Y-2.85
X1.4652Y-3.45
X1.5652Y-2.85
X1.5652Y-3.45
X1.6652Y-2.85
X1.6652Y-3.45
X1.7652Y-2.85
X1.7652Y-3.45
X1.8652Y-2.85
X1.8652Y-3.45
X1.9652Y-2.85
X1.9652Y-3.45
X2.0652Y-2.85
X2.0652Y-3.45
T5
X1.0996Y-2.65
X1.3516Y-2.65
T6
X2.3697Y-3.05
X2.6197Y-2.95
X3.1177Y-3.05
X3.3677Y-2.95
X3.8657Y-3.05
X4.1157Y-2.95
X4.6138Y-3.05
X4.8638Y-2.95
X5.3618Y-3.05
X5.6118Y-2.95
X6.1098Y-3.05
X6.3598Y-2.95
X6.8579Y-3.05
X7.1079Y-2.95
X7.6059Y-3.05
X7.8559Y-2.95
X8.3539Y-3.05
X8.6039Y-2.95
X9.102Y-3.05
X9.352Y-2.95
X9.85Y-3.05
X10.1Y-2.95
X10.598Y-3.05
X10.848Y-2.95
T7
X0.8756Y-2.65
X0.8756Y-3.65
X11.0756Y-2.65
X11.0756Y-3.65
T0
M30
