%TF.GenerationSoftware,KiCad,Pcbnew,6.0.2+dfsg-1*%
%TF.CreationDate,2024-06-04T13:25:17+01:00*%
%TF.ProjectId,backRow_BasePlate,6261636b-526f-4775-9f42-617365506c61,0*%
%TF.SameCoordinates,Original*%
%TF.FileFunction,Copper,L2,Bot*%
%TF.FilePolarity,Positive*%
%FSLAX46Y46*%
G04 Gerber Fmt 4.6, Leading zero omitted, Abs format (unit mm)*
G04 Created by KiCad (PCBNEW 6.0.2+dfsg-1) date 2024-06-04 13:25:17*
%MOMM*%
%LPD*%
G01*
G04 APERTURE LIST*
%TA.AperFunction,ConnectorPad*%
%ADD10C,4.400000*%
%TD*%
%TA.AperFunction,ComponentPad*%
%ADD11C,2.600000*%
%TD*%
G04 APERTURE END LIST*
D10*
%TO.P,H1,1,1*%
%TO.N,unconnected-(H1-Pad1)*%
X276860000Y-73660000D03*
D11*
X276860000Y-73660000D03*
%TD*%
%TO.P,H3,1,1*%
%TO.N,unconnected-(H3-Pad1)*%
X17780000Y-73660000D03*
D10*
X17780000Y-73660000D03*
%TD*%
%TO.P,H2,1,1*%
%TO.N,unconnected-(H2-Pad1)*%
X17780000Y-99060000D03*
D11*
X17780000Y-99060000D03*
%TD*%
D10*
%TO.P,H4,1,1*%
%TO.N,unconnected-(H4-Pad1)*%
X276860000Y-99060000D03*
D11*
X276860000Y-99060000D03*
%TD*%
%TA.AperFunction,NonConductor*%
G36*
X274823805Y-71648002D02*
G01*
X274870298Y-71701658D01*
X274880402Y-71771932D01*
X274850908Y-71836512D01*
X274848724Y-71838839D01*
X274848755Y-71838867D01*
X274846220Y-71841682D01*
X274843513Y-71844347D01*
X274841149Y-71847314D01*
X274841146Y-71847317D01*
X274826281Y-71865972D01*
X274639991Y-72099751D01*
X274468626Y-72377757D01*
X274331902Y-72674336D01*
X274330741Y-72677940D01*
X274330741Y-72677941D01*
X274322196Y-72704477D01*
X274231797Y-72985192D01*
X274231079Y-72988903D01*
X274231078Y-72988907D01*
X274170482Y-73302105D01*
X274170481Y-73302114D01*
X274169763Y-73305824D01*
X274146698Y-73631585D01*
X274162936Y-73957759D01*
X274163577Y-73961490D01*
X274163578Y-73961498D01*
X274178109Y-74046060D01*
X274218241Y-74279619D01*
X274311814Y-74592504D01*
X274442297Y-74891881D01*
X274444220Y-74895152D01*
X274444222Y-74895156D01*
X274486584Y-74967215D01*
X274607802Y-75173414D01*
X274610103Y-75176429D01*
X274803631Y-75430012D01*
X274803636Y-75430017D01*
X274805931Y-75433025D01*
X274867931Y-75496670D01*
X275003823Y-75636166D01*
X275033814Y-75666953D01*
X275106635Y-75725607D01*
X275285196Y-75869431D01*
X275285201Y-75869435D01*
X275288149Y-75871809D01*
X275565253Y-76044627D01*
X275861112Y-76182903D01*
X276171440Y-76284634D01*
X276491742Y-76348346D01*
X276495514Y-76348633D01*
X276495522Y-76348634D01*
X276813602Y-76372829D01*
X276813607Y-76372829D01*
X276817379Y-76373116D01*
X277143633Y-76358586D01*
X277203425Y-76348634D01*
X277462037Y-76305590D01*
X277462042Y-76305589D01*
X277465778Y-76304967D01*
X277779149Y-76213034D01*
X277782616Y-76211544D01*
X277782620Y-76211543D01*
X278075721Y-76085616D01*
X278075723Y-76085615D01*
X278079205Y-76084119D01*
X278361601Y-75920091D01*
X278622245Y-75723324D01*
X278678552Y-75669044D01*
X278741478Y-75636166D01*
X278812189Y-75642528D01*
X278868235Y-75686109D01*
X278892000Y-75759757D01*
X278892000Y-96956835D01*
X278871998Y-97024956D01*
X278818342Y-97071449D01*
X278748068Y-97081553D01*
X278683488Y-97052059D01*
X278676686Y-97045711D01*
X278665070Y-97034034D01*
X278408603Y-96831852D01*
X278129705Y-96661945D01*
X278126261Y-96660379D01*
X278126257Y-96660377D01*
X278015667Y-96610095D01*
X277832414Y-96526775D01*
X277521037Y-96428300D01*
X277303492Y-96387390D01*
X277203809Y-96368645D01*
X277203807Y-96368645D01*
X277200086Y-96367945D01*
X276874208Y-96346586D01*
X276870428Y-96346794D01*
X276870427Y-96346794D01*
X276772897Y-96352162D01*
X276548124Y-96364532D01*
X276544397Y-96365193D01*
X276544393Y-96365193D01*
X276387340Y-96393027D01*
X276226557Y-96421522D01*
X276222941Y-96422624D01*
X276222933Y-96422626D01*
X275917789Y-96515627D01*
X275914167Y-96516731D01*
X275615477Y-96648781D01*
X275590041Y-96663914D01*
X275338074Y-96813817D01*
X275338068Y-96813821D01*
X275334814Y-96815757D01*
X275076244Y-97015243D01*
X274843513Y-97244347D01*
X274841149Y-97247314D01*
X274841146Y-97247317D01*
X274824220Y-97268558D01*
X274639991Y-97499751D01*
X274468626Y-97777757D01*
X274331902Y-98074336D01*
X274330741Y-98077940D01*
X274330741Y-98077941D01*
X274322196Y-98104477D01*
X274231797Y-98385192D01*
X274231079Y-98388903D01*
X274231078Y-98388907D01*
X274170482Y-98702105D01*
X274170481Y-98702114D01*
X274169763Y-98705824D01*
X274146698Y-99031585D01*
X274162936Y-99357759D01*
X274163577Y-99361490D01*
X274163578Y-99361498D01*
X274178109Y-99446060D01*
X274218241Y-99679619D01*
X274311814Y-99992504D01*
X274442297Y-100291881D01*
X274444220Y-100295152D01*
X274444222Y-100295156D01*
X274486584Y-100367215D01*
X274607802Y-100573414D01*
X274610103Y-100576429D01*
X274803631Y-100830012D01*
X274803636Y-100830017D01*
X274805931Y-100833025D01*
X274808575Y-100835739D01*
X274849820Y-100878078D01*
X274883026Y-100940830D01*
X274877035Y-101011574D01*
X274833749Y-101067848D01*
X274766909Y-101091786D01*
X274759566Y-101092000D01*
X19883395Y-101092000D01*
X19815274Y-101071998D01*
X19768781Y-101018342D01*
X19758677Y-100948068D01*
X19785682Y-100886452D01*
X19983549Y-100643410D01*
X20157815Y-100367215D01*
X20297638Y-100072084D01*
X20298840Y-100068482D01*
X20399790Y-99765897D01*
X20399792Y-99765891D01*
X20400992Y-99762293D01*
X20466381Y-99442329D01*
X20472956Y-99361498D01*
X20492674Y-99119061D01*
X20492856Y-99116826D01*
X20493451Y-99060000D01*
X20491510Y-99027796D01*
X20474026Y-98737793D01*
X20474026Y-98737789D01*
X20473798Y-98734015D01*
X20468650Y-98705824D01*
X20415805Y-98416473D01*
X20415804Y-98416469D01*
X20415125Y-98412751D01*
X20407722Y-98388907D01*
X20319404Y-98104477D01*
X20318282Y-98100863D01*
X20184670Y-97802869D01*
X20016226Y-97523084D01*
X20013899Y-97520100D01*
X20013894Y-97520093D01*
X19817726Y-97268558D01*
X19817724Y-97268556D01*
X19815390Y-97265563D01*
X19585070Y-97034034D01*
X19328603Y-96831852D01*
X19049705Y-96661945D01*
X19046261Y-96660379D01*
X19046257Y-96660377D01*
X18935667Y-96610095D01*
X18752414Y-96526775D01*
X18441037Y-96428300D01*
X18223492Y-96387390D01*
X18123809Y-96368645D01*
X18123807Y-96368645D01*
X18120086Y-96367945D01*
X17794208Y-96346586D01*
X17790428Y-96346794D01*
X17790427Y-96346794D01*
X17692897Y-96352162D01*
X17468124Y-96364532D01*
X17464397Y-96365193D01*
X17464393Y-96365193D01*
X17307340Y-96393027D01*
X17146557Y-96421522D01*
X17142941Y-96422624D01*
X17142933Y-96422626D01*
X16837789Y-96515627D01*
X16834167Y-96516731D01*
X16535477Y-96648781D01*
X16510041Y-96663914D01*
X16258074Y-96813817D01*
X16258068Y-96813821D01*
X16254814Y-96815757D01*
X15996244Y-97015243D01*
X15993534Y-97017911D01*
X15962392Y-97048567D01*
X15899815Y-97082101D01*
X15829041Y-97076480D01*
X15772541Y-97033488D01*
X15748254Y-96966775D01*
X15748000Y-96958774D01*
X15748000Y-75764375D01*
X15768002Y-75696254D01*
X15821658Y-75649761D01*
X15891932Y-75639657D01*
X15952719Y-75668312D01*
X15953814Y-75666953D01*
X16205196Y-75869431D01*
X16205201Y-75869435D01*
X16208149Y-75871809D01*
X16485253Y-76044627D01*
X16781112Y-76182903D01*
X17091440Y-76284634D01*
X17411742Y-76348346D01*
X17415514Y-76348633D01*
X17415522Y-76348634D01*
X17733602Y-76372829D01*
X17733607Y-76372829D01*
X17737379Y-76373116D01*
X18063633Y-76358586D01*
X18123425Y-76348634D01*
X18382037Y-76305590D01*
X18382042Y-76305589D01*
X18385778Y-76304967D01*
X18699149Y-76213034D01*
X18702616Y-76211544D01*
X18702620Y-76211543D01*
X18995721Y-76085616D01*
X18995723Y-76085615D01*
X18999205Y-76084119D01*
X19281601Y-75920091D01*
X19542245Y-75723324D01*
X19777363Y-75496670D01*
X19983549Y-75243410D01*
X20157815Y-74967215D01*
X20297638Y-74672084D01*
X20324188Y-74592504D01*
X20399790Y-74365897D01*
X20399792Y-74365891D01*
X20400992Y-74362293D01*
X20466381Y-74042329D01*
X20472956Y-73961498D01*
X20492674Y-73719061D01*
X20492856Y-73716826D01*
X20493451Y-73660000D01*
X20491510Y-73627796D01*
X20474026Y-73337793D01*
X20474026Y-73337789D01*
X20473798Y-73334015D01*
X20468650Y-73305824D01*
X20415805Y-73016473D01*
X20415804Y-73016469D01*
X20415125Y-73012751D01*
X20407722Y-72988907D01*
X20319404Y-72704477D01*
X20318282Y-72700863D01*
X20184670Y-72402869D01*
X20016226Y-72123084D01*
X20013899Y-72120100D01*
X20013894Y-72120093D01*
X19817726Y-71868558D01*
X19817724Y-71868556D01*
X19815390Y-71865563D01*
X19812716Y-71862875D01*
X19812709Y-71862867D01*
X19792807Y-71842861D01*
X19758946Y-71780460D01*
X19764196Y-71709657D01*
X19806892Y-71652934D01*
X19873478Y-71628298D01*
X19882136Y-71628000D01*
X274755684Y-71628000D01*
X274823805Y-71648002D01*
G37*
%TD.AperFunction*%
M02*
