%TF.GenerationSoftware,KiCad,Pcbnew,6.0.2+dfsg-1*%
%TF.CreationDate,2024-06-04T13:25:17+01:00*%
%TF.ProjectId,backRow_BasePlate,6261636b-526f-4775-9f42-617365506c61,0*%
%TF.SameCoordinates,Original*%
%TF.FileFunction,Legend,Bot*%
%TF.FilePolarity,Positive*%
%FSLAX46Y46*%
G04 Gerber Fmt 4.6, Leading zero omitted, Abs format (unit mm)*
G04 Created by KiCad (PCBNEW 6.0.2+dfsg-1) date 2024-06-04 13:25:17*
%MOMM*%
%LPD*%
G01*
G04 APERTURE LIST*
%ADD10C,0.150000*%
%ADD11C,0.120000*%
%ADD12C,0.200000*%
G04 APERTURE END LIST*
D10*
X41292404Y-74352142D02*
X41249547Y-74314047D01*
X41168595Y-74275952D01*
X41025738Y-74352142D01*
X40944785Y-74314047D01*
X40901928Y-74275952D01*
X40049547Y-73856904D02*
X39592404Y-73856904D01*
X39920976Y-74656904D02*
X39820976Y-73856904D01*
X39425738Y-74656904D02*
X39325738Y-73856904D01*
X39082880Y-74656904D02*
X39030500Y-74237857D01*
X39059071Y-74161666D01*
X39130500Y-74123571D01*
X39244785Y-74123571D01*
X39325738Y-74161666D01*
X39368595Y-74199761D01*
X38392404Y-74618809D02*
X38473357Y-74656904D01*
X38625738Y-74656904D01*
X38697166Y-74618809D01*
X38725738Y-74542619D01*
X38687642Y-74237857D01*
X38640023Y-74161666D01*
X38559071Y-74123571D01*
X38406690Y-74123571D01*
X38335261Y-74161666D01*
X38306690Y-74237857D01*
X38316214Y-74314047D01*
X38706690Y-74390238D01*
X37406690Y-74656904D02*
X37306690Y-73856904D01*
X37116214Y-73856904D01*
X37006690Y-73895000D01*
X36940023Y-73971190D01*
X36911452Y-74047380D01*
X36892404Y-74199761D01*
X36906690Y-74314047D01*
X36963833Y-74466428D01*
X37011452Y-74542619D01*
X37097166Y-74618809D01*
X37216214Y-74656904D01*
X37406690Y-74656904D01*
X36297166Y-74618809D02*
X36378119Y-74656904D01*
X36530500Y-74656904D01*
X36601928Y-74618809D01*
X36630500Y-74542619D01*
X36592404Y-74237857D01*
X36544785Y-74161666D01*
X36463833Y-74123571D01*
X36311452Y-74123571D01*
X36240023Y-74161666D01*
X36211452Y-74237857D01*
X36220976Y-74314047D01*
X36611452Y-74390238D01*
X35930500Y-74123571D02*
X35806690Y-74656904D01*
X35549547Y-74123571D01*
X35311452Y-74656904D02*
X35244785Y-74123571D01*
X35211452Y-73856904D02*
X35254309Y-73895000D01*
X35220976Y-73933095D01*
X35178119Y-73895000D01*
X35211452Y-73856904D01*
X35220976Y-73933095D01*
X34816214Y-74656904D02*
X34887642Y-74618809D01*
X34916214Y-74542619D01*
X34830500Y-73856904D01*
X34373357Y-73856904D02*
X34468595Y-74009285D01*
X34163833Y-74618809D02*
X34092404Y-74656904D01*
X33940023Y-74656904D01*
X33859071Y-74618809D01*
X33811452Y-74542619D01*
X33806690Y-74504523D01*
X33835261Y-74428333D01*
X33906690Y-74390238D01*
X34020976Y-74390238D01*
X34092404Y-74352142D01*
X34120976Y-74275952D01*
X34116214Y-74237857D01*
X34068595Y-74161666D01*
X33987642Y-74123571D01*
X33873357Y-74123571D01*
X33801928Y-74161666D01*
X32849547Y-73856904D02*
X32759071Y-74656904D01*
X32535261Y-74085476D01*
X32454309Y-74656904D01*
X32163833Y-73856904D01*
X31844785Y-74656904D02*
X31916214Y-74618809D01*
X31949547Y-74580714D01*
X31978119Y-74504523D01*
X31949547Y-74275952D01*
X31901928Y-74199761D01*
X31859071Y-74161666D01*
X31778119Y-74123571D01*
X31663833Y-74123571D01*
X31592404Y-74161666D01*
X31559071Y-74199761D01*
X31530500Y-74275952D01*
X31559071Y-74504523D01*
X31606690Y-74580714D01*
X31649547Y-74618809D01*
X31730500Y-74656904D01*
X31844785Y-74656904D01*
X31235261Y-74656904D02*
X31168595Y-74123571D01*
X31187642Y-74275952D02*
X31140023Y-74199761D01*
X31097166Y-74161666D01*
X31016214Y-74123571D01*
X30940023Y-74123571D01*
X30740023Y-74656904D02*
X30640023Y-73856904D01*
X30625738Y-74352142D02*
X30435261Y-74656904D01*
X30368595Y-74123571D02*
X30711452Y-74428333D01*
X30125738Y-74618809D02*
X30054309Y-74656904D01*
X29901928Y-74656904D01*
X29820976Y-74618809D01*
X29773357Y-74542619D01*
X29768595Y-74504523D01*
X29797166Y-74428333D01*
X29868595Y-74390238D01*
X29982880Y-74390238D01*
X30054309Y-74352142D01*
X30082880Y-74275952D01*
X30078119Y-74237857D01*
X30030500Y-74161666D01*
X29949547Y-74123571D01*
X29835261Y-74123571D01*
X29763833Y-74161666D01*
X29444785Y-74656904D02*
X29344785Y-73856904D01*
X29101928Y-74656904D02*
X29049547Y-74237857D01*
X29078119Y-74161666D01*
X29149547Y-74123571D01*
X29263833Y-74123571D01*
X29344785Y-74161666D01*
X29387642Y-74199761D01*
X28606690Y-74656904D02*
X28678119Y-74618809D01*
X28711452Y-74580714D01*
X28740023Y-74504523D01*
X28711452Y-74275952D01*
X28663833Y-74199761D01*
X28620976Y-74161666D01*
X28540023Y-74123571D01*
X28425738Y-74123571D01*
X28354309Y-74161666D01*
X28320976Y-74199761D01*
X28292404Y-74275952D01*
X28320976Y-74504523D01*
X28368595Y-74580714D01*
X28411452Y-74618809D01*
X28492404Y-74656904D01*
X28606690Y-74656904D01*
X27930500Y-74123571D02*
X28030500Y-74923571D01*
X27935261Y-74161666D02*
X27854309Y-74123571D01*
X27701928Y-74123571D01*
X27630500Y-74161666D01*
X27597166Y-74199761D01*
X27568595Y-74275952D01*
X27597166Y-74504523D01*
X27644785Y-74580714D01*
X27687642Y-74618809D01*
X27768595Y-74656904D01*
X27920976Y-74656904D01*
X27992404Y-74618809D01*
X27230500Y-74618809D02*
X27235261Y-74656904D01*
X27282880Y-74733095D01*
X27325738Y-74771190D01*
X26230500Y-73933095D02*
X26187642Y-73895000D01*
X26106690Y-73856904D01*
X25916214Y-73856904D01*
X25844785Y-73895000D01*
X25811452Y-73933095D01*
X25782880Y-74009285D01*
X25792404Y-74085476D01*
X25844785Y-74199761D01*
X26359071Y-74656904D01*
X25863833Y-74656904D01*
X25268595Y-73856904D02*
X25192404Y-73856904D01*
X25120976Y-73895000D01*
X25087642Y-73933095D01*
X25059071Y-74009285D01*
X25040023Y-74161666D01*
X25063833Y-74352142D01*
X25120976Y-74504523D01*
X25168595Y-74580714D01*
X25211452Y-74618809D01*
X25292404Y-74656904D01*
X25368595Y-74656904D01*
X25440023Y-74618809D01*
X25473357Y-74580714D01*
X25501928Y-74504523D01*
X25520976Y-74352142D01*
X25497166Y-74161666D01*
X25440023Y-74009285D01*
X25392404Y-73933095D01*
X25349547Y-73895000D01*
X25268595Y-73856904D01*
X24706690Y-73933095D02*
X24663833Y-73895000D01*
X24582880Y-73856904D01*
X24392404Y-73856904D01*
X24320976Y-73895000D01*
X24287642Y-73933095D01*
X24259071Y-74009285D01*
X24268595Y-74085476D01*
X24320976Y-74199761D01*
X24835261Y-74656904D01*
X24340023Y-74656904D01*
X23973357Y-73856904D02*
X23478119Y-73856904D01*
X23782880Y-74161666D01*
X23668595Y-74161666D01*
X23597166Y-74199761D01*
X23563833Y-74237857D01*
X23535261Y-74314047D01*
X23559071Y-74504523D01*
X23606690Y-74580714D01*
X23649547Y-74618809D01*
X23730500Y-74656904D01*
X23959071Y-74656904D01*
X24030500Y-74618809D01*
X24063833Y-74580714D01*
X22701928Y-74352142D02*
X22659071Y-74314047D01*
X22578119Y-74275952D01*
X22435261Y-74352142D01*
X22354309Y-74314047D01*
X22311452Y-74275952D01*
D11*
X35445238Y-75761904D02*
X35445238Y-76333333D01*
X35483333Y-76447619D01*
X35559523Y-76523809D01*
X35673809Y-76561904D01*
X35750000Y-76561904D01*
X34683333Y-76561904D02*
X35064285Y-76561904D01*
X35064285Y-75761904D01*
X33959523Y-76485714D02*
X33997619Y-76523809D01*
X34111904Y-76561904D01*
X34188095Y-76561904D01*
X34302380Y-76523809D01*
X34378571Y-76447619D01*
X34416666Y-76371428D01*
X34454761Y-76219047D01*
X34454761Y-76104761D01*
X34416666Y-75952380D01*
X34378571Y-75876190D01*
X34302380Y-75800000D01*
X34188095Y-75761904D01*
X34111904Y-75761904D01*
X33997619Y-75800000D01*
X33959523Y-75838095D01*
X33388095Y-75761904D02*
X33388095Y-76333333D01*
X33426190Y-76447619D01*
X33502380Y-76523809D01*
X33616666Y-76561904D01*
X33692857Y-76561904D01*
X32626190Y-76561904D02*
X33007142Y-76561904D01*
X33007142Y-75761904D01*
X31902380Y-76485714D02*
X31940476Y-76523809D01*
X32054761Y-76561904D01*
X32130952Y-76561904D01*
X32245238Y-76523809D01*
X32321428Y-76447619D01*
X32359523Y-76371428D01*
X32397619Y-76219047D01*
X32397619Y-76104761D01*
X32359523Y-75952380D01*
X32321428Y-75876190D01*
X32245238Y-75800000D01*
X32130952Y-75761904D01*
X32054761Y-75761904D01*
X31940476Y-75800000D01*
X31902380Y-75838095D01*
X31330952Y-75761904D02*
X31330952Y-76333333D01*
X31369047Y-76447619D01*
X31445238Y-76523809D01*
X31559523Y-76561904D01*
X31635714Y-76561904D01*
X30569047Y-76561904D02*
X30950000Y-76561904D01*
X30950000Y-75761904D01*
X29845238Y-76485714D02*
X29883333Y-76523809D01*
X29997619Y-76561904D01*
X30073809Y-76561904D01*
X30188095Y-76523809D01*
X30264285Y-76447619D01*
X30302380Y-76371428D01*
X30340476Y-76219047D01*
X30340476Y-76104761D01*
X30302380Y-75952380D01*
X30264285Y-75876190D01*
X30188095Y-75800000D01*
X30073809Y-75761904D01*
X29997619Y-75761904D01*
X29883333Y-75800000D01*
X29845238Y-75838095D01*
X29273809Y-75761904D02*
X29273809Y-76333333D01*
X29311904Y-76447619D01*
X29388095Y-76523809D01*
X29502380Y-76561904D01*
X29578571Y-76561904D01*
X28511904Y-76561904D02*
X28892857Y-76561904D01*
X28892857Y-75761904D01*
X27788095Y-76485714D02*
X27826190Y-76523809D01*
X27940476Y-76561904D01*
X28016666Y-76561904D01*
X28130952Y-76523809D01*
X28207142Y-76447619D01*
X28245238Y-76371428D01*
X28283333Y-76219047D01*
X28283333Y-76104761D01*
X28245238Y-75952380D01*
X28207142Y-75876190D01*
X28130952Y-75800000D01*
X28016666Y-75761904D01*
X27940476Y-75761904D01*
X27826190Y-75800000D01*
X27788095Y-75838095D01*
D12*
X40535714Y-71794761D02*
X41392857Y-73080476D01*
X39488095Y-71794761D02*
X40345238Y-73080476D01*
X38059523Y-72318571D02*
X37916666Y-72366190D01*
X37869047Y-72413809D01*
X37821428Y-72509047D01*
X37821428Y-72651904D01*
X37869047Y-72747142D01*
X37916666Y-72794761D01*
X38011904Y-72842380D01*
X38392857Y-72842380D01*
X38392857Y-71842380D01*
X38059523Y-71842380D01*
X37964285Y-71890000D01*
X37916666Y-71937619D01*
X37869047Y-72032857D01*
X37869047Y-72128095D01*
X37916666Y-72223333D01*
X37964285Y-72270952D01*
X38059523Y-72318571D01*
X38392857Y-72318571D01*
X36964285Y-72842380D02*
X36964285Y-72318571D01*
X37011904Y-72223333D01*
X37107142Y-72175714D01*
X37297619Y-72175714D01*
X37392857Y-72223333D01*
X36964285Y-72794761D02*
X37059523Y-72842380D01*
X37297619Y-72842380D01*
X37392857Y-72794761D01*
X37440476Y-72699523D01*
X37440476Y-72604285D01*
X37392857Y-72509047D01*
X37297619Y-72461428D01*
X37059523Y-72461428D01*
X36964285Y-72413809D01*
X36059523Y-72794761D02*
X36154761Y-72842380D01*
X36345238Y-72842380D01*
X36440476Y-72794761D01*
X36488095Y-72747142D01*
X36535714Y-72651904D01*
X36535714Y-72366190D01*
X36488095Y-72270952D01*
X36440476Y-72223333D01*
X36345238Y-72175714D01*
X36154761Y-72175714D01*
X36059523Y-72223333D01*
X35630952Y-72842380D02*
X35630952Y-71842380D01*
X35535714Y-72461428D02*
X35250000Y-72842380D01*
X35250000Y-72175714D02*
X35630952Y-72556666D01*
X34250000Y-72842380D02*
X34583333Y-72366190D01*
X34821428Y-72842380D02*
X34821428Y-71842380D01*
X34440476Y-71842380D01*
X34345238Y-71890000D01*
X34297619Y-71937619D01*
X34250000Y-72032857D01*
X34250000Y-72175714D01*
X34297619Y-72270952D01*
X34345238Y-72318571D01*
X34440476Y-72366190D01*
X34821428Y-72366190D01*
X33678571Y-72842380D02*
X33773809Y-72794761D01*
X33821428Y-72747142D01*
X33869047Y-72651904D01*
X33869047Y-72366190D01*
X33821428Y-72270952D01*
X33773809Y-72223333D01*
X33678571Y-72175714D01*
X33535714Y-72175714D01*
X33440476Y-72223333D01*
X33392857Y-72270952D01*
X33345238Y-72366190D01*
X33345238Y-72651904D01*
X33392857Y-72747142D01*
X33440476Y-72794761D01*
X33535714Y-72842380D01*
X33678571Y-72842380D01*
X33011904Y-72175714D02*
X32821428Y-72842380D01*
X32630952Y-72366190D01*
X32440476Y-72842380D01*
X32250000Y-72175714D01*
X31869047Y-72842380D02*
X31869047Y-71842380D01*
X31488095Y-71842380D01*
X31392857Y-71890000D01*
X31345238Y-71937619D01*
X31297619Y-72032857D01*
X31297619Y-72175714D01*
X31345238Y-72270952D01*
X31392857Y-72318571D01*
X31488095Y-72366190D01*
X31869047Y-72366190D01*
X30440476Y-72842380D02*
X30440476Y-72318571D01*
X30488095Y-72223333D01*
X30583333Y-72175714D01*
X30773809Y-72175714D01*
X30869047Y-72223333D01*
X30440476Y-72794761D02*
X30535714Y-72842380D01*
X30773809Y-72842380D01*
X30869047Y-72794761D01*
X30916666Y-72699523D01*
X30916666Y-72604285D01*
X30869047Y-72509047D01*
X30773809Y-72461428D01*
X30535714Y-72461428D01*
X30440476Y-72413809D01*
X29535714Y-72842380D02*
X29535714Y-71842380D01*
X29535714Y-72794761D02*
X29630952Y-72842380D01*
X29821428Y-72842380D01*
X29916666Y-72794761D01*
X29964285Y-72747142D01*
X30011904Y-72651904D01*
X30011904Y-72366190D01*
X29964285Y-72270952D01*
X29916666Y-72223333D01*
X29821428Y-72175714D01*
X29630952Y-72175714D01*
X29535714Y-72223333D01*
X28297619Y-72842380D02*
X28297619Y-72175714D01*
X28297619Y-72366190D02*
X28250000Y-72270952D01*
X28202380Y-72223333D01*
X28107142Y-72175714D01*
X28011904Y-72175714D01*
X27297619Y-72794761D02*
X27392857Y-72842380D01*
X27583333Y-72842380D01*
X27678571Y-72794761D01*
X27726190Y-72699523D01*
X27726190Y-72318571D01*
X27678571Y-72223333D01*
X27583333Y-72175714D01*
X27392857Y-72175714D01*
X27297619Y-72223333D01*
X27250000Y-72318571D01*
X27250000Y-72413809D01*
X27726190Y-72509047D01*
X26916666Y-72175714D02*
X26678571Y-72842380D01*
X26440476Y-72175714D01*
X26059523Y-72747142D02*
X26011904Y-72794761D01*
X26059523Y-72842380D01*
X26107142Y-72794761D01*
X26059523Y-72747142D01*
X26059523Y-72842380D01*
X24630952Y-71842380D02*
X24535714Y-71842380D01*
X24440476Y-71890000D01*
X24392857Y-71937619D01*
X24345238Y-72032857D01*
X24297619Y-72223333D01*
X24297619Y-72461428D01*
X24345238Y-72651904D01*
X24392857Y-72747142D01*
X24440476Y-72794761D01*
X24535714Y-72842380D01*
X24630952Y-72842380D01*
X24726190Y-72794761D01*
X24773809Y-72747142D01*
X24821428Y-72651904D01*
X24869047Y-72461428D01*
X24869047Y-72223333D01*
X24821428Y-72032857D01*
X24773809Y-71937619D01*
X24726190Y-71890000D01*
X24630952Y-71842380D01*
X23440476Y-71747142D02*
X22583333Y-73032857D01*
X22773809Y-71747142D02*
X21916666Y-73032857D01*
M02*
