%TF.GenerationSoftware,KiCad,Pcbnew,6.0.2+dfsg-1*%
%TF.CreationDate,2024-06-04T13:25:45+01:00*%
%TF.ProjectId,backRow_SwitchPlate,6261636b-526f-4775-9f53-776974636850,0*%
%TF.SameCoordinates,Original*%
%TF.FileFunction,Copper,L2,Bot*%
%TF.FilePolarity,Positive*%
%FSLAX46Y46*%
G04 Gerber Fmt 4.6, Leading zero omitted, Abs format (unit mm)*
G04 Created by KiCad (PCBNEW 6.0.2+dfsg-1) date 2024-06-04 13:25:45*
%MOMM*%
%LPD*%
G01*
G04 APERTURE LIST*
%TA.AperFunction,ConnectorPad*%
%ADD10C,4.400000*%
%TD*%
%TA.AperFunction,ComponentPad*%
%ADD11C,2.600000*%
%TD*%
G04 APERTURE END LIST*
D10*
%TO.P,H4,1,1*%
%TO.N,unconnected-(H4-Pad1)*%
X276860000Y-50800000D03*
D11*
X276860000Y-50800000D03*
%TD*%
D10*
%TO.P,H3,1,1*%
%TO.N,unconnected-(H3-Pad1)*%
X276860000Y-76200000D03*
D11*
X276860000Y-76200000D03*
%TD*%
D10*
%TO.P,H1,1,1*%
%TO.N,unconnected-(H1-Pad1)*%
X17780000Y-50800000D03*
D11*
X17780000Y-50800000D03*
%TD*%
%TO.P,H2,1,1*%
%TO.N,unconnected-(H2-Pad1)*%
X17780000Y-76200000D03*
D10*
X17780000Y-76200000D03*
%TD*%
%TA.AperFunction,NonConductor*%
G36*
X274823805Y-48788002D02*
G01*
X274870298Y-48841658D01*
X274880402Y-48911932D01*
X274850908Y-48976512D01*
X274848724Y-48978839D01*
X274848755Y-48978867D01*
X274846220Y-48981682D01*
X274843513Y-48984347D01*
X274841149Y-48987314D01*
X274841146Y-48987317D01*
X274826281Y-49005972D01*
X274639991Y-49239751D01*
X274468626Y-49517757D01*
X274331902Y-49814336D01*
X274330741Y-49817940D01*
X274330741Y-49817941D01*
X274322196Y-49844477D01*
X274231797Y-50125192D01*
X274231079Y-50128903D01*
X274231078Y-50128907D01*
X274170482Y-50442105D01*
X274170481Y-50442114D01*
X274169763Y-50445824D01*
X274146698Y-50771585D01*
X274162936Y-51097759D01*
X274163577Y-51101490D01*
X274163578Y-51101498D01*
X274178109Y-51186060D01*
X274218241Y-51419619D01*
X274311814Y-51732504D01*
X274313327Y-51735975D01*
X274313329Y-51735981D01*
X274344929Y-51808482D01*
X274442297Y-52031881D01*
X274444220Y-52035152D01*
X274444222Y-52035156D01*
X274486584Y-52107215D01*
X274607802Y-52313414D01*
X274610103Y-52316429D01*
X274803631Y-52570012D01*
X274803636Y-52570017D01*
X274805931Y-52573025D01*
X274808575Y-52575739D01*
X275003823Y-52776166D01*
X275033814Y-52806953D01*
X275163046Y-52911044D01*
X275285196Y-53009431D01*
X275285201Y-53009435D01*
X275288149Y-53011809D01*
X275565253Y-53184627D01*
X275861112Y-53322903D01*
X276171440Y-53424634D01*
X276491742Y-53488346D01*
X276495514Y-53488633D01*
X276495522Y-53488634D01*
X276813602Y-53512829D01*
X276813607Y-53512829D01*
X276817379Y-53513116D01*
X277143633Y-53498586D01*
X277203425Y-53488634D01*
X277462037Y-53445590D01*
X277462042Y-53445589D01*
X277465778Y-53444967D01*
X277779149Y-53353034D01*
X277782616Y-53351544D01*
X277782620Y-53351543D01*
X278075721Y-53225616D01*
X278075723Y-53225615D01*
X278079205Y-53224119D01*
X278361601Y-53060091D01*
X278601496Y-52878988D01*
X278619221Y-52865607D01*
X278619222Y-52865606D01*
X278622245Y-52863324D01*
X278678552Y-52809044D01*
X278741478Y-52776166D01*
X278812189Y-52782528D01*
X278868235Y-52826109D01*
X278892000Y-52899757D01*
X278892000Y-74096835D01*
X278871998Y-74164956D01*
X278818342Y-74211449D01*
X278748068Y-74221553D01*
X278683488Y-74192059D01*
X278676686Y-74185711D01*
X278665070Y-74174034D01*
X278408603Y-73971852D01*
X278129705Y-73801945D01*
X278126261Y-73800379D01*
X278126257Y-73800377D01*
X277984356Y-73735859D01*
X277832414Y-73666775D01*
X277521037Y-73568300D01*
X277303492Y-73527390D01*
X277203809Y-73508645D01*
X277203807Y-73508645D01*
X277200086Y-73507945D01*
X276874208Y-73486586D01*
X276870428Y-73486794D01*
X276870427Y-73486794D01*
X276772897Y-73492162D01*
X276548124Y-73504532D01*
X276544397Y-73505193D01*
X276544393Y-73505193D01*
X276387340Y-73533027D01*
X276226557Y-73561522D01*
X276222941Y-73562624D01*
X276222933Y-73562626D01*
X275917789Y-73655627D01*
X275914167Y-73656731D01*
X275615477Y-73788781D01*
X275526462Y-73841739D01*
X275338074Y-73953817D01*
X275338068Y-73953821D01*
X275334814Y-73955757D01*
X275331812Y-73958073D01*
X275084492Y-74148880D01*
X275076244Y-74155243D01*
X274843513Y-74384347D01*
X274841149Y-74387314D01*
X274841146Y-74387317D01*
X274824220Y-74408558D01*
X274639991Y-74639751D01*
X274468626Y-74917757D01*
X274331902Y-75214336D01*
X274330741Y-75217940D01*
X274330741Y-75217941D01*
X274322196Y-75244477D01*
X274231797Y-75525192D01*
X274231079Y-75528903D01*
X274231078Y-75528907D01*
X274170482Y-75842105D01*
X274170481Y-75842114D01*
X274169763Y-75845824D01*
X274146698Y-76171585D01*
X274162936Y-76497759D01*
X274163577Y-76501490D01*
X274163578Y-76501498D01*
X274178109Y-76586060D01*
X274218241Y-76819619D01*
X274311814Y-77132504D01*
X274313327Y-77135975D01*
X274313329Y-77135981D01*
X274344929Y-77208482D01*
X274442297Y-77431881D01*
X274444220Y-77435152D01*
X274444222Y-77435156D01*
X274486584Y-77507215D01*
X274607802Y-77713414D01*
X274610103Y-77716429D01*
X274803631Y-77970012D01*
X274803636Y-77970017D01*
X274805931Y-77973025D01*
X274808575Y-77975739D01*
X274849820Y-78018078D01*
X274883026Y-78080830D01*
X274877035Y-78151574D01*
X274833749Y-78207848D01*
X274766909Y-78231786D01*
X274759566Y-78232000D01*
X19883395Y-78232000D01*
X19815274Y-78211998D01*
X19768781Y-78158342D01*
X19758677Y-78088068D01*
X19785682Y-78026452D01*
X19983549Y-77783410D01*
X20157815Y-77507215D01*
X20297638Y-77212084D01*
X20298908Y-77208277D01*
X20399790Y-76905897D01*
X20399792Y-76905891D01*
X20400992Y-76902293D01*
X20466381Y-76582329D01*
X20472956Y-76501498D01*
X20492674Y-76259061D01*
X20492856Y-76256826D01*
X20493451Y-76200000D01*
X20491510Y-76167796D01*
X20474026Y-75877793D01*
X20474026Y-75877789D01*
X20473798Y-75874015D01*
X20468650Y-75845824D01*
X20415805Y-75556473D01*
X20415804Y-75556469D01*
X20415125Y-75552751D01*
X20407722Y-75528907D01*
X20319404Y-75244477D01*
X20318282Y-75240863D01*
X20184670Y-74942869D01*
X20016226Y-74663084D01*
X20013899Y-74660100D01*
X20013894Y-74660093D01*
X19817726Y-74408558D01*
X19817724Y-74408556D01*
X19815390Y-74405563D01*
X19812716Y-74402875D01*
X19812709Y-74402867D01*
X19792807Y-74382861D01*
X19758946Y-74320460D01*
X19764196Y-74249657D01*
X19806892Y-74192934D01*
X19873478Y-74168298D01*
X19882136Y-74168000D01*
X50156298Y-74168000D01*
X50157069Y-74168002D01*
X50234652Y-74168476D01*
X50243281Y-74166010D01*
X50243286Y-74166009D01*
X50263048Y-74160361D01*
X50279809Y-74156783D01*
X50300152Y-74153870D01*
X50300162Y-74153867D01*
X50309045Y-74152595D01*
X50332395Y-74141979D01*
X50349907Y-74135536D01*
X50365937Y-74130954D01*
X50374565Y-74128488D01*
X50399548Y-74112726D01*
X50414614Y-74104596D01*
X50441510Y-74092367D01*
X50460939Y-74075626D01*
X50475947Y-74064521D01*
X50490039Y-74055630D01*
X50497631Y-74050840D01*
X50517182Y-74028703D01*
X50529374Y-74016659D01*
X50544949Y-74003239D01*
X50544950Y-74003237D01*
X50551747Y-73997381D01*
X50556626Y-73989853D01*
X50556629Y-73989850D01*
X50565696Y-73975861D01*
X50576986Y-73960987D01*
X50588012Y-73948502D01*
X50593956Y-73941772D01*
X50606510Y-73915034D01*
X50614824Y-73900065D01*
X50630893Y-73875273D01*
X50638239Y-73850709D01*
X50644901Y-73833264D01*
X50651983Y-73818179D01*
X50655799Y-73810052D01*
X50660343Y-73780870D01*
X50664126Y-73764151D01*
X50670014Y-73744464D01*
X50670015Y-73744461D01*
X50672587Y-73735859D01*
X50672797Y-73701444D01*
X50672830Y-73700672D01*
X50673000Y-73699577D01*
X50673000Y-73668702D01*
X50673002Y-73667932D01*
X50673452Y-73594284D01*
X50673452Y-73594283D01*
X50673476Y-73590348D01*
X50673092Y-73589004D01*
X50673000Y-73587659D01*
X50673000Y-70569652D01*
X52031524Y-70569652D01*
X52033990Y-70578281D01*
X52033991Y-70578286D01*
X52039639Y-70598048D01*
X52043217Y-70614809D01*
X52046130Y-70635152D01*
X52046133Y-70635162D01*
X52047405Y-70644045D01*
X52058021Y-70667395D01*
X52064464Y-70684907D01*
X52071512Y-70709565D01*
X52087274Y-70734548D01*
X52095404Y-70749614D01*
X52107633Y-70776510D01*
X52124374Y-70795939D01*
X52135479Y-70810947D01*
X52149160Y-70832631D01*
X52155888Y-70838573D01*
X52171296Y-70852181D01*
X52183340Y-70864373D01*
X52202619Y-70886747D01*
X52210147Y-70891626D01*
X52210150Y-70891629D01*
X52224139Y-70900696D01*
X52239013Y-70911986D01*
X52258228Y-70928956D01*
X52266354Y-70932771D01*
X52266355Y-70932772D01*
X52272021Y-70935432D01*
X52284966Y-70941510D01*
X52299935Y-70949824D01*
X52324727Y-70965893D01*
X52341650Y-70970954D01*
X52349290Y-70973239D01*
X52366736Y-70979901D01*
X52389948Y-70990799D01*
X52419130Y-70995343D01*
X52435849Y-70999126D01*
X52455536Y-71005014D01*
X52455539Y-71005015D01*
X52464141Y-71007587D01*
X52473116Y-71007642D01*
X52473117Y-71007642D01*
X52479810Y-71007683D01*
X52498556Y-71007797D01*
X52499328Y-71007830D01*
X52500423Y-71008000D01*
X52531298Y-71008000D01*
X52532068Y-71008002D01*
X52605716Y-71008452D01*
X52605717Y-71008452D01*
X52609652Y-71008476D01*
X52610996Y-71008092D01*
X52612341Y-71008000D01*
X66531298Y-71008000D01*
X66532069Y-71008002D01*
X66609652Y-71008476D01*
X66618281Y-71006010D01*
X66618286Y-71006009D01*
X66638048Y-71000361D01*
X66654809Y-70996783D01*
X66675152Y-70993870D01*
X66675162Y-70993867D01*
X66684045Y-70992595D01*
X66707395Y-70981979D01*
X66724907Y-70975536D01*
X66740937Y-70970954D01*
X66749565Y-70968488D01*
X66774548Y-70952726D01*
X66789614Y-70944596D01*
X66816510Y-70932367D01*
X66835939Y-70915626D01*
X66850947Y-70904521D01*
X66865039Y-70895630D01*
X66872631Y-70890840D01*
X66892182Y-70868703D01*
X66904374Y-70856659D01*
X66919949Y-70843239D01*
X66919950Y-70843237D01*
X66926747Y-70837381D01*
X66931626Y-70829853D01*
X66931629Y-70829850D01*
X66940696Y-70815861D01*
X66951986Y-70800987D01*
X66963012Y-70788502D01*
X66968956Y-70781772D01*
X66981510Y-70755034D01*
X66989824Y-70740065D01*
X67005893Y-70715273D01*
X67013239Y-70690709D01*
X67019901Y-70673264D01*
X67026983Y-70658179D01*
X67030799Y-70650052D01*
X67035343Y-70620870D01*
X67039126Y-70604151D01*
X67045014Y-70584464D01*
X67045015Y-70584461D01*
X67047587Y-70575859D01*
X67047625Y-70569652D01*
X71031524Y-70569652D01*
X71033990Y-70578281D01*
X71033991Y-70578286D01*
X71039639Y-70598048D01*
X71043217Y-70614809D01*
X71046130Y-70635152D01*
X71046133Y-70635162D01*
X71047405Y-70644045D01*
X71058021Y-70667395D01*
X71064464Y-70684907D01*
X71071512Y-70709565D01*
X71087274Y-70734548D01*
X71095404Y-70749614D01*
X71107633Y-70776510D01*
X71124374Y-70795939D01*
X71135479Y-70810947D01*
X71149160Y-70832631D01*
X71155888Y-70838573D01*
X71171296Y-70852181D01*
X71183340Y-70864373D01*
X71202619Y-70886747D01*
X71210147Y-70891626D01*
X71210150Y-70891629D01*
X71224139Y-70900696D01*
X71239013Y-70911986D01*
X71258228Y-70928956D01*
X71266354Y-70932771D01*
X71266355Y-70932772D01*
X71272021Y-70935432D01*
X71284966Y-70941510D01*
X71299935Y-70949824D01*
X71324727Y-70965893D01*
X71341650Y-70970954D01*
X71349290Y-70973239D01*
X71366736Y-70979901D01*
X71389948Y-70990799D01*
X71419130Y-70995343D01*
X71435849Y-70999126D01*
X71455536Y-71005014D01*
X71455539Y-71005015D01*
X71464141Y-71007587D01*
X71473116Y-71007642D01*
X71473117Y-71007642D01*
X71479810Y-71007683D01*
X71498556Y-71007797D01*
X71499328Y-71007830D01*
X71500423Y-71008000D01*
X71531298Y-71008000D01*
X71532068Y-71008002D01*
X71605716Y-71008452D01*
X71605717Y-71008452D01*
X71609652Y-71008476D01*
X71610996Y-71008092D01*
X71612341Y-71008000D01*
X85531298Y-71008000D01*
X85532069Y-71008002D01*
X85609652Y-71008476D01*
X85618281Y-71006010D01*
X85618286Y-71006009D01*
X85638048Y-71000361D01*
X85654809Y-70996783D01*
X85675152Y-70993870D01*
X85675162Y-70993867D01*
X85684045Y-70992595D01*
X85707395Y-70981979D01*
X85724907Y-70975536D01*
X85740937Y-70970954D01*
X85749565Y-70968488D01*
X85774548Y-70952726D01*
X85789614Y-70944596D01*
X85816510Y-70932367D01*
X85835939Y-70915626D01*
X85850947Y-70904521D01*
X85865039Y-70895630D01*
X85872631Y-70890840D01*
X85892182Y-70868703D01*
X85904374Y-70856659D01*
X85919949Y-70843239D01*
X85919950Y-70843237D01*
X85926747Y-70837381D01*
X85931626Y-70829853D01*
X85931629Y-70829850D01*
X85940696Y-70815861D01*
X85951986Y-70800987D01*
X85963012Y-70788502D01*
X85968956Y-70781772D01*
X85981510Y-70755034D01*
X85989824Y-70740065D01*
X86005893Y-70715273D01*
X86013239Y-70690709D01*
X86019901Y-70673264D01*
X86026983Y-70658179D01*
X86030799Y-70650052D01*
X86035343Y-70620870D01*
X86039126Y-70604151D01*
X86045014Y-70584464D01*
X86045015Y-70584461D01*
X86047587Y-70575859D01*
X86047625Y-70569652D01*
X90031524Y-70569652D01*
X90033990Y-70578281D01*
X90033991Y-70578286D01*
X90039639Y-70598048D01*
X90043217Y-70614809D01*
X90046130Y-70635152D01*
X90046133Y-70635162D01*
X90047405Y-70644045D01*
X90058021Y-70667395D01*
X90064464Y-70684907D01*
X90071512Y-70709565D01*
X90087274Y-70734548D01*
X90095404Y-70749614D01*
X90107633Y-70776510D01*
X90124374Y-70795939D01*
X90135479Y-70810947D01*
X90149160Y-70832631D01*
X90155888Y-70838573D01*
X90171296Y-70852181D01*
X90183340Y-70864373D01*
X90202619Y-70886747D01*
X90210147Y-70891626D01*
X90210150Y-70891629D01*
X90224139Y-70900696D01*
X90239013Y-70911986D01*
X90258228Y-70928956D01*
X90266354Y-70932771D01*
X90266355Y-70932772D01*
X90272021Y-70935432D01*
X90284966Y-70941510D01*
X90299935Y-70949824D01*
X90324727Y-70965893D01*
X90341650Y-70970954D01*
X90349290Y-70973239D01*
X90366736Y-70979901D01*
X90389948Y-70990799D01*
X90419130Y-70995343D01*
X90435849Y-70999126D01*
X90455536Y-71005014D01*
X90455539Y-71005015D01*
X90464141Y-71007587D01*
X90473116Y-71007642D01*
X90473117Y-71007642D01*
X90479810Y-71007683D01*
X90498556Y-71007797D01*
X90499328Y-71007830D01*
X90500423Y-71008000D01*
X90531298Y-71008000D01*
X90532068Y-71008002D01*
X90605716Y-71008452D01*
X90605717Y-71008452D01*
X90609652Y-71008476D01*
X90610996Y-71008092D01*
X90612341Y-71008000D01*
X104531298Y-71008000D01*
X104532069Y-71008002D01*
X104609652Y-71008476D01*
X104618281Y-71006010D01*
X104618286Y-71006009D01*
X104638048Y-71000361D01*
X104654809Y-70996783D01*
X104675152Y-70993870D01*
X104675162Y-70993867D01*
X104684045Y-70992595D01*
X104707395Y-70981979D01*
X104724907Y-70975536D01*
X104740937Y-70970954D01*
X104749565Y-70968488D01*
X104774548Y-70952726D01*
X104789614Y-70944596D01*
X104816510Y-70932367D01*
X104835939Y-70915626D01*
X104850947Y-70904521D01*
X104865039Y-70895630D01*
X104872631Y-70890840D01*
X104892182Y-70868703D01*
X104904374Y-70856659D01*
X104919949Y-70843239D01*
X104919950Y-70843237D01*
X104926747Y-70837381D01*
X104931626Y-70829853D01*
X104931629Y-70829850D01*
X104940696Y-70815861D01*
X104951986Y-70800987D01*
X104963012Y-70788502D01*
X104968956Y-70781772D01*
X104981510Y-70755034D01*
X104989824Y-70740065D01*
X105005893Y-70715273D01*
X105013239Y-70690709D01*
X105019901Y-70673264D01*
X105026983Y-70658179D01*
X105030799Y-70650052D01*
X105035343Y-70620870D01*
X105039126Y-70604151D01*
X105045014Y-70584464D01*
X105045015Y-70584461D01*
X105047587Y-70575859D01*
X105047625Y-70569652D01*
X109031524Y-70569652D01*
X109033990Y-70578281D01*
X109033991Y-70578286D01*
X109039639Y-70598048D01*
X109043217Y-70614809D01*
X109046130Y-70635152D01*
X109046133Y-70635162D01*
X109047405Y-70644045D01*
X109058021Y-70667395D01*
X109064464Y-70684907D01*
X109071512Y-70709565D01*
X109087274Y-70734548D01*
X109095404Y-70749614D01*
X109107633Y-70776510D01*
X109124374Y-70795939D01*
X109135479Y-70810947D01*
X109149160Y-70832631D01*
X109155888Y-70838573D01*
X109171296Y-70852181D01*
X109183340Y-70864373D01*
X109202619Y-70886747D01*
X109210147Y-70891626D01*
X109210150Y-70891629D01*
X109224139Y-70900696D01*
X109239013Y-70911986D01*
X109258228Y-70928956D01*
X109266354Y-70932771D01*
X109266355Y-70932772D01*
X109272021Y-70935432D01*
X109284966Y-70941510D01*
X109299935Y-70949824D01*
X109324727Y-70965893D01*
X109341650Y-70970954D01*
X109349290Y-70973239D01*
X109366736Y-70979901D01*
X109389948Y-70990799D01*
X109419130Y-70995343D01*
X109435849Y-70999126D01*
X109455536Y-71005014D01*
X109455539Y-71005015D01*
X109464141Y-71007587D01*
X109473116Y-71007642D01*
X109473117Y-71007642D01*
X109479810Y-71007683D01*
X109498556Y-71007797D01*
X109499328Y-71007830D01*
X109500423Y-71008000D01*
X109531298Y-71008000D01*
X109532068Y-71008002D01*
X109605716Y-71008452D01*
X109605717Y-71008452D01*
X109609652Y-71008476D01*
X109610996Y-71008092D01*
X109612341Y-71008000D01*
X123531298Y-71008000D01*
X123532069Y-71008002D01*
X123609652Y-71008476D01*
X123618281Y-71006010D01*
X123618286Y-71006009D01*
X123638048Y-71000361D01*
X123654809Y-70996783D01*
X123675152Y-70993870D01*
X123675162Y-70993867D01*
X123684045Y-70992595D01*
X123707395Y-70981979D01*
X123724907Y-70975536D01*
X123740937Y-70970954D01*
X123749565Y-70968488D01*
X123774548Y-70952726D01*
X123789614Y-70944596D01*
X123816510Y-70932367D01*
X123835939Y-70915626D01*
X123850947Y-70904521D01*
X123865039Y-70895630D01*
X123872631Y-70890840D01*
X123892182Y-70868703D01*
X123904374Y-70856659D01*
X123919949Y-70843239D01*
X123919950Y-70843237D01*
X123926747Y-70837381D01*
X123931626Y-70829853D01*
X123931629Y-70829850D01*
X123940696Y-70815861D01*
X123951986Y-70800987D01*
X123963012Y-70788502D01*
X123968956Y-70781772D01*
X123981510Y-70755034D01*
X123989824Y-70740065D01*
X124005893Y-70715273D01*
X124013239Y-70690709D01*
X124019901Y-70673264D01*
X124026983Y-70658179D01*
X124030799Y-70650052D01*
X124035343Y-70620870D01*
X124039126Y-70604151D01*
X124045014Y-70584464D01*
X124045015Y-70584461D01*
X124047587Y-70575859D01*
X124047625Y-70569652D01*
X128031524Y-70569652D01*
X128033990Y-70578281D01*
X128033991Y-70578286D01*
X128039639Y-70598048D01*
X128043217Y-70614809D01*
X128046130Y-70635152D01*
X128046133Y-70635162D01*
X128047405Y-70644045D01*
X128058021Y-70667395D01*
X128064464Y-70684907D01*
X128071512Y-70709565D01*
X128087274Y-70734548D01*
X128095404Y-70749614D01*
X128107633Y-70776510D01*
X128124374Y-70795939D01*
X128135479Y-70810947D01*
X128149160Y-70832631D01*
X128155888Y-70838573D01*
X128171296Y-70852181D01*
X128183340Y-70864373D01*
X128202619Y-70886747D01*
X128210147Y-70891626D01*
X128210150Y-70891629D01*
X128224139Y-70900696D01*
X128239013Y-70911986D01*
X128258228Y-70928956D01*
X128266354Y-70932771D01*
X128266355Y-70932772D01*
X128272021Y-70935432D01*
X128284966Y-70941510D01*
X128299935Y-70949824D01*
X128324727Y-70965893D01*
X128341650Y-70970954D01*
X128349290Y-70973239D01*
X128366736Y-70979901D01*
X128389948Y-70990799D01*
X128419130Y-70995343D01*
X128435849Y-70999126D01*
X128455536Y-71005014D01*
X128455539Y-71005015D01*
X128464141Y-71007587D01*
X128473116Y-71007642D01*
X128473117Y-71007642D01*
X128479810Y-71007683D01*
X128498556Y-71007797D01*
X128499328Y-71007830D01*
X128500423Y-71008000D01*
X128531298Y-71008000D01*
X128532068Y-71008002D01*
X128605716Y-71008452D01*
X128605717Y-71008452D01*
X128609652Y-71008476D01*
X128610996Y-71008092D01*
X128612341Y-71008000D01*
X142531298Y-71008000D01*
X142532069Y-71008002D01*
X142609652Y-71008476D01*
X142618281Y-71006010D01*
X142618286Y-71006009D01*
X142638048Y-71000361D01*
X142654809Y-70996783D01*
X142675152Y-70993870D01*
X142675162Y-70993867D01*
X142684045Y-70992595D01*
X142707395Y-70981979D01*
X142724907Y-70975536D01*
X142740937Y-70970954D01*
X142749565Y-70968488D01*
X142774548Y-70952726D01*
X142789614Y-70944596D01*
X142816510Y-70932367D01*
X142835939Y-70915626D01*
X142850947Y-70904521D01*
X142865039Y-70895630D01*
X142872631Y-70890840D01*
X142892182Y-70868703D01*
X142904374Y-70856659D01*
X142919949Y-70843239D01*
X142919950Y-70843237D01*
X142926747Y-70837381D01*
X142931626Y-70829853D01*
X142931629Y-70829850D01*
X142940696Y-70815861D01*
X142951986Y-70800987D01*
X142963012Y-70788502D01*
X142968956Y-70781772D01*
X142981510Y-70755034D01*
X142989824Y-70740065D01*
X143005893Y-70715273D01*
X143013239Y-70690709D01*
X143019901Y-70673264D01*
X143026983Y-70658179D01*
X143030799Y-70650052D01*
X143035343Y-70620870D01*
X143039126Y-70604151D01*
X143045014Y-70584464D01*
X143045015Y-70584461D01*
X143047587Y-70575859D01*
X143047625Y-70569652D01*
X147031524Y-70569652D01*
X147033990Y-70578281D01*
X147033991Y-70578286D01*
X147039639Y-70598048D01*
X147043217Y-70614809D01*
X147046130Y-70635152D01*
X147046133Y-70635162D01*
X147047405Y-70644045D01*
X147058021Y-70667395D01*
X147064464Y-70684907D01*
X147071512Y-70709565D01*
X147087274Y-70734548D01*
X147095404Y-70749614D01*
X147107633Y-70776510D01*
X147124374Y-70795939D01*
X147135479Y-70810947D01*
X147149160Y-70832631D01*
X147155888Y-70838573D01*
X147171296Y-70852181D01*
X147183340Y-70864373D01*
X147202619Y-70886747D01*
X147210147Y-70891626D01*
X147210150Y-70891629D01*
X147224139Y-70900696D01*
X147239013Y-70911986D01*
X147258228Y-70928956D01*
X147266354Y-70932771D01*
X147266355Y-70932772D01*
X147272021Y-70935432D01*
X147284966Y-70941510D01*
X147299935Y-70949824D01*
X147324727Y-70965893D01*
X147341650Y-70970954D01*
X147349290Y-70973239D01*
X147366736Y-70979901D01*
X147389948Y-70990799D01*
X147419130Y-70995343D01*
X147435849Y-70999126D01*
X147455536Y-71005014D01*
X147455539Y-71005015D01*
X147464141Y-71007587D01*
X147473116Y-71007642D01*
X147473117Y-71007642D01*
X147479810Y-71007683D01*
X147498556Y-71007797D01*
X147499328Y-71007830D01*
X147500423Y-71008000D01*
X147531298Y-71008000D01*
X147532068Y-71008002D01*
X147605716Y-71008452D01*
X147605717Y-71008452D01*
X147609652Y-71008476D01*
X147610996Y-71008092D01*
X147612341Y-71008000D01*
X161531298Y-71008000D01*
X161532069Y-71008002D01*
X161609652Y-71008476D01*
X161618281Y-71006010D01*
X161618286Y-71006009D01*
X161638048Y-71000361D01*
X161654809Y-70996783D01*
X161675152Y-70993870D01*
X161675162Y-70993867D01*
X161684045Y-70992595D01*
X161707395Y-70981979D01*
X161724907Y-70975536D01*
X161740937Y-70970954D01*
X161749565Y-70968488D01*
X161774548Y-70952726D01*
X161789614Y-70944596D01*
X161816510Y-70932367D01*
X161835939Y-70915626D01*
X161850947Y-70904521D01*
X161865039Y-70895630D01*
X161872631Y-70890840D01*
X161892182Y-70868703D01*
X161904374Y-70856659D01*
X161919949Y-70843239D01*
X161919950Y-70843237D01*
X161926747Y-70837381D01*
X161931626Y-70829853D01*
X161931629Y-70829850D01*
X161940696Y-70815861D01*
X161951986Y-70800987D01*
X161963012Y-70788502D01*
X161968956Y-70781772D01*
X161981510Y-70755034D01*
X161989824Y-70740065D01*
X162005893Y-70715273D01*
X162013239Y-70690709D01*
X162019901Y-70673264D01*
X162026983Y-70658179D01*
X162030799Y-70650052D01*
X162035343Y-70620870D01*
X162039126Y-70604151D01*
X162045014Y-70584464D01*
X162045015Y-70584461D01*
X162047587Y-70575859D01*
X162047625Y-70569652D01*
X166031524Y-70569652D01*
X166033990Y-70578281D01*
X166033991Y-70578286D01*
X166039639Y-70598048D01*
X166043217Y-70614809D01*
X166046130Y-70635152D01*
X166046133Y-70635162D01*
X166047405Y-70644045D01*
X166058021Y-70667395D01*
X166064464Y-70684907D01*
X166071512Y-70709565D01*
X166087274Y-70734548D01*
X166095404Y-70749614D01*
X166107633Y-70776510D01*
X166124374Y-70795939D01*
X166135479Y-70810947D01*
X166149160Y-70832631D01*
X166155888Y-70838573D01*
X166171296Y-70852181D01*
X166183340Y-70864373D01*
X166202619Y-70886747D01*
X166210147Y-70891626D01*
X166210150Y-70891629D01*
X166224139Y-70900696D01*
X166239013Y-70911986D01*
X166258228Y-70928956D01*
X166266354Y-70932771D01*
X166266355Y-70932772D01*
X166272021Y-70935432D01*
X166284966Y-70941510D01*
X166299935Y-70949824D01*
X166324727Y-70965893D01*
X166341650Y-70970954D01*
X166349290Y-70973239D01*
X166366736Y-70979901D01*
X166389948Y-70990799D01*
X166419130Y-70995343D01*
X166435849Y-70999126D01*
X166455536Y-71005014D01*
X166455539Y-71005015D01*
X166464141Y-71007587D01*
X166473116Y-71007642D01*
X166473117Y-71007642D01*
X166479810Y-71007683D01*
X166498556Y-71007797D01*
X166499328Y-71007830D01*
X166500423Y-71008000D01*
X166531298Y-71008000D01*
X166532068Y-71008002D01*
X166605716Y-71008452D01*
X166605717Y-71008452D01*
X166609652Y-71008476D01*
X166610996Y-71008092D01*
X166612341Y-71008000D01*
X180531298Y-71008000D01*
X180532069Y-71008002D01*
X180609652Y-71008476D01*
X180618281Y-71006010D01*
X180618286Y-71006009D01*
X180638048Y-71000361D01*
X180654809Y-70996783D01*
X180675152Y-70993870D01*
X180675162Y-70993867D01*
X180684045Y-70992595D01*
X180707395Y-70981979D01*
X180724907Y-70975536D01*
X180740937Y-70970954D01*
X180749565Y-70968488D01*
X180774548Y-70952726D01*
X180789614Y-70944596D01*
X180816510Y-70932367D01*
X180835939Y-70915626D01*
X180850947Y-70904521D01*
X180865039Y-70895630D01*
X180872631Y-70890840D01*
X180892182Y-70868703D01*
X180904374Y-70856659D01*
X180919949Y-70843239D01*
X180919950Y-70843237D01*
X180926747Y-70837381D01*
X180931626Y-70829853D01*
X180931629Y-70829850D01*
X180940696Y-70815861D01*
X180951986Y-70800987D01*
X180963012Y-70788502D01*
X180968956Y-70781772D01*
X180981510Y-70755034D01*
X180989824Y-70740065D01*
X181005893Y-70715273D01*
X181013239Y-70690709D01*
X181019901Y-70673264D01*
X181026983Y-70658179D01*
X181030799Y-70650052D01*
X181035343Y-70620870D01*
X181039126Y-70604151D01*
X181045014Y-70584464D01*
X181045015Y-70584461D01*
X181047587Y-70575859D01*
X181047625Y-70569652D01*
X185031524Y-70569652D01*
X185033990Y-70578281D01*
X185033991Y-70578286D01*
X185039639Y-70598048D01*
X185043217Y-70614809D01*
X185046130Y-70635152D01*
X185046133Y-70635162D01*
X185047405Y-70644045D01*
X185058021Y-70667395D01*
X185064464Y-70684907D01*
X185071512Y-70709565D01*
X185087274Y-70734548D01*
X185095404Y-70749614D01*
X185107633Y-70776510D01*
X185124374Y-70795939D01*
X185135479Y-70810947D01*
X185149160Y-70832631D01*
X185155888Y-70838573D01*
X185171296Y-70852181D01*
X185183340Y-70864373D01*
X185202619Y-70886747D01*
X185210147Y-70891626D01*
X185210150Y-70891629D01*
X185224139Y-70900696D01*
X185239013Y-70911986D01*
X185258228Y-70928956D01*
X185266354Y-70932771D01*
X185266355Y-70932772D01*
X185272021Y-70935432D01*
X185284966Y-70941510D01*
X185299935Y-70949824D01*
X185324727Y-70965893D01*
X185341650Y-70970954D01*
X185349290Y-70973239D01*
X185366736Y-70979901D01*
X185389948Y-70990799D01*
X185419130Y-70995343D01*
X185435849Y-70999126D01*
X185455536Y-71005014D01*
X185455539Y-71005015D01*
X185464141Y-71007587D01*
X185473116Y-71007642D01*
X185473117Y-71007642D01*
X185479810Y-71007683D01*
X185498556Y-71007797D01*
X185499328Y-71007830D01*
X185500423Y-71008000D01*
X185531298Y-71008000D01*
X185532068Y-71008002D01*
X185605716Y-71008452D01*
X185605717Y-71008452D01*
X185609652Y-71008476D01*
X185610996Y-71008092D01*
X185612341Y-71008000D01*
X199531298Y-71008000D01*
X199532069Y-71008002D01*
X199609652Y-71008476D01*
X199618281Y-71006010D01*
X199618286Y-71006009D01*
X199638048Y-71000361D01*
X199654809Y-70996783D01*
X199675152Y-70993870D01*
X199675162Y-70993867D01*
X199684045Y-70992595D01*
X199707395Y-70981979D01*
X199724907Y-70975536D01*
X199740937Y-70970954D01*
X199749565Y-70968488D01*
X199774548Y-70952726D01*
X199789614Y-70944596D01*
X199816510Y-70932367D01*
X199835939Y-70915626D01*
X199850947Y-70904521D01*
X199865039Y-70895630D01*
X199872631Y-70890840D01*
X199892182Y-70868703D01*
X199904374Y-70856659D01*
X199919949Y-70843239D01*
X199919950Y-70843237D01*
X199926747Y-70837381D01*
X199931626Y-70829853D01*
X199931629Y-70829850D01*
X199940696Y-70815861D01*
X199951986Y-70800987D01*
X199963012Y-70788502D01*
X199968956Y-70781772D01*
X199981510Y-70755034D01*
X199989824Y-70740065D01*
X200005893Y-70715273D01*
X200013239Y-70690709D01*
X200019901Y-70673264D01*
X200026983Y-70658179D01*
X200030799Y-70650052D01*
X200035343Y-70620870D01*
X200039126Y-70604151D01*
X200045014Y-70584464D01*
X200045015Y-70584461D01*
X200047587Y-70575859D01*
X200047625Y-70569652D01*
X204031524Y-70569652D01*
X204033990Y-70578281D01*
X204033991Y-70578286D01*
X204039639Y-70598048D01*
X204043217Y-70614809D01*
X204046130Y-70635152D01*
X204046133Y-70635162D01*
X204047405Y-70644045D01*
X204058021Y-70667395D01*
X204064464Y-70684907D01*
X204071512Y-70709565D01*
X204087274Y-70734548D01*
X204095404Y-70749614D01*
X204107633Y-70776510D01*
X204124374Y-70795939D01*
X204135479Y-70810947D01*
X204149160Y-70832631D01*
X204155888Y-70838573D01*
X204171296Y-70852181D01*
X204183340Y-70864373D01*
X204202619Y-70886747D01*
X204210147Y-70891626D01*
X204210150Y-70891629D01*
X204224139Y-70900696D01*
X204239013Y-70911986D01*
X204258228Y-70928956D01*
X204266354Y-70932771D01*
X204266355Y-70932772D01*
X204272021Y-70935432D01*
X204284966Y-70941510D01*
X204299935Y-70949824D01*
X204324727Y-70965893D01*
X204341650Y-70970954D01*
X204349290Y-70973239D01*
X204366736Y-70979901D01*
X204389948Y-70990799D01*
X204419130Y-70995343D01*
X204435849Y-70999126D01*
X204455536Y-71005014D01*
X204455539Y-71005015D01*
X204464141Y-71007587D01*
X204473116Y-71007642D01*
X204473117Y-71007642D01*
X204479810Y-71007683D01*
X204498556Y-71007797D01*
X204499328Y-71007830D01*
X204500423Y-71008000D01*
X204531298Y-71008000D01*
X204532068Y-71008002D01*
X204605716Y-71008452D01*
X204605717Y-71008452D01*
X204609652Y-71008476D01*
X204610996Y-71008092D01*
X204612341Y-71008000D01*
X218531298Y-71008000D01*
X218532069Y-71008002D01*
X218609652Y-71008476D01*
X218618281Y-71006010D01*
X218618286Y-71006009D01*
X218638048Y-71000361D01*
X218654809Y-70996783D01*
X218675152Y-70993870D01*
X218675162Y-70993867D01*
X218684045Y-70992595D01*
X218707395Y-70981979D01*
X218724907Y-70975536D01*
X218740937Y-70970954D01*
X218749565Y-70968488D01*
X218774548Y-70952726D01*
X218789614Y-70944596D01*
X218816510Y-70932367D01*
X218835939Y-70915626D01*
X218850947Y-70904521D01*
X218865039Y-70895630D01*
X218872631Y-70890840D01*
X218892182Y-70868703D01*
X218904374Y-70856659D01*
X218919949Y-70843239D01*
X218919950Y-70843237D01*
X218926747Y-70837381D01*
X218931626Y-70829853D01*
X218931629Y-70829850D01*
X218940696Y-70815861D01*
X218951986Y-70800987D01*
X218963012Y-70788502D01*
X218968956Y-70781772D01*
X218981510Y-70755034D01*
X218989824Y-70740065D01*
X219005893Y-70715273D01*
X219013239Y-70690709D01*
X219019901Y-70673264D01*
X219026983Y-70658179D01*
X219030799Y-70650052D01*
X219035343Y-70620870D01*
X219039126Y-70604151D01*
X219045014Y-70584464D01*
X219045015Y-70584461D01*
X219047587Y-70575859D01*
X219047625Y-70569652D01*
X223031524Y-70569652D01*
X223033990Y-70578281D01*
X223033991Y-70578286D01*
X223039639Y-70598048D01*
X223043217Y-70614809D01*
X223046130Y-70635152D01*
X223046133Y-70635162D01*
X223047405Y-70644045D01*
X223058021Y-70667395D01*
X223064464Y-70684907D01*
X223071512Y-70709565D01*
X223087274Y-70734548D01*
X223095404Y-70749614D01*
X223107633Y-70776510D01*
X223124374Y-70795939D01*
X223135479Y-70810947D01*
X223149160Y-70832631D01*
X223155888Y-70838573D01*
X223171296Y-70852181D01*
X223183340Y-70864373D01*
X223202619Y-70886747D01*
X223210147Y-70891626D01*
X223210150Y-70891629D01*
X223224139Y-70900696D01*
X223239013Y-70911986D01*
X223258228Y-70928956D01*
X223266354Y-70932771D01*
X223266355Y-70932772D01*
X223272021Y-70935432D01*
X223284966Y-70941510D01*
X223299935Y-70949824D01*
X223324727Y-70965893D01*
X223341650Y-70970954D01*
X223349290Y-70973239D01*
X223366736Y-70979901D01*
X223389948Y-70990799D01*
X223419130Y-70995343D01*
X223435849Y-70999126D01*
X223455536Y-71005014D01*
X223455539Y-71005015D01*
X223464141Y-71007587D01*
X223473116Y-71007642D01*
X223473117Y-71007642D01*
X223479810Y-71007683D01*
X223498556Y-71007797D01*
X223499328Y-71007830D01*
X223500423Y-71008000D01*
X223531298Y-71008000D01*
X223532068Y-71008002D01*
X223605716Y-71008452D01*
X223605717Y-71008452D01*
X223609652Y-71008476D01*
X223610996Y-71008092D01*
X223612341Y-71008000D01*
X237531298Y-71008000D01*
X237532069Y-71008002D01*
X237609652Y-71008476D01*
X237618281Y-71006010D01*
X237618286Y-71006009D01*
X237638048Y-71000361D01*
X237654809Y-70996783D01*
X237675152Y-70993870D01*
X237675162Y-70993867D01*
X237684045Y-70992595D01*
X237707395Y-70981979D01*
X237724907Y-70975536D01*
X237740937Y-70970954D01*
X237749565Y-70968488D01*
X237774548Y-70952726D01*
X237789614Y-70944596D01*
X237816510Y-70932367D01*
X237835939Y-70915626D01*
X237850947Y-70904521D01*
X237865039Y-70895630D01*
X237872631Y-70890840D01*
X237892182Y-70868703D01*
X237904374Y-70856659D01*
X237919949Y-70843239D01*
X237919950Y-70843237D01*
X237926747Y-70837381D01*
X237931626Y-70829853D01*
X237931629Y-70829850D01*
X237940696Y-70815861D01*
X237951986Y-70800987D01*
X237963012Y-70788502D01*
X237968956Y-70781772D01*
X237981510Y-70755034D01*
X237989824Y-70740065D01*
X238005893Y-70715273D01*
X238013239Y-70690709D01*
X238019901Y-70673264D01*
X238026983Y-70658179D01*
X238030799Y-70650052D01*
X238035343Y-70620870D01*
X238039126Y-70604151D01*
X238045014Y-70584464D01*
X238045015Y-70584461D01*
X238047587Y-70575859D01*
X238047625Y-70569652D01*
X242031524Y-70569652D01*
X242033990Y-70578281D01*
X242033991Y-70578286D01*
X242039639Y-70598048D01*
X242043217Y-70614809D01*
X242046130Y-70635152D01*
X242046133Y-70635162D01*
X242047405Y-70644045D01*
X242058021Y-70667395D01*
X242064464Y-70684907D01*
X242071512Y-70709565D01*
X242087274Y-70734548D01*
X242095404Y-70749614D01*
X242107633Y-70776510D01*
X242124374Y-70795939D01*
X242135479Y-70810947D01*
X242149160Y-70832631D01*
X242155888Y-70838573D01*
X242171296Y-70852181D01*
X242183340Y-70864373D01*
X242202619Y-70886747D01*
X242210147Y-70891626D01*
X242210150Y-70891629D01*
X242224139Y-70900696D01*
X242239013Y-70911986D01*
X242258228Y-70928956D01*
X242266354Y-70932771D01*
X242266355Y-70932772D01*
X242272021Y-70935432D01*
X242284966Y-70941510D01*
X242299935Y-70949824D01*
X242324727Y-70965893D01*
X242341650Y-70970954D01*
X242349290Y-70973239D01*
X242366736Y-70979901D01*
X242389948Y-70990799D01*
X242419130Y-70995343D01*
X242435849Y-70999126D01*
X242455536Y-71005014D01*
X242455539Y-71005015D01*
X242464141Y-71007587D01*
X242473116Y-71007642D01*
X242473117Y-71007642D01*
X242479810Y-71007683D01*
X242498556Y-71007797D01*
X242499328Y-71007830D01*
X242500423Y-71008000D01*
X242531298Y-71008000D01*
X242532068Y-71008002D01*
X242605716Y-71008452D01*
X242605717Y-71008452D01*
X242609652Y-71008476D01*
X242610996Y-71008092D01*
X242612341Y-71008000D01*
X256531298Y-71008000D01*
X256532069Y-71008002D01*
X256609652Y-71008476D01*
X256618281Y-71006010D01*
X256618286Y-71006009D01*
X256638048Y-71000361D01*
X256654809Y-70996783D01*
X256675152Y-70993870D01*
X256675162Y-70993867D01*
X256684045Y-70992595D01*
X256707395Y-70981979D01*
X256724907Y-70975536D01*
X256740937Y-70970954D01*
X256749565Y-70968488D01*
X256774548Y-70952726D01*
X256789614Y-70944596D01*
X256816510Y-70932367D01*
X256835939Y-70915626D01*
X256850947Y-70904521D01*
X256865039Y-70895630D01*
X256872631Y-70890840D01*
X256892182Y-70868703D01*
X256904374Y-70856659D01*
X256919949Y-70843239D01*
X256919950Y-70843237D01*
X256926747Y-70837381D01*
X256931626Y-70829853D01*
X256931629Y-70829850D01*
X256940696Y-70815861D01*
X256951986Y-70800987D01*
X256963012Y-70788502D01*
X256968956Y-70781772D01*
X256981510Y-70755034D01*
X256989824Y-70740065D01*
X257005893Y-70715273D01*
X257013239Y-70690709D01*
X257019901Y-70673264D01*
X257026983Y-70658179D01*
X257030799Y-70650052D01*
X257035343Y-70620870D01*
X257039126Y-70604151D01*
X257045014Y-70584464D01*
X257045015Y-70584461D01*
X257047587Y-70575859D01*
X257047625Y-70569652D01*
X261031524Y-70569652D01*
X261033990Y-70578281D01*
X261033991Y-70578286D01*
X261039639Y-70598048D01*
X261043217Y-70614809D01*
X261046130Y-70635152D01*
X261046133Y-70635162D01*
X261047405Y-70644045D01*
X261058021Y-70667395D01*
X261064464Y-70684907D01*
X261071512Y-70709565D01*
X261087274Y-70734548D01*
X261095404Y-70749614D01*
X261107633Y-70776510D01*
X261124374Y-70795939D01*
X261135479Y-70810947D01*
X261149160Y-70832631D01*
X261155888Y-70838573D01*
X261171296Y-70852181D01*
X261183340Y-70864373D01*
X261202619Y-70886747D01*
X261210147Y-70891626D01*
X261210150Y-70891629D01*
X261224139Y-70900696D01*
X261239013Y-70911986D01*
X261258228Y-70928956D01*
X261266354Y-70932771D01*
X261266355Y-70932772D01*
X261272021Y-70935432D01*
X261284966Y-70941510D01*
X261299935Y-70949824D01*
X261324727Y-70965893D01*
X261341650Y-70970954D01*
X261349290Y-70973239D01*
X261366736Y-70979901D01*
X261389948Y-70990799D01*
X261419130Y-70995343D01*
X261435849Y-70999126D01*
X261455536Y-71005014D01*
X261455539Y-71005015D01*
X261464141Y-71007587D01*
X261473116Y-71007642D01*
X261473117Y-71007642D01*
X261479810Y-71007683D01*
X261498556Y-71007797D01*
X261499328Y-71007830D01*
X261500423Y-71008000D01*
X261531298Y-71008000D01*
X261532068Y-71008002D01*
X261605716Y-71008452D01*
X261605717Y-71008452D01*
X261609652Y-71008476D01*
X261610996Y-71008092D01*
X261612341Y-71008000D01*
X275531298Y-71008000D01*
X275532069Y-71008002D01*
X275609652Y-71008476D01*
X275618281Y-71006010D01*
X275618286Y-71006009D01*
X275638048Y-71000361D01*
X275654809Y-70996783D01*
X275675152Y-70993870D01*
X275675162Y-70993867D01*
X275684045Y-70992595D01*
X275707395Y-70981979D01*
X275724907Y-70975536D01*
X275740937Y-70970954D01*
X275749565Y-70968488D01*
X275774548Y-70952726D01*
X275789614Y-70944596D01*
X275816510Y-70932367D01*
X275835939Y-70915626D01*
X275850947Y-70904521D01*
X275865039Y-70895630D01*
X275872631Y-70890840D01*
X275892182Y-70868703D01*
X275904374Y-70856659D01*
X275919949Y-70843239D01*
X275919950Y-70843237D01*
X275926747Y-70837381D01*
X275931626Y-70829853D01*
X275931629Y-70829850D01*
X275940696Y-70815861D01*
X275951986Y-70800987D01*
X275963012Y-70788502D01*
X275968956Y-70781772D01*
X275981510Y-70755034D01*
X275989824Y-70740065D01*
X276005893Y-70715273D01*
X276013239Y-70690709D01*
X276019901Y-70673264D01*
X276026983Y-70658179D01*
X276030799Y-70650052D01*
X276035343Y-70620870D01*
X276039126Y-70604151D01*
X276045014Y-70584464D01*
X276045015Y-70584461D01*
X276047587Y-70575859D01*
X276047797Y-70541444D01*
X276047830Y-70540672D01*
X276048000Y-70539577D01*
X276048000Y-70508702D01*
X276048002Y-70507932D01*
X276048452Y-70434284D01*
X276048452Y-70434283D01*
X276048476Y-70430348D01*
X276048092Y-70429004D01*
X276048000Y-70427659D01*
X276048000Y-56508702D01*
X276048002Y-56507932D01*
X276048421Y-56439322D01*
X276048476Y-56430348D01*
X276046010Y-56421719D01*
X276046009Y-56421714D01*
X276040361Y-56401952D01*
X276036783Y-56385191D01*
X276033870Y-56364848D01*
X276033867Y-56364838D01*
X276032595Y-56355955D01*
X276021979Y-56332605D01*
X276015536Y-56315093D01*
X276010954Y-56299063D01*
X276008488Y-56290435D01*
X275992726Y-56265452D01*
X275984596Y-56250386D01*
X275972367Y-56223490D01*
X275955626Y-56204061D01*
X275944521Y-56189053D01*
X275935630Y-56174961D01*
X275930840Y-56167369D01*
X275908703Y-56147818D01*
X275896659Y-56135626D01*
X275883239Y-56120051D01*
X275883237Y-56120050D01*
X275877381Y-56113253D01*
X275869853Y-56108374D01*
X275869850Y-56108371D01*
X275855861Y-56099304D01*
X275840987Y-56088014D01*
X275828502Y-56076988D01*
X275821772Y-56071044D01*
X275813646Y-56067229D01*
X275813645Y-56067228D01*
X275807979Y-56064568D01*
X275795034Y-56058490D01*
X275780065Y-56050176D01*
X275755273Y-56034107D01*
X275730709Y-56026761D01*
X275713264Y-56020099D01*
X275708827Y-56018016D01*
X275690052Y-56009201D01*
X275660870Y-56004657D01*
X275644151Y-56000874D01*
X275624464Y-55994986D01*
X275624461Y-55994985D01*
X275615859Y-55992413D01*
X275606884Y-55992358D01*
X275606883Y-55992358D01*
X275600190Y-55992317D01*
X275581444Y-55992203D01*
X275580672Y-55992170D01*
X275579577Y-55992000D01*
X275548702Y-55992000D01*
X275547932Y-55991998D01*
X275474284Y-55991548D01*
X275474283Y-55991548D01*
X275470348Y-55991524D01*
X275469004Y-55991908D01*
X275467659Y-55992000D01*
X261548702Y-55992000D01*
X261547932Y-55991998D01*
X261547078Y-55991993D01*
X261470348Y-55991524D01*
X261461719Y-55993990D01*
X261461714Y-55993991D01*
X261441952Y-55999639D01*
X261425191Y-56003217D01*
X261404848Y-56006130D01*
X261404838Y-56006133D01*
X261395955Y-56007405D01*
X261372605Y-56018021D01*
X261355093Y-56024464D01*
X261347057Y-56026761D01*
X261330435Y-56031512D01*
X261305452Y-56047274D01*
X261290386Y-56055404D01*
X261263490Y-56067633D01*
X261244061Y-56084374D01*
X261229053Y-56095479D01*
X261207369Y-56109160D01*
X261201427Y-56115888D01*
X261187819Y-56131296D01*
X261175627Y-56143340D01*
X261153253Y-56162619D01*
X261148374Y-56170147D01*
X261148371Y-56170150D01*
X261139304Y-56184139D01*
X261128014Y-56199013D01*
X261111044Y-56218228D01*
X261098490Y-56244966D01*
X261090176Y-56259935D01*
X261074107Y-56284727D01*
X261071535Y-56293327D01*
X261066761Y-56309290D01*
X261060099Y-56326736D01*
X261049201Y-56349948D01*
X261044658Y-56379128D01*
X261040874Y-56395849D01*
X261034986Y-56415536D01*
X261034985Y-56415539D01*
X261032413Y-56424141D01*
X261032358Y-56433116D01*
X261032358Y-56433117D01*
X261032203Y-56458546D01*
X261032170Y-56459328D01*
X261032000Y-56460423D01*
X261032000Y-56491298D01*
X261031998Y-56492068D01*
X261031524Y-56569652D01*
X261031908Y-56570996D01*
X261032000Y-56572341D01*
X261032000Y-70491298D01*
X261031998Y-70492068D01*
X261031524Y-70569652D01*
X257047625Y-70569652D01*
X257047797Y-70541444D01*
X257047830Y-70540672D01*
X257048000Y-70539577D01*
X257048000Y-70508702D01*
X257048002Y-70507932D01*
X257048452Y-70434284D01*
X257048452Y-70434283D01*
X257048476Y-70430348D01*
X257048092Y-70429004D01*
X257048000Y-70427659D01*
X257048000Y-56508702D01*
X257048002Y-56507932D01*
X257048421Y-56439322D01*
X257048476Y-56430348D01*
X257046010Y-56421719D01*
X257046009Y-56421714D01*
X257040361Y-56401952D01*
X257036783Y-56385191D01*
X257033870Y-56364848D01*
X257033867Y-56364838D01*
X257032595Y-56355955D01*
X257021979Y-56332605D01*
X257015536Y-56315093D01*
X257010954Y-56299063D01*
X257008488Y-56290435D01*
X256992726Y-56265452D01*
X256984596Y-56250386D01*
X256972367Y-56223490D01*
X256955626Y-56204061D01*
X256944521Y-56189053D01*
X256935630Y-56174961D01*
X256930840Y-56167369D01*
X256908703Y-56147818D01*
X256896659Y-56135626D01*
X256883239Y-56120051D01*
X256883237Y-56120050D01*
X256877381Y-56113253D01*
X256869853Y-56108374D01*
X256869850Y-56108371D01*
X256855861Y-56099304D01*
X256840987Y-56088014D01*
X256828502Y-56076988D01*
X256821772Y-56071044D01*
X256813646Y-56067229D01*
X256813645Y-56067228D01*
X256807979Y-56064568D01*
X256795034Y-56058490D01*
X256780065Y-56050176D01*
X256755273Y-56034107D01*
X256730709Y-56026761D01*
X256713264Y-56020099D01*
X256708827Y-56018016D01*
X256690052Y-56009201D01*
X256660870Y-56004657D01*
X256644151Y-56000874D01*
X256624464Y-55994986D01*
X256624461Y-55994985D01*
X256615859Y-55992413D01*
X256606884Y-55992358D01*
X256606883Y-55992358D01*
X256600190Y-55992317D01*
X256581444Y-55992203D01*
X256580672Y-55992170D01*
X256579577Y-55992000D01*
X256548702Y-55992000D01*
X256547932Y-55991998D01*
X256474284Y-55991548D01*
X256474283Y-55991548D01*
X256470348Y-55991524D01*
X256469004Y-55991908D01*
X256467659Y-55992000D01*
X242548702Y-55992000D01*
X242547932Y-55991998D01*
X242547078Y-55991993D01*
X242470348Y-55991524D01*
X242461719Y-55993990D01*
X242461714Y-55993991D01*
X242441952Y-55999639D01*
X242425191Y-56003217D01*
X242404848Y-56006130D01*
X242404838Y-56006133D01*
X242395955Y-56007405D01*
X242372605Y-56018021D01*
X242355093Y-56024464D01*
X242347057Y-56026761D01*
X242330435Y-56031512D01*
X242305452Y-56047274D01*
X242290386Y-56055404D01*
X242263490Y-56067633D01*
X242244061Y-56084374D01*
X242229053Y-56095479D01*
X242207369Y-56109160D01*
X242201427Y-56115888D01*
X242187819Y-56131296D01*
X242175627Y-56143340D01*
X242153253Y-56162619D01*
X242148374Y-56170147D01*
X242148371Y-56170150D01*
X242139304Y-56184139D01*
X242128014Y-56199013D01*
X242111044Y-56218228D01*
X242098490Y-56244966D01*
X242090176Y-56259935D01*
X242074107Y-56284727D01*
X242071535Y-56293327D01*
X242066761Y-56309290D01*
X242060099Y-56326736D01*
X242049201Y-56349948D01*
X242044658Y-56379128D01*
X242040874Y-56395849D01*
X242034986Y-56415536D01*
X242034985Y-56415539D01*
X242032413Y-56424141D01*
X242032358Y-56433116D01*
X242032358Y-56433117D01*
X242032203Y-56458546D01*
X242032170Y-56459328D01*
X242032000Y-56460423D01*
X242032000Y-56491298D01*
X242031998Y-56492068D01*
X242031524Y-56569652D01*
X242031908Y-56570996D01*
X242032000Y-56572341D01*
X242032000Y-70491298D01*
X242031998Y-70492068D01*
X242031524Y-70569652D01*
X238047625Y-70569652D01*
X238047797Y-70541444D01*
X238047830Y-70540672D01*
X238048000Y-70539577D01*
X238048000Y-70508702D01*
X238048002Y-70507932D01*
X238048452Y-70434284D01*
X238048452Y-70434283D01*
X238048476Y-70430348D01*
X238048092Y-70429004D01*
X238048000Y-70427659D01*
X238048000Y-56508702D01*
X238048002Y-56507932D01*
X238048421Y-56439322D01*
X238048476Y-56430348D01*
X238046010Y-56421719D01*
X238046009Y-56421714D01*
X238040361Y-56401952D01*
X238036783Y-56385191D01*
X238033870Y-56364848D01*
X238033867Y-56364838D01*
X238032595Y-56355955D01*
X238021979Y-56332605D01*
X238015536Y-56315093D01*
X238010954Y-56299063D01*
X238008488Y-56290435D01*
X237992726Y-56265452D01*
X237984596Y-56250386D01*
X237972367Y-56223490D01*
X237955626Y-56204061D01*
X237944521Y-56189053D01*
X237935630Y-56174961D01*
X237930840Y-56167369D01*
X237908703Y-56147818D01*
X237896659Y-56135626D01*
X237883239Y-56120051D01*
X237883237Y-56120050D01*
X237877381Y-56113253D01*
X237869853Y-56108374D01*
X237869850Y-56108371D01*
X237855861Y-56099304D01*
X237840987Y-56088014D01*
X237828502Y-56076988D01*
X237821772Y-56071044D01*
X237813646Y-56067229D01*
X237813645Y-56067228D01*
X237807979Y-56064568D01*
X237795034Y-56058490D01*
X237780065Y-56050176D01*
X237755273Y-56034107D01*
X237730709Y-56026761D01*
X237713264Y-56020099D01*
X237708827Y-56018016D01*
X237690052Y-56009201D01*
X237660870Y-56004657D01*
X237644151Y-56000874D01*
X237624464Y-55994986D01*
X237624461Y-55994985D01*
X237615859Y-55992413D01*
X237606884Y-55992358D01*
X237606883Y-55992358D01*
X237600190Y-55992317D01*
X237581444Y-55992203D01*
X237580672Y-55992170D01*
X237579577Y-55992000D01*
X237548702Y-55992000D01*
X237547932Y-55991998D01*
X237474284Y-55991548D01*
X237474283Y-55991548D01*
X237470348Y-55991524D01*
X237469004Y-55991908D01*
X237467659Y-55992000D01*
X223548702Y-55992000D01*
X223547932Y-55991998D01*
X223547078Y-55991993D01*
X223470348Y-55991524D01*
X223461719Y-55993990D01*
X223461714Y-55993991D01*
X223441952Y-55999639D01*
X223425191Y-56003217D01*
X223404848Y-56006130D01*
X223404838Y-56006133D01*
X223395955Y-56007405D01*
X223372605Y-56018021D01*
X223355093Y-56024464D01*
X223347057Y-56026761D01*
X223330435Y-56031512D01*
X223305452Y-56047274D01*
X223290386Y-56055404D01*
X223263490Y-56067633D01*
X223244061Y-56084374D01*
X223229053Y-56095479D01*
X223207369Y-56109160D01*
X223201427Y-56115888D01*
X223187819Y-56131296D01*
X223175627Y-56143340D01*
X223153253Y-56162619D01*
X223148374Y-56170147D01*
X223148371Y-56170150D01*
X223139304Y-56184139D01*
X223128014Y-56199013D01*
X223111044Y-56218228D01*
X223098490Y-56244966D01*
X223090176Y-56259935D01*
X223074107Y-56284727D01*
X223071535Y-56293327D01*
X223066761Y-56309290D01*
X223060099Y-56326736D01*
X223049201Y-56349948D01*
X223044658Y-56379128D01*
X223040874Y-56395849D01*
X223034986Y-56415536D01*
X223034985Y-56415539D01*
X223032413Y-56424141D01*
X223032358Y-56433116D01*
X223032358Y-56433117D01*
X223032203Y-56458546D01*
X223032170Y-56459328D01*
X223032000Y-56460423D01*
X223032000Y-56491298D01*
X223031998Y-56492068D01*
X223031524Y-56569652D01*
X223031908Y-56570996D01*
X223032000Y-56572341D01*
X223032000Y-70491298D01*
X223031998Y-70492068D01*
X223031524Y-70569652D01*
X219047625Y-70569652D01*
X219047797Y-70541444D01*
X219047830Y-70540672D01*
X219048000Y-70539577D01*
X219048000Y-70508702D01*
X219048002Y-70507932D01*
X219048452Y-70434284D01*
X219048452Y-70434283D01*
X219048476Y-70430348D01*
X219048092Y-70429004D01*
X219048000Y-70427659D01*
X219048000Y-56508702D01*
X219048002Y-56507932D01*
X219048421Y-56439322D01*
X219048476Y-56430348D01*
X219046010Y-56421719D01*
X219046009Y-56421714D01*
X219040361Y-56401952D01*
X219036783Y-56385191D01*
X219033870Y-56364848D01*
X219033867Y-56364838D01*
X219032595Y-56355955D01*
X219021979Y-56332605D01*
X219015536Y-56315093D01*
X219010954Y-56299063D01*
X219008488Y-56290435D01*
X218992726Y-56265452D01*
X218984596Y-56250386D01*
X218972367Y-56223490D01*
X218955626Y-56204061D01*
X218944521Y-56189053D01*
X218935630Y-56174961D01*
X218930840Y-56167369D01*
X218908703Y-56147818D01*
X218896659Y-56135626D01*
X218883239Y-56120051D01*
X218883237Y-56120050D01*
X218877381Y-56113253D01*
X218869853Y-56108374D01*
X218869850Y-56108371D01*
X218855861Y-56099304D01*
X218840987Y-56088014D01*
X218828502Y-56076988D01*
X218821772Y-56071044D01*
X218813646Y-56067229D01*
X218813645Y-56067228D01*
X218807979Y-56064568D01*
X218795034Y-56058490D01*
X218780065Y-56050176D01*
X218755273Y-56034107D01*
X218730709Y-56026761D01*
X218713264Y-56020099D01*
X218708827Y-56018016D01*
X218690052Y-56009201D01*
X218660870Y-56004657D01*
X218644151Y-56000874D01*
X218624464Y-55994986D01*
X218624461Y-55994985D01*
X218615859Y-55992413D01*
X218606884Y-55992358D01*
X218606883Y-55992358D01*
X218600190Y-55992317D01*
X218581444Y-55992203D01*
X218580672Y-55992170D01*
X218579577Y-55992000D01*
X218548702Y-55992000D01*
X218547932Y-55991998D01*
X218474284Y-55991548D01*
X218474283Y-55991548D01*
X218470348Y-55991524D01*
X218469004Y-55991908D01*
X218467659Y-55992000D01*
X204548702Y-55992000D01*
X204547932Y-55991998D01*
X204547078Y-55991993D01*
X204470348Y-55991524D01*
X204461719Y-55993990D01*
X204461714Y-55993991D01*
X204441952Y-55999639D01*
X204425191Y-56003217D01*
X204404848Y-56006130D01*
X204404838Y-56006133D01*
X204395955Y-56007405D01*
X204372605Y-56018021D01*
X204355093Y-56024464D01*
X204347057Y-56026761D01*
X204330435Y-56031512D01*
X204305452Y-56047274D01*
X204290386Y-56055404D01*
X204263490Y-56067633D01*
X204244061Y-56084374D01*
X204229053Y-56095479D01*
X204207369Y-56109160D01*
X204201427Y-56115888D01*
X204187819Y-56131296D01*
X204175627Y-56143340D01*
X204153253Y-56162619D01*
X204148374Y-56170147D01*
X204148371Y-56170150D01*
X204139304Y-56184139D01*
X204128014Y-56199013D01*
X204111044Y-56218228D01*
X204098490Y-56244966D01*
X204090176Y-56259935D01*
X204074107Y-56284727D01*
X204071535Y-56293327D01*
X204066761Y-56309290D01*
X204060099Y-56326736D01*
X204049201Y-56349948D01*
X204044658Y-56379128D01*
X204040874Y-56395849D01*
X204034986Y-56415536D01*
X204034985Y-56415539D01*
X204032413Y-56424141D01*
X204032358Y-56433116D01*
X204032358Y-56433117D01*
X204032203Y-56458546D01*
X204032170Y-56459328D01*
X204032000Y-56460423D01*
X204032000Y-56491298D01*
X204031998Y-56492068D01*
X204031524Y-56569652D01*
X204031908Y-56570996D01*
X204032000Y-56572341D01*
X204032000Y-70491298D01*
X204031998Y-70492068D01*
X204031524Y-70569652D01*
X200047625Y-70569652D01*
X200047797Y-70541444D01*
X200047830Y-70540672D01*
X200048000Y-70539577D01*
X200048000Y-70508702D01*
X200048002Y-70507932D01*
X200048452Y-70434284D01*
X200048452Y-70434283D01*
X200048476Y-70430348D01*
X200048092Y-70429004D01*
X200048000Y-70427659D01*
X200048000Y-56508702D01*
X200048002Y-56507932D01*
X200048421Y-56439322D01*
X200048476Y-56430348D01*
X200046010Y-56421719D01*
X200046009Y-56421714D01*
X200040361Y-56401952D01*
X200036783Y-56385191D01*
X200033870Y-56364848D01*
X200033867Y-56364838D01*
X200032595Y-56355955D01*
X200021979Y-56332605D01*
X200015536Y-56315093D01*
X200010954Y-56299063D01*
X200008488Y-56290435D01*
X199992726Y-56265452D01*
X199984596Y-56250386D01*
X199972367Y-56223490D01*
X199955626Y-56204061D01*
X199944521Y-56189053D01*
X199935630Y-56174961D01*
X199930840Y-56167369D01*
X199908703Y-56147818D01*
X199896659Y-56135626D01*
X199883239Y-56120051D01*
X199883237Y-56120050D01*
X199877381Y-56113253D01*
X199869853Y-56108374D01*
X199869850Y-56108371D01*
X199855861Y-56099304D01*
X199840987Y-56088014D01*
X199828502Y-56076988D01*
X199821772Y-56071044D01*
X199813646Y-56067229D01*
X199813645Y-56067228D01*
X199807979Y-56064568D01*
X199795034Y-56058490D01*
X199780065Y-56050176D01*
X199755273Y-56034107D01*
X199730709Y-56026761D01*
X199713264Y-56020099D01*
X199708827Y-56018016D01*
X199690052Y-56009201D01*
X199660870Y-56004657D01*
X199644151Y-56000874D01*
X199624464Y-55994986D01*
X199624461Y-55994985D01*
X199615859Y-55992413D01*
X199606884Y-55992358D01*
X199606883Y-55992358D01*
X199600190Y-55992317D01*
X199581444Y-55992203D01*
X199580672Y-55992170D01*
X199579577Y-55992000D01*
X199548702Y-55992000D01*
X199547932Y-55991998D01*
X199474284Y-55991548D01*
X199474283Y-55991548D01*
X199470348Y-55991524D01*
X199469004Y-55991908D01*
X199467659Y-55992000D01*
X185548702Y-55992000D01*
X185547932Y-55991998D01*
X185547078Y-55991993D01*
X185470348Y-55991524D01*
X185461719Y-55993990D01*
X185461714Y-55993991D01*
X185441952Y-55999639D01*
X185425191Y-56003217D01*
X185404848Y-56006130D01*
X185404838Y-56006133D01*
X185395955Y-56007405D01*
X185372605Y-56018021D01*
X185355093Y-56024464D01*
X185347057Y-56026761D01*
X185330435Y-56031512D01*
X185305452Y-56047274D01*
X185290386Y-56055404D01*
X185263490Y-56067633D01*
X185244061Y-56084374D01*
X185229053Y-56095479D01*
X185207369Y-56109160D01*
X185201427Y-56115888D01*
X185187819Y-56131296D01*
X185175627Y-56143340D01*
X185153253Y-56162619D01*
X185148374Y-56170147D01*
X185148371Y-56170150D01*
X185139304Y-56184139D01*
X185128014Y-56199013D01*
X185111044Y-56218228D01*
X185098490Y-56244966D01*
X185090176Y-56259935D01*
X185074107Y-56284727D01*
X185071535Y-56293327D01*
X185066761Y-56309290D01*
X185060099Y-56326736D01*
X185049201Y-56349948D01*
X185044658Y-56379128D01*
X185040874Y-56395849D01*
X185034986Y-56415536D01*
X185034985Y-56415539D01*
X185032413Y-56424141D01*
X185032358Y-56433116D01*
X185032358Y-56433117D01*
X185032203Y-56458546D01*
X185032170Y-56459328D01*
X185032000Y-56460423D01*
X185032000Y-56491298D01*
X185031998Y-56492068D01*
X185031524Y-56569652D01*
X185031908Y-56570996D01*
X185032000Y-56572341D01*
X185032000Y-70491298D01*
X185031998Y-70492068D01*
X185031524Y-70569652D01*
X181047625Y-70569652D01*
X181047797Y-70541444D01*
X181047830Y-70540672D01*
X181048000Y-70539577D01*
X181048000Y-70508702D01*
X181048002Y-70507932D01*
X181048452Y-70434284D01*
X181048452Y-70434283D01*
X181048476Y-70430348D01*
X181048092Y-70429004D01*
X181048000Y-70427659D01*
X181048000Y-56508702D01*
X181048002Y-56507932D01*
X181048421Y-56439322D01*
X181048476Y-56430348D01*
X181046010Y-56421719D01*
X181046009Y-56421714D01*
X181040361Y-56401952D01*
X181036783Y-56385191D01*
X181033870Y-56364848D01*
X181033867Y-56364838D01*
X181032595Y-56355955D01*
X181021979Y-56332605D01*
X181015536Y-56315093D01*
X181010954Y-56299063D01*
X181008488Y-56290435D01*
X180992726Y-56265452D01*
X180984596Y-56250386D01*
X180972367Y-56223490D01*
X180955626Y-56204061D01*
X180944521Y-56189053D01*
X180935630Y-56174961D01*
X180930840Y-56167369D01*
X180908703Y-56147818D01*
X180896659Y-56135626D01*
X180883239Y-56120051D01*
X180883237Y-56120050D01*
X180877381Y-56113253D01*
X180869853Y-56108374D01*
X180869850Y-56108371D01*
X180855861Y-56099304D01*
X180840987Y-56088014D01*
X180828502Y-56076988D01*
X180821772Y-56071044D01*
X180813646Y-56067229D01*
X180813645Y-56067228D01*
X180807979Y-56064568D01*
X180795034Y-56058490D01*
X180780065Y-56050176D01*
X180755273Y-56034107D01*
X180730709Y-56026761D01*
X180713264Y-56020099D01*
X180708827Y-56018016D01*
X180690052Y-56009201D01*
X180660870Y-56004657D01*
X180644151Y-56000874D01*
X180624464Y-55994986D01*
X180624461Y-55994985D01*
X180615859Y-55992413D01*
X180606884Y-55992358D01*
X180606883Y-55992358D01*
X180600190Y-55992317D01*
X180581444Y-55992203D01*
X180580672Y-55992170D01*
X180579577Y-55992000D01*
X180548702Y-55992000D01*
X180547932Y-55991998D01*
X180474284Y-55991548D01*
X180474283Y-55991548D01*
X180470348Y-55991524D01*
X180469004Y-55991908D01*
X180467659Y-55992000D01*
X166548702Y-55992000D01*
X166547932Y-55991998D01*
X166547078Y-55991993D01*
X166470348Y-55991524D01*
X166461719Y-55993990D01*
X166461714Y-55993991D01*
X166441952Y-55999639D01*
X166425191Y-56003217D01*
X166404848Y-56006130D01*
X166404838Y-56006133D01*
X166395955Y-56007405D01*
X166372605Y-56018021D01*
X166355093Y-56024464D01*
X166347057Y-56026761D01*
X166330435Y-56031512D01*
X166305452Y-56047274D01*
X166290386Y-56055404D01*
X166263490Y-56067633D01*
X166244061Y-56084374D01*
X166229053Y-56095479D01*
X166207369Y-56109160D01*
X166201427Y-56115888D01*
X166187819Y-56131296D01*
X166175627Y-56143340D01*
X166153253Y-56162619D01*
X166148374Y-56170147D01*
X166148371Y-56170150D01*
X166139304Y-56184139D01*
X166128014Y-56199013D01*
X166111044Y-56218228D01*
X166098490Y-56244966D01*
X166090176Y-56259935D01*
X166074107Y-56284727D01*
X166071535Y-56293327D01*
X166066761Y-56309290D01*
X166060099Y-56326736D01*
X166049201Y-56349948D01*
X166044658Y-56379128D01*
X166040874Y-56395849D01*
X166034986Y-56415536D01*
X166034985Y-56415539D01*
X166032413Y-56424141D01*
X166032358Y-56433116D01*
X166032358Y-56433117D01*
X166032203Y-56458546D01*
X166032170Y-56459328D01*
X166032000Y-56460423D01*
X166032000Y-56491298D01*
X166031998Y-56492068D01*
X166031524Y-56569652D01*
X166031908Y-56570996D01*
X166032000Y-56572341D01*
X166032000Y-70491298D01*
X166031998Y-70492068D01*
X166031524Y-70569652D01*
X162047625Y-70569652D01*
X162047797Y-70541444D01*
X162047830Y-70540672D01*
X162048000Y-70539577D01*
X162048000Y-70508702D01*
X162048002Y-70507932D01*
X162048452Y-70434284D01*
X162048452Y-70434283D01*
X162048476Y-70430348D01*
X162048092Y-70429004D01*
X162048000Y-70427659D01*
X162048000Y-56508702D01*
X162048002Y-56507932D01*
X162048421Y-56439322D01*
X162048476Y-56430348D01*
X162046010Y-56421719D01*
X162046009Y-56421714D01*
X162040361Y-56401952D01*
X162036783Y-56385191D01*
X162033870Y-56364848D01*
X162033867Y-56364838D01*
X162032595Y-56355955D01*
X162021979Y-56332605D01*
X162015536Y-56315093D01*
X162010954Y-56299063D01*
X162008488Y-56290435D01*
X161992726Y-56265452D01*
X161984596Y-56250386D01*
X161972367Y-56223490D01*
X161955626Y-56204061D01*
X161944521Y-56189053D01*
X161935630Y-56174961D01*
X161930840Y-56167369D01*
X161908703Y-56147818D01*
X161896659Y-56135626D01*
X161883239Y-56120051D01*
X161883237Y-56120050D01*
X161877381Y-56113253D01*
X161869853Y-56108374D01*
X161869850Y-56108371D01*
X161855861Y-56099304D01*
X161840987Y-56088014D01*
X161828502Y-56076988D01*
X161821772Y-56071044D01*
X161813646Y-56067229D01*
X161813645Y-56067228D01*
X161807979Y-56064568D01*
X161795034Y-56058490D01*
X161780065Y-56050176D01*
X161755273Y-56034107D01*
X161730709Y-56026761D01*
X161713264Y-56020099D01*
X161708827Y-56018016D01*
X161690052Y-56009201D01*
X161660870Y-56004657D01*
X161644151Y-56000874D01*
X161624464Y-55994986D01*
X161624461Y-55994985D01*
X161615859Y-55992413D01*
X161606884Y-55992358D01*
X161606883Y-55992358D01*
X161600190Y-55992317D01*
X161581444Y-55992203D01*
X161580672Y-55992170D01*
X161579577Y-55992000D01*
X161548702Y-55992000D01*
X161547932Y-55991998D01*
X161474284Y-55991548D01*
X161474283Y-55991548D01*
X161470348Y-55991524D01*
X161469004Y-55991908D01*
X161467659Y-55992000D01*
X147548702Y-55992000D01*
X147547932Y-55991998D01*
X147547078Y-55991993D01*
X147470348Y-55991524D01*
X147461719Y-55993990D01*
X147461714Y-55993991D01*
X147441952Y-55999639D01*
X147425191Y-56003217D01*
X147404848Y-56006130D01*
X147404838Y-56006133D01*
X147395955Y-56007405D01*
X147372605Y-56018021D01*
X147355093Y-56024464D01*
X147347057Y-56026761D01*
X147330435Y-56031512D01*
X147305452Y-56047274D01*
X147290386Y-56055404D01*
X147263490Y-56067633D01*
X147244061Y-56084374D01*
X147229053Y-56095479D01*
X147207369Y-56109160D01*
X147201427Y-56115888D01*
X147187819Y-56131296D01*
X147175627Y-56143340D01*
X147153253Y-56162619D01*
X147148374Y-56170147D01*
X147148371Y-56170150D01*
X147139304Y-56184139D01*
X147128014Y-56199013D01*
X147111044Y-56218228D01*
X147098490Y-56244966D01*
X147090176Y-56259935D01*
X147074107Y-56284727D01*
X147071535Y-56293327D01*
X147066761Y-56309290D01*
X147060099Y-56326736D01*
X147049201Y-56349948D01*
X147044658Y-56379128D01*
X147040874Y-56395849D01*
X147034986Y-56415536D01*
X147034985Y-56415539D01*
X147032413Y-56424141D01*
X147032358Y-56433116D01*
X147032358Y-56433117D01*
X147032203Y-56458546D01*
X147032170Y-56459328D01*
X147032000Y-56460423D01*
X147032000Y-56491298D01*
X147031998Y-56492068D01*
X147031524Y-56569652D01*
X147031908Y-56570996D01*
X147032000Y-56572341D01*
X147032000Y-70491298D01*
X147031998Y-70492068D01*
X147031524Y-70569652D01*
X143047625Y-70569652D01*
X143047797Y-70541444D01*
X143047830Y-70540672D01*
X143048000Y-70539577D01*
X143048000Y-70508702D01*
X143048002Y-70507932D01*
X143048452Y-70434284D01*
X143048452Y-70434283D01*
X143048476Y-70430348D01*
X143048092Y-70429004D01*
X143048000Y-70427659D01*
X143048000Y-56508702D01*
X143048002Y-56507932D01*
X143048421Y-56439322D01*
X143048476Y-56430348D01*
X143046010Y-56421719D01*
X143046009Y-56421714D01*
X143040361Y-56401952D01*
X143036783Y-56385191D01*
X143033870Y-56364848D01*
X143033867Y-56364838D01*
X143032595Y-56355955D01*
X143021979Y-56332605D01*
X143015536Y-56315093D01*
X143010954Y-56299063D01*
X143008488Y-56290435D01*
X142992726Y-56265452D01*
X142984596Y-56250386D01*
X142972367Y-56223490D01*
X142955626Y-56204061D01*
X142944521Y-56189053D01*
X142935630Y-56174961D01*
X142930840Y-56167369D01*
X142908703Y-56147818D01*
X142896659Y-56135626D01*
X142883239Y-56120051D01*
X142883237Y-56120050D01*
X142877381Y-56113253D01*
X142869853Y-56108374D01*
X142869850Y-56108371D01*
X142855861Y-56099304D01*
X142840987Y-56088014D01*
X142828502Y-56076988D01*
X142821772Y-56071044D01*
X142813646Y-56067229D01*
X142813645Y-56067228D01*
X142807979Y-56064568D01*
X142795034Y-56058490D01*
X142780065Y-56050176D01*
X142755273Y-56034107D01*
X142730709Y-56026761D01*
X142713264Y-56020099D01*
X142708827Y-56018016D01*
X142690052Y-56009201D01*
X142660870Y-56004657D01*
X142644151Y-56000874D01*
X142624464Y-55994986D01*
X142624461Y-55994985D01*
X142615859Y-55992413D01*
X142606884Y-55992358D01*
X142606883Y-55992358D01*
X142600190Y-55992317D01*
X142581444Y-55992203D01*
X142580672Y-55992170D01*
X142579577Y-55992000D01*
X142548702Y-55992000D01*
X142547932Y-55991998D01*
X142474284Y-55991548D01*
X142474283Y-55991548D01*
X142470348Y-55991524D01*
X142469004Y-55991908D01*
X142467659Y-55992000D01*
X128548702Y-55992000D01*
X128547932Y-55991998D01*
X128547078Y-55991993D01*
X128470348Y-55991524D01*
X128461719Y-55993990D01*
X128461714Y-55993991D01*
X128441952Y-55999639D01*
X128425191Y-56003217D01*
X128404848Y-56006130D01*
X128404838Y-56006133D01*
X128395955Y-56007405D01*
X128372605Y-56018021D01*
X128355093Y-56024464D01*
X128347057Y-56026761D01*
X128330435Y-56031512D01*
X128305452Y-56047274D01*
X128290386Y-56055404D01*
X128263490Y-56067633D01*
X128244061Y-56084374D01*
X128229053Y-56095479D01*
X128207369Y-56109160D01*
X128201427Y-56115888D01*
X128187819Y-56131296D01*
X128175627Y-56143340D01*
X128153253Y-56162619D01*
X128148374Y-56170147D01*
X128148371Y-56170150D01*
X128139304Y-56184139D01*
X128128014Y-56199013D01*
X128111044Y-56218228D01*
X128098490Y-56244966D01*
X128090176Y-56259935D01*
X128074107Y-56284727D01*
X128071535Y-56293327D01*
X128066761Y-56309290D01*
X128060099Y-56326736D01*
X128049201Y-56349948D01*
X128044658Y-56379128D01*
X128040874Y-56395849D01*
X128034986Y-56415536D01*
X128034985Y-56415539D01*
X128032413Y-56424141D01*
X128032358Y-56433116D01*
X128032358Y-56433117D01*
X128032203Y-56458546D01*
X128032170Y-56459328D01*
X128032000Y-56460423D01*
X128032000Y-56491298D01*
X128031998Y-56492068D01*
X128031524Y-56569652D01*
X128031908Y-56570996D01*
X128032000Y-56572341D01*
X128032000Y-70491298D01*
X128031998Y-70492068D01*
X128031524Y-70569652D01*
X124047625Y-70569652D01*
X124047797Y-70541444D01*
X124047830Y-70540672D01*
X124048000Y-70539577D01*
X124048000Y-70508702D01*
X124048002Y-70507932D01*
X124048452Y-70434284D01*
X124048452Y-70434283D01*
X124048476Y-70430348D01*
X124048092Y-70429004D01*
X124048000Y-70427659D01*
X124048000Y-56508702D01*
X124048002Y-56507932D01*
X124048421Y-56439322D01*
X124048476Y-56430348D01*
X124046010Y-56421719D01*
X124046009Y-56421714D01*
X124040361Y-56401952D01*
X124036783Y-56385191D01*
X124033870Y-56364848D01*
X124033867Y-56364838D01*
X124032595Y-56355955D01*
X124021979Y-56332605D01*
X124015536Y-56315093D01*
X124010954Y-56299063D01*
X124008488Y-56290435D01*
X123992726Y-56265452D01*
X123984596Y-56250386D01*
X123972367Y-56223490D01*
X123955626Y-56204061D01*
X123944521Y-56189053D01*
X123935630Y-56174961D01*
X123930840Y-56167369D01*
X123908703Y-56147818D01*
X123896659Y-56135626D01*
X123883239Y-56120051D01*
X123883237Y-56120050D01*
X123877381Y-56113253D01*
X123869853Y-56108374D01*
X123869850Y-56108371D01*
X123855861Y-56099304D01*
X123840987Y-56088014D01*
X123828502Y-56076988D01*
X123821772Y-56071044D01*
X123813646Y-56067229D01*
X123813645Y-56067228D01*
X123807979Y-56064568D01*
X123795034Y-56058490D01*
X123780065Y-56050176D01*
X123755273Y-56034107D01*
X123730709Y-56026761D01*
X123713264Y-56020099D01*
X123708827Y-56018016D01*
X123690052Y-56009201D01*
X123660870Y-56004657D01*
X123644151Y-56000874D01*
X123624464Y-55994986D01*
X123624461Y-55994985D01*
X123615859Y-55992413D01*
X123606884Y-55992358D01*
X123606883Y-55992358D01*
X123600190Y-55992317D01*
X123581444Y-55992203D01*
X123580672Y-55992170D01*
X123579577Y-55992000D01*
X123548702Y-55992000D01*
X123547932Y-55991998D01*
X123474284Y-55991548D01*
X123474283Y-55991548D01*
X123470348Y-55991524D01*
X123469004Y-55991908D01*
X123467659Y-55992000D01*
X109548702Y-55992000D01*
X109547932Y-55991998D01*
X109547078Y-55991993D01*
X109470348Y-55991524D01*
X109461719Y-55993990D01*
X109461714Y-55993991D01*
X109441952Y-55999639D01*
X109425191Y-56003217D01*
X109404848Y-56006130D01*
X109404838Y-56006133D01*
X109395955Y-56007405D01*
X109372605Y-56018021D01*
X109355093Y-56024464D01*
X109347057Y-56026761D01*
X109330435Y-56031512D01*
X109305452Y-56047274D01*
X109290386Y-56055404D01*
X109263490Y-56067633D01*
X109244061Y-56084374D01*
X109229053Y-56095479D01*
X109207369Y-56109160D01*
X109201427Y-56115888D01*
X109187819Y-56131296D01*
X109175627Y-56143340D01*
X109153253Y-56162619D01*
X109148374Y-56170147D01*
X109148371Y-56170150D01*
X109139304Y-56184139D01*
X109128014Y-56199013D01*
X109111044Y-56218228D01*
X109098490Y-56244966D01*
X109090176Y-56259935D01*
X109074107Y-56284727D01*
X109071535Y-56293327D01*
X109066761Y-56309290D01*
X109060099Y-56326736D01*
X109049201Y-56349948D01*
X109044658Y-56379128D01*
X109040874Y-56395849D01*
X109034986Y-56415536D01*
X109034985Y-56415539D01*
X109032413Y-56424141D01*
X109032358Y-56433116D01*
X109032358Y-56433117D01*
X109032203Y-56458546D01*
X109032170Y-56459328D01*
X109032000Y-56460423D01*
X109032000Y-56491298D01*
X109031998Y-56492068D01*
X109031524Y-56569652D01*
X109031908Y-56570996D01*
X109032000Y-56572341D01*
X109032000Y-70491298D01*
X109031998Y-70492068D01*
X109031524Y-70569652D01*
X105047625Y-70569652D01*
X105047797Y-70541444D01*
X105047830Y-70540672D01*
X105048000Y-70539577D01*
X105048000Y-70508702D01*
X105048002Y-70507932D01*
X105048452Y-70434284D01*
X105048452Y-70434283D01*
X105048476Y-70430348D01*
X105048092Y-70429004D01*
X105048000Y-70427659D01*
X105048000Y-56508702D01*
X105048002Y-56507932D01*
X105048421Y-56439322D01*
X105048476Y-56430348D01*
X105046010Y-56421719D01*
X105046009Y-56421714D01*
X105040361Y-56401952D01*
X105036783Y-56385191D01*
X105033870Y-56364848D01*
X105033867Y-56364838D01*
X105032595Y-56355955D01*
X105021979Y-56332605D01*
X105015536Y-56315093D01*
X105010954Y-56299063D01*
X105008488Y-56290435D01*
X104992726Y-56265452D01*
X104984596Y-56250386D01*
X104972367Y-56223490D01*
X104955626Y-56204061D01*
X104944521Y-56189053D01*
X104935630Y-56174961D01*
X104930840Y-56167369D01*
X104908703Y-56147818D01*
X104896659Y-56135626D01*
X104883239Y-56120051D01*
X104883237Y-56120050D01*
X104877381Y-56113253D01*
X104869853Y-56108374D01*
X104869850Y-56108371D01*
X104855861Y-56099304D01*
X104840987Y-56088014D01*
X104828502Y-56076988D01*
X104821772Y-56071044D01*
X104813646Y-56067229D01*
X104813645Y-56067228D01*
X104807979Y-56064568D01*
X104795034Y-56058490D01*
X104780065Y-56050176D01*
X104755273Y-56034107D01*
X104730709Y-56026761D01*
X104713264Y-56020099D01*
X104708827Y-56018016D01*
X104690052Y-56009201D01*
X104660870Y-56004657D01*
X104644151Y-56000874D01*
X104624464Y-55994986D01*
X104624461Y-55994985D01*
X104615859Y-55992413D01*
X104606884Y-55992358D01*
X104606883Y-55992358D01*
X104600190Y-55992317D01*
X104581444Y-55992203D01*
X104580672Y-55992170D01*
X104579577Y-55992000D01*
X104548702Y-55992000D01*
X104547932Y-55991998D01*
X104474284Y-55991548D01*
X104474283Y-55991548D01*
X104470348Y-55991524D01*
X104469004Y-55991908D01*
X104467659Y-55992000D01*
X90548702Y-55992000D01*
X90547932Y-55991998D01*
X90547078Y-55991993D01*
X90470348Y-55991524D01*
X90461719Y-55993990D01*
X90461714Y-55993991D01*
X90441952Y-55999639D01*
X90425191Y-56003217D01*
X90404848Y-56006130D01*
X90404838Y-56006133D01*
X90395955Y-56007405D01*
X90372605Y-56018021D01*
X90355093Y-56024464D01*
X90347057Y-56026761D01*
X90330435Y-56031512D01*
X90305452Y-56047274D01*
X90290386Y-56055404D01*
X90263490Y-56067633D01*
X90244061Y-56084374D01*
X90229053Y-56095479D01*
X90207369Y-56109160D01*
X90201427Y-56115888D01*
X90187819Y-56131296D01*
X90175627Y-56143340D01*
X90153253Y-56162619D01*
X90148374Y-56170147D01*
X90148371Y-56170150D01*
X90139304Y-56184139D01*
X90128014Y-56199013D01*
X90111044Y-56218228D01*
X90098490Y-56244966D01*
X90090176Y-56259935D01*
X90074107Y-56284727D01*
X90071535Y-56293327D01*
X90066761Y-56309290D01*
X90060099Y-56326736D01*
X90049201Y-56349948D01*
X90044658Y-56379128D01*
X90040874Y-56395849D01*
X90034986Y-56415536D01*
X90034985Y-56415539D01*
X90032413Y-56424141D01*
X90032358Y-56433116D01*
X90032358Y-56433117D01*
X90032203Y-56458546D01*
X90032170Y-56459328D01*
X90032000Y-56460423D01*
X90032000Y-56491298D01*
X90031998Y-56492068D01*
X90031524Y-56569652D01*
X90031908Y-56570996D01*
X90032000Y-56572341D01*
X90032000Y-70491298D01*
X90031998Y-70492068D01*
X90031524Y-70569652D01*
X86047625Y-70569652D01*
X86047797Y-70541444D01*
X86047830Y-70540672D01*
X86048000Y-70539577D01*
X86048000Y-70508702D01*
X86048002Y-70507932D01*
X86048452Y-70434284D01*
X86048452Y-70434283D01*
X86048476Y-70430348D01*
X86048092Y-70429004D01*
X86048000Y-70427659D01*
X86048000Y-56508702D01*
X86048002Y-56507932D01*
X86048421Y-56439322D01*
X86048476Y-56430348D01*
X86046010Y-56421719D01*
X86046009Y-56421714D01*
X86040361Y-56401952D01*
X86036783Y-56385191D01*
X86033870Y-56364848D01*
X86033867Y-56364838D01*
X86032595Y-56355955D01*
X86021979Y-56332605D01*
X86015536Y-56315093D01*
X86010954Y-56299063D01*
X86008488Y-56290435D01*
X85992726Y-56265452D01*
X85984596Y-56250386D01*
X85972367Y-56223490D01*
X85955626Y-56204061D01*
X85944521Y-56189053D01*
X85935630Y-56174961D01*
X85930840Y-56167369D01*
X85908703Y-56147818D01*
X85896659Y-56135626D01*
X85883239Y-56120051D01*
X85883237Y-56120050D01*
X85877381Y-56113253D01*
X85869853Y-56108374D01*
X85869850Y-56108371D01*
X85855861Y-56099304D01*
X85840987Y-56088014D01*
X85828502Y-56076988D01*
X85821772Y-56071044D01*
X85813646Y-56067229D01*
X85813645Y-56067228D01*
X85807979Y-56064568D01*
X85795034Y-56058490D01*
X85780065Y-56050176D01*
X85755273Y-56034107D01*
X85730709Y-56026761D01*
X85713264Y-56020099D01*
X85708827Y-56018016D01*
X85690052Y-56009201D01*
X85660870Y-56004657D01*
X85644151Y-56000874D01*
X85624464Y-55994986D01*
X85624461Y-55994985D01*
X85615859Y-55992413D01*
X85606884Y-55992358D01*
X85606883Y-55992358D01*
X85600190Y-55992317D01*
X85581444Y-55992203D01*
X85580672Y-55992170D01*
X85579577Y-55992000D01*
X85548702Y-55992000D01*
X85547932Y-55991998D01*
X85474284Y-55991548D01*
X85474283Y-55991548D01*
X85470348Y-55991524D01*
X85469004Y-55991908D01*
X85467659Y-55992000D01*
X71548702Y-55992000D01*
X71547932Y-55991998D01*
X71547078Y-55991993D01*
X71470348Y-55991524D01*
X71461719Y-55993990D01*
X71461714Y-55993991D01*
X71441952Y-55999639D01*
X71425191Y-56003217D01*
X71404848Y-56006130D01*
X71404838Y-56006133D01*
X71395955Y-56007405D01*
X71372605Y-56018021D01*
X71355093Y-56024464D01*
X71347057Y-56026761D01*
X71330435Y-56031512D01*
X71305452Y-56047274D01*
X71290386Y-56055404D01*
X71263490Y-56067633D01*
X71244061Y-56084374D01*
X71229053Y-56095479D01*
X71207369Y-56109160D01*
X71201427Y-56115888D01*
X71187819Y-56131296D01*
X71175627Y-56143340D01*
X71153253Y-56162619D01*
X71148374Y-56170147D01*
X71148371Y-56170150D01*
X71139304Y-56184139D01*
X71128014Y-56199013D01*
X71111044Y-56218228D01*
X71098490Y-56244966D01*
X71090176Y-56259935D01*
X71074107Y-56284727D01*
X71071535Y-56293327D01*
X71066761Y-56309290D01*
X71060099Y-56326736D01*
X71049201Y-56349948D01*
X71044658Y-56379128D01*
X71040874Y-56395849D01*
X71034986Y-56415536D01*
X71034985Y-56415539D01*
X71032413Y-56424141D01*
X71032358Y-56433116D01*
X71032358Y-56433117D01*
X71032203Y-56458546D01*
X71032170Y-56459328D01*
X71032000Y-56460423D01*
X71032000Y-56491298D01*
X71031998Y-56492068D01*
X71031524Y-56569652D01*
X71031908Y-56570996D01*
X71032000Y-56572341D01*
X71032000Y-70491298D01*
X71031998Y-70492068D01*
X71031524Y-70569652D01*
X67047625Y-70569652D01*
X67047797Y-70541444D01*
X67047830Y-70540672D01*
X67048000Y-70539577D01*
X67048000Y-70508702D01*
X67048002Y-70507932D01*
X67048452Y-70434284D01*
X67048452Y-70434283D01*
X67048476Y-70430348D01*
X67048092Y-70429004D01*
X67048000Y-70427659D01*
X67048000Y-56508702D01*
X67048002Y-56507932D01*
X67048421Y-56439322D01*
X67048476Y-56430348D01*
X67046010Y-56421719D01*
X67046009Y-56421714D01*
X67040361Y-56401952D01*
X67036783Y-56385191D01*
X67033870Y-56364848D01*
X67033867Y-56364838D01*
X67032595Y-56355955D01*
X67021979Y-56332605D01*
X67015536Y-56315093D01*
X67010954Y-56299063D01*
X67008488Y-56290435D01*
X66992726Y-56265452D01*
X66984596Y-56250386D01*
X66972367Y-56223490D01*
X66955626Y-56204061D01*
X66944521Y-56189053D01*
X66935630Y-56174961D01*
X66930840Y-56167369D01*
X66908703Y-56147818D01*
X66896659Y-56135626D01*
X66883239Y-56120051D01*
X66883237Y-56120050D01*
X66877381Y-56113253D01*
X66869853Y-56108374D01*
X66869850Y-56108371D01*
X66855861Y-56099304D01*
X66840987Y-56088014D01*
X66828502Y-56076988D01*
X66821772Y-56071044D01*
X66813646Y-56067229D01*
X66813645Y-56067228D01*
X66807979Y-56064568D01*
X66795034Y-56058490D01*
X66780065Y-56050176D01*
X66755273Y-56034107D01*
X66730709Y-56026761D01*
X66713264Y-56020099D01*
X66708827Y-56018016D01*
X66690052Y-56009201D01*
X66660870Y-56004657D01*
X66644151Y-56000874D01*
X66624464Y-55994986D01*
X66624461Y-55994985D01*
X66615859Y-55992413D01*
X66606884Y-55992358D01*
X66606883Y-55992358D01*
X66600190Y-55992317D01*
X66581444Y-55992203D01*
X66580672Y-55992170D01*
X66579577Y-55992000D01*
X66548702Y-55992000D01*
X66547932Y-55991998D01*
X66474284Y-55991548D01*
X66474283Y-55991548D01*
X66470348Y-55991524D01*
X66469004Y-55991908D01*
X66467659Y-55992000D01*
X52548702Y-55992000D01*
X52547932Y-55991998D01*
X52547078Y-55991993D01*
X52470348Y-55991524D01*
X52461719Y-55993990D01*
X52461714Y-55993991D01*
X52441952Y-55999639D01*
X52425191Y-56003217D01*
X52404848Y-56006130D01*
X52404838Y-56006133D01*
X52395955Y-56007405D01*
X52372605Y-56018021D01*
X52355093Y-56024464D01*
X52347057Y-56026761D01*
X52330435Y-56031512D01*
X52305452Y-56047274D01*
X52290386Y-56055404D01*
X52263490Y-56067633D01*
X52244061Y-56084374D01*
X52229053Y-56095479D01*
X52207369Y-56109160D01*
X52201427Y-56115888D01*
X52187819Y-56131296D01*
X52175627Y-56143340D01*
X52153253Y-56162619D01*
X52148374Y-56170147D01*
X52148371Y-56170150D01*
X52139304Y-56184139D01*
X52128014Y-56199013D01*
X52111044Y-56218228D01*
X52098490Y-56244966D01*
X52090176Y-56259935D01*
X52074107Y-56284727D01*
X52071535Y-56293327D01*
X52066761Y-56309290D01*
X52060099Y-56326736D01*
X52049201Y-56349948D01*
X52044658Y-56379128D01*
X52040874Y-56395849D01*
X52034986Y-56415536D01*
X52034985Y-56415539D01*
X52032413Y-56424141D01*
X52032358Y-56433116D01*
X52032358Y-56433117D01*
X52032203Y-56458546D01*
X52032170Y-56459328D01*
X52032000Y-56460423D01*
X52032000Y-56491298D01*
X52031998Y-56492068D01*
X52031524Y-56569652D01*
X52031908Y-56570996D01*
X52032000Y-56572341D01*
X52032000Y-70491298D01*
X52031998Y-70492068D01*
X52031524Y-70569652D01*
X50673000Y-70569652D01*
X50673000Y-53348702D01*
X50673002Y-53347932D01*
X50673421Y-53279322D01*
X50673476Y-53270348D01*
X50671010Y-53261719D01*
X50671009Y-53261714D01*
X50665361Y-53241952D01*
X50661783Y-53225191D01*
X50658870Y-53204848D01*
X50658867Y-53204838D01*
X50657595Y-53195955D01*
X50646979Y-53172605D01*
X50640536Y-53155093D01*
X50635954Y-53139063D01*
X50633488Y-53130435D01*
X50617726Y-53105452D01*
X50609596Y-53090386D01*
X50597367Y-53063490D01*
X50580626Y-53044061D01*
X50569521Y-53029053D01*
X50560630Y-53014961D01*
X50555840Y-53007369D01*
X50533703Y-52987818D01*
X50521659Y-52975626D01*
X50508239Y-52960051D01*
X50508237Y-52960050D01*
X50502381Y-52953253D01*
X50494853Y-52948374D01*
X50494850Y-52948371D01*
X50480861Y-52939304D01*
X50465987Y-52928014D01*
X50453502Y-52916988D01*
X50446772Y-52911044D01*
X50438646Y-52907229D01*
X50438645Y-52907228D01*
X50432979Y-52904568D01*
X50420034Y-52898490D01*
X50405065Y-52890176D01*
X50380273Y-52874107D01*
X50355709Y-52866761D01*
X50338264Y-52860099D01*
X50315052Y-52849201D01*
X50285870Y-52844657D01*
X50269151Y-52840874D01*
X50249464Y-52834986D01*
X50249461Y-52834985D01*
X50240859Y-52832413D01*
X50231884Y-52832358D01*
X50231883Y-52832358D01*
X50225190Y-52832317D01*
X50206444Y-52832203D01*
X50205672Y-52832170D01*
X50204577Y-52832000D01*
X50173702Y-52832000D01*
X50172932Y-52831998D01*
X50099284Y-52831548D01*
X50099283Y-52831548D01*
X50095348Y-52831524D01*
X50094004Y-52831908D01*
X50092659Y-52832000D01*
X19883395Y-52832000D01*
X19815274Y-52811998D01*
X19768781Y-52758342D01*
X19758677Y-52688068D01*
X19785682Y-52626452D01*
X19983549Y-52383410D01*
X20157815Y-52107215D01*
X20297638Y-51812084D01*
X20324188Y-51732504D01*
X20399790Y-51505897D01*
X20399792Y-51505891D01*
X20400992Y-51502293D01*
X20466381Y-51182329D01*
X20472956Y-51101498D01*
X20492674Y-50859061D01*
X20492856Y-50856826D01*
X20493451Y-50800000D01*
X20491510Y-50767796D01*
X20474026Y-50477793D01*
X20474026Y-50477789D01*
X20473798Y-50474015D01*
X20468650Y-50445824D01*
X20415805Y-50156473D01*
X20415804Y-50156469D01*
X20415125Y-50152751D01*
X20407722Y-50128907D01*
X20319404Y-49844477D01*
X20318282Y-49840863D01*
X20184670Y-49542869D01*
X20016226Y-49263084D01*
X20013899Y-49260100D01*
X20013894Y-49260093D01*
X19817726Y-49008558D01*
X19817724Y-49008556D01*
X19815390Y-49005563D01*
X19812716Y-49002875D01*
X19812709Y-49002867D01*
X19792807Y-48982861D01*
X19758946Y-48920460D01*
X19764196Y-48849657D01*
X19806892Y-48792934D01*
X19873478Y-48768298D01*
X19882136Y-48768000D01*
X274755684Y-48768000D01*
X274823805Y-48788002D01*
G37*
%TD.AperFunction*%
M02*
