%TF.GenerationSoftware,KiCad,Pcbnew,6.0.2+dfsg-1*%
%TF.CreationDate,2024-06-04T13:25:45+01:00*%
%TF.ProjectId,backRow_SwitchPlate,6261636b-526f-4775-9f53-776974636850,0*%
%TF.SameCoordinates,Original*%
%TF.FileFunction,Legend,Top*%
%TF.FilePolarity,Positive*%
%FSLAX46Y46*%
G04 Gerber Fmt 4.6, Leading zero omitted, Abs format (unit mm)*
G04 Created by KiCad (PCBNEW 6.0.2+dfsg-1) date 2024-06-04 13:25:45*
%MOMM*%
%LPD*%
G01*
G04 APERTURE LIST*
%ADD10C,0.250000*%
%ADD11C,1.000000*%
%ADD12C,0.500000*%
%ADD13C,0.750000*%
%ADD14C,0.200000*%
%ADD15C,0.150000*%
G04 APERTURE END LIST*
D10*
X273558000Y-77470000D02*
X53848000Y-77470000D01*
X53848000Y-49530000D02*
X273558000Y-49530000D01*
D11*
X53848000Y-52324000D02*
X273558000Y-52324000D01*
D12*
X273558000Y-50165000D02*
X53848000Y-50165000D01*
D13*
X273558000Y-51054000D02*
X53848000Y-51054000D01*
X53848000Y-75946000D02*
X273558000Y-75946000D01*
D12*
X53848000Y-76835000D02*
X273558000Y-76835000D01*
D11*
X53848000Y-74676000D02*
X273558000Y-74676000D01*
D14*
X44345714Y-52030238D02*
X45202857Y-50744523D01*
X43298095Y-52030238D02*
X44155238Y-50744523D01*
X41869523Y-51506428D02*
X41726666Y-51458809D01*
X41679047Y-51411190D01*
X41631428Y-51315952D01*
X41631428Y-51173095D01*
X41679047Y-51077857D01*
X41726666Y-51030238D01*
X41821904Y-50982619D01*
X42202857Y-50982619D01*
X42202857Y-51982619D01*
X41869523Y-51982619D01*
X41774285Y-51935000D01*
X41726666Y-51887380D01*
X41679047Y-51792142D01*
X41679047Y-51696904D01*
X41726666Y-51601666D01*
X41774285Y-51554047D01*
X41869523Y-51506428D01*
X42202857Y-51506428D01*
X40774285Y-50982619D02*
X40774285Y-51506428D01*
X40821904Y-51601666D01*
X40917142Y-51649285D01*
X41107619Y-51649285D01*
X41202857Y-51601666D01*
X40774285Y-51030238D02*
X40869523Y-50982619D01*
X41107619Y-50982619D01*
X41202857Y-51030238D01*
X41250476Y-51125476D01*
X41250476Y-51220714D01*
X41202857Y-51315952D01*
X41107619Y-51363571D01*
X40869523Y-51363571D01*
X40774285Y-51411190D01*
X39869523Y-51030238D02*
X39964761Y-50982619D01*
X40155238Y-50982619D01*
X40250476Y-51030238D01*
X40298095Y-51077857D01*
X40345714Y-51173095D01*
X40345714Y-51458809D01*
X40298095Y-51554047D01*
X40250476Y-51601666D01*
X40155238Y-51649285D01*
X39964761Y-51649285D01*
X39869523Y-51601666D01*
X39440952Y-50982619D02*
X39440952Y-51982619D01*
X39345714Y-51363571D02*
X39060000Y-50982619D01*
X39060000Y-51649285D02*
X39440952Y-51268333D01*
X38060000Y-50982619D02*
X38393333Y-51458809D01*
X38631428Y-50982619D02*
X38631428Y-51982619D01*
X38250476Y-51982619D01*
X38155238Y-51935000D01*
X38107619Y-51887380D01*
X38060000Y-51792142D01*
X38060000Y-51649285D01*
X38107619Y-51554047D01*
X38155238Y-51506428D01*
X38250476Y-51458809D01*
X38631428Y-51458809D01*
X37488571Y-50982619D02*
X37583809Y-51030238D01*
X37631428Y-51077857D01*
X37679047Y-51173095D01*
X37679047Y-51458809D01*
X37631428Y-51554047D01*
X37583809Y-51601666D01*
X37488571Y-51649285D01*
X37345714Y-51649285D01*
X37250476Y-51601666D01*
X37202857Y-51554047D01*
X37155238Y-51458809D01*
X37155238Y-51173095D01*
X37202857Y-51077857D01*
X37250476Y-51030238D01*
X37345714Y-50982619D01*
X37488571Y-50982619D01*
X36821904Y-51649285D02*
X36631428Y-50982619D01*
X36440952Y-51458809D01*
X36250476Y-50982619D01*
X36060000Y-51649285D01*
X35679047Y-50982619D02*
X35679047Y-51982619D01*
X35298095Y-51982619D01*
X35202857Y-51935000D01*
X35155238Y-51887380D01*
X35107619Y-51792142D01*
X35107619Y-51649285D01*
X35155238Y-51554047D01*
X35202857Y-51506428D01*
X35298095Y-51458809D01*
X35679047Y-51458809D01*
X34250476Y-50982619D02*
X34250476Y-51506428D01*
X34298095Y-51601666D01*
X34393333Y-51649285D01*
X34583809Y-51649285D01*
X34679047Y-51601666D01*
X34250476Y-51030238D02*
X34345714Y-50982619D01*
X34583809Y-50982619D01*
X34679047Y-51030238D01*
X34726666Y-51125476D01*
X34726666Y-51220714D01*
X34679047Y-51315952D01*
X34583809Y-51363571D01*
X34345714Y-51363571D01*
X34250476Y-51411190D01*
X33345714Y-50982619D02*
X33345714Y-51982619D01*
X33345714Y-51030238D02*
X33440952Y-50982619D01*
X33631428Y-50982619D01*
X33726666Y-51030238D01*
X33774285Y-51077857D01*
X33821904Y-51173095D01*
X33821904Y-51458809D01*
X33774285Y-51554047D01*
X33726666Y-51601666D01*
X33631428Y-51649285D01*
X33440952Y-51649285D01*
X33345714Y-51601666D01*
X32107619Y-50982619D02*
X32107619Y-51649285D01*
X32107619Y-51458809D02*
X32060000Y-51554047D01*
X32012380Y-51601666D01*
X31917142Y-51649285D01*
X31821904Y-51649285D01*
X31107619Y-51030238D02*
X31202857Y-50982619D01*
X31393333Y-50982619D01*
X31488571Y-51030238D01*
X31536190Y-51125476D01*
X31536190Y-51506428D01*
X31488571Y-51601666D01*
X31393333Y-51649285D01*
X31202857Y-51649285D01*
X31107619Y-51601666D01*
X31060000Y-51506428D01*
X31060000Y-51411190D01*
X31536190Y-51315952D01*
X30726666Y-51649285D02*
X30488571Y-50982619D01*
X30250476Y-51649285D01*
X29869523Y-51077857D02*
X29821904Y-51030238D01*
X29869523Y-50982619D01*
X29917142Y-51030238D01*
X29869523Y-51077857D01*
X29869523Y-50982619D01*
X28440952Y-51982619D02*
X28345714Y-51982619D01*
X28250476Y-51935000D01*
X28202857Y-51887380D01*
X28155238Y-51792142D01*
X28107619Y-51601666D01*
X28107619Y-51363571D01*
X28155238Y-51173095D01*
X28202857Y-51077857D01*
X28250476Y-51030238D01*
X28345714Y-50982619D01*
X28440952Y-50982619D01*
X28536190Y-51030238D01*
X28583809Y-51077857D01*
X28631428Y-51173095D01*
X28679047Y-51363571D01*
X28679047Y-51601666D01*
X28631428Y-51792142D01*
X28583809Y-51887380D01*
X28536190Y-51935000D01*
X28440952Y-51982619D01*
X27250476Y-52077857D02*
X26393333Y-50792142D01*
X26583809Y-52077857D02*
X25726666Y-50792142D01*
D15*
X45102404Y-49472857D02*
X45059547Y-49510952D01*
X44978595Y-49549047D01*
X44835738Y-49472857D01*
X44754785Y-49510952D01*
X44711928Y-49549047D01*
X43859547Y-49968095D02*
X43402404Y-49968095D01*
X43730976Y-49168095D02*
X43630976Y-49968095D01*
X43235738Y-49168095D02*
X43135738Y-49968095D01*
X42892880Y-49168095D02*
X42840500Y-49587142D01*
X42869071Y-49663333D01*
X42940500Y-49701428D01*
X43054785Y-49701428D01*
X43135738Y-49663333D01*
X43178595Y-49625238D01*
X42202404Y-49206190D02*
X42283357Y-49168095D01*
X42435738Y-49168095D01*
X42507166Y-49206190D01*
X42535738Y-49282380D01*
X42497642Y-49587142D01*
X42450023Y-49663333D01*
X42369071Y-49701428D01*
X42216690Y-49701428D01*
X42145261Y-49663333D01*
X42116690Y-49587142D01*
X42126214Y-49510952D01*
X42516690Y-49434761D01*
X41216690Y-49168095D02*
X41116690Y-49968095D01*
X40926214Y-49968095D01*
X40816690Y-49930000D01*
X40750023Y-49853809D01*
X40721452Y-49777619D01*
X40702404Y-49625238D01*
X40716690Y-49510952D01*
X40773833Y-49358571D01*
X40821452Y-49282380D01*
X40907166Y-49206190D01*
X41026214Y-49168095D01*
X41216690Y-49168095D01*
X40107166Y-49206190D02*
X40188119Y-49168095D01*
X40340500Y-49168095D01*
X40411928Y-49206190D01*
X40440500Y-49282380D01*
X40402404Y-49587142D01*
X40354785Y-49663333D01*
X40273833Y-49701428D01*
X40121452Y-49701428D01*
X40050023Y-49663333D01*
X40021452Y-49587142D01*
X40030976Y-49510952D01*
X40421452Y-49434761D01*
X39740500Y-49701428D02*
X39616690Y-49168095D01*
X39359547Y-49701428D01*
X39121452Y-49168095D02*
X39054785Y-49701428D01*
X39021452Y-49968095D02*
X39064309Y-49930000D01*
X39030976Y-49891904D01*
X38988119Y-49930000D01*
X39021452Y-49968095D01*
X39030976Y-49891904D01*
X38626214Y-49168095D02*
X38697642Y-49206190D01*
X38726214Y-49282380D01*
X38640500Y-49968095D01*
X38183357Y-49968095D02*
X38278595Y-49815714D01*
X37973833Y-49206190D02*
X37902404Y-49168095D01*
X37750023Y-49168095D01*
X37669071Y-49206190D01*
X37621452Y-49282380D01*
X37616690Y-49320476D01*
X37645261Y-49396666D01*
X37716690Y-49434761D01*
X37830976Y-49434761D01*
X37902404Y-49472857D01*
X37930976Y-49549047D01*
X37926214Y-49587142D01*
X37878595Y-49663333D01*
X37797642Y-49701428D01*
X37683357Y-49701428D01*
X37611928Y-49663333D01*
X36659547Y-49968095D02*
X36569071Y-49168095D01*
X36345261Y-49739523D01*
X36264309Y-49168095D01*
X35973833Y-49968095D01*
X35654785Y-49168095D02*
X35726214Y-49206190D01*
X35759547Y-49244285D01*
X35788119Y-49320476D01*
X35759547Y-49549047D01*
X35711928Y-49625238D01*
X35669071Y-49663333D01*
X35588119Y-49701428D01*
X35473833Y-49701428D01*
X35402404Y-49663333D01*
X35369071Y-49625238D01*
X35340500Y-49549047D01*
X35369071Y-49320476D01*
X35416690Y-49244285D01*
X35459547Y-49206190D01*
X35540500Y-49168095D01*
X35654785Y-49168095D01*
X35045261Y-49168095D02*
X34978595Y-49701428D01*
X34997642Y-49549047D02*
X34950023Y-49625238D01*
X34907166Y-49663333D01*
X34826214Y-49701428D01*
X34750023Y-49701428D01*
X34550023Y-49168095D02*
X34450023Y-49968095D01*
X34435738Y-49472857D02*
X34245261Y-49168095D01*
X34178595Y-49701428D02*
X34521452Y-49396666D01*
X33935738Y-49206190D02*
X33864309Y-49168095D01*
X33711928Y-49168095D01*
X33630976Y-49206190D01*
X33583357Y-49282380D01*
X33578595Y-49320476D01*
X33607166Y-49396666D01*
X33678595Y-49434761D01*
X33792880Y-49434761D01*
X33864309Y-49472857D01*
X33892880Y-49549047D01*
X33888119Y-49587142D01*
X33840500Y-49663333D01*
X33759547Y-49701428D01*
X33645261Y-49701428D01*
X33573833Y-49663333D01*
X33254785Y-49168095D02*
X33154785Y-49968095D01*
X32911928Y-49168095D02*
X32859547Y-49587142D01*
X32888119Y-49663333D01*
X32959547Y-49701428D01*
X33073833Y-49701428D01*
X33154785Y-49663333D01*
X33197642Y-49625238D01*
X32416690Y-49168095D02*
X32488119Y-49206190D01*
X32521452Y-49244285D01*
X32550023Y-49320476D01*
X32521452Y-49549047D01*
X32473833Y-49625238D01*
X32430976Y-49663333D01*
X32350023Y-49701428D01*
X32235738Y-49701428D01*
X32164309Y-49663333D01*
X32130976Y-49625238D01*
X32102404Y-49549047D01*
X32130976Y-49320476D01*
X32178595Y-49244285D01*
X32221452Y-49206190D01*
X32302404Y-49168095D01*
X32416690Y-49168095D01*
X31740500Y-49701428D02*
X31840500Y-48901428D01*
X31745261Y-49663333D02*
X31664309Y-49701428D01*
X31511928Y-49701428D01*
X31440500Y-49663333D01*
X31407166Y-49625238D01*
X31378595Y-49549047D01*
X31407166Y-49320476D01*
X31454785Y-49244285D01*
X31497642Y-49206190D01*
X31578595Y-49168095D01*
X31730976Y-49168095D01*
X31802404Y-49206190D01*
X31040500Y-49206190D02*
X31045261Y-49168095D01*
X31092880Y-49091904D01*
X31135738Y-49053809D01*
X30040500Y-49891904D02*
X29997642Y-49930000D01*
X29916690Y-49968095D01*
X29726214Y-49968095D01*
X29654785Y-49930000D01*
X29621452Y-49891904D01*
X29592880Y-49815714D01*
X29602404Y-49739523D01*
X29654785Y-49625238D01*
X30169071Y-49168095D01*
X29673833Y-49168095D01*
X29078595Y-49968095D02*
X29002404Y-49968095D01*
X28930976Y-49930000D01*
X28897642Y-49891904D01*
X28869071Y-49815714D01*
X28850023Y-49663333D01*
X28873833Y-49472857D01*
X28930976Y-49320476D01*
X28978595Y-49244285D01*
X29021452Y-49206190D01*
X29102404Y-49168095D01*
X29178595Y-49168095D01*
X29250023Y-49206190D01*
X29283357Y-49244285D01*
X29311928Y-49320476D01*
X29330976Y-49472857D01*
X29307166Y-49663333D01*
X29250023Y-49815714D01*
X29202404Y-49891904D01*
X29159547Y-49930000D01*
X29078595Y-49968095D01*
X28516690Y-49891904D02*
X28473833Y-49930000D01*
X28392880Y-49968095D01*
X28202404Y-49968095D01*
X28130976Y-49930000D01*
X28097642Y-49891904D01*
X28069071Y-49815714D01*
X28078595Y-49739523D01*
X28130976Y-49625238D01*
X28645261Y-49168095D01*
X28150023Y-49168095D01*
X27783357Y-49968095D02*
X27288119Y-49968095D01*
X27592880Y-49663333D01*
X27478595Y-49663333D01*
X27407166Y-49625238D01*
X27373833Y-49587142D01*
X27345261Y-49510952D01*
X27369071Y-49320476D01*
X27416690Y-49244285D01*
X27459547Y-49206190D01*
X27540500Y-49168095D01*
X27769071Y-49168095D01*
X27840500Y-49206190D01*
X27873833Y-49244285D01*
X26511928Y-49472857D02*
X26469071Y-49510952D01*
X26388119Y-49549047D01*
X26245261Y-49472857D01*
X26164309Y-49510952D01*
X26121452Y-49549047D01*
X276947380Y-68119047D02*
X277661666Y-68119047D01*
X277804523Y-68166666D01*
X277899761Y-68261904D01*
X277947380Y-68404761D01*
X277947380Y-68500000D01*
X277947380Y-67166666D02*
X277947380Y-67642857D01*
X276947380Y-67642857D01*
X277852142Y-66261904D02*
X277899761Y-66309523D01*
X277947380Y-66452380D01*
X277947380Y-66547619D01*
X277899761Y-66690476D01*
X277804523Y-66785714D01*
X277709285Y-66833333D01*
X277518809Y-66880952D01*
X277375952Y-66880952D01*
X277185476Y-66833333D01*
X277090238Y-66785714D01*
X276995000Y-66690476D01*
X276947380Y-66547619D01*
X276947380Y-66452380D01*
X276995000Y-66309523D01*
X277042619Y-66261904D01*
X276947380Y-65547619D02*
X277661666Y-65547619D01*
X277804523Y-65595238D01*
X277899761Y-65690476D01*
X277947380Y-65833333D01*
X277947380Y-65928571D01*
X277947380Y-64595238D02*
X277947380Y-65071428D01*
X276947380Y-65071428D01*
X277852142Y-63690476D02*
X277899761Y-63738095D01*
X277947380Y-63880952D01*
X277947380Y-63976190D01*
X277899761Y-64119047D01*
X277804523Y-64214285D01*
X277709285Y-64261904D01*
X277518809Y-64309523D01*
X277375952Y-64309523D01*
X277185476Y-64261904D01*
X277090238Y-64214285D01*
X276995000Y-64119047D01*
X276947380Y-63976190D01*
X276947380Y-63880952D01*
X276995000Y-63738095D01*
X277042619Y-63690476D01*
X276947380Y-62976190D02*
X277661666Y-62976190D01*
X277804523Y-63023809D01*
X277899761Y-63119047D01*
X277947380Y-63261904D01*
X277947380Y-63357142D01*
X277947380Y-62023809D02*
X277947380Y-62500000D01*
X276947380Y-62500000D01*
X277852142Y-61119047D02*
X277899761Y-61166666D01*
X277947380Y-61309523D01*
X277947380Y-61404761D01*
X277899761Y-61547619D01*
X277804523Y-61642857D01*
X277709285Y-61690476D01*
X277518809Y-61738095D01*
X277375952Y-61738095D01*
X277185476Y-61690476D01*
X277090238Y-61642857D01*
X276995000Y-61547619D01*
X276947380Y-61404761D01*
X276947380Y-61309523D01*
X276995000Y-61166666D01*
X277042619Y-61119047D01*
X276947380Y-60404761D02*
X277661666Y-60404761D01*
X277804523Y-60452380D01*
X277899761Y-60547619D01*
X277947380Y-60690476D01*
X277947380Y-60785714D01*
X277947380Y-59452380D02*
X277947380Y-59928571D01*
X276947380Y-59928571D01*
X277852142Y-58547619D02*
X277899761Y-58595238D01*
X277947380Y-58738095D01*
X277947380Y-58833333D01*
X277899761Y-58976190D01*
X277804523Y-59071428D01*
X277709285Y-59119047D01*
X277518809Y-59166666D01*
X277375952Y-59166666D01*
X277185476Y-59119047D01*
X277090238Y-59071428D01*
X276995000Y-58976190D01*
X276947380Y-58833333D01*
X276947380Y-58738095D01*
X276995000Y-58595238D01*
X277042619Y-58547619D01*
X26017595Y-77527142D02*
X26060452Y-77489047D01*
X26141404Y-77450952D01*
X26284261Y-77527142D01*
X26365214Y-77489047D01*
X26408071Y-77450952D01*
X27260452Y-77031904D02*
X27717595Y-77031904D01*
X27389023Y-77831904D02*
X27489023Y-77031904D01*
X27884261Y-77831904D02*
X27984261Y-77031904D01*
X28227119Y-77831904D02*
X28279500Y-77412857D01*
X28250928Y-77336666D01*
X28179500Y-77298571D01*
X28065214Y-77298571D01*
X27984261Y-77336666D01*
X27941404Y-77374761D01*
X28917595Y-77793809D02*
X28836642Y-77831904D01*
X28684261Y-77831904D01*
X28612833Y-77793809D01*
X28584261Y-77717619D01*
X28622357Y-77412857D01*
X28669976Y-77336666D01*
X28750928Y-77298571D01*
X28903309Y-77298571D01*
X28974738Y-77336666D01*
X29003309Y-77412857D01*
X28993785Y-77489047D01*
X28603309Y-77565238D01*
X29903309Y-77831904D02*
X30003309Y-77031904D01*
X30193785Y-77031904D01*
X30303309Y-77070000D01*
X30369976Y-77146190D01*
X30398547Y-77222380D01*
X30417595Y-77374761D01*
X30403309Y-77489047D01*
X30346166Y-77641428D01*
X30298547Y-77717619D01*
X30212833Y-77793809D01*
X30093785Y-77831904D01*
X29903309Y-77831904D01*
X31012833Y-77793809D02*
X30931880Y-77831904D01*
X30779500Y-77831904D01*
X30708071Y-77793809D01*
X30679500Y-77717619D01*
X30717595Y-77412857D01*
X30765214Y-77336666D01*
X30846166Y-77298571D01*
X30998547Y-77298571D01*
X31069976Y-77336666D01*
X31098547Y-77412857D01*
X31089023Y-77489047D01*
X30698547Y-77565238D01*
X31379500Y-77298571D02*
X31503309Y-77831904D01*
X31760452Y-77298571D01*
X31998547Y-77831904D02*
X32065214Y-77298571D01*
X32098547Y-77031904D02*
X32055690Y-77070000D01*
X32089023Y-77108095D01*
X32131880Y-77070000D01*
X32098547Y-77031904D01*
X32089023Y-77108095D01*
X32493785Y-77831904D02*
X32422357Y-77793809D01*
X32393785Y-77717619D01*
X32479500Y-77031904D01*
X32936642Y-77031904D02*
X32841404Y-77184285D01*
X33146166Y-77793809D02*
X33217595Y-77831904D01*
X33369976Y-77831904D01*
X33450928Y-77793809D01*
X33498547Y-77717619D01*
X33503309Y-77679523D01*
X33474738Y-77603333D01*
X33403309Y-77565238D01*
X33289023Y-77565238D01*
X33217595Y-77527142D01*
X33189023Y-77450952D01*
X33193785Y-77412857D01*
X33241404Y-77336666D01*
X33322357Y-77298571D01*
X33436642Y-77298571D01*
X33508071Y-77336666D01*
X34460452Y-77031904D02*
X34550928Y-77831904D01*
X34774738Y-77260476D01*
X34855690Y-77831904D01*
X35146166Y-77031904D01*
X35465214Y-77831904D02*
X35393785Y-77793809D01*
X35360452Y-77755714D01*
X35331880Y-77679523D01*
X35360452Y-77450952D01*
X35408071Y-77374761D01*
X35450928Y-77336666D01*
X35531880Y-77298571D01*
X35646166Y-77298571D01*
X35717595Y-77336666D01*
X35750928Y-77374761D01*
X35779500Y-77450952D01*
X35750928Y-77679523D01*
X35703309Y-77755714D01*
X35660452Y-77793809D01*
X35579500Y-77831904D01*
X35465214Y-77831904D01*
X36074738Y-77831904D02*
X36141404Y-77298571D01*
X36122357Y-77450952D02*
X36169976Y-77374761D01*
X36212833Y-77336666D01*
X36293785Y-77298571D01*
X36369976Y-77298571D01*
X36569976Y-77831904D02*
X36669976Y-77031904D01*
X36684261Y-77527142D02*
X36874738Y-77831904D01*
X36941404Y-77298571D02*
X36598547Y-77603333D01*
X37184261Y-77793809D02*
X37255690Y-77831904D01*
X37408071Y-77831904D01*
X37489023Y-77793809D01*
X37536642Y-77717619D01*
X37541404Y-77679523D01*
X37512833Y-77603333D01*
X37441404Y-77565238D01*
X37327119Y-77565238D01*
X37255690Y-77527142D01*
X37227119Y-77450952D01*
X37231880Y-77412857D01*
X37279500Y-77336666D01*
X37360452Y-77298571D01*
X37474738Y-77298571D01*
X37546166Y-77336666D01*
X37865214Y-77831904D02*
X37965214Y-77031904D01*
X38208071Y-77831904D02*
X38260452Y-77412857D01*
X38231880Y-77336666D01*
X38160452Y-77298571D01*
X38046166Y-77298571D01*
X37965214Y-77336666D01*
X37922357Y-77374761D01*
X38703309Y-77831904D02*
X38631880Y-77793809D01*
X38598547Y-77755714D01*
X38569976Y-77679523D01*
X38598547Y-77450952D01*
X38646166Y-77374761D01*
X38689023Y-77336666D01*
X38769976Y-77298571D01*
X38884261Y-77298571D01*
X38955690Y-77336666D01*
X38989023Y-77374761D01*
X39017595Y-77450952D01*
X38989023Y-77679523D01*
X38941404Y-77755714D01*
X38898547Y-77793809D01*
X38817595Y-77831904D01*
X38703309Y-77831904D01*
X39379500Y-77298571D02*
X39279500Y-78098571D01*
X39374738Y-77336666D02*
X39455690Y-77298571D01*
X39608071Y-77298571D01*
X39679500Y-77336666D01*
X39712833Y-77374761D01*
X39741404Y-77450952D01*
X39712833Y-77679523D01*
X39665214Y-77755714D01*
X39622357Y-77793809D01*
X39541404Y-77831904D01*
X39389023Y-77831904D01*
X39317595Y-77793809D01*
X40079500Y-77793809D02*
X40074738Y-77831904D01*
X40027119Y-77908095D01*
X39984261Y-77946190D01*
X41079500Y-77108095D02*
X41122357Y-77070000D01*
X41203309Y-77031904D01*
X41393785Y-77031904D01*
X41465214Y-77070000D01*
X41498547Y-77108095D01*
X41527119Y-77184285D01*
X41517595Y-77260476D01*
X41465214Y-77374761D01*
X40950928Y-77831904D01*
X41446166Y-77831904D01*
X42041404Y-77031904D02*
X42117595Y-77031904D01*
X42189023Y-77070000D01*
X42222357Y-77108095D01*
X42250928Y-77184285D01*
X42269976Y-77336666D01*
X42246166Y-77527142D01*
X42189023Y-77679523D01*
X42141404Y-77755714D01*
X42098547Y-77793809D01*
X42017595Y-77831904D01*
X41941404Y-77831904D01*
X41869976Y-77793809D01*
X41836642Y-77755714D01*
X41808071Y-77679523D01*
X41789023Y-77527142D01*
X41812833Y-77336666D01*
X41869976Y-77184285D01*
X41917595Y-77108095D01*
X41960452Y-77070000D01*
X42041404Y-77031904D01*
X42603309Y-77108095D02*
X42646166Y-77070000D01*
X42727119Y-77031904D01*
X42917595Y-77031904D01*
X42989023Y-77070000D01*
X43022357Y-77108095D01*
X43050928Y-77184285D01*
X43041404Y-77260476D01*
X42989023Y-77374761D01*
X42474738Y-77831904D01*
X42969976Y-77831904D01*
X43336642Y-77031904D02*
X43831880Y-77031904D01*
X43527119Y-77336666D01*
X43641404Y-77336666D01*
X43712833Y-77374761D01*
X43746166Y-77412857D01*
X43774738Y-77489047D01*
X43750928Y-77679523D01*
X43703309Y-77755714D01*
X43660452Y-77793809D01*
X43579500Y-77831904D01*
X43350928Y-77831904D01*
X43279500Y-77793809D01*
X43246166Y-77755714D01*
X44608071Y-77527142D02*
X44650928Y-77489047D01*
X44731880Y-77450952D01*
X44874738Y-77527142D01*
X44955690Y-77489047D01*
X44998547Y-77450952D01*
D14*
X26774285Y-74969761D02*
X25917142Y-76255476D01*
X27821904Y-74969761D02*
X26964761Y-76255476D01*
X29250476Y-75493571D02*
X29393333Y-75541190D01*
X29440952Y-75588809D01*
X29488571Y-75684047D01*
X29488571Y-75826904D01*
X29440952Y-75922142D01*
X29393333Y-75969761D01*
X29298095Y-76017380D01*
X28917142Y-76017380D01*
X28917142Y-75017380D01*
X29250476Y-75017380D01*
X29345714Y-75065000D01*
X29393333Y-75112619D01*
X29440952Y-75207857D01*
X29440952Y-75303095D01*
X29393333Y-75398333D01*
X29345714Y-75445952D01*
X29250476Y-75493571D01*
X28917142Y-75493571D01*
X30345714Y-76017380D02*
X30345714Y-75493571D01*
X30298095Y-75398333D01*
X30202857Y-75350714D01*
X30012380Y-75350714D01*
X29917142Y-75398333D01*
X30345714Y-75969761D02*
X30250476Y-76017380D01*
X30012380Y-76017380D01*
X29917142Y-75969761D01*
X29869523Y-75874523D01*
X29869523Y-75779285D01*
X29917142Y-75684047D01*
X30012380Y-75636428D01*
X30250476Y-75636428D01*
X30345714Y-75588809D01*
X31250476Y-75969761D02*
X31155238Y-76017380D01*
X30964761Y-76017380D01*
X30869523Y-75969761D01*
X30821904Y-75922142D01*
X30774285Y-75826904D01*
X30774285Y-75541190D01*
X30821904Y-75445952D01*
X30869523Y-75398333D01*
X30964761Y-75350714D01*
X31155238Y-75350714D01*
X31250476Y-75398333D01*
X31679047Y-76017380D02*
X31679047Y-75017380D01*
X31774285Y-75636428D02*
X32060000Y-76017380D01*
X32060000Y-75350714D02*
X31679047Y-75731666D01*
X33060000Y-76017380D02*
X32726666Y-75541190D01*
X32488571Y-76017380D02*
X32488571Y-75017380D01*
X32869523Y-75017380D01*
X32964761Y-75065000D01*
X33012380Y-75112619D01*
X33060000Y-75207857D01*
X33060000Y-75350714D01*
X33012380Y-75445952D01*
X32964761Y-75493571D01*
X32869523Y-75541190D01*
X32488571Y-75541190D01*
X33631428Y-76017380D02*
X33536190Y-75969761D01*
X33488571Y-75922142D01*
X33440952Y-75826904D01*
X33440952Y-75541190D01*
X33488571Y-75445952D01*
X33536190Y-75398333D01*
X33631428Y-75350714D01*
X33774285Y-75350714D01*
X33869523Y-75398333D01*
X33917142Y-75445952D01*
X33964761Y-75541190D01*
X33964761Y-75826904D01*
X33917142Y-75922142D01*
X33869523Y-75969761D01*
X33774285Y-76017380D01*
X33631428Y-76017380D01*
X34298095Y-75350714D02*
X34488571Y-76017380D01*
X34679047Y-75541190D01*
X34869523Y-76017380D01*
X35060000Y-75350714D01*
X35440952Y-76017380D02*
X35440952Y-75017380D01*
X35821904Y-75017380D01*
X35917142Y-75065000D01*
X35964761Y-75112619D01*
X36012380Y-75207857D01*
X36012380Y-75350714D01*
X35964761Y-75445952D01*
X35917142Y-75493571D01*
X35821904Y-75541190D01*
X35440952Y-75541190D01*
X36869523Y-76017380D02*
X36869523Y-75493571D01*
X36821904Y-75398333D01*
X36726666Y-75350714D01*
X36536190Y-75350714D01*
X36440952Y-75398333D01*
X36869523Y-75969761D02*
X36774285Y-76017380D01*
X36536190Y-76017380D01*
X36440952Y-75969761D01*
X36393333Y-75874523D01*
X36393333Y-75779285D01*
X36440952Y-75684047D01*
X36536190Y-75636428D01*
X36774285Y-75636428D01*
X36869523Y-75588809D01*
X37774285Y-76017380D02*
X37774285Y-75017380D01*
X37774285Y-75969761D02*
X37679047Y-76017380D01*
X37488571Y-76017380D01*
X37393333Y-75969761D01*
X37345714Y-75922142D01*
X37298095Y-75826904D01*
X37298095Y-75541190D01*
X37345714Y-75445952D01*
X37393333Y-75398333D01*
X37488571Y-75350714D01*
X37679047Y-75350714D01*
X37774285Y-75398333D01*
X39012380Y-76017380D02*
X39012380Y-75350714D01*
X39012380Y-75541190D02*
X39060000Y-75445952D01*
X39107619Y-75398333D01*
X39202857Y-75350714D01*
X39298095Y-75350714D01*
X40012380Y-75969761D02*
X39917142Y-76017380D01*
X39726666Y-76017380D01*
X39631428Y-75969761D01*
X39583809Y-75874523D01*
X39583809Y-75493571D01*
X39631428Y-75398333D01*
X39726666Y-75350714D01*
X39917142Y-75350714D01*
X40012380Y-75398333D01*
X40060000Y-75493571D01*
X40060000Y-75588809D01*
X39583809Y-75684047D01*
X40393333Y-75350714D02*
X40631428Y-76017380D01*
X40869523Y-75350714D01*
X41250476Y-75922142D02*
X41298095Y-75969761D01*
X41250476Y-76017380D01*
X41202857Y-75969761D01*
X41250476Y-75922142D01*
X41250476Y-76017380D01*
X42679047Y-75017380D02*
X42774285Y-75017380D01*
X42869523Y-75065000D01*
X42917142Y-75112619D01*
X42964761Y-75207857D01*
X43012380Y-75398333D01*
X43012380Y-75636428D01*
X42964761Y-75826904D01*
X42917142Y-75922142D01*
X42869523Y-75969761D01*
X42774285Y-76017380D01*
X42679047Y-76017380D01*
X42583809Y-75969761D01*
X42536190Y-75922142D01*
X42488571Y-75826904D01*
X42440952Y-75636428D01*
X42440952Y-75398333D01*
X42488571Y-75207857D01*
X42536190Y-75112619D01*
X42583809Y-75065000D01*
X42679047Y-75017380D01*
X43869523Y-74922142D02*
X44726666Y-76207857D01*
X44536190Y-74922142D02*
X45393333Y-76207857D01*
%TO.C,G\u002A\u002A\u002A*%
G36*
X23193739Y-49985941D02*
G01*
X23196463Y-50049781D01*
X23199507Y-50113829D01*
X23202578Y-50172336D01*
X23205380Y-50219551D01*
X23206616Y-50237500D01*
X23212751Y-50320000D01*
X22680000Y-50320000D01*
X22681641Y-50252500D01*
X22682598Y-50219218D01*
X22684178Y-50171087D01*
X22686203Y-50113243D01*
X22688495Y-50050819D01*
X22689954Y-50012519D01*
X22692412Y-49955866D01*
X22695063Y-49906446D01*
X22697684Y-49867606D01*
X22700056Y-49842694D01*
X22701646Y-49835021D01*
X22712633Y-49833358D01*
X22740807Y-49831372D01*
X22783362Y-49829196D01*
X22837488Y-49826962D01*
X22900381Y-49824803D01*
X22946831Y-49823442D01*
X23186998Y-49816883D01*
X23193739Y-49985941D01*
G37*
G36*
X23213879Y-51016035D02*
G01*
X23216275Y-51081954D01*
X23218939Y-51145455D01*
X23221659Y-51202144D01*
X23224225Y-51247626D01*
X23226426Y-51277500D01*
X23232330Y-51340000D01*
X22680000Y-51340000D01*
X22681670Y-51272500D01*
X22682589Y-51239895D01*
X22684080Y-51192185D01*
X22685984Y-51134251D01*
X22688140Y-51070976D01*
X22689838Y-51022665D01*
X22692233Y-50964249D01*
X22694935Y-50912900D01*
X22697721Y-50871897D01*
X22700371Y-50844516D01*
X22702548Y-50834119D01*
X22713856Y-50832206D01*
X22742391Y-50830092D01*
X22785381Y-50827906D01*
X22840056Y-50825771D01*
X22903644Y-50823816D01*
X22957998Y-50822489D01*
X23207238Y-50817070D01*
X23213879Y-51016035D01*
G37*
G36*
X22087981Y-49856279D02*
G01*
X22129667Y-49885151D01*
X22178465Y-49922580D01*
X22229542Y-49964494D01*
X22278067Y-50006821D01*
X22319208Y-50045488D01*
X22345538Y-50073338D01*
X22380000Y-50113599D01*
X22380000Y-50490000D01*
X22307500Y-50489959D01*
X22268019Y-50489399D01*
X22215696Y-50487911D01*
X22157655Y-50485727D01*
X22106506Y-50483365D01*
X21978011Y-50476812D01*
X21981506Y-50313403D01*
X21985000Y-50149995D01*
X21747500Y-50149997D01*
X21510000Y-50150000D01*
X21510155Y-50217500D01*
X21510980Y-50255359D01*
X21513132Y-50308282D01*
X21516324Y-50371398D01*
X21520269Y-50439835D01*
X21524680Y-50508723D01*
X21529270Y-50573190D01*
X21533751Y-50628365D01*
X21535460Y-50646865D01*
X21537306Y-50668892D01*
X21539649Y-50685680D01*
X21544954Y-50698124D01*
X21555684Y-50707114D01*
X21574302Y-50713546D01*
X21603273Y-50718310D01*
X21645060Y-50722301D01*
X21702126Y-50726410D01*
X21767204Y-50730852D01*
X21939408Y-50742816D01*
X21933316Y-50918908D01*
X21931289Y-50975841D01*
X21929421Y-51025249D01*
X21927841Y-51063916D01*
X21926680Y-51088621D01*
X21926113Y-51096255D01*
X21916285Y-51097232D01*
X21889630Y-51099191D01*
X21849282Y-51101921D01*
X21798378Y-51105207D01*
X21740795Y-51108794D01*
X21682450Y-51112488D01*
X21631477Y-51115944D01*
X21591037Y-51118928D01*
X21564290Y-51121208D01*
X21554407Y-51122539D01*
X21553374Y-51132812D01*
X21551784Y-51159985D01*
X21549786Y-51200970D01*
X21547530Y-51252679D01*
X21545164Y-51312025D01*
X21544897Y-51319068D01*
X21537568Y-51513137D01*
X21621284Y-51506722D01*
X21673758Y-51503231D01*
X21734022Y-51500093D01*
X21799097Y-51497368D01*
X21866006Y-51495120D01*
X21931770Y-51493410D01*
X21993409Y-51492300D01*
X22047945Y-51491853D01*
X22092400Y-51492130D01*
X22123794Y-51493194D01*
X22139149Y-51495106D01*
X22140188Y-51495914D01*
X22141493Y-51508551D01*
X22144961Y-51537323D01*
X22150133Y-51578536D01*
X22156549Y-51628497D01*
X22160000Y-51655000D01*
X22166996Y-51710845D01*
X22172918Y-51762631D01*
X22177275Y-51805717D01*
X22179577Y-51835462D01*
X22179813Y-51842500D01*
X22180000Y-51880000D01*
X21857500Y-51879819D01*
X21535000Y-51879639D01*
X21367837Y-51727319D01*
X21200674Y-51575000D01*
X21200292Y-51455000D01*
X21199551Y-51392890D01*
X21197871Y-51323763D01*
X21195539Y-51258043D01*
X21193969Y-51225000D01*
X21188028Y-51115000D01*
X21304014Y-51035486D01*
X21345727Y-51006449D01*
X21380782Y-50981206D01*
X21406209Y-50961961D01*
X21419037Y-50950919D01*
X21420000Y-50949415D01*
X21412947Y-50941029D01*
X21394067Y-50922739D01*
X21366778Y-50897587D01*
X21334497Y-50868613D01*
X21300644Y-50838859D01*
X21268636Y-50811366D01*
X21241892Y-50789176D01*
X21226321Y-50777093D01*
X21220469Y-50770313D01*
X21214733Y-50757387D01*
X21208708Y-50736279D01*
X21201989Y-50704955D01*
X21194171Y-50661380D01*
X21184850Y-50603520D01*
X21173620Y-50529338D01*
X21164065Y-50464271D01*
X21150974Y-50374200D01*
X21140579Y-50301954D01*
X21132676Y-50245568D01*
X21127061Y-50203079D01*
X21123528Y-50172523D01*
X21121873Y-50151937D01*
X21121892Y-50139355D01*
X21123379Y-50132816D01*
X21126130Y-50130353D01*
X21129227Y-50130000D01*
X21138781Y-50123320D01*
X21160418Y-50104613D01*
X21191964Y-50075876D01*
X21231242Y-50039104D01*
X21276077Y-49996295D01*
X21298097Y-49975000D01*
X21457741Y-49820000D01*
X22030961Y-49820000D01*
X22087981Y-49856279D01*
G37*
G36*
X24390613Y-49975611D02*
G01*
X24433475Y-50018951D01*
X24470997Y-50057964D01*
X24501014Y-50090310D01*
X24521362Y-50113648D01*
X24529876Y-50125640D01*
X24530000Y-50126253D01*
X24522039Y-50134339D01*
X24499358Y-50152375D01*
X24463765Y-50179048D01*
X24417068Y-50213044D01*
X24361074Y-50253047D01*
X24297589Y-50297746D01*
X24228422Y-50345824D01*
X24220365Y-50351387D01*
X24150749Y-50399544D01*
X24086603Y-50444168D01*
X24029729Y-50483986D01*
X23981926Y-50517729D01*
X23944995Y-50544122D01*
X23920737Y-50561896D01*
X23910952Y-50569778D01*
X23910836Y-50570000D01*
X23918741Y-50576683D01*
X23941248Y-50593642D01*
X23976622Y-50619618D01*
X24023124Y-50653353D01*
X24079019Y-50693588D01*
X24142570Y-50739066D01*
X24212039Y-50788528D01*
X24235246Y-50805000D01*
X24306287Y-50855585D01*
X24371962Y-50902740D01*
X24430533Y-50945186D01*
X24480257Y-50981645D01*
X24519396Y-51010837D01*
X24546208Y-51031483D01*
X24558952Y-51042304D01*
X24559775Y-51043475D01*
X24553289Y-51053435D01*
X24535369Y-51074764D01*
X24508580Y-51104546D01*
X24475490Y-51139870D01*
X24467255Y-51148475D01*
X24427469Y-51190325D01*
X24387868Y-51232746D01*
X24353057Y-51270760D01*
X24327815Y-51299188D01*
X24301096Y-51328302D01*
X24283039Y-51342826D01*
X24271020Y-51344685D01*
X24268060Y-51342950D01*
X24257200Y-51334140D01*
X24232929Y-51314365D01*
X24197322Y-51285320D01*
X24152453Y-51248696D01*
X24100396Y-51206188D01*
X24043227Y-51159489D01*
X24030000Y-51148682D01*
X23964662Y-51095474D01*
X23897285Y-51040923D01*
X23831450Y-50987907D01*
X23770741Y-50939304D01*
X23718740Y-50897992D01*
X23682985Y-50869920D01*
X23630703Y-50828239D01*
X23593932Y-50796472D01*
X23571498Y-50773505D01*
X23562225Y-50758224D01*
X23561833Y-50755000D01*
X23563150Y-50738385D01*
X23566206Y-50705889D01*
X23570606Y-50661515D01*
X23575958Y-50609266D01*
X23578849Y-50581619D01*
X23595000Y-50428238D01*
X23630472Y-50396619D01*
X23646098Y-50382534D01*
X23674525Y-50356753D01*
X23713784Y-50321067D01*
X23761909Y-50277267D01*
X23816930Y-50227142D01*
X23876881Y-50172485D01*
X23928930Y-50125000D01*
X23991133Y-50068311D01*
X24049768Y-50015022D01*
X24102921Y-49966860D01*
X24148681Y-49925552D01*
X24185135Y-49892825D01*
X24210371Y-49870406D01*
X24221571Y-49860745D01*
X24251226Y-49836491D01*
X24390613Y-49975611D01*
G37*
G36*
X48438359Y-76747500D02*
G01*
X48437402Y-76780782D01*
X48435822Y-76828913D01*
X48433797Y-76886757D01*
X48431505Y-76949181D01*
X48430046Y-76987481D01*
X48427588Y-77044134D01*
X48424937Y-77093554D01*
X48422316Y-77132394D01*
X48419944Y-77157306D01*
X48418354Y-77164979D01*
X48407367Y-77166642D01*
X48379193Y-77168628D01*
X48336638Y-77170804D01*
X48282512Y-77173038D01*
X48219619Y-77175197D01*
X48173169Y-77176558D01*
X47933002Y-77183117D01*
X47926261Y-77014059D01*
X47923537Y-76950219D01*
X47920493Y-76886171D01*
X47917422Y-76827664D01*
X47914620Y-76780449D01*
X47913384Y-76762500D01*
X47907249Y-76680000D01*
X48440000Y-76680000D01*
X48438359Y-76747500D01*
G37*
G36*
X48438330Y-75727500D02*
G01*
X48437411Y-75760105D01*
X48435920Y-75807815D01*
X48434016Y-75865749D01*
X48431860Y-75929024D01*
X48430162Y-75977335D01*
X48427767Y-76035751D01*
X48425065Y-76087100D01*
X48422279Y-76128103D01*
X48419629Y-76155484D01*
X48417452Y-76165881D01*
X48406144Y-76167794D01*
X48377609Y-76169908D01*
X48334619Y-76172094D01*
X48279944Y-76174229D01*
X48216356Y-76176184D01*
X48162002Y-76177511D01*
X47912762Y-76182930D01*
X47906121Y-75983965D01*
X47903725Y-75918046D01*
X47901061Y-75854545D01*
X47898341Y-75797856D01*
X47895775Y-75752374D01*
X47893574Y-75722500D01*
X47887670Y-75660000D01*
X48440000Y-75660000D01*
X48438330Y-75727500D01*
G37*
G36*
X49262500Y-75120181D02*
G01*
X49585000Y-75120361D01*
X49752163Y-75272681D01*
X49919326Y-75425000D01*
X49919708Y-75545000D01*
X49920449Y-75607110D01*
X49922129Y-75676237D01*
X49924461Y-75741957D01*
X49926031Y-75775000D01*
X49931972Y-75885000D01*
X49815986Y-75964514D01*
X49774273Y-75993551D01*
X49739218Y-76018794D01*
X49713791Y-76038039D01*
X49700963Y-76049081D01*
X49700000Y-76050585D01*
X49707053Y-76058971D01*
X49725933Y-76077261D01*
X49753222Y-76102413D01*
X49785503Y-76131387D01*
X49819356Y-76161141D01*
X49851364Y-76188634D01*
X49878108Y-76210824D01*
X49893679Y-76222907D01*
X49899531Y-76229687D01*
X49905267Y-76242613D01*
X49911292Y-76263721D01*
X49918011Y-76295045D01*
X49925829Y-76338620D01*
X49935150Y-76396480D01*
X49946380Y-76470662D01*
X49955935Y-76535729D01*
X49969026Y-76625800D01*
X49979421Y-76698046D01*
X49987324Y-76754432D01*
X49992939Y-76796921D01*
X49996472Y-76827477D01*
X49998127Y-76848063D01*
X49998108Y-76860645D01*
X49996621Y-76867184D01*
X49993870Y-76869647D01*
X49990773Y-76870000D01*
X49981219Y-76876680D01*
X49959582Y-76895387D01*
X49928036Y-76924124D01*
X49888758Y-76960896D01*
X49843923Y-77003705D01*
X49821903Y-77025000D01*
X49662259Y-77180000D01*
X49089039Y-77180000D01*
X49032019Y-77143721D01*
X48990333Y-77114849D01*
X48941535Y-77077420D01*
X48890458Y-77035506D01*
X48841933Y-76993179D01*
X48800792Y-76954512D01*
X48774462Y-76926662D01*
X48740000Y-76886401D01*
X48740000Y-76510000D01*
X48812500Y-76510041D01*
X48851981Y-76510601D01*
X48904304Y-76512089D01*
X48962345Y-76514273D01*
X49013494Y-76516635D01*
X49141989Y-76523188D01*
X49138494Y-76686597D01*
X49135000Y-76850005D01*
X49372500Y-76850003D01*
X49610000Y-76850000D01*
X49609845Y-76782500D01*
X49609020Y-76744641D01*
X49606868Y-76691718D01*
X49603676Y-76628602D01*
X49599731Y-76560165D01*
X49595320Y-76491277D01*
X49590730Y-76426810D01*
X49586249Y-76371635D01*
X49584540Y-76353135D01*
X49582694Y-76331108D01*
X49580351Y-76314320D01*
X49575046Y-76301876D01*
X49564316Y-76292886D01*
X49545698Y-76286454D01*
X49516727Y-76281690D01*
X49474940Y-76277699D01*
X49417874Y-76273590D01*
X49352796Y-76269148D01*
X49180592Y-76257184D01*
X49186684Y-76081092D01*
X49188711Y-76024159D01*
X49190579Y-75974751D01*
X49192159Y-75936084D01*
X49193320Y-75911379D01*
X49193887Y-75903745D01*
X49203715Y-75902768D01*
X49230370Y-75900809D01*
X49270718Y-75898079D01*
X49321622Y-75894793D01*
X49379205Y-75891206D01*
X49437550Y-75887512D01*
X49488523Y-75884056D01*
X49528963Y-75881072D01*
X49555710Y-75878792D01*
X49565593Y-75877461D01*
X49566626Y-75867188D01*
X49568216Y-75840015D01*
X49570214Y-75799030D01*
X49572470Y-75747321D01*
X49574836Y-75687975D01*
X49575103Y-75680932D01*
X49582432Y-75486863D01*
X49498716Y-75493278D01*
X49446242Y-75496769D01*
X49385978Y-75499907D01*
X49320903Y-75502632D01*
X49253994Y-75504880D01*
X49188230Y-75506590D01*
X49126591Y-75507700D01*
X49072055Y-75508147D01*
X49027600Y-75507870D01*
X48996206Y-75506806D01*
X48980851Y-75504894D01*
X48979812Y-75504086D01*
X48978507Y-75491449D01*
X48975039Y-75462677D01*
X48969867Y-75421464D01*
X48963451Y-75371503D01*
X48960000Y-75345000D01*
X48953004Y-75289155D01*
X48947082Y-75237369D01*
X48942725Y-75194283D01*
X48940423Y-75164538D01*
X48940187Y-75157500D01*
X48940000Y-75120000D01*
X49262500Y-75120181D01*
G37*
G36*
X46851940Y-75657050D02*
G01*
X46862800Y-75665860D01*
X46887071Y-75685635D01*
X46922678Y-75714680D01*
X46967547Y-75751304D01*
X47019604Y-75793812D01*
X47076773Y-75840511D01*
X47090000Y-75851318D01*
X47155338Y-75904526D01*
X47222715Y-75959077D01*
X47288550Y-76012093D01*
X47349259Y-76060696D01*
X47401260Y-76102008D01*
X47437015Y-76130080D01*
X47489297Y-76171761D01*
X47526068Y-76203528D01*
X47548502Y-76226495D01*
X47557775Y-76241776D01*
X47558167Y-76245000D01*
X47556850Y-76261615D01*
X47553794Y-76294111D01*
X47549394Y-76338485D01*
X47544042Y-76390734D01*
X47541151Y-76418381D01*
X47525000Y-76571762D01*
X47489528Y-76603381D01*
X47473902Y-76617466D01*
X47445475Y-76643247D01*
X47406216Y-76678933D01*
X47358091Y-76722733D01*
X47303070Y-76772858D01*
X47243119Y-76827515D01*
X47191070Y-76875000D01*
X47128867Y-76931689D01*
X47070232Y-76984978D01*
X47017079Y-77033140D01*
X46971319Y-77074448D01*
X46934865Y-77107175D01*
X46909629Y-77129594D01*
X46898429Y-77139255D01*
X46868774Y-77163509D01*
X46729387Y-77024389D01*
X46686525Y-76981049D01*
X46649003Y-76942036D01*
X46618986Y-76909690D01*
X46598638Y-76886352D01*
X46590124Y-76874360D01*
X46590000Y-76873747D01*
X46597961Y-76865661D01*
X46620642Y-76847625D01*
X46656235Y-76820952D01*
X46702932Y-76786956D01*
X46758926Y-76746953D01*
X46822411Y-76702254D01*
X46891578Y-76654176D01*
X46899635Y-76648613D01*
X46969251Y-76600456D01*
X47033397Y-76555832D01*
X47090271Y-76516014D01*
X47138074Y-76482271D01*
X47175005Y-76455878D01*
X47199263Y-76438104D01*
X47209048Y-76430222D01*
X47209164Y-76430000D01*
X47201259Y-76423317D01*
X47178752Y-76406358D01*
X47143378Y-76380382D01*
X47096876Y-76346647D01*
X47040981Y-76306412D01*
X46977430Y-76260934D01*
X46907961Y-76211472D01*
X46884754Y-76195000D01*
X46813713Y-76144415D01*
X46748038Y-76097260D01*
X46689467Y-76054814D01*
X46639743Y-76018355D01*
X46600604Y-75989163D01*
X46573792Y-75968517D01*
X46561048Y-75957696D01*
X46560225Y-75956525D01*
X46566711Y-75946565D01*
X46584631Y-75925236D01*
X46611420Y-75895454D01*
X46644510Y-75860130D01*
X46652745Y-75851525D01*
X46692531Y-75809675D01*
X46732132Y-75767254D01*
X46766943Y-75729240D01*
X46792185Y-75700812D01*
X46818904Y-75671698D01*
X46836961Y-75657174D01*
X46848980Y-75655315D01*
X46851940Y-75657050D01*
G37*
G36*
X48438359Y-51347500D02*
G01*
X48437402Y-51380782D01*
X48435822Y-51428913D01*
X48433797Y-51486757D01*
X48431505Y-51549181D01*
X48430046Y-51587481D01*
X48427588Y-51644134D01*
X48424937Y-51693554D01*
X48422316Y-51732394D01*
X48419944Y-51757306D01*
X48418354Y-51764979D01*
X48407367Y-51766642D01*
X48379193Y-51768628D01*
X48336638Y-51770804D01*
X48282512Y-51773038D01*
X48219619Y-51775197D01*
X48173169Y-51776558D01*
X47933002Y-51783117D01*
X47926261Y-51614059D01*
X47923537Y-51550219D01*
X47920493Y-51486171D01*
X47917422Y-51427664D01*
X47914620Y-51380449D01*
X47913384Y-51362500D01*
X47907249Y-51280000D01*
X48440000Y-51280000D01*
X48438359Y-51347500D01*
G37*
G36*
X48438330Y-50327500D02*
G01*
X48437411Y-50360105D01*
X48435920Y-50407815D01*
X48434016Y-50465749D01*
X48431860Y-50529024D01*
X48430162Y-50577335D01*
X48427767Y-50635751D01*
X48425065Y-50687100D01*
X48422279Y-50728103D01*
X48419629Y-50755484D01*
X48417452Y-50765881D01*
X48406144Y-50767794D01*
X48377609Y-50769908D01*
X48334619Y-50772094D01*
X48279944Y-50774229D01*
X48216356Y-50776184D01*
X48162002Y-50777511D01*
X47912762Y-50782930D01*
X47906121Y-50583965D01*
X47903725Y-50518046D01*
X47901061Y-50454545D01*
X47898341Y-50397856D01*
X47895775Y-50352374D01*
X47893574Y-50322500D01*
X47887670Y-50260000D01*
X48440000Y-50260000D01*
X48438330Y-50327500D01*
G37*
G36*
X49262500Y-49720181D02*
G01*
X49585000Y-49720361D01*
X49752163Y-49872681D01*
X49919326Y-50025000D01*
X49919708Y-50145000D01*
X49920449Y-50207110D01*
X49922129Y-50276237D01*
X49924461Y-50341957D01*
X49926031Y-50375000D01*
X49931972Y-50485000D01*
X49815986Y-50564514D01*
X49774273Y-50593551D01*
X49739218Y-50618794D01*
X49713791Y-50638039D01*
X49700963Y-50649081D01*
X49700000Y-50650585D01*
X49707053Y-50658971D01*
X49725933Y-50677261D01*
X49753222Y-50702413D01*
X49785503Y-50731387D01*
X49819356Y-50761141D01*
X49851364Y-50788634D01*
X49878108Y-50810824D01*
X49893679Y-50822907D01*
X49899531Y-50829687D01*
X49905267Y-50842613D01*
X49911292Y-50863721D01*
X49918011Y-50895045D01*
X49925829Y-50938620D01*
X49935150Y-50996480D01*
X49946380Y-51070662D01*
X49955935Y-51135729D01*
X49969026Y-51225800D01*
X49979421Y-51298046D01*
X49987324Y-51354432D01*
X49992939Y-51396921D01*
X49996472Y-51427477D01*
X49998127Y-51448063D01*
X49998108Y-51460645D01*
X49996621Y-51467184D01*
X49993870Y-51469647D01*
X49990773Y-51470000D01*
X49981219Y-51476680D01*
X49959582Y-51495387D01*
X49928036Y-51524124D01*
X49888758Y-51560896D01*
X49843923Y-51603705D01*
X49821903Y-51625000D01*
X49662259Y-51780000D01*
X49089039Y-51780000D01*
X49032019Y-51743721D01*
X48990333Y-51714849D01*
X48941535Y-51677420D01*
X48890458Y-51635506D01*
X48841933Y-51593179D01*
X48800792Y-51554512D01*
X48774462Y-51526662D01*
X48740000Y-51486401D01*
X48740000Y-51110000D01*
X48812500Y-51110041D01*
X48851981Y-51110601D01*
X48904304Y-51112089D01*
X48962345Y-51114273D01*
X49013494Y-51116635D01*
X49141989Y-51123188D01*
X49138494Y-51286597D01*
X49135000Y-51450005D01*
X49372500Y-51450003D01*
X49610000Y-51450000D01*
X49609845Y-51382500D01*
X49609020Y-51344641D01*
X49606868Y-51291718D01*
X49603676Y-51228602D01*
X49599731Y-51160165D01*
X49595320Y-51091277D01*
X49590730Y-51026810D01*
X49586249Y-50971635D01*
X49584540Y-50953135D01*
X49582694Y-50931108D01*
X49580351Y-50914320D01*
X49575046Y-50901876D01*
X49564316Y-50892886D01*
X49545698Y-50886454D01*
X49516727Y-50881690D01*
X49474940Y-50877699D01*
X49417874Y-50873590D01*
X49352796Y-50869148D01*
X49180592Y-50857184D01*
X49186684Y-50681092D01*
X49188711Y-50624159D01*
X49190579Y-50574751D01*
X49192159Y-50536084D01*
X49193320Y-50511379D01*
X49193887Y-50503745D01*
X49203715Y-50502768D01*
X49230370Y-50500809D01*
X49270718Y-50498079D01*
X49321622Y-50494793D01*
X49379205Y-50491206D01*
X49437550Y-50487512D01*
X49488523Y-50484056D01*
X49528963Y-50481072D01*
X49555710Y-50478792D01*
X49565593Y-50477461D01*
X49566626Y-50467188D01*
X49568216Y-50440015D01*
X49570214Y-50399030D01*
X49572470Y-50347321D01*
X49574836Y-50287975D01*
X49575103Y-50280932D01*
X49582432Y-50086863D01*
X49498716Y-50093278D01*
X49446242Y-50096769D01*
X49385978Y-50099907D01*
X49320903Y-50102632D01*
X49253994Y-50104880D01*
X49188230Y-50106590D01*
X49126591Y-50107700D01*
X49072055Y-50108147D01*
X49027600Y-50107870D01*
X48996206Y-50106806D01*
X48980851Y-50104894D01*
X48979812Y-50104086D01*
X48978507Y-50091449D01*
X48975039Y-50062677D01*
X48969867Y-50021464D01*
X48963451Y-49971503D01*
X48960000Y-49945000D01*
X48953004Y-49889155D01*
X48947082Y-49837369D01*
X48942725Y-49794283D01*
X48940423Y-49764538D01*
X48940187Y-49757500D01*
X48940000Y-49720000D01*
X49262500Y-49720181D01*
G37*
G36*
X46851940Y-50257050D02*
G01*
X46862800Y-50265860D01*
X46887071Y-50285635D01*
X46922678Y-50314680D01*
X46967547Y-50351304D01*
X47019604Y-50393812D01*
X47076773Y-50440511D01*
X47090000Y-50451318D01*
X47155338Y-50504526D01*
X47222715Y-50559077D01*
X47288550Y-50612093D01*
X47349259Y-50660696D01*
X47401260Y-50702008D01*
X47437015Y-50730080D01*
X47489297Y-50771761D01*
X47526068Y-50803528D01*
X47548502Y-50826495D01*
X47557775Y-50841776D01*
X47558167Y-50845000D01*
X47556850Y-50861615D01*
X47553794Y-50894111D01*
X47549394Y-50938485D01*
X47544042Y-50990734D01*
X47541151Y-51018381D01*
X47525000Y-51171762D01*
X47489528Y-51203381D01*
X47473902Y-51217466D01*
X47445475Y-51243247D01*
X47406216Y-51278933D01*
X47358091Y-51322733D01*
X47303070Y-51372858D01*
X47243119Y-51427515D01*
X47191070Y-51475000D01*
X47128867Y-51531689D01*
X47070232Y-51584978D01*
X47017079Y-51633140D01*
X46971319Y-51674448D01*
X46934865Y-51707175D01*
X46909629Y-51729594D01*
X46898429Y-51739255D01*
X46868774Y-51763509D01*
X46729387Y-51624389D01*
X46686525Y-51581049D01*
X46649003Y-51542036D01*
X46618986Y-51509690D01*
X46598638Y-51486352D01*
X46590124Y-51474360D01*
X46590000Y-51473747D01*
X46597961Y-51465661D01*
X46620642Y-51447625D01*
X46656235Y-51420952D01*
X46702932Y-51386956D01*
X46758926Y-51346953D01*
X46822411Y-51302254D01*
X46891578Y-51254176D01*
X46899635Y-51248613D01*
X46969251Y-51200456D01*
X47033397Y-51155832D01*
X47090271Y-51116014D01*
X47138074Y-51082271D01*
X47175005Y-51055878D01*
X47199263Y-51038104D01*
X47209048Y-51030222D01*
X47209164Y-51030000D01*
X47201259Y-51023317D01*
X47178752Y-51006358D01*
X47143378Y-50980382D01*
X47096876Y-50946647D01*
X47040981Y-50906412D01*
X46977430Y-50860934D01*
X46907961Y-50811472D01*
X46884754Y-50795000D01*
X46813713Y-50744415D01*
X46748038Y-50697260D01*
X46689467Y-50654814D01*
X46639743Y-50618355D01*
X46600604Y-50589163D01*
X46573792Y-50568517D01*
X46561048Y-50557696D01*
X46560225Y-50556525D01*
X46566711Y-50546565D01*
X46584631Y-50525236D01*
X46611420Y-50495454D01*
X46644510Y-50460130D01*
X46652745Y-50451525D01*
X46692531Y-50409675D01*
X46732132Y-50367254D01*
X46766943Y-50329240D01*
X46792185Y-50300812D01*
X46818904Y-50271698D01*
X46836961Y-50257174D01*
X46848980Y-50255315D01*
X46851940Y-50257050D01*
G37*
G36*
X23193739Y-75385941D02*
G01*
X23196463Y-75449781D01*
X23199507Y-75513829D01*
X23202578Y-75572336D01*
X23205380Y-75619551D01*
X23206616Y-75637500D01*
X23212751Y-75720000D01*
X22680000Y-75720000D01*
X22681641Y-75652500D01*
X22682598Y-75619218D01*
X22684178Y-75571087D01*
X22686203Y-75513243D01*
X22688495Y-75450819D01*
X22689954Y-75412519D01*
X22692412Y-75355866D01*
X22695063Y-75306446D01*
X22697684Y-75267606D01*
X22700056Y-75242694D01*
X22701646Y-75235021D01*
X22712633Y-75233358D01*
X22740807Y-75231372D01*
X22783362Y-75229196D01*
X22837488Y-75226962D01*
X22900381Y-75224803D01*
X22946831Y-75223442D01*
X23186998Y-75216883D01*
X23193739Y-75385941D01*
G37*
G36*
X23213879Y-76416035D02*
G01*
X23216275Y-76481954D01*
X23218939Y-76545455D01*
X23221659Y-76602144D01*
X23224225Y-76647626D01*
X23226426Y-76677500D01*
X23232330Y-76740000D01*
X22680000Y-76740000D01*
X22681670Y-76672500D01*
X22682589Y-76639895D01*
X22684080Y-76592185D01*
X22685984Y-76534251D01*
X22688140Y-76470976D01*
X22689838Y-76422665D01*
X22692233Y-76364249D01*
X22694935Y-76312900D01*
X22697721Y-76271897D01*
X22700371Y-76244516D01*
X22702548Y-76234119D01*
X22713856Y-76232206D01*
X22742391Y-76230092D01*
X22785381Y-76227906D01*
X22840056Y-76225771D01*
X22903644Y-76223816D01*
X22957998Y-76222489D01*
X23207238Y-76217070D01*
X23213879Y-76416035D01*
G37*
G36*
X22087981Y-75256279D02*
G01*
X22129667Y-75285151D01*
X22178465Y-75322580D01*
X22229542Y-75364494D01*
X22278067Y-75406821D01*
X22319208Y-75445488D01*
X22345538Y-75473338D01*
X22380000Y-75513599D01*
X22380000Y-75890000D01*
X22307500Y-75889959D01*
X22268019Y-75889399D01*
X22215696Y-75887911D01*
X22157655Y-75885727D01*
X22106506Y-75883365D01*
X21978011Y-75876812D01*
X21981506Y-75713403D01*
X21985000Y-75549995D01*
X21747500Y-75549997D01*
X21510000Y-75550000D01*
X21510155Y-75617500D01*
X21510980Y-75655359D01*
X21513132Y-75708282D01*
X21516324Y-75771398D01*
X21520269Y-75839835D01*
X21524680Y-75908723D01*
X21529270Y-75973190D01*
X21533751Y-76028365D01*
X21535460Y-76046865D01*
X21537306Y-76068892D01*
X21539649Y-76085680D01*
X21544954Y-76098124D01*
X21555684Y-76107114D01*
X21574302Y-76113546D01*
X21603273Y-76118310D01*
X21645060Y-76122301D01*
X21702126Y-76126410D01*
X21767204Y-76130852D01*
X21939408Y-76142816D01*
X21933316Y-76318908D01*
X21931289Y-76375841D01*
X21929421Y-76425249D01*
X21927841Y-76463916D01*
X21926680Y-76488621D01*
X21926113Y-76496255D01*
X21916285Y-76497232D01*
X21889630Y-76499191D01*
X21849282Y-76501921D01*
X21798378Y-76505207D01*
X21740795Y-76508794D01*
X21682450Y-76512488D01*
X21631477Y-76515944D01*
X21591037Y-76518928D01*
X21564290Y-76521208D01*
X21554407Y-76522539D01*
X21553374Y-76532812D01*
X21551784Y-76559985D01*
X21549786Y-76600970D01*
X21547530Y-76652679D01*
X21545164Y-76712025D01*
X21544897Y-76719068D01*
X21537568Y-76913137D01*
X21621284Y-76906722D01*
X21673758Y-76903231D01*
X21734022Y-76900093D01*
X21799097Y-76897368D01*
X21866006Y-76895120D01*
X21931770Y-76893410D01*
X21993409Y-76892300D01*
X22047945Y-76891853D01*
X22092400Y-76892130D01*
X22123794Y-76893194D01*
X22139149Y-76895106D01*
X22140188Y-76895914D01*
X22141493Y-76908551D01*
X22144961Y-76937323D01*
X22150133Y-76978536D01*
X22156549Y-77028497D01*
X22160000Y-77055000D01*
X22166996Y-77110845D01*
X22172918Y-77162631D01*
X22177275Y-77205717D01*
X22179577Y-77235462D01*
X22179813Y-77242500D01*
X22180000Y-77280000D01*
X21857500Y-77279819D01*
X21535000Y-77279639D01*
X21367837Y-77127319D01*
X21200674Y-76975000D01*
X21200292Y-76855000D01*
X21199551Y-76792890D01*
X21197871Y-76723763D01*
X21195539Y-76658043D01*
X21193969Y-76625000D01*
X21188028Y-76515000D01*
X21304014Y-76435486D01*
X21345727Y-76406449D01*
X21380782Y-76381206D01*
X21406209Y-76361961D01*
X21419037Y-76350919D01*
X21420000Y-76349415D01*
X21412947Y-76341029D01*
X21394067Y-76322739D01*
X21366778Y-76297587D01*
X21334497Y-76268613D01*
X21300644Y-76238859D01*
X21268636Y-76211366D01*
X21241892Y-76189176D01*
X21226321Y-76177093D01*
X21220469Y-76170313D01*
X21214733Y-76157387D01*
X21208708Y-76136279D01*
X21201989Y-76104955D01*
X21194171Y-76061380D01*
X21184850Y-76003520D01*
X21173620Y-75929338D01*
X21164065Y-75864271D01*
X21150974Y-75774200D01*
X21140579Y-75701954D01*
X21132676Y-75645568D01*
X21127061Y-75603079D01*
X21123528Y-75572523D01*
X21121873Y-75551937D01*
X21121892Y-75539355D01*
X21123379Y-75532816D01*
X21126130Y-75530353D01*
X21129227Y-75530000D01*
X21138781Y-75523320D01*
X21160418Y-75504613D01*
X21191964Y-75475876D01*
X21231242Y-75439104D01*
X21276077Y-75396295D01*
X21298097Y-75375000D01*
X21457741Y-75220000D01*
X22030961Y-75220000D01*
X22087981Y-75256279D01*
G37*
G36*
X24390613Y-75375611D02*
G01*
X24433475Y-75418951D01*
X24470997Y-75457964D01*
X24501014Y-75490310D01*
X24521362Y-75513648D01*
X24529876Y-75525640D01*
X24530000Y-75526253D01*
X24522039Y-75534339D01*
X24499358Y-75552375D01*
X24463765Y-75579048D01*
X24417068Y-75613044D01*
X24361074Y-75653047D01*
X24297589Y-75697746D01*
X24228422Y-75745824D01*
X24220365Y-75751387D01*
X24150749Y-75799544D01*
X24086603Y-75844168D01*
X24029729Y-75883986D01*
X23981926Y-75917729D01*
X23944995Y-75944122D01*
X23920737Y-75961896D01*
X23910952Y-75969778D01*
X23910836Y-75970000D01*
X23918741Y-75976683D01*
X23941248Y-75993642D01*
X23976622Y-76019618D01*
X24023124Y-76053353D01*
X24079019Y-76093588D01*
X24142570Y-76139066D01*
X24212039Y-76188528D01*
X24235246Y-76205000D01*
X24306287Y-76255585D01*
X24371962Y-76302740D01*
X24430533Y-76345186D01*
X24480257Y-76381645D01*
X24519396Y-76410837D01*
X24546208Y-76431483D01*
X24558952Y-76442304D01*
X24559775Y-76443475D01*
X24553289Y-76453435D01*
X24535369Y-76474764D01*
X24508580Y-76504546D01*
X24475490Y-76539870D01*
X24467255Y-76548475D01*
X24427469Y-76590325D01*
X24387868Y-76632746D01*
X24353057Y-76670760D01*
X24327815Y-76699188D01*
X24301096Y-76728302D01*
X24283039Y-76742826D01*
X24271020Y-76744685D01*
X24268060Y-76742950D01*
X24257200Y-76734140D01*
X24232929Y-76714365D01*
X24197322Y-76685320D01*
X24152453Y-76648696D01*
X24100396Y-76606188D01*
X24043227Y-76559489D01*
X24030000Y-76548682D01*
X23964662Y-76495474D01*
X23897285Y-76440923D01*
X23831450Y-76387907D01*
X23770741Y-76339304D01*
X23718740Y-76297992D01*
X23682985Y-76269920D01*
X23630703Y-76228239D01*
X23593932Y-76196472D01*
X23571498Y-76173505D01*
X23562225Y-76158224D01*
X23561833Y-76155000D01*
X23563150Y-76138385D01*
X23566206Y-76105889D01*
X23570606Y-76061515D01*
X23575958Y-76009266D01*
X23578849Y-75981619D01*
X23595000Y-75828238D01*
X23630472Y-75796619D01*
X23646098Y-75782534D01*
X23674525Y-75756753D01*
X23713784Y-75721067D01*
X23761909Y-75677267D01*
X23816930Y-75627142D01*
X23876881Y-75572485D01*
X23928930Y-75525000D01*
X23991133Y-75468311D01*
X24049768Y-75415022D01*
X24102921Y-75366860D01*
X24148681Y-75325552D01*
X24185135Y-75292825D01*
X24210371Y-75270406D01*
X24221571Y-75260745D01*
X24251226Y-75236491D01*
X24390613Y-75375611D01*
G37*
%TD*%
M02*
